<svg id="Capa_1" data-name="Capa 1" xmlns="http://www.w3.org/2000/svg" viewBox="0 0 292.73 388.31"><defs><style>.cls-1{fill:#050006;}.cls-2{fill:#52a495;}.cls-3{fill:#e4b387;}.cls-4{fill:#201f20;}.cls-5{fill:#c291bb;}.cls-6{fill:#fefffe;}.cls-7{fill:#e3b286;}.cls-8{fill:#060007;}.cls-9{fill:#050007;}.cls-10{fill:#dfaf83;}.cls-11{fill:#5d7d84;}.cls-12{fill:#bc936d;}.cls-13{fill:#574333;}.cls-14{fill:#352b3f;}.cls-15{fill:#725e88;}.cls-16{fill:#5d4b6e;}.cls-17{fill:#070308;}.cls-18{fill:#080409;}.cls-19{fill:#0a080b;}.cls-20{fill:#090609;}</style></defs><g id="footer-girl"><path id="Trazado_710" data-name="Trazado 710" class="cls-1" d="M187.35,164.78l1.76.33a.93.93,0,0,0,.11,1.14,20,20,0,0,0,11-9.84,2.44,2.44,0,0,1,2.74-1.53c5.14.18,9-2.56,12.21-6.22,4.51-5.12,7.43-10.92,6.83-18-.08-.92.44-1.27.93-1.81a17,17,0,0,0,4.34-14.25,3.38,3.38,0,0,1,.73-2.86,9.58,9.58,0,0,0,2.16-8.67c-.13-.53-.49-1,.27-1.47,6.65-4,9.19-10.27,9.4-17.7.07-2.45.52-4.83.83-7.24,1.62-12.75-.56-24.38-10.39-33.63-1-1-1.92-2-2.86-3a1.2,1.2,0,0,1-.16-1.69,1.37,1.37,0,0,1,.25-.23,1.14,1.14,0,0,1,1.72.23c1.68,1.78,3.44,3.5,5,5.37a3.25,3.25,0,0,0,3.62,1.23,22.8,22.8,0,0,0,5-2c3.87-2,3.47-6.94,1.55-9.06a2.31,2.31,0,0,1-.44-3.08c2.75-6,.38-11.77-5.77-14.07-1.27-.49-1.26-1.2-1.37-2.18-.49-4.68-2.69-7.54-6.32-8.31a3.4,3.4,0,0,0-1.92-.13c-2.25,1.1-3.26-.19-4.63-1.75-4.37-5-10.66-5.65-16.35-2a1.52,1.52,0,0,1-2.15,0l-.09-.09c-3.73-3.11-6.77-3-10.46.11-.52.45-.83,1.31-2,.65-7.08-4-12.26-2.65-15.93,4.45-.94,1.8-1.87,2.11-3.7,2-12.22-.92-23.09,2-31.92,11.11-1.51,1.55-3.68,2.41-5.22,4-.77.81-1.34,0-1.92-.27a38.5,38.5,0,0,0-13.24-4.09c-3.28-.41-4.39.58-4.81,3.82-.65,5,.49,9.58,2.42,14,.55,1.27.37,2.3-.65,3-3.09,2-3.79,5.35-4.6,8.57s-1.41,6.19-2,9.32c-.19.92-.9,1.32-1.41,1.92-3.09,3.75-5.27,7.85-5,12.89a8.54,8.54,0,0,0,2.94,6.49,2.9,2.9,0,0,0,2,.92c2.45-.11,2.88,1.24,2.45,3.26-1,4.65-1,9.41-1.55,14.11-.16,1.47-.59,2-2.26,1.84a36.18,36.18,0,0,0-13.1,1.13,2.43,2.43,0,0,0-2,1.85,2.2,2.2,0,0,0,1.06,2.53c1.43.85,1.47,2.19,1.92,3.64,1.56,5.21,1,10.85,3.27,15.89.78,1.72,1.44,3.57,2.81,4.83,2.14,2,2.51,4.36,3,7,3.43,18.93,12.7,33.68,30.7,42,1.36.63,2,1.08,1.42,2.83-.85,2.46-.54,5.65-2.39,7.31s-4.81,1-7.29,1.47c-10.58,1.89-20.71,5-30.06,10.46A38,38,0,0,0,79.84,223.9c-5.8,18.95-11,38.08-16.6,57-.21.7-.44,1.38-.68,2.16-1.89-5.09-3.46-19.42-3-25.29.49-6.42,1.36-12.83.78-19.31-.4-4.46-2.19-7.85-6.32-10-4.41-2.33-8.92-4-14-3.11-1.57.27-2.79-.78-4-1.47-6.34-3.51-12.64-7.11-19-10.63a37.66,37.66,0,0,0-8.61-3.43,9.78,9.78,0,0,0-2.15-.37c-2.1-.08-4.18.12-5.5,2s-.41,3.92.54,5.74a18.49,18.49,0,0,0,7,7c3.32,2.06,6.72,4,10.2,6.05-1.86,1-3.72,1.88-5,3.51a14.09,14.09,0,0,0-1.22,1.82c-1.06,1.9.34,4,0,5.54s-2.45,3-2.09,5.11a5.72,5.72,0,0,1-.82,3.87,7.12,7.12,0,0,0,2.85,9.45,1.69,1.69,0,0,1,1,1.47c.55,4.81,3.33,8.34,7.77,9.4,6.69,1.61,9.74,6,11.87,12a105,105,0,0,1,5.5,28.24,2,2,0,0,1-1.29,2.24c-2.25,1.18-4,2.87-4.33,5.56a3.44,3.44,0,0,0,.31,2.14c4.12,6.23,4.33,13.58,5.68,20.55a76.49,76.49,0,0,0,13.56,30.32c4.1,5.7,10.3,7.16,16.94,6.94a30,30,0,0,0,17-5.81c.41,2.24-.29,4.41.74,6.35.27.43.69,1,1.11.83,2-.85,4.5-1,6.1-2.68a3.26,3.26,0,0,0-.39-4.6,3.36,3.36,0,0,0-.43-.31,3.26,3.26,0,0,1-1.83-3.83,76.11,76.11,0,0,0,.46-11.49c0-2,.52-3.44,2.64-4.14,1.66-.54,2.26-2,2.22-3.72s-.72-3.12-2.37-3.64-2-1.54-2-3.1c.06-3.6,0-7.19,0-10.79a459.74,459.74,0,0,0-3-53.5,22.3,22.3,0,0,0-1-4.78c-.15-.43-.31-1-.93-.94s-.63.69-.73,1.15a9.22,9.22,0,0,0-.12,2c0,11.28-.37,22.56.12,33.84.4,9.4.36,18.78.31,28.17,0,8.15-.19,16.32-1,24.44-.31,3.26-2.82,5.39-5.35,6.9A22.31,22.31,0,0,1,63,371.26c-4.15-1.1-6.55-4.42-8.69-7.85-.75-1.22.42-1.26,1-1.66a2.9,2.9,0,0,0,1.23-3.93,2.87,2.87,0,0,0-.83-1,2.28,2.28,0,0,0-2.94-.31c-1.74,1.28-2.45.25-3.11-1.15a78.63,78.63,0,0,1-4.52-11.89c-2-6.49-2.74-13.31-5.6-19.53-.63-1.37.37-1.68,1.35-2a45.89,45.89,0,0,0,14.24-8A34.58,34.58,0,0,0,66,297.4c3.21,9.42,7.11,18.39,10.9,27.42a43.37,43.37,0,0,1,1.84,5.58,27.88,27.88,0,0,0,1.8,4.81c.45.92,1.1,1.72,2.26,1.51s1.43-1.19,1.57-2.22c.52-4-.56-7.81-2.22-11.4C78.42,315,75,306.64,71,298.58a18.54,18.54,0,0,0-3.46-5.32c-1.52-1.46-1.47-2.85-1-4.65,3-12.39,6.44-24.66,10-36.89,2.35-8,4.67-16,6.83-24,3.28-12.19,11-20.54,22.51-25.51q5.07-2.16,10.26-4c.95-.35,2.12-1.28,2.94-.53s0,2-.33,2.94c-.49,1.81-1.23,3.55-1.69,5.4a8.91,8.91,0,0,1-.49,1.82,10.16,10.16,0,0,1-.77,1.72c-4.5,9.7-9,19.4-11.31,29.91a32,32,0,0,0,2.1,20.84c2.42,5.15,1.84,9.54-1.06,14.29-4.17,6.83-5.4,14.41-4.48,22.39,1.47,13.24,5,26.13,7.67,39.14.19.62.42,1.23.58,1.86a6.88,6.88,0,0,1,.28,2c1.56,9.19,3.92,18.21,5.78,27.33.62,2.95,1.14,5.94,2,8.86a8.79,8.79,0,0,0,.93,2.52,2.4,2.4,0,0,0,2.88,1.3c1.29-.41,1.47-1.47,1.34-2.58-.21-2-.66-4-1.06-6-4.11-20.43-9-40.71-13.06-61.13-1.23-6.23-2.74-12.44-2.81-18.88a27.87,27.87,0,0,1,3.71-13.8,37.63,37.63,0,0,0,2.53-5.56c1.22-3.44,1.55-6.85,0-10.28-.33-.74-.49-1.56-.85-2.29-4.06-8.6-3.29-17.31-.65-26.07,2-6.51,4.79-12.68,7.28-19a87.61,87.61,0,0,0,4.86-15.92,5.13,5.13,0,0,1,5-4.07c1.44,0,1,1.07.89,1.78-.62,5.27-1.31,10.53-1.82,15.82-.81,8.45-1.36,16.92-1.91,25.38-1.15,17.55-1.09,35.1-.81,52.66.17,10.59.55,21.2,1.23,31.79.44,6.84.73,13.69,1.15,20.53.36,5.78.84,11.56,1.23,17.34.33,5,.6,9.93.68,14.91,0,2.55.43,5,.69,7.56a3.47,3.47,0,0,0,1.11,2.39c1.55,2.39,3.53,3.39,6.58,3.41,12.26.08,24.5-.11,36.74.43,3.31.15,6.51-.46,9.12-2.8,1.41-.83,1.73-2.33,2.15-3.72,1.64-5.43,2-11.07,2.81-16.65,1.31-9.46,2.81-18.9,4.14-28.36,2.21-15.69,4.22-31.39,5.85-47.15,1.18-11.45,2.07-22.92,2.75-34.39.84-14.19.92-28.41.49-42.61-.26-8.3-.61-16.63-1.67-24.89-.09-.72-.31-1.59.41-2s1.42,0,2.09.34a8.55,8.55,0,0,1,3.81,3.69,16.06,16.06,0,0,1,2.1,6.49c.8,9.84,4.31,18.91,7.81,28a69.05,69.05,0,0,1,3.93,14.9,22.82,22.82,0,0,1-2.13,13.33c-1.62,3.48-3.43,6.87-4.9,10.43a20.59,20.59,0,0,0-1.8,10.75,12.77,12.77,0,0,0,2.79,6.7c3.05,3.54,3.83,7.47,2.78,12.09-3.1,13.62-6.54,27.15-10.69,40.5-4.41,14.22-9.37,28.21-14.11,42.31a12.78,12.78,0,0,0-.9,3.55c0,.93.06,1.89,1,2.32s1.74-.19,2.35-.89a11.64,11.64,0,0,0,2.17-3.81,8,8,0,0,1,1-2.12,208.77,208.77,0,0,0,8.5-23c.57-1.74,1.2-2.86,3.35-3.22a4.18,4.18,0,0,0,3.59-4.69,4.23,4.23,0,0,0-1.41-2.61,3.33,3.33,0,0,1-.93-3.89c3.82-13,7.29-26.13,10.26-39.36.49-2.23.94-4.47,1.38-6.72a14.08,14.08,0,0,0-3.18-12.35,11.09,11.09,0,0,1-2.26-10.79,65.67,65.67,0,0,1,4.74-11.28c2.14-4.27,3.86-8.67,3.92-13.53,0-1,.49-.93,1.17-1.08,2.52-.58,3.86-2.12,3.72-4.13s-1.59-3.25-4.31-3.37c-1.07-.05-1.7-.37-2-1.41-1.73-7.36-5-14.18-7.68-21.18-2.45-6.32-2.87-13.07-4.52-19.9,1.58.8,2.91,1.67,4.35,2.31,1.1.49.94,1.38.79,2.3-.25,1.63.21,2.94,1.88,3.54s3.3.45,4.2-1.36c.69-1.38,1.64-1.27,2.86-.89,8.57,2.69,16.67,6.28,23.49,12.29A47.21,47.21,0,0,1,258.11,222a158,158,0,0,1,8.66,18.39c.41,1,.44,1.51-.74,2-2.09.95-2.76,2.46-2.16,4.06s2.34,2.42,4.46,1.68c1.2-.41,1.62,0,2,1C276,263,281.21,277,284.16,291.76a2.68,2.68,0,0,1-1.17,3.11c-2.85,2.1-2.27,5.63,1.13,6.78a2.74,2.74,0,0,1,2,2.62c1.47,10.88,1.5,21.82,1.4,32.77,0,1.47,0,2.94,0,4.41.06,1.64,0,3.06-2,3.57-1.14.28-1.47,1.47-1.44,2.59a2.16,2.16,0,0,0,1.53,2.28c2,.39,2,1.75,2,3.29,0,9.23-.82,18.44-.53,27.68a26,26,0,0,0,.58,5.56,1.89,1.89,0,0,0,2.2,1.5,1.17,1.17,0,0,0,.25-.07c1.21-.28,1.56-1.23,1.59-2.42.54-23.35,1.87-46.71.39-70.05-1.31-20.93-6.61-41-14.35-60.41-3.67-9.22-7.71-18.3-11.68-27.4-7.27-16.64-20.11-26.88-37.19-32.28-6.13-2-12.22-4-18.34-6a6.15,6.15,0,0,1-2.85-1.74c-3.33-3.66-7.1-6.34-12.45-4.85-1.22.34-1.33-.66-1.69-1.3a84.31,84.31,0,0,1-4.8-11.74c-.78-2.13-1.93-2.66-3.9-1.72-1.71.66-1.76,2.1-1.31,3.43,2,6.29,4.61,12.26,10.33,16.19a3.68,3.68,0,0,1,1.77,3.87,75.45,75.45,0,0,0-.67,9.26,5.06,5.06,0,0,1-1.79,4.11,32.63,32.63,0,0,1-12.4,7.18c-6.53,2.1-13,4.48-20,4.11-11.25-.58-19.62-5.88-25.1-15.74-1-1.72-1-3,.55-4.53a15.18,15.18,0,0,0,4.17-11.17c0-3.64,0-3,3-2.55,10.29,1.6,19.81-.25,28.05-7a7.77,7.77,0,0,0,1.25-1.18,2,2,0,0,0,.1-2.69,2.23,2.23,0,0,0-2.64-.74,9.71,9.71,0,0,0-2.45,1.61,22.47,22.47,0,0,1-6.67,3.52c-11.45,4.11-21.91,1.54-31.12-5.53a50,50,0,0,1-19.13-31.52c-.49-2.59-.41-2.56,2.2-2.55A12.76,12.76,0,0,0,124,130.36c.1-.15.13-.3.05-.4s.06-.19,0-.05a15.33,15.33,0,0,0-.22,3.17c1,4.25,3.64,6.38,8,6.38a13.42,13.42,0,0,0,8.28-3.24,2.48,2.48,0,0,0,.64-3.45.21.21,0,0,1,0-.06,2.53,2.53,0,0,0-3.44-.92c-1.37.57-2.45,1.62-3.81,2.21-1.67.74-3.35,1.11-4.65-.59s-.64-3.23.43-4.72a27.22,27.22,0,0,1,2.07-2.09c.57-.62,1.07-1.33.67-2.2s-1.31-.85-2.14-.83a12.89,12.89,0,0,0-2.12.53c-.71-.72-.2-1.44-.07-2.09a18.5,18.5,0,0,0,.32-4.87c-.23-3.47,1.14-4.72,4.61-4a7.24,7.24,0,0,1,6,5.77,68.56,68.56,0,0,0,2,7.82c4.52,12.81,18.78,15.32,28.36,8.42,4.51-3.25,6.81-7.66,7.95-13,.89-4.16,2.69-7.66,7.24-9.55s9.16-2.1,13.88-1.68c1,.08,2,.09,2.94.15,2.4.14,3.09,1,2.4,3.31a3.31,3.31,0,0,0-.15,2.61c.84,1.55.34,2.49-1,3.46a8.92,8.92,0,0,0-3.49,4.63c-.37,1.24-.43,2.55.94,3.2a2.28,2.28,0,0,0,3.13-.83,2.42,2.42,0,0,0,.18-.36c1.37-4.37,4.79-3.53,7.84-3.17s4.63,2.9,5.6,5.55c1.36,3.72.26,7.31-1.22,10.7a25,25,0,0,1-5.75,8.17c-2.33,2.18-4.25,2.48-7.15,1.16-3.11-1.41-4-.69-5.26,2.58a21.47,21.47,0,0,1-6.81,9.41C189.09,162.37,187.4,162.9,187.35,164.78Z"/><path id="Trazado_711" data-name="Trazado 711" class="cls-2" d="M287.66,386.4q.29-17.4.58-34.8c0-1.17.44-2.48-1.73-2-1.22.27-1.86-.91-1.88-2.07s.43-2.48,1.89-2.3c1.66.2,1.8-.45,1.81-1.83.13-13.4.15-26.8-1.55-40.13-.18-1.42-.28-2.45-2.25-2.17-1.61.21-2.45-1.07-2.68-2.6s.22-3.07,2-3.44c1.35-.3,1.62-.71,1.35-2.08-3.19-16.15-8.9-31.47-15.29-46.72-1.33,1.29-2.61,2.59-4.49,1.34a2.33,2.33,0,0,1-1-2.78c.63-1.89,2.19-2.23,4.16-2-3.24-7.88-6.38-15.58-10.69-22.77-7.33-12.26-18.73-18.72-31.85-22.86l-1.4-.44c-1.27-.41-2.41-1.17-2.71,1.23-.22,1.8-2,2-3.54,1.39-1.69-.7-2.45-2.11-1.36-3.73.81-1.21.49-1.51-.62-2-2.15-1-4.21-2.09-5.78-2.89.49,15.67,8.68,29.49,12.82,44.56a12.38,12.38,0,0,1,1.2-.46,3.31,3.31,0,0,1,3.72,1.16,2.81,2.81,0,0,1,.33,3.22,3.41,3.41,0,0,1-3.37,2c-.53,0-1.47-1-1.37.66.37,5-1.57,9.41-3.6,13.8-2,4.21-4.33,8.24-5.29,12.86-.73,3.58-.27,7,2.2,9.66,4.05,4.35,4.31,9.26,3.15,14.65-3.29,15.15-7.19,30.14-11.6,45-.39,1.33-.81,2.27,1.08,2.94s2.07,2.42,1.47,4.16-2,3-3.88,2.59c-1.52-.35-1.74.25-2.12,1.38-2.84,8.49-5.79,16.95-9.18,25.24l.24.24a2.09,2.09,0,0,0,.69.19c.92.05,2.29-.11,2,1.29s-1.47,1.17-2.46.58c-.43-.25-.68-.87-1.34-.7-.82,1.4-1.62,2.81-2.48,4.2a1.27,1.27,0,0,1-1.43.72,1.34,1.34,0,0,1-.78-1.63,17.41,17.41,0,0,1,.8-2.82c7.4-21.4,14.95-42.76,20.6-64.74,1.74-6.78,3.13-13.66,4.8-20.47A10.72,10.72,0,0,0,214.45,281c-4.38-5.07-4.36-10.61-2.25-16.52a44.54,44.54,0,0,1,3.65-8c4.72-7.9,5.07-16.18,2.48-24.76-.76-2.49-1.5-5-2.45-7.43-3.62-9.36-7.11-18.75-8-28.87a15.43,15.43,0,0,0-2.13-6.2,9.22,9.22,0,0,0-4.41-4.11c-3.06-1.33-3.52-1-3.18,2.26a427.34,427.34,0,0,1,1.63,57c-.63,20.08-2.4,40.09-4.77,60-2.27,19.19-5,38.34-8,57.44-.8,5.16-1.16,10.38-2.14,15.52a33.54,33.54,0,0,1-2.52,8.12c12.32.13,24.65.62,37,.33,20.16-.49,40.32-.14,60.48-.43,1.88,0,3.75-.16,5.61-.36A1.94,1.94,0,0,1,287.66,386.4Z"/><path id="Trazado_712" data-name="Trazado 712" class="cls-2" d="M130,384.46c-1.14-5.89-1.08-11.86-1.44-17.8-.92-15.4-1.93-30.8-2.76-46.21-1.22-23-1.69-46-1-69.06.49-16.58,1.65-33.11,3.64-49.57.35-2.91.75-5.81,1.17-9.14-2.49.9-4.64,1.7-6.82,2.45-.72.25-.69.8-.76,1.36-1,7.94-4,15.25-7.08,22.56-2.72,6.55-5.45,13.08-6.74,20.11-1.25,6.83-1.12,13.51,2,19.85,2.68,5.5,2.66,10.93-.49,16.1-5.2,8.49-5.45,17.4-3.61,26.9,4.65,24.1,10.44,48,15.24,72,.23,1.12.38,2.25.57,3.38.17.95.12,1.87-1,2.15a1.73,1.73,0,0,1-2.14-1.17c0-.09,0-.17,0-.25-.42-1.47-.8-3-1.14-4.5q-3.57-16.36-7.12-32.74a12.16,12.16,0,0,1-.13-1.47c-1-.25-1.14.69-1.6,1.16-1,1.07-2.19,1.4-3.43.57a2.31,2.31,0,0,1-.88-3c.57-1.48,1.73-1.78,3.15-1.4a6.3,6.3,0,0,0,1.41.34c.39-.1.64-.28.49-.73-2.24-10.79-4.61-21.53-6.69-32.33-1.78-9.18-2.41-18.5,2.3-27,6.07-11,4.48-10.79,1.24-19.62a32.47,32.47,0,0,1-.91-18.34c2.23-10.44,6.83-20,11.28-29.59-.54-.74-1.19-.28-1.75-.1a2.5,2.5,0,0,1-3.32-1.18,2.18,2.18,0,0,1,.6-2.85,2.52,2.52,0,0,1,3.53,0,6.51,6.51,0,0,1,.69.7c.36.3.73.62,1.25.34,1-3.39,2.37-6.7,3-10.56-8.83,3.14-17.43,5.88-24.82,11.37-6.74,5-10.65,11.85-12.91,19.7C78,244,73.21,261.15,68.45,278.26c-1.12,4-2,8.08-3,12.09a2,2,0,0,0,.9,2.62,10.76,10.76,0,0,1,3.22,4.27c4.75,9.38,8.94,19,13.06,28.69a17.76,17.76,0,0,1,1.22,8.88c-.08.74-.11,1.57-1.06,1.7s-1.1-.56-1.37-1.16a21.52,21.52,0,0,1-1-2.48C76.51,320.05,70,308.25,66,294.87c-.66,2.09-1,3.68-1.63,5.17-4.48,11.15-13.12,17.62-24.1,21.31-2.12.71-2.31,1.21-1.29,3.19,2.54,5,3.25,10.56,4.62,15.91a71.63,71.63,0,0,0,5.85,15.78c.49.92,1,1.82,1.65,2.88.73-1.72,1.72-2.76,3.43-2.35a2.18,2.18,0,0,1,1.8,2.51v.05c-.29,2-1.77,2.5-3.64,2.29,5.83,13.12,22.77,15.25,32,4.35a8.14,8.14,0,0,0,2.21-5.24c.89-16.25.8-32.49.6-48.76-.16-13.06,0-26.13,0-39.35a48.69,48.69,0,0,1,1.71,10.12c2.23,19.84,2.49,39.76,2.45,59.7,0,1.69-.71,3.69,2.45,3.55,1.58-.07,2.24,1.71,2.12,3.34-.13,1.88-1.12,3.19-3,3.19-1.44,0-1.74.49-1.78,1.77-.19,5.46-.46,10.93-.73,16.39-.05,1,0,1.6,1.32,1.67,1.84.1,2.4,1.5,2.15,3.17s-1.23,2.68-3.05,2.26a1.17,1.17,0,0,0-1.52.65l0,.05c-.67,1.19-1.7,1-2.74.49a2.1,2.1,0,0,0,2.12,2.63c3.3.43,6.58,1.1,9.88,1.3C109.19,383.55,119.54,384.65,130,384.46Z"/><path id="Trazado_713" data-name="Trazado 713" class="cls-3" d="M187.35,164.78c3.92-3.06,7.46-6.48,9.81-11,.29-.57,1-1.13.69-1.72-1.07-1.85,1-1.92,1.55-2.67.73-.94,1.57,0,2.3.52a5.94,5.94,0,0,0,7.46-.44c4.3-4.17,7.61-8.95,8.34-15.11a10.83,10.83,0,0,0-2.29-8.49c-1.51-1.86-3.2-3.26-5.84-2.75a3.87,3.87,0,0,1-2-.06c-2.22-.79-3.34.49-4.24,2.15-.31.57-.44,1.24-.76,1.8a2.06,2.06,0,0,1-2.54.95c-1.13-.33-1.05-1.36-.84-2.25.59-2.58,2.53-4.15,4.53-5.55,1.1-.76,1.29-1.29.64-2.48-.49-.88-1.41-1.75,0-3.13s-.32-3.92-2.29-4.13c-4.73-.49-9.63-1.08-14.12.18-3.47,1-7.31,1.92-9.45,6.25a46.23,46.23,0,0,0-2.62,7.92,19,19,0,0,1-17.38,13.5c-8,.3-14.35-4.18-17.24-12.19a46.89,46.89,0,0,1-1.81-7.11,8.21,8.21,0,0,0-9.66-6.45c-.29.06-.58.14-.87.23-1.06.34-1.86.92-1.65,2,.65,3.53.1,7-.75,10.63,1.38-.49,2.51-1,3.69-1.34.61-.18,1.35-.26,1.72.47s-.19,1.17-.73,1.57a10,10,0,0,0-2.75,2.76c-1.08,1.66-1.31,3.4-.08,5s3,1.75,4.86,1a16.69,16.69,0,0,0,4.16-2.52c1.17-.87,2.3-1,3.16.33s.52,2.29-.74,3.13a14.81,14.81,0,0,1-7.15,2.94c-4.22.31-6.92-1.64-8.08-5.82-.41-1,.17-2.07-.39-3-3.79,4.08-8.24,6.33-14.17,4.87a24.61,24.61,0,0,0,1.88,10.3c4.55,12.58,11.74,23.12,24,29.34,9.39,4.75,18.95,4.85,28.56.55a22.51,22.51,0,0,0,5-3.48c1.14-1,2.13-1.35,3.07-.07s-.15,2.06-1,2.82c-5.57,4.87-12.2,7.08-19.45,7.66a35.64,35.64,0,0,1-12.24-1.3c.05,2.94.33,5.73-.49,8.44s-2,5.4-4.41,7.14c-1.32.94-1.05,1.75-.53,2.87,4.38,9.42,11.81,14.95,21.84,17.17,7.68,1.69,14.88-.6,22.07-2.74,5.92-1.76,11.44-4.28,15.91-8.75a5,5,0,0,0,1.55-3.67c.13-3.58.43-7.17.78-10.74a2.4,2.4,0,0,0-1.31-2.73c-6.23-3.87-8.93-10.15-11-16.78-.36-1.12.26-2,.78-3C184.56,166,186.84,166.09,187.35,164.78Z"/><path id="Trazado_714" data-name="Trazado 714" class="cls-4" d="M189.22,166.25l-.11-1.14c-.65,0-1.13.35-1,.92S188.77,166.54,189.22,166.25Z"/><path id="Trazado_715" data-name="Trazado 715" class="cls-3" d="M32.81,243.77a7.76,7.76,0,0,1-2.05-7.22c.14-.67.41-1.31-.61-1.79-3-1.36-5.89-2.72-9.32-2.5a9.29,9.29,0,0,0-4.61,1.4c-2.52,1.61-2.92,2.78-1.55,5.43,1,2,1.53,3.62-1,4.87-1.39.69-1.09,2.1-.83,3.28A3.63,3.63,0,0,1,11.78,251c-2.42,2.49-1.42,5.94,1.91,7,.51.17.84.4.87,1,.2,4,2.8,6.17,6,7.8a33.94,33.94,0,0,0,5.25,2c5.36,1.7,8.42,5.4,9.45,10.83,2.14,11.28,5,22.47,5.58,34a15.52,15.52,0,0,0,.35,2,37.49,37.49,0,0,0,13.47-8.91,69,69,0,0,0,8-9.9,3.59,3.59,0,0,0,.37-4,76.4,76.4,0,0,1-6.54-35.53,167.67,167.67,0,0,0,.42-20c-.17-3.05-1.32-5.13-3.92-6.5a31.1,31.1,0,0,0-7.51-2.88,7.43,7.43,0,0,0-8.71,3.8,18.88,18.88,0,0,0-2.18,6.95,2.61,2.61,0,0,0,1.2,2.73,2,2,0,0,0,2.84-.31l0-.06c2.43-4,5.54-3.65,9.06-1.81a4.09,4.09,0,0,0,1.2.21A1.63,1.63,0,0,1,50.52,241a1.83,1.83,0,0,1-.05.4c-.19,1.2-1.11,1.55-2.18,1.33-1.35-.26-2.69-.64-4-1-.53-.14-1.08-.6-1.51.08s.26,1,.62,1.38a16.46,16.46,0,0,1,3.43,5c1,2.46.46,3.84-2.05,4.73-1.1.38-.65.66-.4,1.28a3.81,3.81,0,0,1-.49,4.16c-.84,1-.82,1.44.38,1.85a3.09,3.09,0,0,1,.65.34c1,.68,2.24,1.08,2.59,2.42,0,.12-.26.49-.44.49a3.49,3.49,0,0,1-3.43-1.44c-1.47-2.41-3.93-1.87-6-2.45-.61-.18-.75,0-.95.61-.91,3-2,3.74-5.09,3.51a25.61,25.61,0,0,1-6.24-1.32c-1.17-.4-2.36-.88-2.94.83a.88.88,0,0,1-.32.37c-.71.6-1.65,1.3-2.33.45-.49-.63.54-1.2,1.08-1.66a9.12,9.12,0,0,1,1.1-.73c-.86-1-2.15-.63-3.06-1.21-.54-.35-.93-.73-.77-1.38s.66-.64,1.16-.7a7.79,7.79,0,0,1,3.8.76,40.9,40.9,0,0,0,7.29,2.05,5.79,5.79,0,0,0,3.61-.13c1.51-.67,1.79-2.19.46-2.94-5.28-3.07-10.34-6.66-16.74-7-.83-.05-1.56-.28-1.44-1.24s1-.89,1.73-.89a18.71,18.71,0,0,1,7.58,1.73c2.68,1.2,5.26,2.6,7.85,4a20.29,20.29,0,0,0,6.3,2.58,2.45,2.45,0,0,0,3.16-2.22c.33-1.85-.72-2-2.09-2.15a9.38,9.38,0,0,1-4.5-2.36,32.41,32.41,0,0,0-13-7.11,14.44,14.44,0,0,1-3-1.53,1,1,0,0,1-.63-1.18c.18-.59.76-.64,1.21-.6a14.69,14.69,0,0,1,2.63.49,54,54,0,0,1,8.82,3.6C32.8,244.49,32.91,244.24,32.81,243.77Z"/><path id="Trazado_716" data-name="Trazado 716" class="cls-3" d="M182.76,77.79c-.58,3.72-3,6.18-7.26,6-4.74-.17-9.6-.19-14.17-.8-3.92-.53-7.67-1.81-11.84-1.23-2.35.32-5.07.11-6.69-2.5-.49-.79-1.49-.49-2.25-.11a7.42,7.42,0,0,1-5.92.55,2.22,2.22,0,0,0-1.44,0c-5.15,2.09-10.59.82-15.88,1.36-1.28.13-1.7.45-1.64,1.7a92.33,92.33,0,0,1-.93,16.61c-.25,1.93.44,1.78,1.85,1.2a11.8,11.8,0,0,1,10.18.19c1,.49,2.46,1,2,2.38-.39,1-1.74.27-2.66.23a22.49,22.49,0,0,1-2.45-.32c0,1,.81,1,1.28,1.29,1,.67,2.4,1.19,2.82,2.28,2,5,6,2.84,9.34,2.9a1.13,1.13,0,0,0,.85-.38c2.73-4.71,7.61-5.17,12.18-6.2a2.38,2.38,0,0,0,2-1.21,3.67,3.67,0,0,1,4.6-1.92c7.46,2.87,15.51,1.66,23.06,3.62,2.3.6,4.63,1.06,6.37,2.87a1.1,1.1,0,0,0,1.06.37c5-.63,10.1-.26,16-.15C196.67,96.29,189.79,87,182.76,77.79Z"/><path id="Trazado_717" data-name="Trazado 717" class="cls-5" d="M215.21,108.77a39.66,39.66,0,0,0-8.75-17.31c-1.16-1.33-2-2.49.11-4,1.17-.84,1.66-.27,2.21.29a40.15,40.15,0,0,1,9.93,16.92,1.57,1.57,0,0,1-.16,1.51c-.74,1.19.7,3.69,2.34,4.48,1.91.93,2.21-.74,2.76-1.79a8.77,8.77,0,0,0,.54-6.42c-3-13-10-23.61-20.1-32.2-.69-.58-1.37-1.16-2.07-1.72-4.31-3.49-8.22-7.2-14.8-6.13-4.78.77-9.81-1.27-15-.37,9.71,5.3,16.29,13.54,22.17,22.37,4.74,7.12,10,13.95,12.9,22.13.36,1,1.11,1.11,1.87,1.26C211,108.14,213,108.41,215.21,108.77Z"/><path id="Trazado_718" data-name="Trazado 718" class="cls-3" d="M156.26,135.89c9.25,0,17.49-6.4,18.52-16,.31-2.85-1.61-6.33-4.25-8.6-.41-.35-1-.77-1.36.11-.82,1.87-1.93,1-2.52,0-1.65-2.72-4.19-3-7-3.12-6.49-.39-12.58.19-17.31,5.43a3.07,3.07,0,0,0-1,3c.71,3.43,1.23,6.92,2.74,10.12C146.81,132.47,151.16,135.67,156.26,135.89Z"/><path id="Trazado_719" data-name="Trazado 719" class="cls-5" d="M176,57.37c3.65.41,7.3,1,10.95,1.18,7.43.45,13.79-1.66,18.35-8a76.36,76.36,0,0,0,6.38-11.19,50.13,50.13,0,0,0-16.52-1.91,45.12,45.12,0,0,0-21.68,6.87c-.64.39-1.31.64-.85,1.61s1.11.38,1.63.2a19.84,19.84,0,0,1,13.19-.33c1.15.4,2.68.58,2.25,2.27s-1.86,1.59-3.2,1.36a31.57,31.57,0,0,0-10.71.11c-1.55.25-2.42.77-2.4,2.6a28,28,0,0,1-.79,4.8C173.67,57.55,174.93,56.84,176,57.37Z"/><path id="Trazado_720" data-name="Trazado 720" class="cls-5" d="M143,47c-1.6.24-2.95-.53-4.33-1.09-2.4-1-4.72-2.26-7.18-3a2.26,2.26,0,1,1,.79-4.45,2.2,2.2,0,0,1,.69.25c3.7,1.47,7.61,2.48,10.44,5.53.42.46.83.7,1.12.11.4-.82,1.77-1.55,1.27-2.33-1.47-2.32-2.67-4.81-4.78-6.79a42.79,42.79,0,0,0-19-10.13c-1.52-.39-2.06,0-2,1.61.63,9.81,5.13,17.33,13.1,22.91a3.41,3.41,0,0,0,2.33.45,21.77,21.77,0,0,1,4.42-.11C142.34,50.34,143.11,49.28,143,47Z"/><path id="Trazado_721" data-name="Trazado 721" class="cls-5" d="M160.24,40.75c-7.72-2-11.56,2.15-13.24,8.45-.22.81-.25,1.41.8,1.59,6.5,1,11.89,4.74,17.66,7.49,1.22.58,1.72.45,2.32-.83,2.39-5.15,1.81-10.49-1.41-13.94-1.6-1.71-2.86-1.54-4.21.07a25.24,25.24,0,0,0-1.5,2.21c-.58.88-1.25,1.57-2.4,1s-.87-1.6-.36-2.46C158.6,43.14,159.4,42,160.24,40.75Z"/><path id="Trazado_722" data-name="Trazado 722" class="cls-3" d="M37.12,226.34c-7.89-3.57-15.42-7.25-22.78-11.28a22.3,22.3,0,0,0-7.56-2.62c-1.23-.17-2.75-.74-3.55.73-.72,1.31.4,2.3,1.11,3.25a19.89,19.89,0,0,0,6.51,5.44c4.17,2.37,8.61,4.21,12.48,7.16,1.29,1,3.62.49,5.07,1.37,2.86,1.7,4.81,1.58,6.34-1.62C35.16,227.87,36.19,227.27,37.12,226.34Z"/><path id="Trazado_723" data-name="Trazado 723" class="cls-3" d="M111.42,120.42c-1,3.1-1.15,6.2-1.64,9.24-.25,1.61.35,2.16,1.89,2.31,5.89.59,9.81-2,12.07-8,1-2.56,1.77-5-.79-7.29-2.75-2.45-5.88-1.72-6.86,1.83C115.23,121.45,114.17,121.92,111.42,120.42Z"/><path id="Trazado_724" data-name="Trazado 724" class="cls-6" d="M105.08,128.46c1.17-7.23,3.53-14.14,4.41-21.36.18-1.44-.13-1.83-1.47-2-3.19-.35-4.63.47-6,3.27C98.29,115.82,101.8,122.1,105.08,128.46Z"/><path id="Trazado_725" data-name="Trazado 725" class="cls-7" d="M34.31,245.67c2.56,1.81,4.72,4.25,7.92,5.09.9.23,1.83.49,2.51-.26s.35-1.69-.06-2.51a17.77,17.77,0,0,0-1.17-2.14c-1.08-1.63-2-3.43-4.41-1.28-.94.86-2.45.73-3.76.61C34.87,245,34.3,244.74,34.31,245.67Z"/><path id="Trazado_726" data-name="Trazado 726" class="cls-5" d="M117.08,52.8a21.19,21.19,0,0,1,9.44-2.74,36.37,36.37,0,0,1-5.89-7.42A21.64,21.64,0,0,0,117.08,52.8Z"/><path id="Trazado_727" data-name="Trazado 727" class="cls-5" d="M208.87,111.6v5.66a1.35,1.35,0,0,0,.25.87c.55.52,5.77.53,6.38.08,1.06-.77.79-4.13-.49-4.62C213.08,112.84,211.05,112.29,208.87,111.6Z"/><path id="Trazado_728" data-name="Trazado 728" class="cls-8" d="M108.88,336.85c-1.63-1.41-3.32-1.47-4.7.19a3,3,0,0,0,.17,4.28.93.93,0,0,0,.15.13c1.36,1.29,2.77,1.12,4.2,0,.74-.56.57-1.74,1.56-2.06,0-.54.11-1.1-.36-1.53C109.27,337.83,109.39,337,108.88,336.85Z"/><path id="Trazado_729" data-name="Trazado 729" class="cls-9" d="M116.73,205.91c-1.26-2-3-2.57-4.6-1.56a3,3,0,0,0-1.29,4l.09.18c1,1.83,2.64,2.25,4.56,1.28a6.2,6.2,0,0,1,1.12-.31c.17-.55.34-1.1.49-1.65A5.34,5.34,0,0,0,116.73,205.91Z"/><path id="Trazado_730" data-name="Trazado 730" class="cls-10" d="M121.05,110.87c-1.4-2-3.15-4.11-4.66-3.55a5.4,5.4,0,0,0-3.39,6.27A9,9,0,0,1,121.05,110.87Z"/><path id="Trazado_731" data-name="Trazado 731" class="cls-11" d="M176,57.37a5.39,5.39,0,0,0-3.38-.43.57.57,0,0,0-.36.76C173.45,56.91,174.78,57.69,176,57.37Z"/><path id="Trazado_732" data-name="Trazado 732" class="cls-12" d="M34.31,245.67l1-.49-2.55-1.41-.54.49Z"/><path id="Trazado_733" data-name="Trazado 733" class="cls-13" d="M124,130c0,1-.32,2.09.38,3,0-1.16,0-2.32.06-3.47,0,0-.19-.1-.2-.08A3.59,3.59,0,0,0,124,130Z"/><path id="Trazado_734" data-name="Trazado 734" class="cls-14" d="M116.73,205.91c0,.69-.27,1.42.39,2,.2-.46.66-.83.49-1.41Z"/><path id="Trazado_735" data-name="Trazado 735" class="cls-15" d="M195.25,375.76l.8.9a1.76,1.76,0,0,0,0-2.5h0A2.62,2.62,0,0,0,195.25,375.76Z"/><path id="Trazado_736" data-name="Trazado 736" class="cls-16" d="M108.88,336.85c.4.3-.1,1.47,1,1.06-.13-.53,0-1.13-.49-1.52Z"/><path id="Trazado_737" data-name="Trazado 737" class="cls-1" d="M244.4,297.43c-.81-4.34-1.24-8.18-2.84-11.8a81.65,81.65,0,0,0-.14,13c.76,12,1.47,24,2.25,35.95.08,1.31.17,2.2-1.76,2.19s-3.1,1.56-3,3.49,1.28,3.52,3.37,3.46c1.78,0,1.89.68,1.92,2.08.16,9,.39,18,.62,27a19.29,19.29,0,0,0,1,7c.58,1.38,1.18,3,3.05,2.49s.7-2,.86-3.16c.69-5.07.08-10.1-.07-15.13-.59-19.77-2.18-39.46-4.35-59.12a2.83,2.83,0,0,1,.67-2.4,23.06,23.06,0,0,0,4.22-9.78c.14-.65.37-1.43-.31-1.77-.87-.44-1,.59-1.36,1C247.18,293.56,246,295.29,244.4,297.43Z"/><path id="Trazado_738" data-name="Trazado 738" class="cls-8" d="M231.44,212.65a3.54,3.54,0,0,0-3.46,3.43,3.58,3.58,0,0,0,3.64,3.52A3.54,3.54,0,0,0,234.9,216a3.38,3.38,0,0,0-3.41-3.36Z"/><path id="Trazado_739" data-name="Trazado 739" class="cls-1" d="M246.75,227.81a3.46,3.46,0,0,0,3.52,3.35,3.19,3.19,0,0,0,3.22-3.14v-.15a3.28,3.28,0,0,0-3.23-3.34h-.21a3.36,3.36,0,0,0-3.3,3.28Z"/><path id="Trazado_740" data-name="Trazado 740" class="cls-9" d="M258.33,341.45a3.22,3.22,0,0,0,3.23-3.22v0a3.33,3.33,0,0,0-3.32-3.22,3.44,3.44,0,0,0-3.26,3.31A3.26,3.26,0,0,0,258.33,341.45Z"/><path id="Trazado_741" data-name="Trazado 741" class="cls-9" d="M255.93,370.75a3.29,3.29,0,0,0-3.24,3.25,3.23,3.23,0,0,0,3.27,3.19,3.31,3.31,0,0,0,3.27-3.23,3.36,3.36,0,0,0-3.3-3.21Z"/><path id="Trazado_742" data-name="Trazado 742" class="cls-8" d="M222.79,276.42a3.08,3.08,0,0,0,3.17-3v0a3,3,0,0,0-2.77-3.11h0a3.07,3.07,0,1,0-.37,6.12Z"/><path id="Trazado_743" data-name="Trazado 743" class="cls-8" d="M232.78,365.4c0,1.47,1.32,2,2.91,2.05A2.92,2.92,0,0,0,239,365c0-.12,0-.25,0-.38.12-1.88-1.09-2.86-2.88-3S232.87,363.18,232.78,365.4Z"/><path id="Trazado_744" data-name="Trazado 744" class="cls-8" d="M275.56,313.74c.05-2-.8-3.21-2.68-3.22a2.54,2.54,0,0,0-2.69,2.39,2.48,2.48,0,0,0,0,.47,2.71,2.71,0,0,0,2.66,2.94,2.36,2.36,0,0,0,2.69-2A2.56,2.56,0,0,0,275.56,313.74Z"/><path id="Trazado_745" data-name="Trazado 745" class="cls-8" d="M270.11,367.48c1.47,0,2.91-.52,2.77-2.23a3,3,0,0,0-3-2.95,2.36,2.36,0,0,0-2.63,2.06,1.85,1.85,0,0,0,0,.47C267.2,366.6,268.33,367.42,270.11,367.48Z"/><path id="Trazado_746" data-name="Trazado 746" class="cls-8" d="M232.52,262a3.11,3.11,0,0,0,2.77-3.11,2.1,2.1,0,0,0-1.82-2.35,2.21,2.21,0,0,0-.68,0,3,3,0,0,0-2.9,3.06C229.87,261.22,230.86,261.94,232.52,262Z"/><path id="Trazado_747" data-name="Trazado 747" class="cls-17" d="M225.32,329.84a2.68,2.68,0,0,0,2.61,2.73h.19a2.28,2.28,0,0,0,2.57-1.93,2.15,2.15,0,0,0,0-.62,2.67,2.67,0,0,0-2.52-2.81h-.23C226.34,327.21,225.46,328.19,225.32,329.84Z"/><path id="Trazado_748" data-name="Trazado 748" class="cls-8" d="M227.32,292.38c.13,1.8,1.06,2.76,2.65,2.7a2.5,2.5,0,0,0,2.6-2.38,1.4,1.4,0,0,0,0-.29,2.38,2.38,0,0,0-2.19-2.54,2.33,2.33,0,0,0-.46,0,2.54,2.54,0,0,0-2.6,2.49Z"/><path id="Trazado_749" data-name="Trazado 749" class="cls-18" d="M246.55,252.49a2.46,2.46,0,1,0,4.92-.1,1.09,1.09,0,0,1,0-.18,2.27,2.27,0,0,0-2.15-2.38,2.54,2.54,0,0,0-.39,0A2.39,2.39,0,0,0,246.55,252.49Z"/><path id="Trazado_750" data-name="Trazado 750" class="cls-8" d="M212.68,365.08a2.38,2.38,0,0,0,2.34,2.66,2.34,2.34,0,0,0,2.64-2,3.11,3.11,0,0,0,0-.53,2.24,2.24,0,0,0-2-2.45,1.55,1.55,0,0,0-.43,0,2.32,2.32,0,0,0-2.53,2.09A1.77,1.77,0,0,0,212.68,365.08Z"/><path id="Trazado_751" data-name="Trazado 751" class="cls-17" d="M263.71,286c.29,1.58,1.11,2.45,2.66,2.41a2.13,2.13,0,0,0,2.25-2c0-.12,0-.24,0-.36a2.3,2.3,0,0,0-2.12-2.46h-.34a2.38,2.38,0,0,0-2.44,2.3Z"/><path id="Trazado_752" data-name="Trazado 752" class="cls-8" d="M263.07,264.23a2.07,2.07,0,0,0,1.81,2.3,2.17,2.17,0,0,0,.36,0,1.73,1.73,0,0,0,2-1.89,2.1,2.1,0,0,0-2-2.19h-.14a1.86,1.86,0,0,0-2.05,1.67A.31.31,0,0,0,263.07,264.23Z"/><path id="Trazado_753" data-name="Trazado 753" class="cls-19" d="M196.08,374.16l0,2.5a2,2,0,0,0,2.77.84,2.37,2.37,0,0,0,.33-.22,1.57,1.57,0,0,0,.69-2.09c-.63-1.3-1.74-1.51-3-1.05A2.48,2.48,0,0,1,196.08,374.16Z"/><path id="Trazado_754" data-name="Trazado 754" class="cls-9" d="M67.1,325.33a3.32,3.32,0,0,0,3.32,3.32h.12a3.39,3.39,0,1,0-3.44-3.33Z"/><path id="Trazado_755" data-name="Trazado 755" class="cls-8" d="M108.21,371.48a3,3,0,0,0,2.94-3,3.64,3.64,0,0,0-3.5-3.69,3.07,3.07,0,0,0-3.09,3.05v.06A4,4,0,0,0,108.21,371.48Z"/><path id="Trazado_756" data-name="Trazado 756" class="cls-8" d="M77.79,295.92a2.92,2.92,0,0,0,3-2.84,2.17,2.17,0,0,0,0-.26,3,3,0,1,0-6.07,0h0a2.91,2.91,0,0,0,2.7,3.09Z"/><path id="Trazado_757" data-name="Trazado 757" class="cls-8" d="M83.11,248.7a3,3,0,0,0,3-2.94,2.87,2.87,0,0,0-2.72-3h-.39a2.73,2.73,0,0,0-2.85,2.59,2.81,2.81,0,0,0,0,.41A2.86,2.86,0,0,0,83.11,248.7Z"/><path id="Trazado_758" data-name="Trazado 758" class="cls-8" d="M104.11,263.09c-.08-1.74-1-2.81-2.68-2.85a2.54,2.54,0,0,0-2.84,2.2,2.07,2.07,0,0,0,0,.43,2.6,2.6,0,0,0,2.32,2.85h.35A2.67,2.67,0,0,0,104.11,263.09Z"/><path id="Trazado_759" data-name="Trazado 759" class="cls-8" d="M71.44,355.2a2.38,2.38,0,0,0,2.29,2.48,3.11,3.11,0,0,0,.43,0,2.23,2.23,0,0,0,2.37-2.11,2.08,2.08,0,0,0,0-.43,2.34,2.34,0,0,0-2.16-2.5,2,2,0,0,0-.54,0C72.27,352.67,71.51,353.64,71.44,355.2Z"/><path id="Trazado_760" data-name="Trazado 760" class="cls-20" d="M75.09,270.9c-1.47.19-2.49.92-2.53,2.45A2.39,2.39,0,0,0,74.7,276a3.69,3.69,0,0,0,.47,0,2.25,2.25,0,0,0,2.39-2.11,2,2,0,0,0,0-.42C77.52,271.85,76.56,271.12,75.09,270.9Z"/><path id="Trazado_761" data-name="Trazado 761" class="cls-8" d="M53.32,330.48a2.36,2.36,0,0,0-2.59,2.11,2.26,2.26,0,0,0,0,.26,2.29,2.29,0,0,0,1.93,2.6l.35,0a2.51,2.51,0,0,0,.38-5Z"/><path id="Trazado_762" data-name="Trazado 762" class="cls-17" d="M95.44,307.24a2.46,2.46,0,1,0,2.43-2.49,2.27,2.27,0,0,0-2.43,2.11A2.41,2.41,0,0,0,95.44,307.24Z"/><path id="Trazado_763" data-name="Trazado 763" class="cls-20" d="M102.88,220.78a2.3,2.3,0,0,0,2.38-2.23.34.34,0,0,0,0-.1,2.14,2.14,0,0,0-2-2.32H103a2.19,2.19,0,0,0-2.43,1.9,2.09,2.09,0,0,0,0,.5A2.29,2.29,0,0,0,102.88,220.78Z"/><path id="Trazado_764" data-name="Trazado 764" class="cls-19" d="M96,235.3a2,2,0,0,0,2,2,1.36,1.36,0,0,0,.29,0,2.09,2.09,0,1,0-.2-4.18h0A2,2,0,0,0,96,235,1.31,1.31,0,0,0,96,235.3Z"/><path id="Trazado_765" data-name="Trazado 765" class="cls-1" d="M139.06,153.68c.36,2.18.58,4.16,1.84,5.76,1,1.22,2.19,1.84,3.59.76s1.72-2.46.63-3.86c-3.44-4.38-2.51-8.8-.34-13.29.2-.43,1.24-.64.55-1.31s-1.27-.13-1.72.31a12.34,12.34,0,0,0-4,6.87c-.3,1.89-1.22,2.28-2.94,2.23a11.22,11.22,0,0,1-5.89-2.11c-1.77-1.15-3.28-1.2-4.41.65s-.06,3.35,1.54,4.25C131.58,156,135.29,155.55,139.06,153.68Z"/><path id="Trazado_766" data-name="Trazado 766" class="cls-8" d="M209.72,133.3c-.91-2.38-2.36-3-4.66-1.91a46.42,46.42,0,0,0-5.84,3.07c-1.4.92-1.26,2.06-.6,3.16s1.57.16,2.24-.23a54.67,54.67,0,0,1,8.86-4.09Z"/><path id="Trazado_767" data-name="Trazado 767" class="cls-20" d="M50.64,270.67a13.73,13.73,0,0,1-9.42,5.4c-.49.05-1,.22-1,.83,0,.85.73.73,1.23.82C45,278.33,49.82,274.78,50.64,270.67Z"/><path id="Trazado_768" data-name="Trazado 768" class="cls-1" d="M162.78,122c1.5-2.58,1.15-4.88-1.05-7.27-3.9-4.22-11.47-3.14-13.92,2-.61,1.29-1,2.84.45,3.73s2.38-.16,3.2-1.35c3-4.33,7.1-4.12,9.81.43C161.78,120.42,161.86,121.49,162.78,122Z"/></g></svg>