<svg id="Capa_1" data-name="Capa 1" xmlns="http://www.w3.org/2000/svg" viewBox="0 0 187.95 381"><defs><style>.cls-1{fill:#070607;}.cls-2{fill:#fac9a1;}.cls-3{fill:#f9c7a0;}.cls-4{fill:#080708;}.cls-5{fill:#d6a682;}.cls-6{fill:#1b150c;}.cls-7{fill:#201e1b;}.cls-8{fill:#fffcfc;}.cls-9{fill:#dcb497;}.cls-10{fill:#242422;}.cls-11{fill:#26211e;}.cls-12{fill:#fbb860;}.cls-13{fill:#fac9a2;}.cls-14{fill:#fefffe;}.cls-15{fill:#fac8a0;}.cls-16{fill:#9a6d34;}.cls-17{fill:#b07d3c;}.cls-18{fill:#0c0b0b;}</style></defs><path id="Trazado_308" data-name="Trazado 308" class="cls-1" d="M187.2,101.88c1.88,4.55.2,7.1-4.74,7-.84,0-.85.3-1.05.85a8,8,0,0,1-6.71,5.43c-1.69.27-2.55,1.36-3.46,2.59a120.52,120.52,0,0,1-25,25c-13.53,10.12-26.09,5.26-34.44-6-.6-.81-1.14-1.68-2-3-.64,8.66,0,16.58,3.84,23.94a135,135,0,0,1,8.9,20.59,14.25,14.25,0,0,1,.53,4.45c0,.85-.15,2.08-1.65,1.75-.91-.19-1,.72-1.46,1.11a14.76,14.76,0,0,1-6.17,3.6,103.83,103.83,0,0,1-29.43,5.24c-20,.58-38.87-4.08-57.16-11.72a1,1,0,0,0-.47-.07c-1,3.4-.86,3.88,1.81,6.11,2,1.69,4.26,3.14,6.17,5,2.58,2.49,2,5.47-1.5,5.92-3.35.42-4.12,2-4.1,4.92,0,4.74-1.1,9.34-2.13,14-.5,2.24.13,4.47.43,6.68,1.2,8.8,2.26,17.63,4.69,26.21,1.23,4.36,3.43,8.27,5.35,12.31,1,2,2.12,4,1.89,6.37-.12,1.34-.5,2.53-2.24,1.37a3.23,3.23,0,0,1-.39-1.86c.14-.48-.17-1,.08-1.46-2.4-5.47-5.5-10.62-7.12-16.46-2.17-7.81-3.19-15.81-4.35-23.8-.36-2.45-.76-4.91-.92-7.38-.09-1.4-1.29-2-1.68-3.28-.64,1.19-.63,2.65-2.12,2.82s-2.15-.81-2.73-2c-.76.82-1.42,1.92-2.73,1.52s-1.86-1.65-2-3c-.57-6.05-1.92-12-1.73-18.14,0-1.52-.88-2.49-1.28-3.73C5.82,181.42,1.84,168.09.5,154.17c-2.36-24.63,3.54-47,19.23-66.37,9-11,20.94-16.49,35.2-16.75.49-.25.66,0,.74.45C55.09,72.53,54,72.63,53,73c-.45.16-.92.25-1.38.41C47.07,75,46.38,77,49.06,81.09c3.35,5.1,8.35,7.83,14,9.51a44.93,44.93,0,0,0,19.74,1,17.28,17.28,0,0,0,5.87-2,8,8,0,0,0,4.26-7.51c0-3.3-1.65-5.41-4.34-6.92a14.55,14.55,0,0,0-3.86-1.51c.8,1.18,1.89,2.6.6,3.62s-2.8-.23-3.58-1.39a10.46,10.46,0,0,0-6.12-4.62,5.35,5.35,0,0,1-2.39-1.57c-.48-.52-1.23-1.11-.78-1.83s1.29-.36,2,0c.3.13.57.31.85.45a12.24,12.24,0,0,0,13.9-1.66c5-4.32,6.55-10.27,7.5-16.45.16-1-.28-1.35-1.25-.95a2.14,2.14,0,0,1-1.15.31c-2.7-.5-5-.16-7.1,2-1,1-4.33-.18-5.21-1.38a1.57,1.57,0,0,1-.17-1.8c.39-.66,1-.64,1.7-.44.31.09-.08,0,.22.08.94.33,2,1.36,2.86.44s-.28-1.87-.63-2.77A1.67,1.67,0,0,1,86,44.2a1.34,1.34,0,0,0-.4-1.87l0,0a1.88,1.88,0,0,0-2.22.34,5.82,5.82,0,0,0-1.59,2.9A8.77,8.77,0,0,1,70.9,50.65a7.4,7.4,0,0,1-4.59-4.28C65,43.3,60,42,57.37,44.14c-1.21,1-2.17.61-3.3.11-3.11-1.39-5.33-.07-5.66,3.34-.38,4,1.36,5.87,5.42,5.81a2.55,2.55,0,0,1,2.25,1.11,47.7,47.7,0,0,0,8.9,9.7c.76.6,1.44,1.53.69,2.5s-1.74.5-2.61,0A9.46,9.46,0,0,1,60.8,65,2.37,2.37,0,0,1,60,63.4a2.14,2.14,0,0,0-.1-.22c-2-3-4.06-5-8.36-3.77-3.22,1-6.85.05-10.23-.52-9.68-1.64-14-8.51-11.42-18,2.25-8.28,7.37-14.59,14.07-19.74.82-.63,1.68-1.2,2.52-1.8C48.11,17.67,50.32,17,52.14,16a39.92,39.92,0,0,0-4.23,2.14c-.48.24-.95.66-1.49.13C45.65,12,48.3,7.39,53.46,4.1S64.36-1.28,70.7.92c1.45.5,3.1,1,3.91,2.2,1.69,2.54,3.79,2.09,6.23,1.69,8.2-1.35,16.28-1.2,23.85,2.82,9.25,4.92,11.16,13.05,5.12,21.59a25.13,25.13,0,0,1-7.88,7.27l-1.31.77c1.83,1.13,2.18,2.27.27,3.67-1.13.83-1,2.25-1.16,3.52a60.22,60.22,0,0,1-2.5,13.16c-1.58,5-4,9.37-9,12.33,1.85.24,3.23.44,4.62.6a18.74,18.74,0,0,1,12.64,7.07A93.4,93.4,0,0,1,118,98c3.29,7,6.32,14.14,10.47,20.71,4.46,7.06,4.37,7,10.78,2.15a213.91,213.91,0,0,0,21.13-18.42,1.83,1.83,0,0,1,2.55.48l.05.07c1.36,1.87,2,4.14,3.45,6,1.13,1.49,2.39,3.44,4.2,3.17,2.39-.37,5.12-.56,6.93-2.71a7.45,7.45,0,0,0,1.13-1.54c1-2.1,2.31-3.06,4.73-2,1.29.55,2-.46,2.43-1.64a7.89,7.89,0,0,1,.71-2.27A.46.46,0,0,1,187.2,101.88Z"/><path id="Trazado_309" data-name="Trazado 309" class="cls-1" d="M36.76,268.08l.5,1.16a4.11,4.11,0,0,0-.41,2.46c-1.68,8.32-3.56,16.59-4.82,25-1.28,8.55-2.07,17.14-2.73,25.76-.16,2-.43,4-.59,6-.13,1.48.38,2.09,1.8,2.11a9.35,9.35,0,0,0,1.67.16c5.41-1,10.43,1.05,15.58,2A4,4,0,0,0,52.07,331c5.43-6.68,8.47-14.56,10.79-22.62,8.8-30.51,14.71-61.64,19-93.08.21-1.49-.2-3.26,1.31-4.4,1,.6.84,1.61.86,2.53,0,2.12,0,4.24,0,6.36a190.93,190.93,0,0,1-3.61,31.44c-3,15.9-6.35,31.72-10.24,47.42A136.9,136.9,0,0,1,63.69,319c-1.7,4-.17,7.7.56,11.48.2,1,1.12,1,2,.81A89.82,89.82,0,0,1,87.64,329a2.49,2.49,0,0,0,2.6-2c2.67-8.51,5.06-17.14,4.92-26.09a141,141,0,0,1,7.72-47.4c4.18-12.45,8.72-24.78,12.47-37.37a105,105,0,0,0,4-22.17c.11-1.48,0-3.08,1.29-4.22,1.1,1.1.41,2.4.39,3.61.54,14.08-3,27.4-7.46,40.57-4,11.87-8.61,23.54-11.48,35.78a90.44,90.44,0,0,0-2.8,21.84,112.29,112.29,0,0,1-6.16,39.14c-.38,1.1-.93,1.24-1.8,1.46-3,.79-6,1.6-9,2.52-.63.19-1.83.37-1.29,1.55.44.95,1.29.3,1.9.14,2.4-.63,4.8-1.23,7.14-2,2.18-.75,2.48.31,2.35,2.06s-.26,3.51-.34,5.26c-.11,2.51,2,3.8,3.42,5.15a33.61,33.61,0,0,1,5.46,6.88c1.18,1.84,3.22,2.59,5.3,3,3.77.69,7.55,1.42,11.36,1.85,4.27.47,7.41,2.08,8.7,6.53.49,1.69.34,2.61-1.33,3.45-4.69,2.35-9.8,2.91-14.86,3.46a115.21,115.21,0,0,1-33-.8,2,2,0,0,0-1.15,0c-5.19,2.72-9.64-.67-14.33-1.79-1.31-.31-1.77-1.88-1.69-3.2.14-2.38-1-5,1.07-7.08.35-.36-.08-.75-.2-1.08a13,13,0,0,1,.93-10.67A20.61,20.61,0,0,0,63,344.46a7.34,7.34,0,0,0-.47-5.94c-1.69-3.41-2.1-7.31-3-11.55-1.14,1.68-2,3-2.94,4.33s-1.77,2.95-3.07,3.63c-6.28,3.29-6.54,8.9-5.54,14.64.84,4.85,2.78,9.48,4.6,14.1.17.45.25,1,.79,1.09,2.41.23,2.74,2,3.18,3.88.57,2.38.49,4.6-1.1,6.6a11.16,11.16,0,0,1-5.27,3.61c-10.24,3.49-20.13,2.83-29.53-2.72-2.78-1.63-3.9-3.66-2.8-6.6,1.53-4,1.59-8.28,2.41-12.41.92-4.63,1.8-9.25,2.95-13.83.61-2.46,2.13-5-.68-7.31,1.69-.83,3-.11,4.25-.07,3.43.1,6.87.07,10.3.09.64,0,1.46,0,1.47-.82,0-1.06-.9-.94-1.6-.86-4.58.55-9-.78-13.58-.85-.47,0-1,.14-1.19-.49s.08-1.23.74-1.28c1.92-.13,1.69-1.52,1.81-2.78C26,316.26,27,303.57,29.58,291.08,31.22,283.19,33.26,275.4,36.76,268.08Z"/><path id="Trazado_310" data-name="Trazado 310" class="cls-1" d="M162.68,103.32a2.1,2.1,0,0,0-2.27-.94,2.54,2.54,0,0,0,1.84-2.53,46.63,46.63,0,0,1,2.23-9.24c1.11-3.4,2.34-4,6.87-3.74,2.05-.29,3.77.63,5.51,1.5a2.74,2.74,0,0,1,.55.47c1.9,3.68,1.3,5.73-2.35,7.75-.56.31-.91.58-.76,1.24a19.56,19.56,0,0,1,.57,3.56,4.88,4.88,0,0,1-1,3.15,2,2,0,0,1-2.28.93,1.93,1.93,0,0,1-1.25-2.11,16.81,16.81,0,0,1,.44-3.08,7.86,7.86,0,0,0-.48-5.36c-.85-1.67.14-2.69,2.11-2.42.76.11,1.76.68,2-.44.22-1-.84-1.21-1.58-1.48a13.65,13.65,0,0,0-1.85-.49c-2.52-.56-3.33-.15-4.06,2.38a75,75,0,0,1-3,8.62A4.43,4.43,0,0,1,162.68,103.32Z"/><path id="Trazado_311" data-name="Trazado 311" class="cls-2" d="M176.7,88.91l-5.34-2,.1-.95a18,18,0,0,0,1.25-2,35.47,35.47,0,0,1,6.95-8.75c.62-.57,1.3-1.43,2.25-.74.78.56.43,1.48.15,2.2C180.47,80.85,179.07,85.09,176.7,88.91Z"/><path id="Trazado_312" data-name="Trazado 312" class="cls-1" d="M176.7,88.91c.62-3.24,2.58-6,3.54-9.07.54-1.72,1.2-3.42,1.6-5.26-4.08,2.4-6.35,6.39-9.06,10-.47.07-.74,0-.53-.58a26.51,26.51,0,0,1,7.1-10c1-.89,2.07-2.13,3.51-1.12s.85,2.49.4,3.74c-1.34,3.81-2.8,7.58-4.22,11.36a1.25,1.25,0,0,1-.6,1.22,1.15,1.15,0,0,1-1.32-.26Z"/><path id="Trazado_313" data-name="Trazado 313" class="cls-3" d="M177.12,88.89l1.31-.13c.36-.41.81,1.39,1.14,0,1.3.15,1.79,1.2,2.38,2.14a13.86,13.86,0,0,1,.55,4.43c-.5,3.38-2.52,4.61-5.74,3.43a10.62,10.62,0,0,1-1.28-.6,2.27,2.27,0,0,0-1.76-.45c-.25-.54-1.15-1.08.21-1.5,3.95-1.2,4.63-2.66,3.22-6.57A2.11,2.11,0,0,1,177.12,88.89Z"/><path id="Trazado_314" data-name="Trazado 314" class="cls-1" d="M187.2,101.88l-.57.06a4.67,4.67,0,0,1-4.6,2.82,2.17,2.17,0,0,1-2.27-1.77c-.27-1.17.5-1.72,1.47-2.12,2.93-1.2,2.92-1.21,2.65-4.28.13-.5.19-1.08,1-1A7.31,7.31,0,0,1,187.2,101.88Z"/><path id="Trazado_315" data-name="Trazado 315" class="cls-4" d="M55.55,71.52l-.62-.47c3.72-.82,4.09-1.43,4.07-6.61,1.1-1.4,1.25.09,1.73.57a11.91,11.91,0,0,1-1.63,9,5.47,5.47,0,0,1-1.72,2,1.79,1.79,0,0,1-2.23.07c-.74-.62-.53-1.41-.23-2.2S56.39,72.56,55.55,71.52Z"/><path id="Trazado_316" data-name="Trazado 316" class="cls-4" d="M175.21,97.55c.51.18,1,.36,1.52.57,3.1,1.29,4.89.15,5.27-3.18.16-1.39-.8-2.72-.05-4.08,1.27.79.74,2.58,1.9,3.42a1.49,1.49,0,0,1,.2,1.44,7.17,7.17,0,0,1-2.39,4.53,4,4,0,0,1-4.86.52C175.64,100.08,174.5,99.23,175.21,97.55Z"/><path id="Trazado_317" data-name="Trazado 317" class="cls-5" d="M46.43,18.24c2.51-1,4.67-2.77,7.64-2.71l-7.6,3.78C46.46,19,46.44,18.6,46.43,18.24Z"/><path id="Trazado_318" data-name="Trazado 318" class="cls-6" d="M121,193.37c-.46-1.13.3-2.42-.46-3.5-1.06-1.1-.65-2.18.06-3.25a.57.57,0,0,1,.72-.13A23,23,0,0,1,121,193.37Z"/><path id="Trazado_319" data-name="Trazado 319" class="cls-7" d="M121.31,186.49h-.46c-1.33-.15-.56-1.28-.88-1.9.41-.63.88-.71,1.43-.16C120.47,185.08,121.81,185.82,121.31,186.49Z"/><path id="Trazado_320" data-name="Trazado 320" class="cls-8" d="M179.57,88.72l-.33.8-.81-.76.61-.83Z"/><path id="Trazado_321" data-name="Trazado 321" class="cls-9" d="M60.26,65c-.45-.1-.28-1.63-1.26-.56-.31-.93.3-1,1-1a1.48,1.48,0,0,1,.93.94A.79.79,0,0,1,60.26,65Z"/><path id="Trazado_322" data-name="Trazado 322" class="cls-10" d="M172.26,84l.52.58a1.77,1.77,0,0,1-1.33,1.38A2.66,2.66,0,0,1,172.26,84Z"/><path id="Trazado_323" data-name="Trazado 323" class="cls-11" d="M183.85,95.68v-1.4c.71.16.8.79,1,1.34-.44.19-.4.63-.5,1C183.52,96.64,183.56,96.22,183.85,95.68Z"/><path id="Trazado_324" data-name="Trazado 324" class="cls-12" d="M120,184.59c1,.32.35,1.38.88,1.9l-.32,3.37c-1.1,21.53-9.29,41.19-16.14,61.19-5.38,15.7-8.76,31.7-8.47,48.42.17,9.94-2.32,19.49-5.36,28.89a1.76,1.76,0,0,1-2,1.4h0a83.4,83.4,0,0,0-23.07,2.48c-1.3.33-1.64.06-1.84-1.19-.45-2.76-1.06-5.49-1.63-8.23a3,3,0,0,1,.25-1.85c5.75-13.71,8.93-28.16,12-42.61,2.78-13,5.7-25.93,7.48-39.1.85-6.35,1.47-12.71,1.78-19.11a56.06,56.06,0,0,0,0-9.07c0-.05-.1-.11-.17-.14s-.28,0-.36.18c-1.13,11.14-2.93,22.2-4.94,33.21-3.61,19.81-7.66,39.53-12.93,59a122.57,122.57,0,0,1-7.42,20.2c-1.69,3.57-4.19,6.6-6.46,9.78-.47.65-.81.5-1.37.37-3.1-.71-6.35-.66-9.34-2a8.29,8.29,0,0,0-5.2-.43c-2.2.53-4.29-.16-6.42-.07-.92,0-1.23-.27-1.14-1.26,1.68-19.21,3.53-38.39,8.19-57.17.14-.54.27-1.08.41-1.63a.47.47,0,0,1,.63-.18.45.45,0,0,1,.18.18c1,.85,1.54.61,1.62-.68a7.52,7.52,0,0,0-1.06-4.37c-7.38-12.37-9.06-26.29-11.09-40.14a32.81,32.81,0,0,1,.93-13.62c1-3.63.77-7.47,1-11.22.08-1.38.27-2.17,1.89-1.77a4.08,4.08,0,0,0,1.67,0c1.49-.3,3.14-.52,3.61-2.3s-.93-2.4-2-3.24c-2.3-1.87-4.6-3.74-6.94-5.55-1.33-1-2-2.12-1.37-3.88a11.23,11.23,0,0,0,.22-2.95c1.19,0,2.08.89,3.13,1.31,26.13,10.52,52.8,15.05,80.57,7.16C113.23,188.74,117.11,187.68,120,184.59Z"/><path id="Trazado_325" data-name="Trazado 325" class="cls-13" d="M60.26,65l.65-.66c1,.74,2,1.52,3.1,2.22a1,1,0,0,0,1.46-.06l0-.06a1,1,0,0,0-.24-1.37.57.57,0,0,0-.13-.08c-4-2.67-6.91-6.39-9.64-10.26A1.83,1.83,0,0,0,53.25,54c-2.85.64-4.94-1.06-5.47-4.22-.58-3.52,1.1-6.57,3.83-7,1.25-.2,2.1.56,3.09,1.07s2.14,1.24,2.43-.73a.76.76,0,0,1,.56-.66c3.25-1.22,7.94.72,9.28,3.86,1.2,2.82,3.77,4.29,7.18,4.11a7.64,7.64,0,0,0,7.21-5.66,4.84,4.84,0,0,1,1.41-2.67c1-.94,2.42-1.52,3.43-.56.6.57,2.38,2.08-.07,3.13-.63.27.17.74.46,1,1,.94,1.85,2,.75,3.3s-2.18.41-3.25-.2c-.68-.39-1.44-1.54-2.14-.23-.61,1.14.62,1.47,1.32,1.86,3,1.66,5.18.71,6.18-2.75,2.6,1.88,5.19,1.72,8.09-.51-.68,8-2.2,15.16-8.5,20.23-4.56,3.66-9.91,3.89-15,.9-.45-.27-.83-.8-1.65-.44a7.74,7.74,0,0,0,5.11,3.53,4.69,4.69,0,0,1,3.57,2.7,10.73,10.73,0,0,0,2.18,2.52c.49.45,1.25,1,1.93.32S85.47,75.58,85,75c-.58-.75-1.25-1.44-1.92-2.2,4.68-.07,9.64,3.53,10.4,7.49a8.87,8.87,0,0,1-6.43,10.65c-11.83,3.73-23.2,2.6-33.68-4.42a18.17,18.17,0,0,1-6.28-7.73c-.91-2-.36-3.32,1.32-4.52,2.15-1.54,4.75-1.81,7.11-2.75l1.68-.27c-.24,1.1-1.1,1.7-1.66,2.5-.43.6-.9,1.29-.22,1.91s1.52.18,2.07-.43a11.22,11.22,0,0,0,2.94-8.8C60.32,66,60.29,65.48,60.26,65Z"/><path id="Trazado_326" data-name="Trazado 326" class="cls-13" d="M96.77,34.11c-2.21-.35-4.27.07-6.16-1.17-1-.69-2.55-1.4-3.64.13-.59.83.1,1.54,2.2,2.52-1,4.4-4.87,2.94-7.66,3.75-.56.17-.78-.4-1-.82a5.19,5.19,0,0,0-2.15-2.2c-.9-.43-1.12-.75-.77-1.89.48-1.54-.93-1.85-2.11-1.7a7.17,7.17,0,0,0-4.57,2.39c-1,1.1-2.17,1.92-3.06,3-2.35,2.89-5.36,3.51-8.8,3-.86-.13-2.17.38-2.33-1s-1-2.66.39-4a41.29,41.29,0,0,1,16.43-10A49.09,49.09,0,0,1,92.2,23.85,2.51,2.51,0,0,1,94.84,26,67.16,67.16,0,0,1,96.77,34.11Z"/><path id="Trazado_327" data-name="Trazado 327" class="cls-13" d="M24.6,216.49c-1.73-1.94-1.58-4.17-2.06-6.2-.16-.71.13-1.85-1.1-1.74s-.86,1.18-.87,1.92c0,2.45,0,4.91,0,7.89-1.5-1.64-1.22-3.22-1.5-4.62-.2-1-.3-2.06-.46-3.09-.12-.74.12-1.84-1-1.87s-1,1-1.07,1.8c-.13,1.52-.25,3-.41,4.55-.08.76.16,1.62-.65,2.32-.87-1.6-.68-3.37-1-5-.74-4.5-1.39-9-2.15-13.51-.3-1.78.14-2.86,2-3.35a15.6,15.6,0,0,0,9.24-6c.4-.56.65-.79,1.28-.23,2.67,2.37,5.38,4.7,8.11,7.08-1,.86-2,.57-2.91.58-2.86,0-3.55.59-3.75,3.44-.25,3.44-.43,6.88-.52,10.32A23.59,23.59,0,0,1,24.6,216.49Z"/><path id="Trazado_328" data-name="Trazado 328" class="cls-13" d="M183.85,95.68l.48.94c1.06,3.54.78,4.1-2.65,4.66-1.05.17-1.71.57-1.56,1.63a1.58,1.58,0,0,0,1.75,1.39l.17,0a8.82,8.82,0,0,0,4.59-2.33,16,16,0,0,1-.31,2.85c-.51,1.81-1.88,2.52-3.51,1.65s-2.18-1.07-3.07,1c-1,2.29-2.82,4.6-5.74,4.4-1.65-.1-2.56,2.11-4.49.8a15.94,15.94,0,0,1-5.43-6.55c-.45-.93-.93-1.85-1.4-2.77,1.45-4.28,2.86-8.56,4.35-12.83a2.1,2.1,0,0,1,2.5-1.4,32,32,0,0,1,4.6,1.28c1,.37,1.82,1.12,1.23,2.4s-1.53,1.18-2.59.59c-.65-.36-1.36-1.18-2.08-.24-.59.77-.05,1.44.45,2.12,1.52,2.1.27,4.31.13,6.47-.08,1.27-1.14,3.1.79,3.37,1.78.26,1.9-1.77,2.16-3.14s-.4-2.83-.49-4.26c.09-.34,0-.82.52-.88s.75.36,1,.76c.17,2,1.55,2.89,3.31,3.15s3-.79,3.95-2.17C183.11,97.65,182.93,96.4,183.85,95.68Z"/><path id="Trazado_329" data-name="Trazado 329" class="cls-14" d="M23.42,159.63c-.61-8.81,1.5-27.39,3.57-32.18C31.62,145.59,30.11,143.27,23.42,159.63Z"/><path id="Trazado_330" data-name="Trazado 330" class="cls-15" d="M73.62,49.07c-3.43,0-5.93-2.18-5.92-5.24,0-3.32,3.53-6.42,7.31-6.45,3,0,4.87,2,4.92,5.25a6.23,6.23,0,0,1-6,6.44Z"/><path id="Trazado_331" data-name="Trazado 331" class="cls-2" d="M88.91,40.56c1-1.85,1.49-3.71,3.13-3.94,1.27-.18,1.43,1.67,2.09,2.63,1.47-1,.26-2.26.32-3.52,1.9,0,3,.73,2.94,2.79,0,1.43.25,2.87.25,4.31a4.72,4.72,0,0,1-3.53,4.6c-2.12.52-3.46-.63-4.68-2.17a1.87,1.87,0,0,1-.11-2.66,1.71,1.71,0,0,1,.47-.37c1.15-.92,1.84-.44,2.41.73.25.52.71.91,1.34.41s.42-1,.14-1.5C92.71,40,91.2,39.56,88.91,40.56Z"/><path id="Trazado_332" data-name="Trazado 332" class="cls-16" d="M37.22,271.12H36.4a1.88,1.88,0,0,1,.86-1.89Z"/><path id="Trazado_333" data-name="Trazado 333" class="cls-14" d="M95.79,370.87a121.71,121.71,0,0,1-16.41-1.22,7,7,0,0,1-2.49-.75c-1.1-.67-1.91-1.2-2.56.48-.27.7-1.1.51-1.73.35-2.93-.76-5.86-1.57-8.8-2.3-1.17-.29-1.11-1.17-1.19-2.05-.14-1.72-1.29-4.24-.28-5,1.3-1,3,1.17,4.41,2,10.8,6.16,22.38,7.6,34.53,6.1,5.47-.68,11-1.27,16.4-2.19,1.44-.24,2.72-.9,4.13-1.16.58-.1,1.25-.75,1.67.12a1.45,1.45,0,0,1-.73,1.83,10.76,10.76,0,0,1-4,1.58A122.09,122.09,0,0,1,95.79,370.87Z"/><path id="Trazado_334" data-name="Trazado 334" class="cls-14" d="M54.7,370.29a4.87,4.87,0,0,1-3.07,5.48c-10.63,5-20.9,3.8-30.86-2-1.42-.82-1.27-2.25-1.24-3.78C31.2,377.86,42.88,379,54.7,370.29Z"/><path id="Trazado_335" data-name="Trazado 335" class="cls-17" d="M83,211.11a1.89,1.89,0,0,1,.69-2.13c.24,4,.59,7.55-.21,11.16C83,217.15,84.08,214.08,83,211.11Z"/><path id="Trazado_336" data-name="Trazado 336" class="cls-1" d="M79.09,53.93c.8.84,1.2,1.31,1.65,1.74,2,1.93,3.63,2,6.1.24.71-.52,1.31-1,2,0s0,1.31-.48,1.83a6,6,0,0,1-6.43,1.08C80.16,57.91,78.75,56.72,79.09,53.93Z"/><path id="Trazado_337" data-name="Trazado 337" class="cls-18" d="M56.35,48.14c-.14.69-.52,1.13-1,.68a8.06,8.06,0,0,0-4-1.91.55.55,0,0,1-.49-.6.54.54,0,0,1,.36-.46c1-.6,2-.12,3,.34A4,4,0,0,1,56.35,48.14Z"/><path id="Trazado_338" data-name="Trazado 338" class="cls-4" d="M72,45.83c-.75-2.37.2-4.72,2-5.42s3.81.4,4.69,2.32c.26.56.38,1.07-.18,1.47a1.05,1.05,0,0,1-1.32,0C73.86,42,73.85,42,72,45.83Z"/></svg>