<svg id="Capa_1" data-name="Capa 1" xmlns="http://www.w3.org/2000/svg" viewBox="0 0 183.67 279.04"><defs><style>.cls-1{fill:#090609;}.cls-2{fill:#e2ae65;}.cls-3{fill:#ca6f44;}.cls-4{fill:#69aeb2;}.cls-5{fill:#fff;}.cls-6{fill:#fffffe;}.cls-7{fill:#c96e43;}.cls-8{fill:#c86e43;}.cls-9{fill:#c96f43;}.cls-10{fill:#c56d43;}.cls-11{fill:#bc673e;}.cls-12{fill:#c16a40;}.cls-13{fill:#c36a41;}.cls-14{fill:#dea159;}.cls-15{fill:#dd9c54;}.cls-16{fill:#a45b36;}.cls-17{fill:#dd9e56;}.cls-18{fill:#d5954c;}.cls-19{fill:#d4924a;}.cls-20{fill:#59301b;}.cls-21{fill:#b68c6a;}.cls-22{fill:#b0613a;}.cls-23{fill:#6b4c23;}.cls-24{fill:#b0623a;}.cls-25{fill:#f6e9e3;}.cls-26{fill:#23150e;}.cls-27{fill:#454646;}.cls-28{fill:#0b0a0c;}.cls-29{fill:#162f2e;}</style></defs><g id="Grupo_35" data-name="Grupo 35"><path id="Trazado_771" data-name="Trazado 771" class="cls-1" d="M88.47,247.9c-.85,1-1.69,1.59-2.9.92a1.77,1.77,0,0,0-.67-.22c-.87-.12-1.81-.29-2.4.6s.11,1.62.92,2.33c-2.94,1.73-5.8,3.39-8.63,5.1a41,41,0,0,0-8.71,6.49,7.75,7.75,0,0,0-2.57,6.26c.11,1.52-.6,3.09.58,4.49A11.54,11.54,0,0,0,69.46,277c10.6,3.64,20.76,2.09,30.66-2.57,4.61-2.17,9-4.71,13.39-7.32a15.62,15.62,0,0,0,4.43-3.7,5.8,5.8,0,0,0,1.1-6.07,2.25,2.25,0,0,1-.08-1.67c1-3,.91-4.13-.39-7.27,3.91.51,8.07.23,11.46,1.73,2.95,1.3,5.27-.13,7.83.19,4.2.52,8.44.7,12.56,1.84a71.38,71.38,0,0,1,7.82,2.55c2.45,1,4.93,1.6,7.3-.34.37-.3,1-.23,1.49-.4,2.9-1,4-3.42,4.59-6.15a3.34,3.34,0,0,1,1-2c6.67-6,9.62-13.79,10.63-22.48s0-17.2-1.1-25.76c-1.4-10.86-2.83-21.72-5.22-32.42a142.56,142.56,0,0,0-5.4-18.69c-.48-1.29-.62-2,1-2.49A16,16,0,0,0,179,140a11.14,11.14,0,0,0,2.73-12c-2.13-6.43-4.47-12.8-6.74-19.18a2,2,0,0,1,.06-2.09,1.9,1.9,0,0,0-.15-2c-4.6-7.53-8.57-15.51-15.09-21.69-8.49-8-18.8-11.63-30.3-12a6.16,6.16,0,0,1-4.85-2.29c-1.82-2.15-3.66-4.31-3.47-7.41,0-.49-.12-1,.71-1.13,7.77-1,11.56-6.27,13.16-13.22,2.35-10.16.12-19.75-4.76-28.79A39.52,39.52,0,0,0,118.4,4.67C109.66-1.6,100.56-1.64,91.8,5A51.82,51.82,0,0,0,72.31,35.26,27.27,27.27,0,0,0,74,51.65a9.58,9.58,0,0,0,3.46,4.55A1.45,1.45,0,0,1,78.06,58a42.1,42.1,0,0,0-.6,10.51c.06.65-.11,1-.71,1.17-4.19,1.4-6.24,4.66-7.58,8.6-4,11.84-6.47,24-8.35,36.39-1.44,9.5-3,19-3.65,28.58-.54,7.66-.88,15.34-1.25,23-.35,7.2-.83,14.39-1.78,21.55-.15,1.13-.55,1.3-1.57,1.18-6.22-.76-12.45-1.52-18.68-2.17-6.73-.7-13.42-.83-20.1.72C.43,190.58-1.8,201.29,1.14,210.71,3.77,219.15,9.6,224.85,17,229.15c8.52,4.92,17.78,8,27.22,10.56a309.94,309.94,0,0,0,43.46,8.1Z"/><path id="Trazado_772" data-name="Trazado 772" class="cls-2" d="M79.33,111.23A73.75,73.75,0,0,1,80,99.35,35.91,35.91,0,0,1,81.53,107c1.16,10.14,1.48,20.34,2.1,30.52.6,9.89,1,19.79,1.59,29.68a61.13,61.13,0,0,1-1,13.64,15.24,15.24,0,0,0,.24,5.94c.87,3.85,3.88,6.32,8.2,6.79a39.51,39.51,0,0,0,5.44,0c1.26,0,1.54-.57,1.43-1.76a75.51,75.51,0,0,1,.31-18.58c1.38-8.87,4.29-17.29,11.66-22.73,10.69-7.89,20.76-16.67,32.32-23.37,2.43-1.41,4-3.92,6.62-5,1.11-.46.16-1-.2-1.43-4.31-4.81-7.32-10.43-10.14-16.16a1.27,1.27,0,0,1,0-.92c2.79,3.46,5.15,7.23,7.93,10.36,7.08-4.26,14.77-6.56,22.9-8.18-2.49-6.23-5.39-12.19-9.84-17.25a47.29,47.29,0,0,0-28.23-15.82,1.56,1.56,0,0,0-2,1v0c-1.28,2.32-1.85,4.94-3.25,7.17-3.48,5.49-8.69,8.36-14.92,9.58a23.83,23.83,0,0,1-10.46-.32,11.48,11.48,0,0,1-7.94-6.37,2.66,2.66,0,0,0-2.68-1.69,23.4,23.4,0,0,1-6.5-1.36c-4-1.27-6.53-3.79-7-8-.19-1.75-.85-1.69-2.11-1a9.39,9.39,0,0,0-3.62,4.19c-2.47,4.6-3.47,9.67-4.44,14.72-.83,4.32-1.51,8.65-2.33,13-.14.74-.07,1,.7,1.17A26.45,26.45,0,0,1,79.33,111.23Z"/><path id="Trazado_773" data-name="Trazado 773" class="cls-3" d="M103,194.26a68.32,68.32,0,0,0,.63-10.7c0-.6-.18-1.45.76-1.49s1,.77,1.09,1.5c.33,3.86.64,7.71,1,11.56.09,1,.1,2.67,1.15,2.6s1.11-1.72,1.09-2.8c-.1-3.81-.27-7.62-.4-11.43a6,6,0,0,1,.07-1.4.7.7,0,0,1,.81-.52c.67,0,.82.5.93,1.06q1,5.09,2.06,10.16a20.7,20.7,0,0,0,.74,2.52A.93.93,0,0,0,114,196a.9.9,0,0,0,.69-.91,17.47,17.47,0,0,0,.16-2.28c-.13-3.86-.3-7.73-.46-11.6,0-.76,0-1.48.94-1.62s1.15.64,1.29,1.33c.65,3.21,1.25,6.44,1.92,9.65.35,1.7.78,3.38,2.59,4.62a45,45,0,0,0,.34-6.66c0-4.58-.49-9.13-.89-13.69a43.71,43.71,0,0,1,.67-10.83c.52-3.24.89-6.49-.19-9.86,1,.52.91,1.52,1.42,2.12,3.45-2.13,7.45-2.73,11.26-3.81,11.88-3.36,23.81-6.56,35.7-9.89,3.42-1,6.63-2.43,8.87-5.36,1.79-2.32,2.5-4.59,1.22-7.73-2.83-6.93-5.13-14.08-7.53-21.17-.55-1.62-1.23-1.81-2.77-1.29a93.32,93.32,0,0,0-17.79,7.89,5.57,5.57,0,0,1-1.86.69c.74,1.48,2.13,2.37,3,3.64,1.3,1.82,1.14,2.2-.62,3.46-6.14,4.38-12.43,8.55-18.43,13.15-1.57,1.21-3.27,2.27-4.81,3.55a5.35,5.35,0,0,1-1.53,1.47c-.42.24-.68.67-1.11.9a47.52,47.52,0,0,0-4.17,3.33c-.64.48-1.23,1-1.87,1.5-2.49,1.83-4.69,4-7.22,5.79-6.11,5-9.45,11.6-10.81,19.28-1.26,7.09-.75,14.22-.58,21.35a2.38,2.38,0,0,0,.88,2C103,195.2,102.74,194.52,103,194.26Z"/><path id="Trazado_774" data-name="Trazado 774" class="cls-4" d="M97.86,19.44,93.69,15a19,19,0,0,1-1.4-1.58c-.32-.45-.85-1-.2-1.53s1,.08,1.33.43c8.41,9.27,18,17.56,24.84,28.18a46.36,46.36,0,0,1,5.36,11.2c.66,2.06.74,4-.61,5.85a1.76,1.76,0,0,0-.52,1.68,13.33,13.33,0,0,0,7.25-4.87,20,20,0,0,0,4.48-12.5c.45-12.72-3.6-23.81-12.93-32.57-10.46-9.81-21-9.78-31.66-.08A50.36,50.36,0,0,0,74.15,35.39a23.25,23.25,0,0,0,2.43,16.18,5.92,5.92,0,0,0,1.76,2.06c0-1.39,0-2.63,0-3.86A37.52,37.52,0,0,1,80,38a19,19,0,0,1,6-9.09,112,112,0,0,1,11.17-8.44,19.62,19.62,0,0,1-7.3-.87A10.14,10.14,0,0,1,88.45,19c-.58-.3-1.2-.72-.89-1.49s1.11-.49,1.66-.24a23.8,23.8,0,0,0,7.2,2.12A13.11,13.11,0,0,0,97.86,19.44Z"/><path id="Trazado_775" data-name="Trazado 775" class="cls-3" d="M78.05,112.4a40,40,0,0,0-12.27-4.58c-.79-.17-1,.16-1.12.88-2.42,13.85-4.76,27.7-5.32,41.8-.39,10-.52,20.05-1.4,30-.22,2.51-.53,5-.9,7.5-.13.93,0,1.31,1,1.45,3.25.43,6.48,1,9.71,1.54.62.1,1,.24,1.12-.73.53-8,1.83-15.82,2.91-23.7,1.81-13.29,3.83-26.55,6.61-39.67a38.14,38.14,0,0,0,1-12.86C79.17,113.33,78.48,113,78.05,112.4Z"/><path id="Trazado_776" data-name="Trazado 776" class="cls-3" d="M80.49,46.22a18.67,18.67,0,0,0,1.18,9.09,3.07,3.07,0,0,1,.17.31c.19.61-.11,1.65.81,1.66.77,0,1.23-.84,1.54-1.55.91-2.06,2-3.88,4.68-4.14a17.35,17.35,0,0,1-.75-2,3.14,3.14,0,0,1,2.26-3.83l.13,0c.3,0,.63-.08.8.18s-.07.52-.3.73c-1.07.9-2.26,2-1.15,3.37s2.53.3,3.69-.44c.58-.37,1.19-.78,1.64,0,.61,1.06-.52,1.36-1.1,2,1.16.39,2.29.71,3.37,1.16A6,6,0,0,1,101,56.22c1,2.63,2.59,3.36,5.27,2.41a12.41,12.41,0,0,0,5.37-3.83c2.43-2.84,3.83-6.27,5.66-9.47,1.11-1.93.61-3-.45-4.57-5-7.33-11.36-13.55-17.51-19.92-.41-.42-.71-.68-1.25-.1-3,3.19-6.73,5.66-10,8.58a20.63,20.63,0,0,0-5,6.11,18.72,18.72,0,0,1,4.68-1.85c.74-.15,1.65-.4,1.9.63s-.66,1.32-1.52,1.42c-2,.22-3.77,1.23-5.65,1.84-.52.16-.57.56-.68.92a13.89,13.89,0,0,0-.9,4.45C80.41,43.94,81,45.13,80.49,46.22Z"/><path id="Trazado_777" data-name="Trazado 777" class="cls-5" d="M116.61,248.33c-.63.52-1.21,1.08-1.87,1.55-3.27,2.32-6.72,1.68-8.92-1.72a36.81,36.81,0,0,1-1.8-3.4,5.91,5.91,0,0,0-3.44-3.08,2.9,2.9,0,0,0-3.77,1.15c-.68,1-1.41,2-2.14,3a19,19,0,0,1,3.43,2.84c-.56.45-.92-.07-1.15-.21-2.79-1.82-4.83-.6-6.78,1.45-.56.59-.6.83,0,1.3s1.49,1.28,2.42,2.09c-1.61.2-2.68-.61-3.86-.94a2.71,2.71,0,0,0-2.42.38c-4.14,2.64-8.36,5.15-12.53,7.75a32.17,32.17,0,0,0-4.89,3.72A9.46,9.46,0,0,0,66.77,267c-.6,1.24-.42,2.12,1.06,2.52,5.94,1.57,11.92,2.5,18,1.17A13,13,0,0,0,88.4,270q10.45-4.54,20.86-9.16a19.2,19.2,0,0,0,6.07-4.12C117.85,254.08,118.27,251.37,116.61,248.33Z"/><path id="Trazado_778" data-name="Trazado 778" class="cls-5" d="M141.32,241.51c.06,2.11.15,4.21.16,6.32,0,.66,0,1.12.85,1.19s.73-.52.85-1a31.41,31.41,0,0,1,1.77-5.68c.25-.54.46-1.47,1.18-1.27s.22,1.05.13,1.55c-.29,1.69-.18,3.4-.45,5.07s.45,2,1.8,2.2a52.2,52.2,0,0,1,11.1,3.19c1.86.75,3.8,1.6,5.6,0a6.88,6.88,0,0,0,2.19-6.54,13.11,13.11,0,0,0-5.77-8.88c-4.53-3.22-9.78-4.35-15.17-4.93a50.08,50.08,0,0,0-10.53-.14,1.56,1.56,0,0,0-1.56,1.08c-.58,1.51-1.28,3-1.85,4.56,2.14-1.67,4.27-3.26,7.3-2.69-.43.56-1,.51-1.56.68A7.81,7.81,0,0,0,132,245.6a8.84,8.84,0,0,1,.41,2.93c-.17,1.22.53,1.14,1.18,1,1.38-.24,2.74-.6,4.1-.94a2.21,2.21,0,0,0,1.61-2.07,30.42,30.42,0,0,1,1.43-5.06C140.92,241.22,141.12,241.18,141.32,241.51Z"/><path id="Trazado_779" data-name="Trazado 779" class="cls-5" d="M79.85,127.42c-1.42,10.25-2.9,20.5-4.25,30.76-1.37,10.45-2.48,20.94-4,31.36-.33,2.2.51,2.2,2,2.32a25.06,25.06,0,0,0,8.55-.3c.72-.19,1-.33.63-1.15a17.2,17.2,0,0,1-1.22-10.79c1-6.57.84-13.19.42-19.81-.68-10.82-1.22-21.64-1.82-32.46Z"/><path id="Trazado_780" data-name="Trazado 780" class="cls-3" d="M120.68,67.31c-3.13,6.73-8.53,10.53-15.09,13a28,28,0,0,1-8.2,1.77c-1.11.06-1.15.44-.64,1.26a9.47,9.47,0,0,0,4.65,4.09c9.14,3.52,20.61-.51,25.51-9,.67-1.17,1.94-2.36,1.88-3.48-.07-1.27-2.08-1.22-3.13-2A18.41,18.41,0,0,1,120.68,67.31Z"/><path id="Trazado_781" data-name="Trazado 781" class="cls-2" d="M178.38,187.61c-1.29-10.48-3.56-20.77-5.81-31.07-.74-3.37-1.38-6.76-2-10.16-.19-1-.41-1.47-1.67-1-2.7.93-5.48,1.7-8.26,2.36-1.3.31-1.26.69-.66,1.69a217.07,217.07,0,0,1,15,30.52c1.06,2.66,2,5.36,3,8C178.34,188.06,178.48,188,178.38,187.61Z"/><path id="Trazado_782" data-name="Trazado 782" class="cls-6" d="M118.09,257.5c-3.23,4.09-7.56,5.78-11.77,7.66s-8.44,3.74-12.66,5.63a5.36,5.36,0,0,0-2.71,1.8,3.11,3.11,0,0,1-2,1,38,38,0,0,1-21.63-1c-.43-.15-.87-.27-1.47-.45A3.5,3.5,0,0,0,68,273.88c7.06,3.27,14.35,3.46,21.79,1.6,7.11-1.78,13.56-5.05,19.81-8.78,1.85-1.11,3.72-2.21,5.49-3.46A6.4,6.4,0,0,0,118.09,257.5Z"/><path id="Trazado_783" data-name="Trazado 783" class="cls-3" d="M119.54,242.65c-2.75-1-5.29-1.85-7.8-2.78a16.49,16.49,0,0,1-5-2.77c-.81-.69-1.17-.5-1.44.4a.48.48,0,0,1-.08.16c-1.28,1.73-1.62,3.21.3,4.94,1.06,1,1.38,2.67,2.16,4,1.84,3.06,3.8,3.44,6.63,1.28A44,44,0,0,0,119.54,242.65Z"/><path id="Trazado_784" data-name="Trazado 784" class="cls-6" d="M135.38,228.74c.2.75-.55,1.27-.44,2a49,49,0,0,1,20.72,2.58,25.53,25.53,0,0,1,7.82,4.25c4.19,3.43,5.63,7.76,4.21,13-.09.33-.36.62-.16,1,.43,0,.54-.4.73-.68a11.49,11.49,0,0,0-3.36-15.3c-4.23-2.67-9-3.83-13.78-5a55.55,55.55,0,0,0-13-1.83c-.92,0-1.86-1-2.77,0Z"/><path id="Trazado_785" data-name="Trazado 785" class="cls-7" d="M135.35,228.13c.42-1.76.9-3.51,1.25-5.29,2-10,6.23-19.34,8.46-29.28.75-3.36,1.73-6.67,2.48-10a2.27,2.27,0,0,1,1.9-2.08c1.45-.34,2.8-1.12,4.32-1.34a5.63,5.63,0,0,0-3.56.05c-2,.56-1.92.55-1.55-1.4a77.56,77.56,0,0,0,1.57-8.26c.08-.34.34-.75-.32-.78-.84,3.29-1.7,6.56-2.51,9.85-3,12.45-6.88,24.68-10.38,37-1.07,3.75-1.93,7.57-2.88,11.35-.1.42-.4.92.23,1.2C134.82,228.92,135,228.46,135.35,228.13Z"/><path id="Trazado_786" data-name="Trazado 786" class="cls-8" d="M61,206c13.5,4,27.4,6.33,41.1,10.69a7.41,7.41,0,0,0-3.37-2,108.06,108.06,0,0,0-12-3.4c-7.83-2-15.65-4-23.58-5.5C62.45,205.63,61.73,205.32,61,206Z"/><path id="Trazado_787" data-name="Trazado 787" class="cls-9" d="M118.1,246.62c3.23.43,6.24.85,9.25,1.23,2,.24,2.42-.28,2.18-2.28-.05-.34-.07-.69-.11-1.18-2.09,1.15-3.9-.06-5.75-.53-3.33-.85-3.31-.92-5.15,2C118.41,246,118.31,246.24,118.1,246.62Z"/><path id="Trazado_788" data-name="Trazado 788" class="cls-10" d="M120.22,48l.81,8.73c1.92-1.1,2.56-2.7,1.81-4.6a32.61,32.61,0,0,0-2.27-4.91C119.89,47.25,120.14,47.67,120.22,48Z"/><path id="Trazado_789" data-name="Trazado 789" class="cls-11" d="M105.18,210.53l-3.48,14.85.55.13a65.43,65.43,0,0,0,3.28-14.21C105.64,210.94,105.85,210.53,105.18,210.53Z"/><path id="Trazado_790" data-name="Trazado 790" class="cls-10" d="M90.65,60a6.36,6.36,0,0,1-2.57-2.62A5.24,5.24,0,0,0,86.76,61a1.37,1.37,0,0,0,.77,1.27c.53.24.87-.13,1.21-.45Z"/><path id="Trazado_791" data-name="Trazado 791" class="cls-12" d="M89.3,56.43c1.68,1.88,3.49,2.33,5,1.33.28-.18.7-.35.57-.76-.07-.2-.41-.35-.66-.46A7,7,0,0,0,89.3,56.43Z"/><path id="Trazado_792" data-name="Trazado 792" class="cls-13" d="M96.65,59c-.84.42-1.57.77-2.28,1.15-.37.2-1.15-.08-1.09.56a2.89,2.89,0,0,0,.84,1.48,1.1,1.1,0,0,0,1.46,0A2.8,2.8,0,0,0,96.65,59Z"/><path id="Trazado_793" data-name="Trazado 793" class="cls-14" d="M112.82,152.42c1.85-.34,2.78-2,4.22-3a35.5,35.5,0,0,0,3.22-2.66c.06-.31,0-.49-.38-.36A49.19,49.19,0,0,0,112.82,152.42Z"/><path id="Trazado_794" data-name="Trazado 794" class="cls-15" d="M122,145.39l4.25-3.47a.37.37,0,0,0,0-.52l0,0a35.09,35.09,0,0,0-4.58,3.65C121.66,145.25,121.88,145.28,122,145.39Z"/><path id="Trazado_795" data-name="Trazado 795" class="cls-16" d="M105.18,210.53l.35.77a15.69,15.69,0,0,0,.62-3.6l-.54-.08Z"/><path id="Trazado_796" data-name="Trazado 796" class="cls-17" d="M122,145.39l-.41-.37-1.73,1.42.38.36Z"/><path id="Trazado_797" data-name="Trazado 797" class="cls-18" d="M78.05,112.4c.08.85.74,1.23,1.35,1.67C79.69,112.91,78.76,112.74,78.05,112.4Z"/><path id="Trazado_798" data-name="Trazado 798" class="cls-19" d="M127.3,141.18c.65-.44,1.33-.85,1.42-1.75a6,6,0,0,0-1.81,1.38C127,141,127.16,141.06,127.3,141.18Z"/><path id="Trazado_799" data-name="Trazado 799" class="cls-20" d="M106.57,204.91c-.74.78-.89,1.3-.4,2.09C106.67,206.35,106.49,205.78,106.57,204.91Z"/><path id="Trazado_800" data-name="Trazado 800" class="cls-21" d="M80.49,46.22c.71-1.06.23-2.25.35-3.37A7.69,7.69,0,0,0,80.49,46.22Z"/><path id="Trazado_801" data-name="Trazado 801" class="cls-22" d="M149.9,169.71l.32.77a3.64,3.64,0,0,0,.26-2.41A2.71,2.71,0,0,0,149.9,169.71Z"/><path id="Trazado_802" data-name="Trazado 802" class="cls-23" d="M178.38,187.61,178,188l.45,1.4A1.46,1.46,0,0,0,178.38,187.61Z"/><path id="Trazado_803" data-name="Trazado 803" class="cls-24" d="M120.22,48l.35-.78-.67-1.46A3.18,3.18,0,0,0,120.22,48Z"/><path id="Trazado_804" data-name="Trazado 804" class="cls-25" d="M135.35,228.13c-.71,0-.75.57-1,1,.5.3.7-.2,1-.38l0,0Z"/><path id="Trazado_805" data-name="Trazado 805" class="cls-26" d="M103,194.26c-.28.22-.23.73-.67.82,0,.21,0,.53.12.62.32.22.29-.19.38-.33A1.32,1.32,0,0,0,103,194.26Z"/><path id="Trazado_806" data-name="Trazado 806" class="cls-27" d="M141.32,241.51c0-.3.24-.75-.2-.78s-.48.39-.42.76Z"/><path id="Trazado_807" data-name="Trazado 807" class="cls-15" d="M127.3,141.18l-.39-.37-.72.56c0,.19,0,.37.08.55Z"/><path id="Trazado_808" data-name="Trazado 808" class="cls-1" d="M130.14,32.76c-2.89-7.09-7.67-12.71-13.64-17.88-.1,1.5.8,2,1.37,2.64,3.5,3.79,7.07,7.5,9.72,12,.78,1.3,1.5,2.65,2.25,4C130.49,33.46,130.28,33.09,130.14,32.76Z"/><path id="Trazado_809" data-name="Trazado 809" class="cls-1" d="M127.67,38A16.25,16.25,0,0,0,125,32.56a97.73,97.73,0,0,0-10-12.89,3.47,3.47,0,0,0-2.24-1.42c5.24,6.87,11.23,12.8,14.64,20.5C128,38.74,127.85,38.4,127.67,38Z"/><path id="Trazado_810" data-name="Trazado 810" class="cls-28" d="M127.67,38l-.31.71a2.17,2.17,0,0,0,.82,1.59A3.85,3.85,0,0,0,127.67,38Z"/><path id="Trazado_811" data-name="Trazado 811" class="cls-29" d="M130.14,32.75l-.3.69c.18.53.26,1.12.95,1.42A3.21,3.21,0,0,0,130.14,32.75Z"/><path id="Trazado_812" data-name="Trazado 812" class="cls-1" d="M107.71,38.51c-1.09-2.58-4.77-4.82-7.28-4.6-.74.06-1.48.3-1.52,1.16s.74,1.07,1.36,1.06A12.58,12.58,0,0,1,107.71,38.51Z"/><path id="Trazado_813" data-name="Trazado 813" class="cls-1" d="M84.38,41.4c.3.9.1,2.4,1.58,2.41,1.32,0,1.5-1.32,1.52-2.35a1.86,1.86,0,0,0-1.57-2.12h-.06C84.7,39.27,84.41,40.27,84.38,41.4Z"/><path id="Trazado_814" data-name="Trazado 814" class="cls-1" d="M103.86,42c0-.53-.07-1-.13-1.46a1.38,1.38,0,0,0-1.41-1.33h-.15c-.8.06-1,.71-1,1.42a5.81,5.81,0,0,0,.34,2.41c.27.66.51,1.42,1.42,1.26s.89-1,.93-1.67C103.87,42.42,103.86,42.18,103.86,42Z"/></g></svg>