<svg id="Capa_1" data-name="Capa 1" xmlns="http://www.w3.org/2000/svg" viewBox="0 0 278.22 401.52"><defs><style>.cls-1{fill:#fff;}.cls-2{fill:#090609;}.cls-3{fill:#69b0bd;}.cls-4{fill:#e8c1a1;}.cls-5{fill:#e8c0a1;}.cls-6{fill:#e8c09f;}.cls-7{fill:#f9f9f9;}.cls-8{fill:#e8bf9e;}.cls-9{fill:#e7be9e;}.cls-10{fill:#d7a882;}.cls-11{fill:#ac8668;}.cls-12{fill:#e4b38e;}.cls-13{fill:#53959e;}.cls-14{fill:#c59a78;}.cls-15{fill:#8e6e56;}.cls-16{fill:#654e3c;}.cls-17{fill:#09181b;}.cls-18{fill:#0f1314;}</style></defs><g id="Grupo_36" data-name="Grupo 36"><path id="Trazado_815" data-name="Trazado 815" class="cls-1" d="M278.21,356.47v5.1c-.16-.06-.35-.15-.49-.09-5.81,2.69-11.5.86-17.17-.52s-11.26-3.13-17.23-3.21c-4.85-.07-9.35,1.64-14.08,2.09-1.18.11-1.58,1.18-1.92,2.16a54.22,54.22,0,0,1-2,5.23,12.89,12.89,0,0,1-20.17,4.43c-2.77-2.34-3.35-2.33-5.36.63A169.94,169.94,0,0,1,189,387.12c-7.13,8.34-16,13.1-27.17,13.57-13.28.57-25.73-2.88-38-7.34-5.34-1.94-7.3-6.24-7.51-11.6s0-10.52,0-15.77c0-3.1-.36-3.38-3.37-3.14-3.37.26-6.45-.09-8.54-3.27-.92-1.4-2.22-.53-3.2-.07-5.6,2.65-11.29,5.14-16.47,8.6C77.43,373,70.57,378.42,63,382.9a42.78,42.78,0,0,1-12.76,5c-5.07,1.12-10,.2-14.87-.93s-9.91-2.39-14.82-3.77A15.73,15.73,0,0,1,13.16,378c-1-1.08-1.84-2.24-2.89-3.23-5.23-4.95-7.9-11.19-9-18.15-1.47-9.3-.4-18.45,1.94-27.5a34,34,0,0,1,8.35-15C24.06,301,37.51,289,53.12,279.53A15.11,15.11,0,0,1,56,278c4.47-1.45,6.8-4.78,8.37-9,3.16-8.44,6.13-16.93,9.08-25.44,2.64-7.63,5.54-15.16,7.7-23a78.52,78.52,0,0,0,2.6-17.58c.42-9.66,0-19.35.94-29,.3-3.1,0-3.41-3.2-3.87a34,34,0,0,1-3.76-.65c-1.85-.51-2.21-1.34-1.16-2.92,1.26-1.89,1.22-4.05,1.42-6.13.76-7.86,1.79-15.69,3-23.49,1.35-8.49,6.06-14.31,13.66-18.14,6-3,12.39-4.66,18.64-6.85a47.07,47.07,0,0,0,13.54-6.94,17.09,17.09,0,0,0,3.27-3.2c1-1.28.81-2.39-.71-3.1a28.86,28.86,0,0,1-10.21-7.85A3.84,3.84,0,0,0,116,89.68c-7,.17-14.1-.45-21.13.4-3.08.38-3.6-.27-2.61-3.15a154.28,154.28,0,0,0,7.07-31.77c.17-1.44.37-2.9-.52-4.2a1,1,0,0,1,0-1.38l.18-.14c1.22-1,1.3-2.52,1.5-3.95A95,95,0,0,1,102.87,33c4.88-17.63,17-27.48,34.34-31,17.95-3.64,34.09,1.11,47.73,13.3,8.1,7.22,13.3,16.45,16.19,27a97.21,97.21,0,0,1,3.09,21.12c.38,7.88.9,15.75.92,23.65,0,6-.24,6-6.1,6.25s-11.53.51-17.3.48a4.4,4.4,0,0,0-1,.09c-.9.19-2,.23-2.35,1.23s.59,1.7,1.28,2.29a65.62,65.62,0,0,0,16,10.26,164.78,164.78,0,0,0,19.92,7.07,50.25,50.25,0,0,1,11.17,4.89c7.59,4.49,10.27,11.89,11.84,19.92,1.92,9.75,1.84,19.56.81,29.39a26.26,26.26,0,0,0-.15,2.8c0,2.2-.67,3.79-3.13,4.2-1.65.28-2.23,1.46-2.5,3.08-1,6.33,0,12.55,1,18.73,1.6,10,4.66,19.67,7.11,29.48a222.76,222.76,0,0,1,5.74,35.93Q249,281.79,249,300.51A10.32,10.32,0,0,0,250.5,306a81.33,81.33,0,0,1,9.66,26.42c.1.5.19,1,.24,1.51.73,7.61,3.72,13.66,11.14,16.92a12.89,12.89,0,0,1,5.1,4.53C277,355.94,277.35,356.63,278.21,356.47Z"/><path id="Trazado_816" data-name="Trazado 816" class="cls-2" d="M278.21,356.47a18.53,18.53,0,0,0-8.17-7.33c-4.92-2.43-7.36-6.38-8.22-11.73-1.73-10.67-4.49-21.08-10.06-30.47a15,15,0,0,1-2.18-8.08c-.07-17.93-.69-35.82-3.44-53.59-1.8-11.68-5-23-7.9-34.42-2.65-10.38-4.88-20.82-4-31.67.14-1.63.54-2.34,2.24-2.6,1.53-.23,3.18-.37,3.39-2.83,1-12.05,1.53-24-.83-36-2.22-11.28-8.55-18.7-19.41-22.4-7-2.37-14.11-4.23-20.9-7.13A66.18,66.18,0,0,1,180.35,97a5.15,5.15,0,0,1-1.93-2.23c7-.28,14-.58,20.92-.84,6.58-.24,6.74-.33,6.53-6.88-.38-12-.21-24-2.13-35.84-3.65-22.56-14.88-39.62-37.06-47.57-17.81-6.39-34.93-4.61-50.34,7.1-9.07,6.9-13.38,16.63-15.45,27.52a39.32,39.32,0,0,0-1,7.55c0,2.4-1.39,3.34-3,4.32C99,51.15,99,53,98.71,55a165.36,165.36,0,0,1-7.3,32.44c-1.16,3.42-1,3.67,2.63,3.33a185.93,185.93,0,0,1,22.14-.5,3.33,3.33,0,0,1,2.79,1.3,24.71,24.71,0,0,0,10.25,7.74c1.88.73,1.14,1.35.33,2.25a30.81,30.81,0,0,1-12.42,8.17c-4.83,1.82-9.77,3.34-14.62,5.08q-3.7,1.33-7.29,3c-9,4.15-14.1,11.08-15.24,21-1,8.6-2.07,17.19-3.09,25.78a1.91,1.91,0,0,1-.82,1.65c-1.94,1.4-1.66,2.93.65,3.78A28.28,28.28,0,0,0,83,171.09c.71.09,1.51,0,1.34,1.29-1.41,10.22-.89,20.52-1.17,30.78a70.86,70.86,0,0,1-3.68,20.71c-5.18,15.49-10.44,31-16.28,46.22a11.48,11.48,0,0,1-6.6,6.87c-6.54,2.88-12.31,7.13-17.9,11.57-7.92,6.28-15.4,13.07-22.88,19.88C2.34,320.66-.91,336.36.2,353.59c.82,12.68,7.75,21.68,17.5,29a11.39,11.39,0,0,0,4.64,1.71c6.18,1.46,12.25,3.38,18.55,4.35,6.74,1,13-.41,19-3.33,7-3.4,13.18-8,19.37-12.64A120.06,120.06,0,0,1,102,359.88c1-.47,1.55-.93,2.26.67,1,2.17,3.31,2.76,5.54,3.07a12.19,12.19,0,0,0,5.62-.57v8.85c0,4.42-.16,8.84.64,13.21.68,3.67,2.51,6.7,5.94,8.07,14.36,5.76,29.06,10,44.8,7.7,10.51-1.53,18.4-7.46,24.68-15.7,3.24-4.24,6.3-8.63,9.26-13.08,1.2-1.8,2.05-2,3.56-.44,4.18,4.21,9.19,4.75,14.54,2.83,4.24-1.53,6.72-4.85,7.92-9,.94-3.25,2.14-4.9,6.11-5.71a49,49,0,0,1,24.34,1,65.05,65.05,0,0,0,12.41,2.67c3.08.29,6,.16,8.62-1.85Z"/><path id="Trazado_817" data-name="Trazado 817" class="cls-3" d="M116.16,345.28a58.35,58.35,0,0,1-9.55,5.78,14.33,14.33,0,0,1-2.8,1.18c-1.06.23-2.57,1-3.13-.5s1.07-1.8,2-2.19a92.61,92.61,0,0,0,14.3-7.73,4.7,4.7,0,0,0,2.22-3.17,131.44,131.44,0,0,1,7.47-24,3.86,3.86,0,0,0,0-3.35,38.9,38.9,0,0,0-8.45-12.9,13.44,13.44,0,0,1-2.65-3.4c-.38-.73-.61-1.42,0-2.12a1.89,1.89,0,0,1,2.1-.49,9.8,9.8,0,0,1,4.6,3.06,35,35,0,0,1,7.27,12.45c1.71-3.46,3.27-6.68,4.88-9.87q1.08-2.16,2.34-4.22c.44-.73.75-2,2-1.37s.43,1.61,0,2.38c-3.87,6.15-6.26,12.94-8.55,19.78a181.89,181.89,0,0,0-9.81,64.32c0,1.19.17,2.37.22,3.56.18,3.89,2.2,6.25,5.9,7.34,10.25,3,20.45,6.17,31.28,6.49q18.17.53,29.16-13.77c8.72-11.4,16.29-23.6,24.53-35.34,1.12-1.6,1.9-3.93,3.43-4.65,4.16-2,2.26-5,1.8-7.63A18.67,18.67,0,0,0,211,324.8a7.06,7.06,0,0,0-1.23,3c-2.8,8.45-7.66,15.64-13.46,22.28-6.08,7-12.62,13.56-17.5,21.51-.81,1.31-1.9,2.72-3.7,1.6s-1.11-2.66-.39-4.07c2.23-4.34,5.39-8,8.52-11.7,4.71-5.58,9.9-10.74,14.27-16.62a51.74,51.74,0,0,0,8.62-17.73,66.35,66.35,0,0,0,2.07-25.35c-.55-4.34-1.45-8.66-2-13-.39-3-.06-5.91-.11-9.2A64.56,64.56,0,0,1,194.9,280c-8.94,2.45-18.08,2.84-27.27,2.6-18.89-.49-37.62-2.11-55.68-8.18-5.77-1.94-11.4-4.29-17.31-5.83-2-.53-4.06-1.32-5.3-3.27-.35-.55-.67-.55-1.21-.14-4.62,3.56-10.22,5.2-15.4,7.7C55,281.45,38,291.15,24,305.18,15.38,313.73,9,323.66,6.84,335.8c-2.67,14.79.58,28.28,9.32,40.48a5.11,5.11,0,0,0,3,2.22c6.75,1.64,13.47,3.41,20.25,4.92,7.12,1.58,13.79.08,20.09-3.48a99.45,99.45,0,0,0,13.95-9.33c8.1-6.55,17.48-10.53,27.05-14.19,4.83-1.84,9.71-3.6,14.91-4.07,1.1-.1,1.77-.73,1.49-1.57-.53-1.58.4-3,.13-4.51C116.71,346,117.2,345,116.16,345.28Z"/><path id="Trazado_818" data-name="Trazado 818" class="cls-4" d="M231.42,355.35c1.67.21,3.16-.72,4.76-1,8.17-1.29,16-.05,23.84,2.34,4.29,1.31,8.65,2.37,13.4,1.79a5.81,5.81,0,0,0-3.3-3.76c-9-4.25-12-11.89-12.9-21.19s-2.81-18.1-7.86-26.05c-.54-.84-.83-1.55-2.2-1.53-2.31,0-2.74-1.9-2.78-3.79-.1-4.08-.25-8.16-.21-12.23.24-24.66-3.2-48.86-8.42-72.91-2.77-12.77-4.58-25.75-3.62-38.92.08-1.13-.25-1.52-1.37-1.5-6.29.06-12.55.43-18.82,1-1.55.13-1.27,1.4-1.38,2.3-1,7.92-1.81,15.85-2.81,23.76a178.09,178.09,0,0,0-1.5,22.6c0,9.83,2.94,19.05,5.36,28.4,1.52,5.87,4.26,11.23,6.71,16.71,5,11.21,10.1,22.38,15.14,33.58.73,1.61,1.55,3.14.06,4.94-.74.9,0,2.3-.06,3.48,0,1.4.41,2.9-1.08,3.94-.74.51-.19,1,.19,1.47,6,7.14,5.8,15.6,5.19,24.18-.32,4.51-1.5,8.52-5.7,11A1.14,1.14,0,0,0,231.42,355.35Z"/><path id="Trazado_819" data-name="Trazado 819" class="cls-4" d="M158.93,52.8a24.73,24.73,0,0,1-.66,11.9c-2.06,7.85-15.42,9.87-20.1,4.08-3.65-4.53-6.22-9.53-6.33-15.46,0-1.44-.55-1.69-1.73-1.79-1.76-.16-3.32.56-5,.95-.41.1-.91.24-.68.81,1.2,3-.61,5.78-.64,8.6.27.46.47.12.63,0,1-.43,2.25-1.4,3-.36s-1,1.3-1.51,2c-1.17,1.4-2.08,2.9-.79,4.55s2.89,1,4.38.21a16.19,16.19,0,0,0,1.9-1.28,1.37,1.37,0,0,1,1.94,0,1.48,1.48,0,0,1,.25.31c.65.92.18,1.55-.54,2.17-4.63,4-9.7,2.38-11.09-3.68a10.86,10.86,0,0,1-5.21,3.57c-.93.25-.89.78-.85,1.52a45.78,45.78,0,0,0,3.54,15.8c3.84,8.67,12.26,12.68,21.5,10.37a73.71,73.71,0,0,0,9.17-3c.71-.28,1.57-.62,2,.31s-.34,1.36-1,1.73a34.14,34.14,0,0,1-14.22,4.39,2.69,2.69,0,0,0-2.8,1.9c-2.35,5.85-3.9,11.81-2.37,18.11,2.68,11,14.34,18.24,26.19,16.5,12.43-1.82,22.28-11.38,25.48-24.59.54-2.23.22-4.5.67-6.72a2.4,2.4,0,0,0-1.24-2.55,47.23,47.23,0,0,1-8.45-7.33,2.28,2.28,0,0,0-2.21-.9,25.07,25.07,0,0,1-4.9,0c-2,0-2.51-.74-1.79-2.69a110.1,110.1,0,0,0,6.58-37.13c0-2.2-.53-3.28-3-3.1-2.15.15-4.33-.37-6.42.76C161.65,53.39,160.38,53.11,158.93,52.8Z"/><path id="Trazado_820" data-name="Trazado 820" class="cls-4" d="M67.67,272.62c5.65-3.27,11.68-5.74,17.6-8.42,1.69-.76,2.15-1.86,1.76-3.4-1.34-5.35,0-10.22,2.49-14.9.89-1.64,1.75-3.3,2.72-4.89,4.76-7.81,6.8-16.38,7.09-25.42.47-14.7-.84-29.36-1.17-44,0-1.31-.24-1.75-1.74-1.33a42.28,42.28,0,0,1-10.56,1.22c.9,6.52.73,13,1.2,19.49,1.16,16.16-2.09,31.48-7.69,46.53-3.9,10.47-7.12,21.18-10.66,31.78-.29.88-.72,1.71-1.09,2.57A.77.77,0,0,0,67.67,272.62Z"/><path id="Trazado_821" data-name="Trazado 821" class="cls-1" d="M213,312.65c-.34,2.05-.63,4.05-1,6-.18.95.49,1.34,1,1.89,5.61,6.1,8.05,12.94,6.48,21.43a20.07,20.07,0,0,1-3.49,7.8c-3.49,5.21-7.08,10.35-10.6,15.54-.45.66-1.21,1.22-1.05,2.34,1.78-.29,3.2.48,4.67,1.39,4.44,2.77,9.6,1.35,12.19-3.24,1.38-2.45,2-5.18,3-7.81,1.3-3.66,3-7,6.48-9.11a4,4,0,0,0,1.88-2.89c1-6,1.69-12.12.25-18.18a17,17,0,0,0-10.5-12.22A72.21,72.21,0,0,0,213,312.65Z"/><path id="Trazado_822" data-name="Trazado 822" class="cls-1" d="M228.35,315.39c2.38-4.83.83-9.14-1.18-13.59-3.68-8.16-7-16.47-10.56-24.7-.35-.82-.13-2.33-1.54-2.24s-3,.48-3.8,2.11a8.93,8.93,0,0,0-.68,5.71c1.8,8.48,3,17,2.5,25.72a1.44,1.44,0,0,0,1.09,1.73l.2,0A63.91,63.91,0,0,1,228.35,315.39Z"/><path id="Trazado_823" data-name="Trazado 823" class="cls-4" d="M151.78,48.38c.67,1.63,2.68,3.21,1.5,4.37-.93.91-2.53-1-3.71-1.88-3.79-2.72-7.8-3.57-12.21-1.77-2.68,1.1-4,2.95-3.51,5.77a23.16,23.16,0,0,0,5.25,11.94,9.76,9.76,0,0,0,10.4,3c4-1,6.82-3.24,7.6-7.58a25.08,25.08,0,0,0,.53-8.59C157,49.78,156.19,49,151.78,48.38Z"/><path id="Trazado_824" data-name="Trazado 824" class="cls-5" d="M148.45,39c-.45.86-.86,1.6-1.24,2.35-1.43,2.88-.73,4.24,2.53,4.67a25.1,25.1,0,0,1,5.94,1.29,4.22,4.22,0,0,1,1.57.82c3.91,4.52,9.07,2,13.69,2.47,1,.1.84-.73.67-1.23-.39-1.2.43-3-1.83-3.31-5.31-.61-10.59-1.54-15.91-1.91-2.7-.19-4.3-.91-4.58-3.72A1.57,1.57,0,0,0,148.45,39Z"/><path id="Trazado_825" data-name="Trazado 825" class="cls-6" d="M126.73,43.32c-3.38,0-6.77,0-10.16,0-.72,0-1.63-.24-1.71.93s.8,1.09,1.52,1.26c4.81,1.11,9.74,1,14.62,1.48,2.06.19,4.07.78,6.27.18s1.09-2,1.24-3c.2-1.38-1.1-.63-1.62-.64-3.38-.1-6.77,0-10.16,0Z"/><path id="Trazado_826" data-name="Trazado 826" class="cls-7" d="M107.94,357.39c.72.57,1.15.95,1.61,1.26,1.55,1.07,3.31,2.09,5.14,1.76,2.74-.5.87-3.08,1.6-4.57a7.75,7.75,0,0,0,.29-2.09Z"/><path id="Trazado_827" data-name="Trazado 827" class="cls-8" d="M115.57,55.65a1.91,1.91,0,0,1,2.83-.73c1.25.76.75,1.9.3,2.94a11.92,11.92,0,0,0-.5,1.16c-.18.56-.44,1.24.15,1.64a1.3,1.3,0,0,0,1.64-.25,9.69,9.69,0,0,0,2.68-4.94c.3-1.32-.12-2.73-2.2-2.39a8.33,8.33,0,0,1-3.3,0c-2.46-.61-3,.46-2.5,2.56a.53.53,0,0,0,.71.2A.58.58,0,0,0,115.57,55.65Z"/><path id="Trazado_828" data-name="Trazado 828" class="cls-8" d="M121.31,47.5a3.36,3.36,0,0,0,3.47,2.17c2.09-.07,4.23-.32,6.05,1.22.8.68,1.48.29,2-.6a20.7,20.7,0,0,1,2-2.31C130.16,48.27,125.87,47.5,121.31,47.5Z"/><path id="Trazado_829" data-name="Trazado 829" class="cls-9" d="M121.14,62.27c-1.85,1.12-3.7,1.34-5.49-.13a5.55,5.55,0,0,0-.12,3.35c.14,2.9.26,3,2.7,1.46a7.8,7.8,0,0,0,3.54-4.05C122,62.31,121.67,62.16,121.14,62.27Z"/><path id="Trazado_830" data-name="Trazado 830" class="cls-10" d="M119,49.09c-1.37-1.2-2.65-1.8-4.22-1.47-.07,0-.17.39-.12.43C115.85,49,117.34,48.79,119,49.09Z"/><path id="Trazado_831" data-name="Trazado 831" class="cls-11" d="M115.53,65.49l.13-3.35c-.18-.6-.5-.71-.54,0A6.17,6.17,0,0,0,115.53,65.49Z"/><path id="Trazado_832" data-name="Trazado 832" class="cls-12" d="M121.14,62.27l.63.63a3.42,3.42,0,0,0,1-2.63c-.14-.2-.26-.19-.37,0Z"/><path id="Trazado_833" data-name="Trazado 833" class="cls-13" d="M116.16,345.28l.86,1c-.08-.87.77-1.18,1.17-1.81C117.09,343.85,116.7,344.74,116.16,345.28Z"/><path id="Trazado_834" data-name="Trazado 834" class="cls-14" d="M122.39,60.3l.18,0,.19,0c.8-.61.65-1.4.3-2.6Z"/><path id="Trazado_835" data-name="Trazado 835" class="cls-15" d="M115.57,55.65h-.89v1.81A2.78,2.78,0,0,0,115.57,55.65Z"/><path id="Trazado_836" data-name="Trazado 836" class="cls-16" d="M67.68,272.62l-.05-.82-1.5,1.3A1.28,1.28,0,0,0,67.68,272.62Z"/><path id="Trazado_837" data-name="Trazado 837" class="cls-2" d="M81,298.5c1.37,3.81,2.78,7.58,4.08,11.38,2.06,6,2.39,12.3,3.47,18.47.15.83.06,1.9,1.19,1.92s1.32-1.11,1.4-2c1-11.05-2.55-20.68-9.19-29.33a1.92,1.92,0,0,0-.6-.42S81.19,298.48,81,298.5Z"/><path id="Trazado_838" data-name="Trazado 838" class="cls-2" d="M192.33,315.64a40.42,40.42,0,0,0-22-13.74,18.6,18.6,0,0,0-5-.49c-1,0-2,.14-2.2,1.26s.89,1.5,1.78,1.73c2.29.6,4.59,1.16,6.89,1.7a50.61,50.61,0,0,1,17.76,8.41A3.5,3.5,0,0,0,192.33,315.64Z"/><path id="Trazado_839" data-name="Trazado 839" class="cls-2" d="M163.82,362.18a111.78,111.78,0,0,1,2,11.8c.3,3.48-.25,6.44-3.81,8a1.34,1.34,0,0,0-.91,1.62,2,2,0,0,0,1.66,1.38c3,.68,6.14-1.54,6.83-5a12.35,12.35,0,0,0,.15-3.54C169.17,371.14,166.59,366.61,163.82,362.18Z"/><path id="Trazado_840" data-name="Trazado 840" class="cls-2" d="M34.63,332.54c-6,5.14-9.8,11.74-12.58,19-.41,1.09-.17,1.9.9,2.23,1.49.47,1.92-.67,2.22-1.77a51.35,51.35,0,0,1,10-18.9C35.31,332.63,35.15,332.43,34.63,332.54Z"/><path id="Trazado_841" data-name="Trazado 841" class="cls-17" d="M36.15,332.11c.42-.38.87-.74,1.27-1.13a10.92,10.92,0,0,0,.73-.92,2.55,2.55,0,0,0-2.1,1.27.5.5,0,0,0,0,.72Z"/><path id="Trazado_842" data-name="Trazado 842" class="cls-18" d="M36.15,332.11l-.1-.78-1.42,1.21.52.59Z"/><path id="Trazado_843" data-name="Trazado 843" class="cls-2" d="M234.46,214c-5.75-2.47-11.42-2.68-17.19-2.11a11.86,11.86,0,0,0-4.2.84c-1,.49-2.18,1-1.92,2.34s1.58,1.43,2.66,1.29c2.17-.29,4.32-.77,6.49-1.12a80.3,80.3,0,0,1,11.39-.63C232.48,214.63,233.36,215,234.46,214Z"/><path id="Trazado_844" data-name="Trazado 844" class="cls-2" d="M128.71,81.32c.16-1.47-.3-2.68-1.8-2.9s-2.49.8-2.92,2.24a6,6,0,0,0,2.51,6.19,6.18,6.18,0,0,0,7.12-.25c1.85-1.4,2.95-4.45,2.23-6.34-.17-.44-.31-1.09-.91-1.09s-.74.64-.88,1.08a5.18,5.18,0,0,1-1.89,2.92,2.55,2.55,0,0,1-2.86.33,1.54,1.54,0,0,1-.67-2.06A.75.75,0,0,1,128.71,81.32Z"/><path id="Trazado_845" data-name="Trazado 845" class="cls-2" d="M150.4,56.05c-1.55,1.2-2,2.74-3,3.85-.35.37-.76.78-1.3.63s-.47-.81-.47-1.29a21.64,21.64,0,0,0,0-2.79,2.2,2.2,0,0,0-2.29-2.09h-.16a2.07,2.07,0,0,0-2,2.14.62.62,0,0,1,0,.13,19.82,19.82,0,0,0,.59,4.79A3.94,3.94,0,0,0,146,64.36a5.2,5.2,0,0,0,4.69-4A7.93,7.93,0,0,0,150.4,56.05Z"/></g></svg>