<svg id="Capa_1" data-name="Capa 1" xmlns="http://www.w3.org/2000/svg" viewBox="0 0 183.67 279.04"><defs><style>.cls-1{fill:#090609;}.cls-2{fill:#e2ae65;}.cls-3{fill:#ca6f44;}.cls-4{fill:#69aeb2;}.cls-5{fill:#fff;}.cls-6{fill:#fffffe;}.cls-7{fill:#c96e43;}.cls-8{fill:#c86e43;}.cls-9{fill:#c96f43;}.cls-10{fill:#c56d43;}.cls-11{fill:#bc673e;}.cls-12{fill:#c16a40;}.cls-13{fill:#c36a41;}.cls-14{fill:#dea159;}.cls-15{fill:#dd9c54;}.cls-16{fill:#a45b36;}.cls-17{fill:#dd9e56;}.cls-18{fill:#d5954c;}.cls-19{fill:#d4924a;}.cls-20{fill:#59301b;}.cls-21{fill:#b68c6a;}.cls-22{fill:#b0613a;}.cls-23{fill:#6b4c23;}.cls-24{fill:#b0623a;}.cls-25{fill:#f6e9e3;}.cls-26{fill:#23150e;}.cls-27{fill:#454646;}.cls-28{fill:#0b0a0c;}.cls-29{fill:#162f2e;}</style></defs><g id="Grupo_35" data-name="Grupo 35"><path id="Trazado_771" data-name="Trazado 771" class="cls-1" d="M96,247.81a309.4,309.4,0,0,0,43.46-8.1c9.45-2.57,18.7-5.64,27.23-10.56,7.43-4.3,13.26-10,15.89-18.44,2.94-9.42.7-20.13-12.65-23.22-6.68-1.55-13.38-1.42-20.1-.72-6.24.65-12.46,1.41-18.68,2.17-1,.12-1.42-.05-1.57-1.18-.95-7.16-1.43-14.35-1.78-21.55-.37-7.67-.71-15.35-1.26-23-.68-9.59-2.2-19.08-3.64-28.58-1.88-12.34-4.32-24.55-8.35-36.39-1.34-3.94-3.4-7.2-7.59-8.6-.6-.2-.76-.52-.71-1.17A41.18,41.18,0,0,0,105.6,58a1.47,1.47,0,0,1,.66-1.75,9.58,9.58,0,0,0,3.46-4.55,27.34,27.34,0,0,0,1.64-16.39A51.82,51.82,0,0,0,91.87,5C83.11-1.64,74-1.6,65.27,4.67A39.52,39.52,0,0,0,53.38,18.13c-4.89,9-7.11,18.63-4.77,28.79,1.6,6.95,5.4,12.2,13.16,13.22.84.11.69.64.72,1.13.19,3.1-1.65,5.26-3.47,7.41A6.16,6.16,0,0,1,54.17,71c-11.5.39-21.81,4-30.3,12-6.52,6.18-10.49,14.16-15.09,21.69a1.86,1.86,0,0,0-.15,2,2,2,0,0,1,.06,2.09C6.42,115.16,4.07,121.53,2,128a11.14,11.14,0,0,0,2.73,12,16,16,0,0,0,6.48,4.09c1.6.49,1.46,1.2,1,2.49a141,141,0,0,0-5.4,18.69c-2.39,10.7-3.83,21.56-5.23,32.42-1.1,8.56-2.1,17.11-1.1,25.76s4,16.47,10.63,22.48a3.29,3.29,0,0,1,1,2c.59,2.73,1.7,5.13,4.6,6.15.48.17,1.12.1,1.48.4,2.38,1.94,4.86,1.34,7.3.34a72.25,72.25,0,0,1,7.83-2.55c4.12-1.14,8.36-1.32,12.56-1.84,2.55-.32,4.88,1.11,7.83-.19,3.38-1.5,7.55-1.22,11.45-1.73-1.29,3.14-1.37,4.31-.38,7.27a2.25,2.25,0,0,1-.08,1.67,5.8,5.8,0,0,0,1.1,6.07,15.49,15.49,0,0,0,4.43,3.7c4.37,2.61,8.78,5.15,13.39,7.32,9.9,4.66,20.06,6.21,30.66,2.57a11.46,11.46,0,0,0,5.36-3.16c1.19-1.4.48-3,.59-4.49a7.75,7.75,0,0,0-2.57-6.26,41,41,0,0,0-8.71-6.49c-2.83-1.71-5.7-3.37-8.63-5.1.8-.71,1.56-1.33.91-2.33s-1.52-.72-2.4-.6a1.78,1.78,0,0,0-.66.22c-1.21.67-2,.13-2.9-.92Z" transform="translate(0 0)"/><path id="Trazado_772" data-name="Trazado 772" class="cls-2" d="M117.37,104.74c.77-.14.84-.43.7-1.17-.82-4.32-1.5-8.65-2.33-13-1-5-2-10.12-4.44-14.72a9.39,9.39,0,0,0-3.62-4.19c-1.26-.69-1.92-.75-2.11,1-.44,4.26-3,6.78-7,8a23.32,23.32,0,0,1-6.5,1.36,2.64,2.64,0,0,0-2.67,1.69,11.48,11.48,0,0,1-8,6.37A23.78,23.78,0,0,1,71,90.48c-6.23-1.22-11.45-4.09-14.92-9.58-1.41-2.23-2-4.85-3.25-7.17v0a1.56,1.56,0,0,0-2-1A47.26,47.26,0,0,0,22.61,88.56c-4.45,5.06-7.36,11-9.84,17.25,8.12,1.62,15.82,3.92,22.9,8.18,2.78-3.13,5.14-6.9,7.92-10.36a1.22,1.22,0,0,1,0,.92c-2.83,5.73-5.84,11.35-10.14,16.16-.36.4-1.31,1-.2,1.43,2.66,1.11,4.19,3.62,6.62,5,11.55,6.7,21.63,15.48,32.32,23.37,7.37,5.44,10.28,13.86,11.66,22.73a75.51,75.51,0,0,1,.31,18.58c-.11,1.19.17,1.72,1.43,1.76a39.51,39.51,0,0,0,5.44,0c4.32-.47,7.33-2.94,8.2-6.79a15.24,15.24,0,0,0,.24-5.94,61.73,61.73,0,0,1-1-13.64c.55-9.89,1-19.79,1.6-29.68.61-10.18.94-20.38,2.1-30.52a35.91,35.91,0,0,1,1.57-7.67,74.92,74.92,0,0,1,.63,11.88A26.4,26.4,0,0,1,117.37,104.74Z" transform="translate(0 0)"/><path id="Trazado_773" data-name="Trazado 773" class="cls-3" d="M81.36,195.07a2.38,2.38,0,0,0,.88-2c.16-7.13.68-14.26-.58-21.35C80.3,164,77,157.44,70.85,152.42c-2.53-1.78-4.74-4-7.22-5.79-.65-.48-1.24-1-1.87-1.5a46.22,46.22,0,0,0-4.18-3.33c-.42-.23-.68-.66-1.1-.9A5.35,5.35,0,0,1,55,139.43c-1.54-1.28-3.24-2.34-4.82-3.55-6-4.6-12.28-8.77-18.43-13.15-1.76-1.26-1.91-1.64-.62-3.46.91-1.27,2.3-2.16,3-3.64a5.7,5.7,0,0,1-1.87-.69,93,93,0,0,0-17.78-7.89c-1.55-.52-2.22-.33-2.77,1.29-2.41,7.09-4.7,14.24-7.53,21.17-1.28,3.14-.57,5.41,1.21,7.73,2.25,2.93,5.45,4.4,8.88,5.36,11.89,3.33,23.82,6.53,35.7,9.89,3.81,1.08,7.81,1.68,11.26,3.81.51-.6.39-1.6,1.42-2.12-1.08,3.37-.71,6.62-.19,9.86a43.7,43.7,0,0,1,.66,10.83c-.39,4.56-.92,9.11-.88,13.69a45,45,0,0,0,.34,6.66c1.81-1.24,2.24-2.92,2.59-4.62.66-3.21,1.27-6.44,1.92-9.65.14-.69.33-1.49,1.29-1.33s1,.86.94,1.62c-.16,3.87-.33,7.74-.46,11.6a17.47,17.47,0,0,0,.16,2.28.9.9,0,0,0,.68.91.92.92,0,0,0,1.07-.71,17.66,17.66,0,0,0,.74-2.52c.71-3.38,1.39-6.77,2.07-10.16.11-.56.26-1,.93-1.06a.7.7,0,0,1,.81.52,6,6,0,0,1,.07,1.4c-.13,3.81-.3,7.62-.4,11.43,0,1.08-.07,2.73,1.09,2.8s1.05-1.57,1.15-2.6c.34-3.85.66-7.7,1-11.56.06-.73.14-1.53,1.09-1.5s.77.89.76,1.49a69.55,69.55,0,0,0,.62,10.7C80.93,194.52,80.66,195.2,81.36,195.07Z" transform="translate(0 0)"/><path id="Trazado_774" data-name="Trazado 774" class="cls-4" d="M87.25,19.43a23.8,23.8,0,0,0,7.2-2.12c.55-.25,1.3-.64,1.66.24s-.31,1.19-.9,1.49a9.6,9.6,0,0,1-1.46.57,19.64,19.64,0,0,1-7.3.87,112,112,0,0,1,11.17,8.44,19.08,19.08,0,0,1,6,9.09,37.52,37.52,0,0,1,1.67,11.76c0,1.23,0,2.47,0,3.86a5.92,5.92,0,0,0,1.76-2.06,23.25,23.25,0,0,0,2.43-16.18A50.31,50.31,0,0,0,94,9.18C83.4-.52,72.84-.55,62.38,9.26,53,18,49,29.11,49.44,41.83a20,20,0,0,0,4.49,12.5,13.33,13.33,0,0,0,7.25,4.87,1.76,1.76,0,0,0-.52-1.68c-1.35-1.85-1.27-3.79-.61-5.85a46.36,46.36,0,0,1,5.36-11.2C72.3,29.85,81.83,21.56,90.25,12.29c.31-.35.75-.91,1.33-.43s.12,1.08-.21,1.53A18.92,18.92,0,0,1,90,15l-4.17,4.47A13.15,13.15,0,0,0,87.25,19.43Z" transform="translate(0 0)"/><path id="Trazado_775" data-name="Trazado 775" class="cls-3" d="M104.28,114.07a38.14,38.14,0,0,0,1,12.86c2.77,13.12,4.79,26.38,6.61,39.67,1.08,7.88,2.38,15.75,2.91,23.7.07,1,.5.83,1.12.73,3.23-.53,6.46-1.11,9.71-1.54,1.08-.14,1.16-.52,1-1.45-.36-2.49-.68-5-.9-7.5-.87-10-1-20-1.4-30-.55-14.1-2.89-27.95-5.31-41.8-.12-.72-.34-1-1.12-.88a39.89,39.89,0,0,0-12.27,4.58C105.19,113,104.5,113.33,104.28,114.07Z" transform="translate(0 0)"/><path id="Trazado_776" data-name="Trazado 776" class="cls-3" d="M102.83,42.84a13.89,13.89,0,0,0-.9-4.45c-.11-.36-.16-.76-.68-.92-1.89-.61-3.64-1.62-5.66-1.84-.85-.1-1.78-.27-1.51-1.42s1.15-.78,1.9-.63a18.72,18.72,0,0,1,4.68,1.85,20.63,20.63,0,0,0-5-6.11c-3.29-2.92-7-5.39-10-8.58-.55-.58-.85-.32-1.25.1C78.21,27.21,71.9,33.43,66.84,40.76c-1,1.54-1.55,2.64-.44,4.57,1.83,3.2,3.23,6.63,5.65,9.47a12.49,12.49,0,0,0,5.38,3.83c2.68.95,4.3.22,5.27-2.41a6,6,0,0,1,3.51-3.47c1.07-.45,2.21-.77,3.37-1.16-.59-.63-1.71-.93-1.1-2,.44-.78,1.06-.37,1.64,0,1.16.74,2.46,2,3.69.44s-.08-2.47-1.15-3.37c-.24-.21-.48-.43-.3-.73s.5-.22.8-.18l.13,0a3.14,3.14,0,0,1,2.26,3.83,17.35,17.35,0,0,1-.75,2c2.66.26,3.77,2.08,4.68,4.14.31.71.77,1.56,1.53,1.55.93,0,.63-1.05.82-1.66a3.07,3.07,0,0,1,.17-.31,18.55,18.55,0,0,0,1.17-9.09C102.68,45.13,103.25,43.94,102.83,42.84Z" transform="translate(0 0)"/><path id="Trazado_777" data-name="Trazado 777" class="cls-5" d="M68.34,256.68a19.2,19.2,0,0,0,6.07,4.12q10.41,4.62,20.86,9.16a13,13,0,0,0,2.52.73c6.13,1.33,12.11.4,18-1.17,1.48-.4,1.66-1.28,1.06-2.52a9.49,9.49,0,0,0-2.18-2.74,31.6,31.6,0,0,0-4.88-3.72c-4.17-2.6-8.39-5.11-12.54-7.75a2.69,2.69,0,0,0-2.41-.38c-1.18.33-2.25,1.14-3.86.94.93-.81,1.63-1.51,2.42-2.09s.61-.71,0-1.3c-2-2.05-4-3.27-6.78-1.45-.23.14-.59.66-1.15.21A19,19,0,0,1,89,245.88c-.73-1-1.46-2-2.14-3a2.9,2.9,0,0,0-3.77-1.15,6,6,0,0,0-3.45,3.08,32.53,32.53,0,0,1-1.8,3.4c-2.19,3.4-5.64,4-8.91,1.72-.66-.47-1.25-1-1.88-1.55C65.4,251.37,65.82,254.08,68.34,256.68Z" transform="translate(0 0)"/><path id="Trazado_778" data-name="Trazado 778" class="cls-5" d="M43,241.49a29.52,29.52,0,0,1,1.44,5.06A2.2,2.2,0,0,0,46,248.62c1.36.34,2.72.7,4.09.94.66.11,1.36.19,1.19-1a8.84,8.84,0,0,1,.41-2.93,7.81,7.81,0,0,0-5.4-9.38c-.5-.17-1.12-.12-1.55-.68,3-.57,5.16,1,7.3,2.69-.57-1.59-1.28-3-1.86-4.56a1.54,1.54,0,0,0-1.55-1.08,50.08,50.08,0,0,0-10.53.14c-5.39.58-10.64,1.71-15.18,4.93a13.13,13.13,0,0,0-5.76,8.88,6.88,6.88,0,0,0,2.19,6.54c1.8,1.59,3.74.74,5.6,0a52.2,52.2,0,0,1,11.1-3.19c1.35-.22,2.06-.6,1.8-2.2s-.17-3.38-.46-5.07c-.08-.5-.59-1.34.13-1.55s.94.73,1.19,1.27A32.23,32.23,0,0,1,40.49,248c.12.49,0,1.08.85,1s.84-.53.85-1.19c0-2.11.1-4.21.16-6.32C42.55,241.18,42.75,241.22,43,241.49Z" transform="translate(0 0)"/><path id="Trazado_779" data-name="Trazado 779" class="cls-5" d="M103.56,127.35c-.6,10.82-1.14,21.64-1.82,32.46-.42,6.62-.64,13.24.42,19.81a17.2,17.2,0,0,1-1.22,10.79c-.41.82-.09,1,.63,1.15a25.06,25.06,0,0,0,8.55.3c1.44-.12,2.27-.12,1.95-2.32-1.53-10.42-2.63-20.91-4-31.36-1.34-10.26-2.82-20.51-4.24-30.76Z" transform="translate(0 0)"/><path id="Trazado_780" data-name="Trazado 780" class="cls-3" d="M58,72.94c-1,.77-3.06.72-3.13,2-.06,1.12,1.2,2.31,1.88,3.48,4.9,8.48,16.36,12.51,25.51,9a9.52,9.52,0,0,0,4.65-4.09c.51-.82.47-1.2-.65-1.26a28.17,28.17,0,0,1-8.2-1.77C71.52,77.84,66.12,74,63,67.31A18.41,18.41,0,0,1,58,72.94Z" transform="translate(0 0)"/><path id="Trazado_781" data-name="Trazado 781" class="cls-2" d="M5.66,188c1-2.68,2-5.38,3-8a217.07,217.07,0,0,1,15-30.52c.6-1,.64-1.38-.66-1.69-2.79-.66-5.56-1.43-8.26-2.36-1.26-.43-1.48,0-1.67,1-.65,3.4-1.29,6.79-2,10.16-2.25,10.3-4.52,20.59-5.81,31.07C5.19,188,5.33,188.06,5.66,188Z" transform="translate(0 0)"/><path id="Trazado_782" data-name="Trazado 782" class="cls-6" d="M68.6,263.24c1.77,1.25,3.64,2.35,5.49,3.46,6.24,3.73,12.7,7,19.81,8.78,7.44,1.86,14.73,1.67,21.79-1.6a3.53,3.53,0,0,0,2.14-1.79c-.6.18-1,.3-1.47.45a38,38,0,0,1-21.63,1,3.09,3.09,0,0,1-2-1,5.35,5.35,0,0,0-2.72-1.8c-4.21-1.89-8.44-3.75-12.65-5.63s-8.54-3.57-11.78-7.66A6.43,6.43,0,0,0,68.6,263.24Z" transform="translate(0 0)"/><path id="Trazado_783" data-name="Trazado 783" class="cls-3" d="M69.4,247.85c2.84,2.16,4.8,1.78,6.64-1.28.78-1.3,1.1-3,2.15-4,1.93-1.73,1.59-3.21.3-4.94a.77.77,0,0,1-.07-.16c-.27-.9-.63-1.09-1.44-.4a16.6,16.6,0,0,1-5,2.77c-2.51.93-5.05,1.8-7.8,2.78A44.62,44.62,0,0,0,69.4,247.85Z" transform="translate(0 0)"/><path id="Trazado_784" data-name="Trazado 784" class="cls-6" d="M48.33,228.79c-.91-1-1.85,0-2.77,0a55.55,55.55,0,0,0-13,1.83c-4.77,1.18-9.55,2.34-13.78,5a11.49,11.49,0,0,0-3.36,15.3c.18.28.3.64.72.68.21-.38-.06-.67-.15-1-1.42-5.25,0-9.58,4.21-13A25.41,25.41,0,0,1,28,233.36a49,49,0,0,1,20.72-2.58c.11-.77-.64-1.29-.44-2Z" transform="translate(0 0)"/><path id="Trazado_785" data-name="Trazado 785" class="cls-7" d="M49.31,229.11c.63-.28.33-.78.23-1.2-.95-3.78-1.82-7.6-2.88-11.35-3.5-12.32-7.33-24.55-10.38-37-.81-3.29-1.68-6.56-2.51-9.85-.66,0-.41.44-.32.78A80.1,80.1,0,0,0,35,178.75c.38,1.95.42,2-1.55,1.4a5.6,5.6,0,0,0-3.55-.05c1.52.22,2.87,1,4.32,1.34a2.25,2.25,0,0,1,1.89,2.08c.76,3.37,1.73,6.68,2.49,10,2.23,9.94,6.45,19.28,8.45,29.28.36,1.78.84,3.53,1.26,5.29C48.65,228.46,48.84,228.92,49.31,229.11Z" transform="translate(0 0)"/><path id="Trazado_786" data-name="Trazado 786" class="cls-8" d="M120.51,205.76c-7.93,1.53-15.76,3.53-23.58,5.5a108.85,108.85,0,0,0-12,3.4,7.38,7.38,0,0,0-3.36,2c13.69-4.36,27.6-6.68,41.09-10.69C121.94,205.32,121.22,205.63,120.51,205.76Z" transform="translate(0 0)"/><path id="Trazado_787" data-name="Trazado 787" class="cls-9" d="M65.14,245.85c-1.83-2.91-1.81-2.84-5.14-2-1.85.47-3.66,1.68-5.75.53,0,.49-.06.84-.11,1.18-.25,2,.23,2.52,2.17,2.28,3-.38,6-.8,9.25-1.23C65.36,246.24,65.26,246,65.14,245.85Z" transform="translate(0 0)"/><path id="Trazado_788" data-name="Trazado 788" class="cls-10" d="M63.1,47.24a32.61,32.61,0,0,0-2.27,4.91c-.76,1.9-.11,3.5,1.81,4.6L63.45,48C63.53,47.67,63.78,47.25,63.1,47.24Z" transform="translate(0 0)"/><path id="Trazado_789" data-name="Trazado 789" class="cls-11" d="M78.14,211.3a65.43,65.43,0,0,0,3.28,14.21l.55-.13-3.48-14.85C77.82,210.53,78,210.94,78.14,211.3Z" transform="translate(0 0)"/><path id="Trazado_790" data-name="Trazado 790" class="cls-10" d="M94.93,61.8c.34.32.68.69,1.21.45A1.39,1.39,0,0,0,96.91,61a5.24,5.24,0,0,0-1.32-3.6A6.36,6.36,0,0,1,93,60Z" transform="translate(0 0)"/><path id="Trazado_791" data-name="Trazado 791" class="cls-12" d="M89.51,56.54c-.25.11-.59.26-.66.46-.14.41.29.58.56.76,1.47,1,3.27.55,5-1.33A7,7,0,0,0,89.51,56.54Z" transform="translate(0 0)"/><path id="Trazado_792" data-name="Trazado 792" class="cls-13" d="M88.09,62.21a1.1,1.1,0,0,0,1.46,0,2.81,2.81,0,0,0,.83-1.48c.07-.64-.71-.36-1.09-.56-.71-.38-1.43-.73-2.27-1.15A2.8,2.8,0,0,0,88.09,62.21Z" transform="translate(0 0)"/><path id="Trazado_793" data-name="Trazado 793" class="cls-14" d="M63.79,146.44c-.36-.13-.44.05-.38.36a35.5,35.5,0,0,0,3.22,2.66c1.44.95,2.37,2.62,4.22,3A49.19,49.19,0,0,0,63.79,146.44Z" transform="translate(0 0)"/><path id="Trazado_794" data-name="Trazado 794" class="cls-15" d="M62.06,145a35.77,35.77,0,0,0-4.58-3.65l0,0a.37.37,0,0,0-.06.52l4.25,3.47C61.79,145.28,62,145.25,62.06,145Z" transform="translate(0 0)"/><path id="Trazado_795" data-name="Trazado 795" class="cls-16" d="M78.05,207.62l-.53.08a15.17,15.17,0,0,0,.62,3.6l.35-.77Z" transform="translate(0 0)"/><path id="Trazado_796" data-name="Trazado 796" class="cls-17" d="M63.41,146.8l.38-.36L62.06,145l-.42.37Z" transform="translate(0 0)"/><path id="Trazado_797" data-name="Trazado 797" class="cls-18" d="M104.27,114.07c.6-.44,1.26-.82,1.35-1.67C104.9,112.74,104,112.91,104.27,114.07Z" transform="translate(0 0)"/><path id="Trazado_798" data-name="Trazado 798" class="cls-19" d="M56.76,140.81A6,6,0,0,0,55,139.43c.09.9.77,1.31,1.41,1.75C56.51,141.06,56.72,141,56.76,140.81Z" transform="translate(0 0)"/><path id="Trazado_799" data-name="Trazado 799" class="cls-20" d="M77.49,207c.5-.79.35-1.31-.4-2.09C77.18,205.78,77,206.35,77.49,207Z" transform="translate(0 0)"/><path id="Trazado_800" data-name="Trazado 800" class="cls-21" d="M102.83,42.85c.12,1.12-.36,2.31.34,3.37A7.69,7.69,0,0,0,102.83,42.85Z" transform="translate(0 0)"/><path id="Trazado_801" data-name="Trazado 801" class="cls-22" d="M33.18,168.07a3.71,3.71,0,0,0,.27,2.41l.32-.77A2.66,2.66,0,0,0,33.18,168.07Z" transform="translate(0 0)"/><path id="Trazado_802" data-name="Trazado 802" class="cls-23" d="M5.21,189.35l.45-1.4-.37-.34A1.46,1.46,0,0,0,5.21,189.35Z" transform="translate(0 0)"/><path id="Trazado_803" data-name="Trazado 803" class="cls-24" d="M63.76,45.78l-.66,1.46.35.78A3.13,3.13,0,0,0,63.76,45.78Z" transform="translate(0 0)"/><path id="Trazado_804" data-name="Trazado 804" class="cls-25" d="M48.33,228.79l0,0c.32.18.52.68,1,.38-.25-.42-.28-1-1-1Z" transform="translate(0 0)"/><path id="Trazado_805" data-name="Trazado 805" class="cls-26" d="M80.85,195.37c.1.14.06.55.39.33.12-.09.09-.41.12-.62-.44-.09-.39-.6-.68-.82A1.35,1.35,0,0,0,80.85,195.37Z" transform="translate(0 0)"/><path id="Trazado_806" data-name="Trazado 806" class="cls-27" d="M43,241.49c.06-.37-.07-.8-.42-.76s-.24.48-.2.78Z" transform="translate(0 0)"/><path id="Trazado_807" data-name="Trazado 807" class="cls-15" d="M57.39,141.92l.09-.55-.72-.56-.4.37Z" transform="translate(0 0)"/><path id="Trazado_808" data-name="Trazado 808" class="cls-1" d="M53.83,33.45c.75-1.32,1.47-2.67,2.25-4,2.65-4.46,6.22-8.17,9.71-12,.58-.62,1.48-1.14,1.38-2.64-6,5.17-10.75,10.79-13.64,17.88C53.39,33.09,53.18,33.46,53.83,33.45Z" transform="translate(0 0)"/><path id="Trazado_809" data-name="Trazado 809" class="cls-1" d="M56.31,38.75c3.41-7.7,9.4-13.63,14.64-20.5a3.47,3.47,0,0,0-2.24,1.42,97.73,97.73,0,0,0-10,12.89A16.25,16.25,0,0,0,56,38C55.82,38.4,55.68,38.74,56.31,38.75Z" transform="translate(0 0)"/><path id="Trazado_810" data-name="Trazado 810" class="cls-28" d="M55.49,40.34a2.17,2.17,0,0,0,.82-1.59L56,38A3.85,3.85,0,0,0,55.49,40.34Z" transform="translate(0 0)"/><path id="Trazado_811" data-name="Trazado 811" class="cls-29" d="M52.87,34.86c.7-.3.78-.89,1-1.42l-.3-.69A3.28,3.28,0,0,0,52.87,34.86Z" transform="translate(0 0)"/><path id="Trazado_812" data-name="Trazado 812" class="cls-1" d="M83.4,36.13c.62,0,1.4-.22,1.36-1.06S84,34,83.24,33.91c-2.51-.22-6.2,2-7.28,4.6A12.58,12.58,0,0,1,83.4,36.13Z" transform="translate(0 0)"/><path id="Trazado_813" data-name="Trazado 813" class="cls-1" d="M97.81,39.33h0a1.87,1.87,0,0,0-1.58,2.12c0,1,.2,2.35,1.52,2.35,1.48,0,1.29-1.51,1.58-2.41C99.26,40.27,99,39.27,97.81,39.33Z" transform="translate(0 0)"/><path id="Trazado_814" data-name="Trazado 814" class="cls-1" d="M79.81,42.65c0,.71,0,1.51.93,1.67s1.14-.6,1.42-1.26a5.81,5.81,0,0,0,.34-2.41c0-.71-.21-1.36-1-1.42h-.15a1.37,1.37,0,0,0-1.41,1.33c-.06.46-.08.93-.13,1.46C79.81,42.18,79.8,42.42,79.81,42.65Z" transform="translate(0 0)"/></g></svg>