<svg id="Capa_1" data-name="Capa 1" xmlns="http://www.w3.org/2000/svg" viewBox="0 0 179.36 503.12"><defs><style>.cls-1{fill:#090609;}.cls-2{fill:#dc9b72;}.cls-3{fill:#fff;}.cls-4{fill:#c65676;}.cls-5{fill:#fffffe;}.cls-6{fill:#fdfdfd;}.cls-7{fill:#db9a70;}.cls-8{fill:#da966b;}.cls-9{fill:#d39165;}.cls-10{fill:#b84661;}.cls-11{fill:#0e0b0d;}.cls-12{fill:#e7e6e4;}.cls-13{fill:#732a3a;}.cls-14{fill:#b1b0b0;}.cls-15{fill:#19120f;}.cls-16{fill:#242323;}.cls-17{fill:#280e14;}.cls-18{fill:#0b080b;}.cls-19{fill:#0a080b;}.cls-20{fill:#0d0b0d;}</style></defs><g id="Grupo_40" data-name="Grupo 40"><path id="Trazado_846" data-name="Trazado 846" class="cls-1" d="M69.23,484.71c.46-4.35,1.54-8.62,1.13-13.08-.37-4-.48-8-4-10.87a3.3,3.3,0,0,1-1.07-2.85c0-1.79.07-3.58,0-5.37-.19-4.41.06-8.35,5.92-8.84,2.28-.18,3.06-1.88,2.9-4.29-1-16.64.39-33.32-.63-50-.67-11.16-2.34-22.22-3.88-33.27-2-14.64-.64-29,2.33-43.34.6-2.88,1-5.79,1.66-9.37,6,12.64,11.74,24.69,14.35,37.83s8.7,24.28,18,34.08c10.8,11.43,19.27,24.46,22.9,40.12,1.52,6.51,2.95,7.56,9.58,6.13,2.68-.58,4-.14,4.53,2.58.38,1.42.83,2.82,1.34,4.2s.44,2.5-1.49,2.59c-.73,0-1.62.28-1.46,1.25s1.14.61,1.82.68,1.72-.91,2.1.45c.45,1.64-1,1.21-1.75,1.46-1,.3-1.83.8-1.52,2a1.59,1.59,0,0,0,1.93,1.12H144c.91-.16,1.9-.61,2,1s-1.11,1.14-1.94,1.27c-.52.08-1,.13-1.57.21-.88.14-1.76.42-1.72,1.47a1.32,1.32,0,0,0,1.34,1.3h0a1.4,1.4,0,0,0,.49-.11c4.06-1.14,3.76,1.43,3.73,4.08-.06,6.12,0,12.23,1.81,18.16.9,2.88,2.59,5.4,3.13,8.48.48,2.73,2.92,4,5.69,4.15,4.36.26,8-1.56,11.3-4.13,7.28-5.64,10.24-13.59,10.82-22.34a158.06,158.06,0,0,0-2.44-38.72,22,22,0,0,0-3.31-8.47,7.42,7.42,0,0,0-6.88-3.7c-2.67.14-5.08-1.25-7.71-1.46-1.2-.09-.9-1.08-.92-1.93-.32-12.87-3.81-24.67-12-34.86a52.87,52.87,0,0,0-6.85-6.53c-6.7-5.86-9.19-13.25-7.22-21.88,4.89-21.5,8.88-43.12,9.42-65.24.06-2.32,0-4.64,0-7,0-1.73-.64-3.59,1.63-4.58.69-.3.43-1.29.49-2,.55-6.36-.33-12.61-1.16-18.88-.07-.52-.12-1.05-.18-1.57-.59-5.37.24-9.75,4.51-14.12,10.42-10.64,14.29-24.26,14.93-38.89.48-10.92-1.14-21.65-3.28-32.31-.25-1.27-.59-2.38.22-3.6a2.83,2.83,0,0,0-.07-2.76c-3.88-8.26-5.81-17.35-10.82-25.14a62.33,62.33,0,0,0-33-26.1c-.3-.1-.57-.26-.87-.35-4.13-1.28-7.82-4-12.51-3.37-2,.27-2.6-1.33-3.08-3s-.61-2.91,1-4.19A14.48,14.48,0,0,0,102,76.88a18.86,18.86,0,0,1,8.74-8.24c5.13-2.31,5.47-10.21.82-13.49-1.21-.85-1.16-1.33-.9-2.69,1.94-10.32,2-20.37-5.46-28.93a2.89,2.89,0,0,1-.7-2.25,17.08,17.08,0,0,0-7.76-15.4C88.78.61,80-1.69,70.35,1.21a21.86,21.86,0,0,0-5.92,2.9,3.06,3.06,0,0,0-1.5,3.5c.82,3.37,1.67,6.73,2.5,10.1.56,1.16.14,2.3-.06,3.45.65,2.38-.27,5.76,3.81,6,1.84-.89,4.36.66,5.81-1.62a1.21,1.21,0,0,0-.94-.76c-3.86-.13-5-2.66-5.5-6-.33-2.27-1-4.49-1.43-6.75-.27-1.48-1.46-3.4,1.21-4.08,3-.75,5.16.18,5.82,2.64a57.14,57.14,0,0,1,1.18,7.12c.24,1.8,0,3.83,1.65,5.2,2.19-1.57.9-3.9,1.27-5.86A29.14,29.14,0,0,0,77,7.1c-.44-1.28,0-1.93,1.27-2.3,9-2.61,20.1,3.69,22.43,12.72a.93.93,0,0,1-.32,1c-3.33-.92-6.58-3.19-10.4-1.77a1.41,1.41,0,0,0-.66,1.69c3.39,1.63,7.07,2.58,10.08,5.07,7.21,6,8.44,14,7.86,22.58-.21,3.12-.7,6.32-2.83,8.91,0,.85.54,1.1,1.18,1.32,2.49.26,4.91.62,5.55,3.67.54,2.56-.58,4.74-3.72,6.23a17.05,17.05,0,0,0-7.53,7,38.54,38.54,0,0,1-3,4.08c-1.13,1.43-3.47,2.3-2.86,4.57,1,3.63,1.53,7.5,4.28,10.39a2.12,2.12,0,0,0,3,.3l0,0,.14-.13c.5-.43.68-1.54,1.66-.88a2.31,2.31,0,0,1,.94,2.52,8.87,8.87,0,0,1-3,5.09,11.81,11.81,0,0,1-3.22,2c-9,3.43-18.18,4.27-27.53,1.49a14.56,14.56,0,0,1-3.72-1.7c-4.17-2.69-4.59-6-1.23-9.6a.83.83,0,0,0-.12-.89C56.12,89.62,49.77,95,44,100.63c-9.14,8.77-13,20.23-14.78,32.46-.4,2.71-.68,5.44-1,8.16-.26,2.42-.39,4.78,1.1,7,.52.77.4,2,.47,3.05,1.13,17.4-.15,34.79-.1,52.19,0,7.8-.3,15.63.75,23.38.53,3.91-1,6.94-2.85,10-1.56,2.63-3,5.25-3,8.5,0,3,.76,5.51,3.46,7,4,2.15,4.32,5.53,3.5,9.38-7.28,33.87-8.12,68.14-6.4,102.57,1.22,24.66,4.41,49.12,7.14,73.62.2,1.82.76,2.69,2.69,3.2,2.19.58,4.1,2.1,6.37,2.64A1.52,1.52,0,0,1,42,444c1.2,1.05.72,9.7-.76,10.38-3.15,1.42-4.6,4.17-6.05,7-.66,1.28-1.29,2.32-3.08,1.92-1.38-.32-3.55-.86-3.83.88-.32,2,2.12,1.31,3.37,1.86-.9,1.52-1.69,3-3.9,2.15-1.37-.54-3.37-1.19-3.79.6s2,1.59,3.21,2.31c-1.43,2-2.89,3.36-5.65,1.82-1.25-.7-3.66-2.26-4.36-.25-.77,2.23,2.24,1.68,3.51,2.46a7.44,7.44,0,0,0,1.45.47,74,74,0,0,1-12.81,7.21c-4,1.85-7.14,3.95-7.85,8.93C1.14,493.75,0,495.79,0,498c0,1.67.76,2.57,2.49,3.08,7.84,2.31,15.79,2.38,23.79,1.34a180.57,180.57,0,0,0,39.6-10.21c4.43-1.65,5.32-3.93,3.31-7.53-1.15.94-.74,2.55-1.57,3.63a5.38,5.38,0,0,1-3.15,2c-13.17,4.62-26.55,8.44-40.45,9.94a50.85,50.85,0,0,1-16.69-.66c-1.77-.4-3.68-.69-4.76-2.88,6.81,3.73,13.86,3.23,20.85,2.63,11.1-.94,21.59-4.77,32.37-7.25,3-.68,6-1.19,8.71-2.73a10,10,0,0,0,3.62-3A3.81,3.81,0,0,1,69.23,484.71Z" transform="translate(0 0.06)"/><path id="Trazado_847" data-name="Trazado 847" class="cls-1" d="M65.24,90.44V91a2.8,2.8,0,0,1-.47,2.68c-.34.66-.73,1.39,0,2a2,2,0,0,0,2.63,0,6.37,6.37,0,0,0,2.18-3.4,2.46,2.46,0,0,1,2.9-1.78,23.84,23.84,0,0,0,8.71-1.16,6.41,6.41,0,0,0,3.12-2.06A2.15,2.15,0,0,0,84.86,85a2.19,2.19,0,0,0-2.3-1.3,9.66,9.66,0,0,0-2.76.65,18,18,0,0,1-16.54-2.43,35.5,35.5,0,0,1-8.53-8.37,8.87,8.87,0,0,1-1.44-8.39,46.69,46.69,0,0,0,2-11.49c.2-2.87,1.57-3.91,4.17-4a10.79,10.79,0,0,0,2.2-.2c1.23-.29,2.2-.91,2.15-2.32s-1.08-2-2.31-2.18a6.84,6.84,0,0,0-4,.34c-1.87.85-2.17,0-2.07-1.62A28.85,28.85,0,0,1,61,27.83c1.68-2.27,3.75-4.28,4.91-6.93-.15-1,.38-2.22-.57-3.11a3.34,3.34,0,0,1-1.49,3.45C56,27.5,51.8,35.52,51.74,45.74c0,6.82-.21,13.63-2.76,20.19-1.08,2.79-.2,5.82,1.31,8.5A30.34,30.34,0,0,0,67.57,88.79C67.39,90.23,65.8,89.61,65.24,90.44Z" transform="translate(0 0.06)"/><path id="Trazado_848" data-name="Trazado 848" class="cls-2" d="M65.92,20.89C58.46,28,53.75,36.31,54.61,47.26c2.12-.62,4-2,6.39-1.69,1.08.16,2.31.32,2.34,1.62S62.12,48.67,61,48.68H58.79c-4,.4-4.29.8-4.44,4.77A37.47,37.47,0,0,1,52.4,65a8.41,8.41,0,0,0-.13,5.87c3.13,8.7,14.56,16,23.75,15.28a20.07,20.07,0,0,0,5.73-1.62c.94-.37,1.91-.54,2.49.52.69,1.25-.12,2-1.1,2.53a17.4,17.4,0,0,1-11,2c-1.92-.25-2.78,0-3.28,2.1s-.91,4.56-4.27,4c.17-1.55,2-1.91,2.13-3.33,0-.54.9-1.15,0-1.55-.37-.17-1,.21-1.48.34C61.61,92.71,61,96.78,64,100c2.17,2.33,5,3.37,8.07,4a44.12,44.12,0,0,0,26-2,11.25,11.25,0,0,0,6.82-7,3.59,3.59,0,0,0-1.79-4.74,3.46,3.46,0,0,0-1-.28c-.61-.13-1.71-.62-1.12.87.25.61.5,1.25-.33,1.58a1.77,1.77,0,0,1-2-.59,14,14,0,0,1-2.48-4.7c-.67-1.67.08-3.8-1.83-5.12-.59-.42,0-1.43.62-1.86,2.68-1.71,4.17-4.4,5.82-7a15.3,15.3,0,0,1,7.54-6.43A5.73,5.73,0,0,0,112,59.86c-.63-2.76-2.68-4.12-6.19-4.1-1.16.47-1.29.41-1.28-.59.64-.31,1.5.3,1.91-1A37.48,37.48,0,0,0,107,33.36c-2-7.78-10.08-14.51-17.63-14.92a7,7,0,0,0-3.4.63c-3.48,1.2-5.6,4.23-8.49,6.22a6.17,6.17,0,0,1-1.78.57c-2.12,1-4.41.1-6.56.62-1.65.78-2-.4-2.35-1.58S66.19,22.23,65.92,20.89Z" transform="translate(0 0.06)"/><path id="Trazado_849" data-name="Trazado 849" class="cls-2" d="M74.77,265.66c2.26-.41,3.24-2.3,4.82-3.86.61,2.4-1,3.23-2.08,4.1-1.4,1.1-1.7,1.39,0,2.86,2.92,2.53,6.89,3,9.7,5.67,1.63,1.56,3.64.47,5.15-.78a43.75,43.75,0,0,0,9.3-10.68,47.5,47.5,0,0,1,6.82-8.65c11.06-11.15,22.34-22.09,33.33-33.32,13.76-14.07,18-30.95,16.19-49.91-.7-7.46-1.94-14.82-3.28-22.19-.31-1.74-.89-2.28-2.62-2a80.85,80.85,0,0,0-19.72,5.44c-1.37.61-1.86,1.12-1.52,2.78,2.11,10.46,2.52,21.12,3.36,31.73.21,2.63.64,4.82-2.86,6.63-4.13,2.14-6.79,6.51-9.48,10.44-5,7.22-8.73,15.13-13.17,22.65-4.09,6.94-8.64,13.49-15.23,18.36a45.15,45.15,0,0,1-10.59,5.55C78.65,252.15,76.2,255,76,259.7A43.16,43.16,0,0,1,74.77,265.66Z" transform="translate(0 0.06)"/><path id="Trazado_850" data-name="Trazado 850" class="cls-3" d="M65.88,463.94c-.72,2-1.11,3.4-1.71,4.7-2.08,4.43-5.89,4.91-8.8,1a52.38,52.38,0,0,0-11.64-11.48c-2.31-1.66-3.56-.94-4.79,1.07,0,.09-.11.17-.16.27-.8,1.47-2.16,2.92-2.25,4.44s2.33,1.62,3.35,2.72A5.37,5.37,0,0,1,41.34,469c-1.41-.6-2.86-1.14-4.23-1.84-1.65-.83-2.87-.72-4,1-.7,1.11-1,1.66.46,2.31a6.84,6.84,0,0,1,3.13,2.13c-1.58.93-2.9,0-4.18-.43-1.57-.56-2.71-.45-3.82,1s-2.7,2.51,1,3.43c-3.39-1-5.16.67-7.08,2.31a37.22,37.22,0,0,1-11.81,6.51A10.58,10.58,0,0,0,6,488.3c-2.5,3-1.47,6,2.35,6.71,7.35,1.36,14.7.86,22-.33,9.66-1.58,19-4.69,28.49-6.88,6.44-1.48,8.79-4.87,9-11.57C68,472.27,68.06,468.28,65.88,463.94Z" transform="translate(0 0.06)"/><path id="Trazado_851" data-name="Trazado 851" class="cls-3" d="M145.58,422.89c.77,2.57.84,5.35,2.26,6.84s4.38.24,6.64.57a17.43,17.43,0,0,1,2.77.47c-2.2,1-4.57.58-6.84.93-.8.13-2.1-.42-2.18,1.09s1,1.89,2.27,1.95c1.74.08,3.5.15,5,2h-4.78c-.88,0-2.08-.21-1.87,1.36.15,1.08-.21,2.34,1.59,2.55a39.24,39.24,0,0,1,4.79,1.14c0,.93-.57.68-.87.68-5.07.16-5,.15-5,5.4s.1,10.36,1.37,15.4c.94,3.69,2,7.86,6.45,8.46S164,469,166,465.63c3.26-5.55,4.56-11.73,5.37-18a99.33,99.33,0,0,0-2.46-39.17c-1.35-4.95-4.44-7.11-9.17-7.67-2.88-.33-3.49.3-2.57,3.1a59.31,59.31,0,0,1,1.83,8.94C160.1,419.89,153.64,426.2,145.58,422.89Z" transform="translate(0 0.06)"/><path id="Trazado_852" data-name="Trazado 852" class="cls-2" d="M33.48,222.9c3.44-7.05,4.94-14.5,5.87-22.06,2-16.35,1.3-32.81,2-49.22a2.2,2.2,0,0,0-1.7-2.59h-.19c-6.54-1.86-6.58-1.79-6.2,4.89,1,16.62.23,33.27.26,49.9Q33.5,213.34,33.48,222.9Z" transform="translate(0 0.06)"/><path id="Trazado_853" data-name="Trazado 853" class="cls-2" d="M43.89,444.57c.53,3.58,1.67,6.74.68,10-.39,1.29.65,1.67,1.33,2.19a51.89,51.89,0,0,1,11.26,11.37c1.69,2.41,3.7,2.13,5-.53a5.49,5.49,0,0,0,.58-2.1c.25-6,.44-12,.64-18,0-.9.3-2-1.34-1.72C56,446.71,50.11,445.77,43.89,444.57Z" transform="translate(0 0.06)"/><path id="Trazado_854" data-name="Trazado 854" class="cls-4" d="M89.94,17.26c4.31-.64,8,1.11,12.16,3.42-.71-5.82-3.1-10.16-7.45-13.18C88.56,3.29,81.9,2.71,74.7,5c2.63,3.62,2.57,7.5,2.68,11.34.5,2.18.15,4.4.2,6.6.91,1.6,1.8.33,2.49-.15a56.15,56.15,0,0,1,5-3.24C86.7,18.84,88.51,18.46,89.94,17.26Z" transform="translate(0 0.06)"/><path id="Trazado_855" data-name="Trazado 855" class="cls-5" d="M67.78,485.41a9.43,9.43,0,0,1-6.59,4.42c-10.87,2.4-21.45,5.94-32.43,7.87A59.86,59.86,0,0,1,9,498.17c-2.7-.42-5.09-1.18-6.76-3.55-1.07,4-1,4.32,2.85,5.33,9.6,2.53,19.21,1.5,28.77-.27,11.27-2.09,22.17-5.55,33-9.21a2.28,2.28,0,0,0,1.75-1.83C68.47,487.53,69.62,486.09,67.78,485.41Z" transform="translate(0 0.06)"/><path id="Trazado_856" data-name="Trazado 856" class="cls-4" d="M76.64,26.5l1.23-.5c.35-.53.06-1-.15-1.48a9.12,9.12,0,0,0-1-1.67c-.62-4.16-1.25-8.31-1.84-12.47-.2-1.41-.44-2.9-2.08-3.16a12.69,12.69,0,0,0-7.14.47c-.81.35-.24,1.31-.09,2,.92,4.2,2,8.37,2.71,12.61.35,2.14,1.36,2.85,3.29,2.91,1,0,2.09.19,3.13.28C75.26,26,76.1,26,76.64,26.5Z" transform="translate(0 0.06)"/><path id="Trazado_857" data-name="Trazado 857" class="cls-6" d="M172.15,409.57a96.29,96.29,0,0,1-.5,50.84,34.9,34.9,0,0,1-2.19,5.56c-.87,1.76-2,3.39-3.2,5.3,1.62.29,2.23-.82,2.92-1.55a26.49,26.49,0,0,0,6.94-14.92c2.06-14.66.67-29.18-2.2-43.6a16.83,16.83,0,0,0-1.18-2.92C171.57,408.27,171.86,408.92,172.15,409.57Z" transform="translate(0 0.06)"/><path id="Trazado_858" data-name="Trazado 858" class="cls-7" d="M155.37,407.45c-2.23,4.07-4.55,7.9-8.35,10.56-1.19.84-.82,1.41.15,2.09,3.16,2.21,7.44.35,8.6-3.68C156.65,413.4,155.71,410.46,155.37,407.45Z" transform="translate(0 0.06)"/><path id="Trazado_859" data-name="Trazado 859" class="cls-8" d="M68.3,246.3c-11.7-5-23.33-1.66-35,.63C45,246.52,56.61,242.88,68.3,246.3Z" transform="translate(0 0.06)"/><path id="Trazado_860" data-name="Trazado 860" class="cls-9" d="M140.32,255.74c-2-2.65-5.95-3.61-11.54-2.84C132.67,253.67,136.45,254.92,140.32,255.74Z" transform="translate(0 0.06)"/><path id="Trazado_861" data-name="Trazado 861" class="cls-10" d="M76.65,1.83A22.16,22.16,0,0,0,68.5,3.92C69.54,6,71.58,4,72.89,5c2,.23,2.49-2.42,4.39-2.44C77.47,2,77.26,1.74,76.65,1.83Z" transform="translate(0 0.06)"/><path id="Trazado_862" data-name="Trazado 862" class="cls-11" d="M76.65,26.51c-.07-1.4-1.07-1.09-1.92-1.05-1.7,1.31-3.94-.31-5.64,1Z" transform="translate(0 0.06)"/><path id="Trazado_863" data-name="Trazado 863" class="cls-11" d="M76.75,22.81a2.37,2.37,0,0,0,.48,2c.68-.32,1.16-.74.76-1.59-.24-2.31.22-4.69-.62-6.95C76.87,18.44,77.94,20.73,76.75,22.81Z" transform="translate(0 0.06)"/><path id="Trazado_864" data-name="Trazado 864" class="cls-11" d="M89.94,17.26,84.78,19c.27.6,1,.3,1.36.65a7.59,7.59,0,0,0,3.18-1.19Z" transform="translate(0 0.06)"/><path id="Trazado_865" data-name="Trazado 865" class="cls-12" d="M155.11,475.14a8.22,8.22,0,0,0,5.38-.33l-5.42-.55Z" transform="translate(0 0.06)"/><path id="Trazado_866" data-name="Trazado 866" class="cls-13" d="M72.89,5c-1.25-1.23-3.17.23-4.39-1.1-.37.32-2,.63-.32,1.1C69.64,5.43,71.31,5.05,72.89,5Z" transform="translate(0 0.06)"/><path id="Trazado_867" data-name="Trazado 867" class="cls-14" d="M172.14,409.57l.6-1.28a3.24,3.24,0,0,0-1.28-2.19C170.78,407.68,171.61,408.6,172.14,409.57Z" transform="translate(0 0.06)"/><path id="Trazado_868" data-name="Trazado 868" class="cls-15" d="M104.52,55.18c-.8.1-1.7.75-1.21,1.3.94,1.07,1.69-.29,2.49-.72Z" transform="translate(0 0.06)"/><path id="Trazado_869" data-name="Trazado 869" class="cls-16" d="M67.78,485.41c1.5.76.7,2.11.83,3.23,1.2-1.16.23-2.66.6-3.95h0C68.72,484.88,68,484.57,67.78,485.41Z" transform="translate(0 0.06)"/><path id="Trazado_870" data-name="Trazado 870" class="cls-17" d="M76.64,1.83l.64.74c.55,0,1.25-.2.94-.81S77.16,1.38,76.64,1.83Z" transform="translate(0 0.06)"/><path id="Trazado_871" data-name="Trazado 871" class="cls-18" d="M65.19,58.9c-3.39-.1-4.57,1.38-4.74,3.75a4,4,0,0,0,3.78,4.21h.34a6.21,6.21,0,0,0,2.7-.72c1-.53,2.88-.88,2-2.48s-2,0-2.86.44c-1.27.61-2.57,1.3-3.68,0s-.16-2.53.78-3.57C63.87,60.12,64.25,59.79,65.19,58.9Z" transform="translate(0 0.06)"/><path id="Trazado_872" data-name="Trazado 872" class="cls-19" d="M85.26,50.48c-3.78-3.07-7.77-3.84-11.91-4.1-.86-.05-1.72.34-1.7,1.41s.81,1.13,1.55,1.22C77,49.49,80.83,49.94,85.26,50.48Z" transform="translate(0 0.06)"/><path id="Trazado_873" data-name="Trazado 873" class="cls-19" d="M81.54,54.61a17.63,17.63,0,0,1-1.42,2c-1.77,1.92-3,1.73-4.16-.68-.45-.89-.81-1.9-2-1.36s-.63,1.62-.3,2.45c.86,2.14,2.31,3.81,4.78,3S82.37,57.56,81.54,54.61Z" transform="translate(0 0.06)"/><path id="Trazado_874" data-name="Trazado 874" class="cls-18" d="M65.29,74.58a5.66,5.66,0,0,0,3-1c.58-.5,1.1-1.07.8-1.88-.49-1.28-1.2-.33-1.7,0a2.48,2.48,0,0,1-2.66-.09c-1.28-.68-3-1.27-3.49.36s1.37,2,2.61,2.35A14,14,0,0,0,65.29,74.58Z" transform="translate(0 0.06)"/><path id="Trazado_875" data-name="Trazado 875" class="cls-18" d="M61.33,53.56c-1.58,1.89-3.12,3.34-4.55.33-.11-.23-.75-.39-1.08-.31a1,1,0,0,0-.66,1.2h0c.47,2,1.83,3.15,3.87,2.81C60.76,57.33,62.14,56.34,61.33,53.56Z" transform="translate(0 0.06)"/><path id="Trazado_876" data-name="Trazado 876" class="cls-1" d="M86.14,19.64c-.3-.55-.85-.56-1.36-.65A40,40,0,0,0,78,23.25l-.76,1.59L77.87,26C80.7,24,82.9,21.11,86.14,19.64Z" transform="translate(0 0.06)"/><path id="Trazado_877" data-name="Trazado 877" class="cls-20" d="M109.06,59.42a5.41,5.41,0,0,0-5.53,2c-.42.48-.74,1.13-.28,1.69s1.09.27,1.66-.07C106.47,62.1,108.05,61.22,109.06,59.42Z" transform="translate(0 0.06)"/></g></svg>