<svg id="Capa_1" data-name="Capa 1" xmlns="http://www.w3.org/2000/svg" viewBox="0 0 638.69 454.86"><defs><style>.cls-1{fill:#fff;}.cls-2{fill:#070508;}.cls-3{fill:#f4f4f4;}.cls-4{fill:#c2c1c1;}.cls-5{fill:#0e0d0e;}.cls-6{fill:#3e3a36;}.cls-7{fill:#f0efef;}.cls-8{fill:#2b2b2b;}.cls-9{fill:#f1eae4;}.cls-10{fill:#353535;}.cls-11{fill:#302c29;}.cls-12{fill:#68635d;}.cls-13{fill:#181311;}.cls-14{fill:#312823;}.cls-15{fill:#606060;}.cls-16{fill:#959595;}.cls-17{fill:#9f958e;}.cls-18{fill:#96c4c8;}.cls-19{fill:#c7875a;}.cls-20{fill:#feffff;}.cls-21{fill:#fefefd;}.cls-22{fill:#09070a;}.cls-23{fill:#e9e6e3;}.cls-24{fill:#e6e5e4;}.cls-25{fill:#e4e4e3;}.cls-26{fill:#d1d1d1;}.cls-27{fill:#87bcbc;}.cls-28{fill:#ecebeb;}.cls-29{fill:#d6d1cd;}.cls-30{fill:#be7f55;}.cls-31{fill:#fafafa;}.cls-32{fill:#e7e5e3;}.cls-33{fill:#d5d3d4;}.cls-34{fill:#7ba9a9;}.cls-35{fill:#a6998f;}.cls-36{fill:#c2bbb7;}.cls-37{fill:#afafaf;}.cls-38{fill:#d8d8d8;}.cls-39{fill:#d1c8c2;}.cls-40{fill:#e0e0df;}.cls-41{fill:#dabfad;}.cls-42{fill:#cbc4c0;}.cls-43{fill:#c5b3a7;}.cls-44{fill:#e1e1e1;}.cls-45{fill:#79a7a7;}.cls-46{fill:#fbf7f5;}.cls-47{fill:#cfcac5;}.cls-48{fill:#dcdbdb;}.cls-49{fill:#d5c6bc;}.cls-50{fill:#919292;}.cls-51{fill:#f1f0f0;}.cls-52{fill:#cfcfce;}.cls-53{fill:#c1c0bf;}.cls-54{fill:#3c3c3b;}.cls-55{fill:#f3f2f2;}.cls-56{fill:#262525;}.cls-57{fill:#1f2d2c;}.cls-58{fill:#bf9670;}.cls-59{fill:#1f2523;}.cls-60{fill:#2a3b3a;}.cls-61{fill:#0c0b0d;}.cls-62{fill:#101112;}.cls-63{fill:#121414;}.cls-64{fill:#161d1d;}.cls-65{fill:#171f1f;}.cls-66{fill:#0b0a0c;}.cls-67{fill:#121717;}.cls-68{fill:#111213;}.cls-69{fill:#182121;}.cls-70{fill:#0e0b0d;}.cls-71{fill:#0b090b;}.cls-72{fill:#0d0a0c;}.cls-73{fill:#101011;}.cls-74{fill:#131919;}.cls-75{fill:#192121;}.cls-76{fill:#1f2b2b;}.cls-77{fill:#9f9f9f;}.cls-78{fill:#898784;}.cls-79{fill:#76726d;}.cls-80{fill:#615c57;}.cls-81{fill:#4e4945;}.cls-82{fill:#1a1613;}.cls-83{fill:#171413;}.cls-84{fill:#868686;}.cls-85{fill:#c9c8c8;}.cls-86{fill:#5f5e5e;}.cls-87{fill:#706459;}.cls-88{fill:#bdbdbc;}.cls-89{fill:#ca6aa1;}.cls-90{fill:#e4b487;}.cls-91{fill:#e2b286;}.cls-92{fill:#f5f4f4;}.cls-93{fill:#d8aa80;}.cls-94{fill:#deae83;}.cls-95{fill:#daac81;}.cls-96{fill:#e7e6e5;}.cls-97{fill:#cda179;}.cls-98{fill:#d9d9d9;}.cls-99{fill:#ae8966;}.cls-100{fill:#663053;}.cls-101{fill:#b48c69;}.cls-102{fill:#dfb084;}.cls-103{fill:#ca9f78;}.cls-104{fill:#765c45;}.cls-105{fill:#aa8665;}.cls-106{fill:#69523e;}.cls-107{fill:#2b231a;}.cls-108{fill:#ba936d;}.cls-109{fill:#120f10;}.cls-110{fill:#100e0f;}.cls-111{fill:#ebc57a;}.cls-112{fill:#c68659;}.cls-113{fill:#c58559;}.cls-114{fill:#c48558;}.cls-115{fill:#bb7f54;}.cls-116{fill:#c08256;}.cls-117{fill:#c18257;}.cls-118{fill:#e6b96e;}.cls-119{fill:#deb26b;}.cls-120{fill:#a7714b;}.cls-121{fill:#e1b56c;}.cls-122{fill:#d3aa64;}.cls-123{fill:#d2a763;}.cls-124{fill:#63432c;}.cls-125{fill:#baa081;}.cls-126{fill:#b2784f;}.cls-127{fill:#766037;}.cls-128{fill:#b17950;}.cls-129{fill:#f5eee9;}.cls-130{fill:#2f1f15;}.cls-131{fill:#585858;}.cls-132{fill:#2d4040;}.cls-133{fill:#0a070a;}.cls-134{fill:#cc6e8c;}.cls-135{fill:#fcfcfc;}.cls-136{fill:#ddad82;}.cls-137{fill:#d2a67d;}.cls-138{fill:#b95e77;}.cls-139{fill:#151011;}.cls-140{fill:#ebeae9;}.cls-141{fill:#7a3e4d;}.cls-142{fill:#241c16;}.cls-143{fill:#333;}.cls-144{fill:#331820;}.cls-145{fill:#0f0d0e;}.cls-146{fill:#0d0b0d;}.cls-147{fill:#0e0c0d;}.cls-148{fill:#131010;}.cls-149{fill:#efd3b1;}.cls-150{fill:#eed1b1;}.cls-151{fill:#0a090b;}.cls-152{fill:#d1b595;}.cls-153{fill:#252014;}.cls-154{fill:#2d2b28;}.cls-155{fill:#fefdfc;}.cls-156{fill:#d8c1a8;}.cls-157{fill:#323231;}.cls-158{fill:#34302b;}.cls-159{fill:#efd3b2;}.cls-160{fill:#eed2b1;}.cls-161{fill:#9c804a;}.cls-162{fill:#af8f54;}.cls-163{fill:#131111;}.cls-164{fill:#0c0a0c;}.cls-165{fill:#98c7d4;}.cls-166{fill:#eed2b2;}.cls-167{fill:#f9f9f9;}.cls-168{fill:#eed1b0;}.cls-169{fill:#eed0b0;}.cls-170{fill:#d7ba99;}.cls-171{fill:#b39a7f;}.cls-172{fill:#e3c4a2;}.cls-173{fill:#7fabb5;}.cls-174{fill:#c8ad8e;}.cls-175{fill:#98826c;}.cls-176{fill:#716250;}.cls-177{fill:#1b2628;}.cls-178{fill:#161e20;}</style></defs><path class="cls-1" d="M396.87,232.36c0,65.07,70.8-170.16,74.63-169,5.73,1.78,9.45,5.58,11.85,10.9.76,1.68,1.33,3.45,2,5.17a7.4,7.4,0,0,1-1,7.45,13.55,13.55,0,0,0-2.72,6.69c-.38,3.35-2,6.46-3.26,9.59s-4.48,4.07-7.68,4.15c-1.6,0-3,.15-3.59,1.81-.37,1,.81,4.23,1.65,4.9a1.17,1.17,0,0,0,1.07.29c2.39-.69,2.59,1,2.71,2.58.24,3.21.18,3.21,3.29,4.37q7.35,2.05,14.77,3.73a10.91,10.91,0,0,1,8.69,8.23c1.39,4.71,1.6,9.58,1.89,14.41.46,7.69,1.29,15.34,1.77,23,.37,5.91,1.1,11.81,1.06,17.74,0,3.09.29,6.16.41,9.23.16,4.23-.3,8.47-.52,12.69a114,114,0,0,1-2.82,20.12,35.72,35.72,0,0,1-2.48,7.92,3,3,0,0,1-1.31,1.11,1.54,1.54,0,0,0-.66,1.18c0,.48,0,.95,0,1.43-.06,4.84.4,9.7-.56,14.51a20.11,20.11,0,0,1-2.42,6.46c-1.12,1.86-2.54,3.32-4.9,3.4-1.81.06-2.31,1.17-2.31,2.77A36.66,36.66,0,0,0,488.2,279c.85,3.09,1.42,6.24,3.74,8.82,1.74,1.94,1.19,3.83-.94,5.55-2.34,1.89-2.53,2.45-1.62,5.34,1.53,4.84,3.36,9.59,3.76,14.74.31,4-.32,7.65-2.85,10.86A5,5,0,0,0,489,326.7a8.08,8.08,0,0,0,.36,2.63c.95,2.94,1.08,6.08,2.17,9,.35.5,1,.71,1.34,1.18a2.6,2.6,0,0,1,.14,3.05,5.66,5.66,0,0,0-.27,4.47c2.25,8.41,4.49,16.82,5.47,25.5a2.33,2.33,0,0,0,.3,1.11c1.36,1.85.66,3.28-.89,4.56-.39,3.61.69,6.93,2,10.21a3.74,3.74,0,0,0,1.14,1c.73.41,1.56.62,2.28,1.08a9,9,0,0,1,3,4.8,66,66,0,0,1,3.6,19.49c0,2.23.59,4.42.47,6.68a3.84,3.84,0,0,1-2.42,3.78,35,35,0,0,1-24.38,1.52c-1.53-.45-3.53-.94-3.71-2.7-.27-2.51-1-5.31,1.12-7.5a8.26,8.26,0,0,0,2.06-3.79c.93-3.35,2.38-6.52,3.62-9.76a69.73,69.73,0,0,0,2.8-8.57c.49-2,1.11-4.05,3.36-4.94a1.34,1.34,0,0,0,.91-1c.26-2.89.91-5.77.43-8.69a1.45,1.45,0,0,0-.54-.74,2.61,2.61,0,0,1-1.88-3c.29-2.24-.93-4.19-1.33-6.3-1.34-7.11-3.75-14-4.34-21.28-.08-1.05-.81-1.58-1.61-2.1a2.68,2.68,0,0,1-1.21-3.4,5.06,5.06,0,0,0-.19-3.59c-1-3-1.86-6-2.75-9.07a3.39,3.39,0,0,0-1.73-2.31c-4.13-2.11-6.65-5.62-8.43-9.77a87.74,87.74,0,0,1-4.14-13.72,8,8,0,0,0-2.61-4.46c-1.87-1.62-2.74-4.05-3.68-6.33-2.37-5.7-4.5-11.49-6.59-17.3-.32-.9-.49-2-1.57-2.44-1.29.71-.73,2.16-1.27,3.18-.57,4.92.23,9.79.5,14.67,1.14,2,2.67,3.73,2.83,6.19.08,1.24.06,1.93-1.41,2.31-4.38,1.13-4.83,1.9-4.83,6.46a18.28,18.28,0,0,0,3,10.28c5.59,8.5,6.21,17.87,4.93,27.56-1.12,8.42-3.87,16.49-5.59,24.78a53.06,53.06,0,0,0-1.38,13.52,6.44,6.44,0,0,0,1.15,3.91c1.71,1.74,1.84,4,2,6.23a26,26,0,0,1-.74,9.17,27.05,27.05,0,0,0-1.11,6.58,4.06,4.06,0,0,1-3.58,4.18c-.75.26-1.44.67-2.2.9-.6.23-1.2.43-1.8.63a19.33,19.33,0,0,1-3,.78,15.18,15.18,0,0,1-3.13,1.19c-7.16,2.06-14.39,3.61-21.92,3.34a45,45,0,0,1-7.93-1.13,7.61,7.61,0,0,1-2.64-.79c-1.65-.79-2.81-2.67-2.17-4.15,1.11-2.58,2-5.32,4.65-7a102.38,102.38,0,0,0,13.06-9.56c2.4-2.08,4.27-4.66,6.75-6.65,1.85-1.49,3.74-2.75,6.18-2.85a2.57,2.57,0,0,0,2.61-2.42,15,15,0,0,0,.18-5.3c-.79-5.06-.41-10.16-.73-15.24-.62-9.79-1.75-19.5-3.15-29.2-1.25-8.7-2.67-17.38-4.09-26.06a19.5,19.5,0,0,1-.5-2.83c-.23-.68-.29-1.39-.47-2.07a2,2,0,0,0-.34-.6,3.88,3.88,0,0,0-2.56-.87,3.54,3.54,0,0,1-3.5-3.06c-.31-1.34-.92-2.6-1.17-4a2.69,2.69,0,0,1,.6-2.57c.49-.49,1.23-.76,1.39-1.54a5.72,5.72,0,0,0-.36-2.72c-2.33-8.3-4.18-16.72-6-25.15-.17-.83-.37-1.65-.6-2.47a2.06,2.06,0,0,0-2.51-1.76c-3.19.42-5.24-1.17-6.7-3.85-2.28-4.21-3.2-8.8-3.95-13.44a4.91,4.91,0,0,1,.08-2.29,2.86,2.86,0,0,0-.82-3.5c-.73-.61-.73-1.66-1-2.52S398.09,232.46,396.87,232.36Z"/><path class="cls-2" d="M475.57,120.73a12.14,12.14,0,0,0-1.25-.51c-1.15-.34-1.94-.68-1.25-2.21a4.32,4.32,0,0,0-.45-3.58,1.46,1.46,0,0,0-1.84-1c-.59.15-1.34,1.24-1.83,0-.59-1.5-1.88-2.92-1.13-4.67a1.7,1.7,0,0,1,2-1c5.12.78,8.81-2,10-7,.5-2.08,1.82-4,2.14-6.06a16.28,16.28,0,0,1,3.26-8.06,6.75,6.75,0,0,0,.83-6.82c-.81-2.16-1.64-4.31-2.59-6.41a18.61,18.61,0,0,0-11.61-10.52c-4.58-1.52-21.05-3.69-24.6-3.69-3.07.24-5.61,1.79-8.31,3.1-3.2,1.56-4.3,4.06-4.23,7.27a10.16,10.16,0,0,1-1.21,4.84c-1.88,3.79-2.43,7.93-3.05,12.06s0,8.18-1.3,12.14a2.56,2.56,0,0,0,.15,2c2,3.14,2.52,7,4.5,10.11a15.47,15.47,0,0,0,4.61,5.11c.91.58,1,.87.33,2.06-1.64,2.7-4,3.41-6.84,3.9a26.76,26.76,0,0,0-8.94,3,13.24,13.24,0,0,0-6.57,9c-2.55,11.24-3.21,22.75-4.92,34.1a93.73,93.73,0,0,1-6.27,22.68c-3.64,8.6-7,17.33-7.81,26.77-.26,2.82-.09,5.67-.59,8.47v.92a9.31,9.31,0,0,1,0,4.63v.93c.36.07.44.34.47.67a5.45,5.45,0,0,1,.14,1.37c-.46,2.38,2.94,3.39,1.9,6.2-.83,2.24.26,4.71.78,7a28.9,28.9,0,0,0,3.4,9.27c1.75,2.76,4,4.46,7.53,3.43,1.72-.52,1.25,1,1.39,1.65,1.49,6.29,2.85,12.61,4.31,18.9.87,3.74,1.88,7.46,2.82,11.18.22.37,0,.78.11,1.15a2.87,2.87,0,0,1,.37,1.35,2.38,2.38,0,0,0,.09.88,1,1,0,0,0,.64.58,4.94,4.94,0,0,1,2.25.63,3,3,0,0,0,.87.35,20.09,20.09,0,0,1,3.83.67,18.21,18.21,0,0,1,3.2.5,52.46,52.46,0,0,0,5.88.12c1,0,2-.41,3-.45a8.44,8.44,0,0,0,1.81-.21c1.13-.31,2.29-.46,3.42-.72s2-.48,3.06-.62a5.78,5.78,0,0,0,1.31-.55c.72-.42,1.6-.66,1.93-1.57a4.36,4.36,0,0,0-.31-2.2c0-5-.67-10-.42-15.07a8.9,8.9,0,0,0,.15-2.24c0-.37,0-.81.62-.53,2.58,6.9,5,13.89,7.85,20.67,1,2.38,1.65,5.4,4.69,6.55.88.34.71,1.46.9,2.23,1.32,5.14,2.43,10.34,4.64,15.2,1.95,4.3,4.4,8.14,9.09,9.93a1.13,1.13,0,0,1,.8,1,71.52,71.52,0,0,0,3.37,11,1.77,1.77,0,0,1-.21,1.68c-1.05,2-.48,3.88,1.6,4.72,1,.4,1,.92,1.08,1.68.95,8.37,3.32,16.43,5.36,24.56a17,17,0,0,1,.22,4.06c0,1.47.58,2.19,2.11,1.87a7.56,7.56,0,0,1,1,.37,4,4,0,0,0,2.86-.29c.46-.23.67-.7,1-1,2.66-1.46,2.55-1.71,1.3-4.46-.69-1.53-.54-3.44-.84-5.17a192.4,192.4,0,0,0-5.4-23.09,2.35,2.35,0,0,1,.43-2.27c.94-1.5,1.58-3-.11-4.52-.45-.24-1.06.16-1.46-.34a53.71,53.71,0,0,0-1.9-9.22c-.88,0-.81.74-.95,1.29-.12,1.8.47,3.49.73,5.23a3.86,3.86,0,0,1-.57,3.3c-.85,1-1.77,2.05-3.25,1.82s-1.58-1.51-1.91-2.61c-.69-2.28-1.49-4.53-2.11-6.83-.29-1.07,0-1.6,1.12-1.67a10.42,10.42,0,0,0,5.14-1.87,4,4,0,0,0,1.27-1.06c2.59-3.13,4.54-6.54,4.59-10.77a40.31,40.31,0,0,0-2.38-12.86c-.59-1.82-1.16-3.66-1.85-5.45-.64-1.63-.31-2.61,1.3-3.54,3.57-2.08,3.62-5.41.23-7.94a1.5,1.5,0,0,1-.52-.94c-1.68-5.35-3.34-10.7-3.6-16.37-.06-1.53.2-2.36,2-1.95a3.66,3.66,0,0,0,3.48-1.36c3.31-3.31,4.25-7.59,4.72-12a58.69,58.69,0,0,0,0-12c-1.14.17-.9,1.24-1.26,1.92-.77,3.78-1.14,7.63-2,11.39a23.12,23.12,0,0,1-1.57,4.83c-1.81,3.93-4.54,5.09-8.62,3.6a26.05,26.05,0,0,0-3.46-1.28,2.34,2.34,0,0,1-1.8-2.4,41.44,41.44,0,0,1-.05-4.17c0-1.68-.1-3.23-1.94-4.07-1.14-.52-.32-1.09.14-1.56a53.23,53.23,0,0,0,6.13-6.61,6.38,6.38,0,0,0,1.35-2.39,1.51,1.51,0,0,0-.13-.63c-1-.76-.31-2-.79-2.9a46.72,46.72,0,0,0-2.34-8,3.17,3.17,0,0,1,.62-3.61,4.3,4.3,0,0,0,1.09-3.65c-.64-6.59-1-13.2-1.66-19.8a102.76,102.76,0,0,1,1.12-29.91,11.87,11.87,0,0,0,.28-2.52,1,1,0,0,0-.42-.63c-1.44.22-1.69,1.47-2.05,2.52a58.26,58.26,0,0,0-2.63,12.67c-1.16,10.27,0,20.47.81,30.69.18,2.23,0,4.48.19,6.71a2.49,2.49,0,0,1-1.33,2.28q-12.21,9-24.9,17.28a2.68,2.68,0,0,1-3.4,0c-3.26-2.34-6.39-4.86-9.69-7.14a2.67,2.67,0,0,1-1-2.65c.65-9.85,1.42-19.68,2.55-29.49,1.38-12.11,3.17-24.17,4.86-36.24,1.58-11.23,3.29-22.44,4.55-33.71a2.16,2.16,0,0,1,.53-1.43,60,60,0,0,1,5.19,6.12c.92,1.14,1.73,2.37,2.73,3.44,1.67,1.78,2.95,1.66,4.18-.46a82,82,0,0,0,4-8.59c1-2.26,2.19-4.43,3.15-6.7s2.3-3.57,4.91-2.87C475.1,121.55,475.66,121.46,475.57,120.73Z"/><path class="cls-3" d="M396.87,225.88c1.05-2.59.8-5.36,1.09-8,.06-.59.13-1.17.21-1.76a85.19,85.19,0,0,1,7.1-23.66c5-11,6.92-22.62,8.24-34.44.88-8,1.87-15.92,3.51-23.78a12.71,12.71,0,0,1,7.21-9.29c3.56-1.76,7.42-2.48,11.28-3.2,1.34-.25,2.58-.23,2.67-2.27.06-1.32,1.94-1.59,2.89-2.62-5-2.73-7-7.4-9.32-12.31-1.71-3.65-1.37-6.73-1.11-10.32.46-6.24.42-12.59,3-18.35a20.6,20.6,0,0,0,1.92-8.46,4,4,0,0,1,2.11-3.52,39.77,39.77,0,0,1,9.62-4.71C431.12,59.14,396.87,170.91,396.87,225.88Z"/><path class="cls-4" d="M396.87,231.43a5,5,0,0,0,0-4.63Z"/><path class="cls-2" d="M426,309.35l3.51,23.07c2.09,13.65,3.77,27.34,3.95,41.18.05,3.85.73,7.69.29,11.56-.15,1.24-.35,2-2,1.95-3.15-.14-5.54,1.69-7.62,3.8a88.67,88.67,0,0,1-13.34,11.75,43.37,43.37,0,0,1-4.65,3c-3.06,1.55-4.36,4.45-5.54,7.28-1.36,3.24.87,5.71,5.09,6.07.53.32.92.28,1.05-.41-.46-.84-1.36-.94-2.14-1.23a3.17,3.17,0,0,1-2.39-2.66c4.21,3.62,9.08,3.33,13.95,2.86,8-.78,15.69-3.23,23.36-5.59,2.78-.85,5.68-1.31,8.43-2.72-.25,2.07-2.48,2.25-3,3.82.09.41.28.66.74.45a4.85,4.85,0,0,0,4.52-5.3,17.77,17.77,0,0,1,.84-5.13,30.67,30.67,0,0,0,.47-13.21,4.71,4.71,0,0,0-1.82-3.31c-.47-.07-.63.23-.72.61,1,4.62,1.59,9.25.59,14-.74,3.51-2.4,6-6.17,6.94-8.43,2.14-16.64,5.15-25.3,6.37a26,26,0,0,1-11.21-.47c-1.11-.33-2.33-.63-2.64-2s.57-2.32,1.54-3.14a23.44,23.44,0,0,1,3-2.11,74.33,74.33,0,0,0,13.07-10.24A46,46,0,0,1,427.7,391c3.28-2.26,5.57-2,8.42.74.28.27.54.55.82.81,3.83,3.74,9.24,2.11,10.58-3.19-.25-.58-.46-1.26-1.35-.85a12.26,12.26,0,0,0-1,1.25c-2.43,2.89-4.21,2.77-6.86.2-2.33-2.25-2.84-4.59-2.22-7.66,1.08-5.41.64-10.9.24-16.34-.7-9.45-1.42-18.89-2.69-28.29a188.33,188.33,0,0,0-5.58-26.92c-.32-1.09-.52-2.28-1.57-3C425.44,308,425.86,308.73,426,309.35Z"/><path class="cls-2" d="M449.16,387.08c.16-.16.31-.32.46-.49-1.59-3.37-1.08-6.93-.66-10.39,1-8.49,3.71-16.63,5.52-25,1.75-8,2.66-16.09.73-24.23-1-4.26-3.23-8-5.32-11.71a18.12,18.12,0,0,1-2.16-10.41,4.1,4.1,0,0,1,4.89-3.92c1.61.26,1.73-.41,1.61-1.59-.3-2.79-.83-5.48-3.16-7.4,0,.77,0,1.55,0,2.32-.28,1.15-1.25.95-2.06,1.05l-.75.47a10.25,10.25,0,0,1-2.83.78c-1.11.26-2.23.47-3.35.71a15.48,15.48,0,0,1-2.15.2,9.53,9.53,0,0,1-3,.4c-2.12-.05-4.23.1-6.34-.09a30.62,30.62,0,0,1-3.7-.58c-1-.24-2.09-.37-3.14-.52l-.2-.44c-1,.22-1.84-.49-2.8-.47l-.24-.48c-.32-.31-.5-.62,0-.91.91-.84-.44-.9-.49-1.41a1.86,1.86,0,0,0-1.84,0c-2.38,3,.37,5.54.82,8.27.27,1.69,1.75,2.33,3.43,2.43a24.35,24.35,0,0,1,2.69.45,2.49,2.49,0,0,0,1.47.57c5.54,0,11.1.38,16.59-.79.94-.2,1.94-.39,1.83,1.16-.33,4.52,1.48,8.46,3.57,12.26,2.93,5.33,5.2,10.84,5.42,17a68.82,68.82,0,0,1-2.19,18.08c-1.42,6.17-3.18,12.25-4.48,18.44a139.31,139.31,0,0,0-1.81,15.38c-.08.86-.08,1.72.92,2.14l.81.92C448.38,389,448.38,387.73,449.16,387.08Z"/><path class="cls-2" d="M497.82,378.27l-1.08.51c-.47,3.57.44,7,1.3,10.37.18.69.84,1.44.07,2.11a1.55,1.55,0,0,1-1.54.07c-.93-.34-.9-1.17-.9-1.92,0-3.45-.11-6.89-1.42-10.15l-1.32,0c.73.28.69.83.64,1.49-.13,1.54-.18,3.08-.22,4.62-.06,1.82.42,3.61-2.28,4.43-1.77.53-2.12,2.88-2.55,4.68-1.65,7-5.2,13.3-6.94,20.25-.05.21-.12.51-.27.59-3.61,1.86-2.49,5.3-2.61,8.21-.08,2.11,1.8,2.9,3.49,3.52a34.46,34.46,0,0,0,15.93,1.52,32.78,32.78,0,0,0,10.34-3,3.4,3.4,0,0,0,2.23-3.39c-.13-9.41-1-18.73-4.22-27.66-.67-1.86-1.52-3.72-3.47-4.7-.43-.17-.86-.26-1.16.23-.11.69.57.85.86,1.26a9.51,9.51,0,0,1,1.29,2.08,4,4,0,0,1,.39,3.28,2,2,0,0,0,.23,1c1.93,3.64,2,7.71,2.71,11.64a17.38,17.38,0,0,1,0,7.11,4.15,4.15,0,0,1-2.63,3.21c-6.4,2.63-12.93,2.46-19.55,1.14-1.73-.34-1.64-1.66-1.45-2.89a45.71,45.71,0,0,1,4-12.74A52.57,52.57,0,0,1,491,398.7c2-3.12,4.25-4,7.86-3.21,1.43.33,2.72,1.12,4.21,1.21a1.55,1.55,0,0,0,1-.46c.78-.86.4-1.74,0-2.62a8.83,8.83,0,0,0-1.53-2.46,9.13,9.13,0,0,1-2.39-2.71A34,34,0,0,1,497.82,378.27Z"/><path class="cls-2" d="M475.57,120.73a1,1,0,0,1-1,.49c.25,1.21,1.35,1.11,2.17,1.36,4.66,1.37,9.31,2.76,14,3.92,4.23,1,6.4,3.76,7.11,7.86.8,4.63,1,9.33,1.52,14,.95,9.34,1.39,18.73,2.22,28.09.22,2.46.3,4.94.32,7.38.06,6.46.91,12.87.44,19.38s-.59,12.76-1.52,19.1c-.63,4.29-1.67,8.47-2.71,12.66a6.53,6.53,0,0,0-.3,3.86c.21.39.45.74,1,.52,2.52-4.35,3.13-9.27,4-14.07,3-16.67,2.43-33.44,1.12-50.22-.86-10.91-1.63-21.82-2.49-32.72-.31-3.91-.72-7.81-2.27-11.49a9.43,9.43,0,0,0-6.39-5.87C487.07,123.48,481.31,122.14,475.57,120.73Z"/><path class="cls-2" d="M496.85,240.71l.58-.89a1.43,1.43,0,0,0-.65-.49,13.39,13.39,0,0,0-2.45-.25,33.47,33.47,0,0,1-5.71-.84c-1.54-.31-2.1-1.16-2-2.79.88-14.38,2.09-28.75,1.67-43.18a80.45,80.45,0,0,0-4.13-24.07,5.46,5.46,0,0,0-1.26-2.43c-.61-.42-1-.11-1.23.44a4,4,0,0,0,.4,3.19l-.05-.05a129.3,129.3,0,0,1,2.48,31c-.54,10.31-.92,20.64-1.73,30.93a37,37,0,0,0,.29,6.23c.27.9.16,1.93.84,2.71l0,0c2.3.54,4.68.58,7,1.1h3.44a4.91,4.91,0,0,0,2.27-.35Z"/><path class="cls-5" d="M406.58,418.63l-.94.39c4.39,1.76,9,1.56,13.57,1.31a71.68,71.68,0,0,0,16.38-3.16c.3-.09.6-.09.62-.49-.07-.11-.14-.22-.22-.33-1.12-.72-2.23-.14-3.33.09-5.86,1.22-11.71,2.43-17.75,2.39-2,0-4-.48-6-.57C408.14,418.22,407.28,417.86,406.58,418.63Z"/><path class="cls-6" d="M489.31,326.8c-.48,0-1-.08-1.26.46.39,1.15-.15,2.67,1.35,3.36.25-.44-.1-1.07.44-1.42Z"/><path class="cls-7" d="M503.06,391.19a1.86,1.86,0,0,0-1.08-1,10.76,10.76,0,0,1-.92-1.29l-.91-.47c.46,1.14.45,2.63,2.12,2.86A.61.61,0,0,0,503.06,391.19Z"/><path class="cls-8" d="M436.21,416.68c1-.31,2.52.35,2.79-1.42l-.31-.22c-1.21,0-2.68-.39-2.46,1.69Z"/><path class="cls-9" d="M426.44,304.23l-1.34,0a2.08,2.08,0,0,0,0,.43c.38.52.31,1.24.73,1.76a.79.79,0,0,0,.56.32C427.93,305.9,427.11,305.06,426.44,304.23Z"/><path class="cls-10" d="M439,415.26c1.08,1,2,.18,2.87-.34a1.08,1.08,0,0,0-.69-.79c-.95,0-2-.21-2.18,1.21Z"/><path class="cls-11" d="M426.13,306.5l-.2-.45c-.45-.08-.62.1-.48.55.14.92-.05,1.91.52,2.75.25-.47-.09-1.12.48-1.48C427,307.26,426.61,306.87,426.13,306.5Z"/><path class="cls-12" d="M451.42,274.13c-.12-.53-.48-1.19-.77-.28a10.05,10.05,0,0,0,0,3C451.29,276.08,450.53,274.88,451.42,274.13Z"/><path class="cls-8" d="M445.61,413.54l-.58-.43c-.84-.55-1.44-.15-2,.51-.05.41.2.59.54.7A3.51,3.51,0,0,0,445.61,413.54Z"/><path class="cls-13" d="M496.46,243.49l.79-1.85c.07-.4.22-.83-.4-.93l0,0A1.69,1.69,0,0,0,496.46,243.49Z"/><path class="cls-2" d="M443.6,414.32l-.46-.41c-.81-.52-1.36-.14-1.82.54l.55.47Z"/><path class="cls-14" d="M501.06,388.92c-.16.77.09,1.24.92,1.29l1-.44Z"/><path class="cls-15" d="M425.45,306.6l.48-.55c-.23-.5-.08-1.23-.82-1.43A2.69,2.69,0,0,0,425.45,306.6Z"/><path class="cls-16" d="M491.74,338.42c-.12.17-.35.34-.33.49.08.54.33.13.54.08.41-.11.84-.16,1.25-.23C492.84,338.11,492.25,338.46,491.74,338.42Z"/><path class="cls-17" d="M418.16,293l1.84,0-.39-.95Z"/><path class="cls-2" d="M496.89,239.78l.54,0c.47-.16,1.08.13,1.41-.46l-.67-.66a1.55,1.55,0,0,0-1.42.54A.42.42,0,0,0,496.89,239.78Z"/><path class="cls-18" d="M496.87,239.38a1.45,1.45,0,0,0,1.3-.68c1-4.36,2-8.69,2.83-13.07,2.51-13.83,2.54-27.79,1.68-41.76C502,171.94,501,160,500.08,148.1c-.35-4.54-.81-9.07-1.42-13.58S495.73,127,491,125.8c-5.52-1.34-10.95-3-16.42-4.58-3.52-.56-3.61-.6-5.29,2.84-2.51,5.11-4.85,10.31-7.33,15.43-1.18,2.44-1.55,2.43-3.26.31-2.89-3.59-5.76-7.18-9-11.17-.85,6.45-1.59,12.38-2.41,18.29q-2.86,20.61-5.78,41.22c-2.07,14.75-3.56,29.56-4.3,44.43,0,.79-.08,1.47.76,2,3.85,2.3,7.23,5.25,10.84,7.89a2.09,2.09,0,0,0,2.82.07c8.86-5.88,17.57-12,26.21-18.2a2.68,2.68,0,0,0,1.14-2.72c-.47-9-1.49-18-1.59-27a70.71,70.71,0,0,1,2.84-21.93c.36-1.16.32-2.64,1.79-3.23.57-.92-.15-1.8-.09-2.71-.25-.91-.06-1.92-.62-2.76,0-.23-.3-.43-.14-.7a1.12,1.12,0,0,0,.17.58,3.81,3.81,0,0,0,1.09,1.87c3.26,7.93,4.58,16.27,5.07,24.76.7,12.11-.31,24.18-1.09,36.25-.22,3.31-.33,6.63-.62,9.93-.11,1.28.42,1.78,1.53,2.1a29.54,29.54,0,0,0,7.06,1C495.21,239.31,496.09,239.75,496.87,239.38Z"/><path class="cls-18" d="M448.29,128.91c-2.64,3.8-5,7.14-7.28,10.46-.47.66-.74,1.83-1.73,1.62s-1.06-1.41-1.17-2.29c-.6-4.62-.2-9.25-.08-13.88,0-.91,0-1.83,0-3-4.47,1.48-8.93,2.41-12.9,4.68a10.89,10.89,0,0,0-5.42,7.13c-2.21,9-3.2,18.22-4.2,27.41a121,121,0,0,1-8.62,34.12c-4.09,9.77-6.9,20-6.93,30.69,0,2.32.21,4.63.26,6.94s.94,3.61,3.1,4.2c.67.18,1.26.62,1.92.79,1.3.34,3.17,1.67,3.76.76a5,5,0,0,0-.09-4.65c-4.66-7.65-3.19-15.52-.71-23.2,5.94-18.41,8.81-37.31,10-56.52a3.1,3.1,0,0,1,1-2.64c0,2.77,0,5.53,0,8.29s-.1,5.56-.34,8.33a196.5,196.5,0,0,1-8.45,42,48.63,48.63,0,0,0-2.19,13.64,12.24,12.24,0,0,0,3.77,8.89c3.68,4,7.66,7.61,11.45,11.45.79.8,1.24.58,1.86-.07a64.87,64.87,0,0,1,8.68-8,2.28,2.28,0,0,0,.82-2c.74-13.71,2-27.38,3.66-41,2.29-19.14,5.4-38.15,9.12-57.06A47.67,47.67,0,0,0,448.29,128.91Z"/><path class="cls-19" d="M444.54,100.27a8,8,0,0,0,4.87,1,7.6,7.6,0,0,1,2.51.23c2.92.72,4.34-.65,3.64-3.61-.08-.35-.42-.66-.14-1.07,1.9,1.35,2.07,3.2.34,5.12a2.58,2.58,0,0,0-1,2.36c.35,2.18-.92,3.58-2.78,4.28a17.41,17.41,0,0,1-13.91-.53,3.5,3.5,0,0,1-2.4-3.13c0-.94-.6-1-1.24-.88-1.07.2-.47.93-.31,1.41,3.25,9.89,13.1,14.31,21.21,7.9.44-.35,1-.79,1.38-.23s-.32.92-.69,1.25a13.76,13.76,0,0,1-7.87,3.55c-2.53.24-3.09,1.26-1.85,3.36,3,5.09,3,5.12,8.05,2.13,3.71-2.21,7.31-4.59,11-6.76,1.55-.9,2.34-1.77,1.46-3.62a12.69,12.69,0,0,1-.59-2.88c-1.12.77-2,1.46-3,2-.4.23-.95.84-1.4.24s.07-1.15.62-1.47a13.91,13.91,0,0,0,4.18-3.24,22.85,22.85,0,0,0,2-2.81c.78-1.38,1.43-2.69,3.45-2.11a2.42,2.42,0,0,0,1.68-.59c2.37-1.68,2.58-6.9.35-8.71a3.66,3.66,0,0,0-4.31-.47c-1.89,1-3,.32-3.12-1.91-.07-1.68.74-3.34.09-5-1.75-4.54-4.79-8.27-7.88-11.85-1.75-2-4.83-2-7.42-2-4.3-.06-8.56-1.11-12.89-.33a2.91,2.91,0,0,0-2.23,1.7c-1.95,3.57-2.76,7.49-3.48,11.44.89.38.92.41,1.53,0a7.76,7.76,0,0,1,4-1.45,6.82,6.82,0,0,1-2.42,1c-1.45.6-3.18.89-3.5,2.87.09,4.35-.44,8.72.36,13.06.4,2.22,1.71,2.86,3.66,1.71l3.34-2c.54-.57,1.65.3,2-.77-.12-.8-.88-1.24-1.16-1.93a2.21,2.21,0,0,1,1.08-3c-.8,1-1.42,2-.59,3.06,1.09,1.41,2.46.71,4,.15-.34.7-1,.9-1.2,1.39S444.07,100.08,444.54,100.27Z"/><path class="cls-1" d="M488.33,295.81a47.11,47.11,0,0,1-20.68,5.62c-1.12,0-1.49.34-1.22,1.5A90.94,90.94,0,0,0,472,320a16.33,16.33,0,0,0,3.59,5.06,8.91,8.91,0,0,0,12.51.16c4-3.75,5.12-8.48,4-13.73S489.6,301.17,488.33,295.81Z"/><path class="cls-18" d="M441.46,63.59a70.7,70.7,0,0,1,11.91.72c9.82,1.45,14.94,7.73,17.52,16.74a53.61,53.61,0,0,1,1.79,8.58c.06.49-.21,1.2.46,1.42,3.78,1.27,4.43,4.29,4.31,8.06,4.12-5.4,3.85-11.33,3.46-17.31,1.24,1.67.91,3.78,1.75,5.74a7.53,7.53,0,0,0,1.54-8.09c-.79-2.08-1.71-4.11-2.69-6.12a16.39,16.39,0,0,0-10.79-9c-5.34-1.49-10.64-3.08-16.21-3.54C449.88,60.36,445.49,61,441.46,63.59Z"/><path class="cls-19" d="M496.46,243.49a5.29,5.29,0,0,1,.41-2.81h-2.28a7,7,0,0,1-3.74.07c-2.31-.34-4.58-1.29-7-.54-1.62,3.89-4.76,6.54-7.73,9.3-1.87,1.74-1.91,1.74.39,2.58a1.7,1.7,0,0,1,1.31,1.87c0,1.77,0,3.55.07,5.32s.42,3.19,3,3.67c2.41.46,4.64,1.52,7.28,1.41A4.17,4.17,0,0,0,492,262c2.05-3.45,2.76-7.33,3.41-11.2C495.84,248.38,496.12,245.93,496.46,243.49Z"/><path class="cls-3" d="M483.33,237.91c.28-6,.53-12,.83-18,.58-11.86,1.66-23.7.68-35.59a109,109,0,0,0-1.95-13.47c-.12-.57-.1-1.28-.87-1.49-2.67,11.21-2.62,22.56-1.65,34,.56,6.52,1,13.05,1.6,19.56a2.77,2.77,0,0,1-1.57,3c-1,.52-1.12,1.19-.7,2.24a79.59,79.59,0,0,1,3.21,9.8C483.07,238.16,483.21,238.14,483.33,237.91Z"/><path class="cls-18" d="M460.26,138.77c1.5-3.25,2.82-6.09,4.13-8.94,1.77-3.87,3.72-7.63,6.86-10.61a2.92,2.92,0,0,0,.93-1.81c.13-1,.21-2.2-.68-2.77s-1.48.52-2.12,1c-5.19,3.76-10.68,7-16.19,10.27-1.77,1-1.75,1.73-.52,3.19C455.19,132.09,457.53,135.26,460.26,138.77Z"/><path class="cls-1" d="M491.87,345.22c-1.4.71-2.32,1.49-3.31,1.61-2.37.31-2.28,1.52-2,3.42,1.31,7.66,3.56,15.08,5.28,22.63.37,1.65,1.6,2,3,1.56,1.22-.35,2.71-.58,2.33-2.48C495.47,363.08,493.68,354.21,491.87,345.22Z"/><path class="cls-18" d="M409.64,257.46c1.45.19,1.94-.33,1.67-2.06-.68-4.26-1.12-8.55-1.59-12.83-.15-1.35-.49-2.18-2.09-2.48a23,23,0,0,1-5.18-1.87c-1.28-.59-2.12-.43-1.82,1,1.23,5.94,2.39,11.94,6.05,17A2.9,2.9,0,0,0,409.64,257.46Z"/><path class="cls-20" d="M489.4,330.62c-.9-.94.17-2.67-1.35-3.36-2.19,1.63-4.73,2-7.56,2l2.86,9.34c.47,1.56.83,3.3,3,3,2-.27,4.13-2.56,4-4.39C490.17,335,489.73,332.82,489.4,330.62Z"/><path class="cls-18" d="M440,137.41a80,80,0,0,1,7.62-9.73c.54-.57.44-.94,0-1.5a44.44,44.44,0,0,1-4.13-6.13c-.31-.52-.48-1.51-1.44-1.1s-2,.64-2,1.72C440,126.1,440,131.53,440,137.41Z"/><path class="cls-21" d="M494.25,379.26c-.41,2.1.65,4,.66,6.09,0,1.69.14,3.38.07,5.07-.05,1.23.26,1.75,1.61,1.79,3.15.11,3.23.08,2.14-2.83-1.28-3.42-1.12-7.11-2-10.6A4.48,4.48,0,0,1,494.25,379.26Z"/><path class="cls-22" d="M432.56,87.55c1.19-2.17,3.54-2.08,5.46-2.8.74-.28,2,0,1.82-1.24s-1.42-.66-2.28-.57c-1.79.2-2.95,1.75-4.65,2.15C432.22,85.83,432.58,86.72,432.56,87.55Z"/><path class="cls-23" d="M483,293a23.4,23.4,0,0,0,8.65-4.32c-3.29.73-6.09,2.63-9.16,3.87C482.5,292.83,482.76,292.87,483,293Z"/><path class="cls-24" d="M447.88,102.9c-1.05-.73-2.13-1.22-2.82.35-.22.5-.14,1.36.52,1.56s1.78.67,2.3-.53A1.41,1.41,0,0,0,447.88,102.9Z"/><path class="cls-25" d="M440.84,104a2.39,2.39,0,0,0,1.59.69c.82-.06,1.22-.42,1.2-1.27s-.38-1.26-1.26-1.07c-.51.11-1,.25-1.53.37A.87.87,0,0,0,440.84,104Z"/><path class="cls-26" d="M447.88,102.9v1.38c.06,0,.12-.12.19-.13.85-.13,1.79,1.07,2.57-.15.21-.33.37-.79,0-1.06A2.49,2.49,0,0,0,447.88,102.9Z"/><path class="cls-27" d="M476.55,101.31a10.22,10.22,0,0,1-2.84,2.76c-.07.46,0,.72.56.51a3.33,3.33,0,0,0,2.72-2.29C477.17,101.81,477.41,101.31,476.55,101.31Z"/><path class="cls-28" d="M445.45,108.72c.67-.13,1.48.21,1.45-.79a1.09,1.09,0,0,0-1.2-1.1c-.86,0-1.23.55-1.28,1.29C444.36,109.14,445.27,108.33,445.45,108.72Z"/><path class="cls-7" d="M447.62,107.56c-.14.49.07.75.55.72.76,0,1.66-.07,2-.83.2-.44-.23-1-.88-1.09A1.44,1.44,0,0,0,447.62,107.56Z"/><path class="cls-24" d="M440.84,104v-1.28c-.79,0-1.66-.38-2.25.43-.25.35.07.7.33,1C439.61,104.88,440.23,104.56,440.84,104Z"/><path class="cls-29" d="M474.4,295a10.56,10.56,0,0,0,4.29-1c-1.89-.57-3.6.59-5.43.54C473.33,295.43,474,295,474.4,295Z"/><path class="cls-30" d="M444.54,100.27l-.45-.74a1.44,1.44,0,0,0-2.33,0c-.48.57-1.42.07-1.84.78Z"/><path class="cls-31" d="M430.21,298.06l6.91,0c.16-.08.22-.16.17-.25s-.1-.14-.15-.14l-6.39-.08C430.25,297.38,430.16,297.63,430.21,298.06Z"/><path class="cls-32" d="M466.15,295.26h-3.64v.49h6.55C468.27,294.51,467.13,295.33,466.15,295.26Z"/><path class="cls-33" d="M430.21,298.06l.54-.45a9.15,9.15,0,0,0-3.2-.49c-.45-.08-1-.41-1,.47A14.81,14.81,0,0,0,430.21,298.06Z"/><path class="cls-1" d="M483,293l-.51-.45a3.23,3.23,0,0,0-2.7,1c1,.67,1.89-.2,2.82-.36C482.71,293.2,482.83,293.07,483,293Z"/><path class="cls-34" d="M474.27,104.58l-.56-.51a6.65,6.65,0,0,1-2.94.39C472.19,106.21,473.22,104.93,474.27,104.58Z"/><path class="cls-35" d="M442.18,297.56a9.11,9.11,0,0,0,3.41-.73c-.06-.31-.36-.34-.56-.48-1.09.34-2.31.15-3.32.8A.76.76,0,0,0,442.18,297.56Z"/><path class="cls-36" d="M466.15,295.26c.92.41,2-.31,2.91.49a2.78,2.78,0,0,0,2-.33c-.37-.54-1-.11-1.45-.45A8.46,8.46,0,0,0,466.15,295.26Z"/><path class="cls-37" d="M426.52,297.59l1-.47c-1.26-.33-2.47-1.09-3.84-.4C424.48,297.55,425.63,297.15,426.52,297.59Z"/><path class="cls-38" d="M441.43,107.76c.07.12.13.33.23.35.62.15,1.27.65,1.87.17.29-.24,0-.69-.29-1-.85-.7-1.36-.1-1.87.5Z"/><path class="cls-39" d="M420.71,295.81c.85.67,1.69,1.37,2.8.47C422.63,295.8,421.82,294.91,420.71,295.81Z"/><path class="cls-40" d="M441.37,107.82c-.56-.86-1-1.95-2.5-1.27.51,1.27,1.61,1.08,2.55,1.21Z"/><path class="cls-41" d="M437.14,297.69a1.7,1.7,0,0,1,0,.39,4.33,4.33,0,0,0,2.81-.39c.16-.1.21-.19.15-.26a.24.24,0,0,0-.18-.12Z"/><path class="cls-42" d="M445,296.35l.56.48c1-.11,2-.08,2.63-1C447.08,295.52,446.1,296.22,445,296.35Z"/><path class="cls-43" d="M449,295.35c1,.37,2.13.79,2.06-1.05Z"/><path class="cls-44" d="M483.33,237.91a.61.61,0,0,0-.42,0c.34.76-1.15,2.31,1,2.29C484.13,239.36,483.5,238.69,483.33,237.91Z"/><path class="cls-45" d="M476.55,101.31l.44,1a2.83,2.83,0,0,0,.22-2.77Z"/><path class="cls-46" d="M469.58,295l1.45.45,1.73-.13c0-.89-.56-.57-1-.48Z"/><path class="cls-47" d="M471.74,294.81l1,.48a2.21,2.21,0,0,0,1.64-.34c-.41-.06-.85-.06-1.14-.46A2.21,2.21,0,0,0,471.74,294.81Z"/><path class="cls-48" d="M420.49,294.42c-.52-.29-.92,0-1.34.26a1.68,1.68,0,0,0,1.32.65Z"/><path class="cls-49" d="M439.9,297.31l0,.38,2.25-.13-.47-.41Z"/><path class="cls-50" d="M430.89,98.38a1.75,1.75,0,0,0,0,1.82A1.5,1.5,0,0,0,430.89,98.38Z"/><path class="cls-19" d="M426.13,306.5l.32,1.37a177.49,177.49,0,0,1,7,33.61c1.27,10.32,2,20.69,2.56,31.08a52,52,0,0,1-1,12.86c-.24,1.23-.23,2.14,1,2.92a9.85,9.85,0,0,1,2.15,2.38c1.11,1.38,2.3,2.64,4.28,2s3.72-1.83,4-4.23c-.77-2.46.07-4.87.22-7.3.59-10.07,3.76-19.63,6-29.38,1.76-7.71,2.83-15.45,1.25-23.36-.85-4.24-3-7.87-5-11.63a25.54,25.54,0,0,1-3.18-9.1,11.13,11.13,0,0,1-.06-2.08c.23-2.79.24-2.85-2.41-2.31-5.56,1.12-11.18,1-16.81.94C426.06,305,427.7,305.94,426.13,306.5Z"/><path class="cls-1" d="M449.16,387.08c-2.08-.45-1.1,1.68-1.93,2.29a7.38,7.38,0,0,1-3.5,4.12c-2.23,1.33-4.81,1.15-6.16-1.09-3.26-5.45-8.57-4-12.21-.26a89.15,89.15,0,0,1-15.8,13.48,32.26,32.26,0,0,0-4.8,3.19c-1,.94-1.75,2-1.38,3.46s1.59,1.89,2.91,2.27c7.38,2.14,14.49.3,21.56-1.52,5.59-1.43,11.08-3.2,16.65-4.68a6.73,6.73,0,0,0,5-4.91A26.34,26.34,0,0,0,449.16,387.08Z"/><path class="cls-21" d="M441.32,414.45l1.82-.54,1.89-.8c3.1-1.8,3.46-2.26,4-4.92a207.59,207.59,0,0,1-26.31,7.73,45,45,0,0,1-12.61,1.28c-3.17-.16-6.18-1-8.26-3.78-.54,2.49-.1,3.44,2.15,4.37.85.35,1.75.56,2.63.84,9.29,1.62,18.38.56,27.39-1.93.63-.17,1.53-.78,2.26,0,.35-1.61,1.73-1.16,2.77-1.39A4.14,4.14,0,0,1,441.32,414.45Z"/><path class="cls-1" d="M503.25,396.38c-8.75-3.38-10.67-2.46-14.93,6a60.74,60.74,0,0,0-5.18,14.71c-.75,3.59-.53,3.89,3,4.48,6.32,1.06,12.55,1,18.66-1.3a4.56,4.56,0,0,0,3.19-4c.75-4.93-.33-9.66-1.37-14.39-.36-1.64,0-3.65-1.92-4.66A1.81,1.81,0,0,0,503.25,396.38Z"/><path class="cls-20" d="M480.2,424.11c5.73,4,12.16,3.87,18.66,3.05a29.29,29.29,0,0,0,7.53-2.14c3.13-1.29,3.22-1.43,3-4.72-9.23,5.14-18.89,5-28.78,2.05C479.39,422.69,480,423.45,480.2,424.11Z"/><path class="cls-51" d="M489.46,396.56c1.71-1.5,2.05-3.67,3.63-5a1.27,1.27,0,0,0,0-1.69c-.56-.46-1.15.11-1.56.54C489.91,392.08,490,394.3,489.46,396.56Z"/><path class="cls-52" d="M503.79,393.56c.19.72.57,1.44.08,2.19.12.45.31.8.87.63,1.11-1.31-.33-2.2-.55-3.29C503.81,393,503.55,393.07,503.79,393.56Z"/><path class="cls-53" d="M503.79,393.56l.4-.47a3.2,3.2,0,0,0-1.13-1.9l-.79.12Z"/><path class="cls-54" d="M480.2,424.11c.11-.59-.32-1.31.4-1.76l.06-1.47c-.15-.22-.31-.22-.47,0C480.1,422,479.14,423,480.2,424.11Z"/><path class="cls-55" d="M480.19,420.87h.47l.28-2.64C479.85,419.17,480.32,420.12,480.19,420.87Z"/><path class="cls-56" d="M504.74,396.38l-.87-.63-.62.63a2.29,2.29,0,0,0,1.48.83Z"/><path class="cls-57" d="M482.48,165.68a3.48,3.48,0,0,0-.76-1.93.42.42,0,0,0-.63.07,6.35,6.35,0,0,0,.89,2.87C482.1,166.33,482,165.88,482.48,165.68Z"/><path class="cls-58" d="M490.85,240.76a3.71,3.71,0,0,0,3.74-.07Z"/><path class="cls-59" d="M496.87,239.38a4.86,4.86,0,0,0-2.44.33l2.46.07A2.61,2.61,0,0,1,496.87,239.38Z"/><path class="cls-60" d="M481.09,163.82l.63-.07a3.24,3.24,0,0,0-1.65-2.51C480.54,162.38,480.48,163.2,481.09,163.82Z"/><path class="cls-18" d="M436.69,147.19l-.54-.49a63.33,63.33,0,0,1-10,.45c-.89,0-1.92-.25-2.22,1a16.56,16.56,0,0,1-.59,2.69c-.52,2.72-1.08,5.44-1.39,8.19a12,12,0,0,0,2.95,9.64c1.19,1.38,2.46,1.69,4,.54s3.26-2.32,4.8-3.61a5.92,5.92,0,0,0,2.21-5.53c-.42-3.64.26-7.19.76-10.75C436.52,148.62,437.12,147.91,436.69,147.19Z"/><path class="cls-22" d="M436.32,149a42.52,42.52,0,0,0-1,11.9,4.58,4.58,0,0,1-1.89,4.17,43.65,43.65,0,0,0-4.55,3.51c-1.61,1.61-2.55.8-3.68-.48-3.12-3.57-3-7.71-2.27-12,.3-1.73.55-3.48.82-5.22.12-.69.7-1.49-.44-1.9a75.69,75.69,0,0,0-2.19,9.65,12.69,12.69,0,0,0,3.8,11.55c1.11,1.07,2,1.4,3.37.3,1.95-1.61,4-3.06,6-4.59a5.23,5.23,0,0,0,2.17-4.83c-.33-3.39.25-6.75.22-10.12C436.81,150.27,437.38,149.47,436.32,149Z"/><path class="cls-61" d="M424.1,148.51c.06-1.25,1-.9,1.69-.9a67.62,67.62,0,0,0,9.22-.44c.41,0,1,.16,1.14-.47-3.58-.08-7.16-.15-10.74-.26-1.08,0-2.06-.07-1.78,1.49C423.44,148.4,423.65,148.55,424.1,148.51Z"/><path class="cls-62" d="M432.48,230.07a1.25,1.25,0,0,0,1.21-1.37,1.3,1.3,0,0,0-1.53-1.29,1.22,1.22,0,0,0-1.09,1.47A1.3,1.3,0,0,0,432.48,230.07Z"/><path class="cls-63" d="M434.65,195.3a1.39,1.39,0,0,0-1,1.73c.08.71.49,1.51,1.22,1.34s1.09-1.16,1-2A1.09,1.09,0,0,0,434.65,195.3Z"/><path class="cls-64" d="M440.18,165.17c-.76.1-1.09.55-1.05,1.11s.36,1.23,1.14,1.16a1,1,0,0,0,1-1.11A1.1,1.1,0,0,0,440.18,165.17Z"/><path class="cls-65" d="M436.68,181.24a1.08,1.08,0,0,0,1,1.07,1.1,1.1,0,0,0,1.22-1.09,1,1,0,0,0-1-1.06C437.17,180.08,436.83,180.59,436.68,181.24Z"/><path class="cls-66" d="M442.37,152.47c.54.05.78-.37.88-.94a1,1,0,0,0-.89-1.28c-.68-.09-1.19.15-1.19.95S441.57,152.3,442.37,152.47Z"/><path class="cls-65" d="M432.37,214.55c.12.51.2,1.12.9,1.1a1,1,0,0,0,1-1.08,1,1,0,0,0-1-1.09C432.58,213.45,432.41,214,432.37,214.55Z"/><path class="cls-67" d="M444.4,137.78c0,.5.28.89.79.93s.95-.42,1-1-.28-.82-.8-.86S444.44,137.16,444.4,137.78Z"/><path class="cls-68" d="M436.32,149c.55.56.23,1.31.41,1.95.24-1.26.92-2.53,0-3.78Z"/><path class="cls-69" d="M424.1,148.51l-.47-.58a1.07,1.07,0,0,0-.32,1.08c.64.52.23,1.29.44,1.9A3.57,3.57,0,0,0,424.1,148.51Z"/><path class="cls-70" d="M441.76,99.55l2.33,0c.48-.24,1-.47,1.42-.74.62-.36,1.31-.79.74-1.59s-1.08-.18-1.58.14c-1,.62-2.14,1.43-3.07.28s.09-2.22,1-3.07c.1-.1.12-.27.28-.66a2.34,2.34,0,0,0-2.83,1.63C439.43,97.28,440.15,98.64,441.76,99.55Z"/><path class="cls-71" d="M435.25,91.59c.1,1.09.18,2.45,1.46,2.52,1.49.08,1.67-1.4,1.69-2.51S438.23,89,436.82,89,435.35,90.45,435.25,91.59Z"/><path class="cls-22" d="M449.53,91.41c.08,1.26.14,2.65,1.45,2.69,1.52.05,1.57-1.44,1.59-2.58S452.44,89,451.14,89C449.61,88.94,449.67,90.44,449.53,91.41Z"/><path class="cls-71" d="M456.4,86.66a6.94,6.94,0,0,0-6-3.49c-.66,0-1.32.14-1.39.9s.58,1,1.24,1C452.42,85,454.36,85.86,456.4,86.66Z"/><path class="cls-72" d="M473.88,96.09c-2.45-.74-5.58.4-6.59,2.22-.15.27-.28.52-.09.83a.5.5,0,0,0,.77.17c1-.58,2-1.18,2.91-1.8S473,97.2,473.88,96.09Z"/><path class="cls-73" d="M478.09,77.35A3.83,3.83,0,0,0,474,78.52a.8.8,0,0,0-.06,1.22c.35.34.72.17,1-.06C475.93,79,477.14,78.6,478.09,77.35Z"/><path class="cls-67" d="M474.37,72.18c-1.27.49-2.55.95-3.79,1.49-.5.22-.93.67-.5,1.28s.86.26,1.23,0c1.14-.73,2.25-1.51,3.37-2.27Z"/><path class="cls-74" d="M466.42,70.25c2.14-.33,2.47-.48,5.14-2.43C469.42,68.36,467.75,68.37,466.42,70.25Z"/><path class="cls-75" d="M466.34,64.72c-1.83-.23-2.78.1-3.49,1-.06.08.13.53.24.54C464.31,66.45,464.92,65.47,466.34,64.72Z"/><path class="cls-76" d="M460.6,63.09a1.92,1.92,0,0,0-2.55.83C459.44,64.64,459.81,63.21,460.6,63.09Z"/><path class="cls-1" d="M186.41,399.6H230c.08-1.17,1.06-1,1.76-1.12A95.13,95.13,0,0,1,243,397c1.75,0,2.52-.9,2.78-2.55.69-4.24-.87-6.86-4.94-8.16-2-.65-4.18-.84-6.26-1.3a37.12,37.12,0,0,1-13.27-5.48c-2.15-1.48-2.16-1.78-1-4a6.17,6.17,0,0,0,.53-1.06c.23-.66.61-1.41-.15-1.92a1.29,1.29,0,0,0-1.71.41c-2,2.61-4.48.84-6.73.82-.92,0-1.34-1-1.59-1.88a31,31,0,0,1-1.26-8.88c0-1.21.41-2.22,1.75-2.45,2.41-.42,2.85-2.15,2.94-4.19.33-7.32.9-14.64,1.53-21.94.88-10.15,2-20.26,3.78-30.31A225.55,225.55,0,0,1,228,269.68c.46-1.36.48-3.55,2.14-3.59s1.52,2.13,2,3.38c3,7.9,6.11,15.76,9,23.7,2.8,7.65,4.66,15.58,6.81,23.42,2.82,10.28,5.34,20.64,8.22,30.91,1.14,4.09,2.21,5,6.4,5.38a7.21,7.21,0,0,0,2.36,0c3.85-.93,5.67,1.39,7.15,4.32a17.1,17.1,0,0,1,1.37,3.78c.25,1.09.16,2.09-1,2.59-1.66.69-1.67,2-1.65,3.54.06,3.87.76,7.7.64,11.58a10.89,10.89,0,0,1-.58,3.47c-1.18,3.31-.11,4.84,3.34,4.87s6.79,0,10.18,0a8.82,8.82,0,0,0,5.22-1.2,2.76,2.76,0,0,1,2.5-.39c5.52,1.92,11.15,1.87,16.85,1.11,6.17-.83,12.4-1.31,18.51-2.6,2.6-.55,2.8-.82,2.1-3.34-1.32-4.74-3.81-8.16-9.2-8.89-4.82-.65-9.2-2.75-13.47-5-1.82-1-2.58-2.12-1.83-4.2.37-1,1.32-2.47-.17-3.14-1.23-.55-1.82.9-2.38,1.8-.93,1.48-1.91,1.28-3.39.66-6.27-2.65-7.69-8.57-9.76-14.05-.3-.79-.33-1.7-.69-2.5-6.37-14.34-9.73-29.5-12.36-44.88-2.34-13.71-3.71-27.52-4.85-41.38-.88-10.69-1.78-21.39-3.61-32a3.33,3.33,0,0,1,.15-1.21c2-2.93,4.24-5.69,4.9-9.34a31.79,31.79,0,0,0-.75-15.2,10.24,10.24,0,0,1,0-6c2-7.23,1.62-14.56.51-21.84a148.94,148.94,0,0,0-4-17.3c-2.69-9.77-4.6-19.6-4.36-29.86a66.86,66.86,0,0,0-2-19.48c-1.66-6-4.82-11-10.22-14.24a3.87,3.87,0,0,1-2-4.53A34.61,34.61,0,0,0,249.41,74a18.76,18.76,0,0,1,0-6.6,43.06,43.06,0,0,0-1.29-16.14,34.9,34.9,0,0,0-1.5-4c-.29-1.07-1.43-1.85-1.13-3.14a1.16,1.16,0,0,1,.92-.63c.58-.07,1.35.43,1.67-.38s-.33-1.44-.86-2-1.4-.89-1-1.65,1.38-.35,2.11-.11,1.34.81,1.91.07-.32-1.28-.44-1.94.79-.94,1.14-1.45c.59-1.23-.34-1.5-1.17-1.78a17.85,17.85,0,0,0-3-.57c-.53-.08-1.33-.28-1.09-.93.95-2.63-1-2.17-2.38-2.37a2.34,2.34,0,0,1-.88-.32.91.91,0,0,1-.25-.59c.41-2.23.28-2.36-1.87-1.66-1.28.41-2.53,1-2.19-1.32.12-.82-.58-1.11-1.27-.77-1,.48-1.71.54-2.29-.6-.49-1-1.35-.47-2.08-.3s-1-.44-1.39-.79a50,50,0,0,1-6.24-.1c-.3,0,.08,0-.22.06a2.32,2.32,0,0,1-1.08-.08c-.57-.16-1.15-.19-1.47.39-.78,1.34-1.47,2.48-3.15.89-.62-.59-.86.35-1.08.8-.32.68-.64,1.4-1.55.84-2-1.26-3.47.18-4.89,1.15a20.36,20.36,0,0,1-3.59,2.25c-4.27,1.76-7.16,5.09-9.84,8.62-1.32,1.74-.75,5.36.92,6.76a3,3,0,0,1,1,2.05,33.14,33.14,0,0,0,4.89,13,3.11,3.11,0,0,1,0,3.5c-2.34,4.3-.85,7.72,3.93,8.94,1.73.44,2.64,1.27,2.56,3.08a35.49,35.49,0,0,0,.68,7.77A3.8,3.8,0,0,1,210,88.06a10.92,10.92,0,0,1-6.53,1.69c-4.12-.11-8.2,0-12.15,1.41-7,2.57-11.76,7.47-15.2,13.89a62,62,0,0,0-5.77,16.25,192.21,192.21,0,0,0-4.23,29.49,182,182,0,0,0,.19,20.1c.17,3.28,1.8,6,3.95,8.41a45.49,45.49,0,0,0,9.21,7.39,5.36,5.36,0,0,1,2.62,5.53c-.29,3.92-.73,7.86-.66,11.81,0,1-.09,2.24.7,2.92,2.62,2.27,2.46,5.38,2.57,8.31.39,10.87.55,21.77,1.1,32.63s.39,21.48.29,32.2c-.09,9.8-1.47,19.51-3,29.18-2.6,16.11-.84,32,2.82,47.68a3.87,3.87,0,0,0,2.53,3.18,2,2,0,0,1,1.48,2.18c-.1,3.25.65,6.44.53,9.69a4,4,0,0,1-.58,2.49c-2.83,3.6-3.49,8-4.52,12.27a56.22,56.22,0,0,1-1.21,5.76c-1,2.74-.16,4.79,2.13,6.44A.64.64,0,0,1,186.41,399.6Z"/><path class="cls-2" d="M268.35,227.06a170.71,170.71,0,0,1,2.87,22.29c1.94,24.16,4.19,48.28,10,71.89a133.37,133.37,0,0,0,7.35,22.17c1.81,4.1,2.88,8.47,4.74,12.59,1.58,3.5,5.06,3.86,7.32,6.06.6.58.83-.28,1.06-.76a5.36,5.36,0,0,1,1.81-2.44,1.71,1.71,0,0,1,2-.18,1.77,1.77,0,0,1,.82,1.82c0,.24-.07.47-.11.7-.86,4.18-.86,4.19,3,6.08a41.9,41.9,0,0,0,12.28,4.09c5.14.73,7.27,4.32,8.55,8.61,1.22,4.07,1.05,4.19-3,4.83-8.34,1.32-16.67,2.66-25.13,2.91a26,26,0,0,1-10-1.62c-.58-.22-1.15-.65-1.71,0-1.41,1.63-3.31,1.63-5.22,1.64-3.79,0-7.58,0-11.37,0-3.41-.06-5.09-2.18-3.65-5.18s.74-6,.49-9a65.28,65.28,0,0,1-.32-8.27c.06-1.22.29-2.41,2-2.35,1.24.05,1.22-.69.9-1.56-.43-1.18-.82-2.38-1.35-3.52-1.36-2.92-3-5.47-6.92-4.39a7,7,0,0,1-1.89,0c-5-.15-6-1-7.28-5.68-4.5-16.24-8.34-32.67-13.21-48.81-2.85-9.43-6.77-18.47-10.24-27.68-.64-1.73-1.25-3.47-2-5.56a124.65,124.65,0,0,0-4.78,14.86,286.35,286.35,0,0,0-8.63,50.76c-.72,8.5-1.3,17-1.91,25.52-.17,2.36-.7,4.36-3.63,4.3-1,0-1.09.52-1.08,1.32a38.34,38.34,0,0,0,1.48,10c.22.79.52,1.23,1.47,1,1.14-.28,2.33-1,3.28.61.4.68.81-.35,1.13-.66,1.18-1.15,2.47-3,4.11-1.68s.22,3.12-.83,4.32-.71,1.72.39,2.49a39,39,0,0,0,16.17,6.27c.85.14,1.71.29,2.55.48,6.07,1.35,8.24,5.16,6.42,11.08-.37,1.21-1.29,1-2.07,1.1-4.38.57-8.77,1.08-13.15,1.62-.38,0-.8,0-1,.44H211.06c-1.46-.48-3.06-.32-4.45-1.1-1.23-.7-1.56.52-2.19,1.1h-10.9c-.3-.33-.7-.23-1.07-.25h-2.6c-.37,0-.77-.08-1.07.25h-2.37c-.62-1.15-2.57.25-2.82-1.38-.37-2.38-1.12-4.81.19-7.16.19-.33.57-.69.54-1-.46-4.68,2.14-8.65,3-13,.23-1.11.34-2.38,1.88-2.68.77-.15.43-.93.42-1.4-.1-3.63-.27-7.26-.39-10.89,0-.69-.1-1.26-1-1.31-2.11-.1-2.58-1.58-3-3.32-4.25-17.38-5.5-34.83-2.33-52.58,3-16.56,2.92-33.33,2.43-50.08-.38-12.95-.88-25.89-1.35-38.84-.07-2-.31-3.93-.45-5.9,0-.56,0-1.11-.66-1.4-2.14-1-2.47-2.94-2.33-5,.29-4.41.61-8.82,1.06-13.21a2,2,0,0,0-1.05-2.11c-2.33-1.63-4.67-3.23-6.95-4.92a19.23,19.23,0,0,1-8.31-15.59,168.18,168.18,0,0,1,5.95-52.7,49.32,49.32,0,0,1,5.31-12.33c6.12-10.11,15.21-14.47,26.85-13.83a10.31,10.31,0,0,0,4.62-.61c3-1.24,3.48-2.06,3-5.21a34.46,34.46,0,0,1-.34-7.32c.07-1.22,0-2.16-1.83-2.13a5.46,5.46,0,0,1-5.42-3.52c-1-2.43-.95-4.84,1-6.83.83-.88.46-1.32,0-2.11-2.7-4.4-4.92-9-5.21-14.28,0-.36.11-.79-.28-1.06-2.48-1.69-1.38-1.92-2.08-5.21-.59-2.77,2.52-2.94,1.77-4.92,0,0,.07-.19.12-.2,2.8-.4,3.53-3.47,6.06-4.61,2-.9,4.66-1.58,6-3.89.69-1.18,2.29-.43,3.34-1.57,1.29-1.4,1.9.83,3,1.44.09-1.23-.63-2.82,1.13-3.13,1.48-.26,1.74,1.13,2.07,2.47,1.55-4.22,1.8-4.39,3.63-2.73.29.57,0,1.13.09,1.47a2.45,2.45,0,0,1,.65-1.47c1.65-1.55,2.24-1.37,3.14,1.11,1-1.39,1.9-3.13,3.71-1,.27.28-.21,1.15.71.92.53-.77,1.19-1.3,2.16-.92s.91,1.42.8,2.46c1.16-.58,1.81-2.17,3.16-1,1,.88.61,1.79-.22,2.66,1.08.31,1.77-.53,2.61-.81s1.9-.61,2.5.4-.16,1.57-.92,2.06-1.42.88-2.1.61c.57.52,1.34-.46,2.09-.21l1.89,0c2.75,0,3.26.77,2,3.17a35,35,0,0,1,4.36.83c1.42.45,2.19,1.36.79,2.75a10.77,10.77,0,0,1-2.73.27c-.17,0,.06.5.09.18,0-.14.06-.18.13-.19.53-.1.81.24,1.08.61,1.94,1.85,1.55,3.48-.7,3-1-.22-1.7-1.12-3-.94.73.69,1.4,1.24,2,1.88s1.18,1.59.53,2.53-1.46.54-2.23,0c-.29-.19-.59,0-.83.2-.87-.72-1.63-1.61-2.85-1.78-.12-.11-.31-.23-.3-.35,0-.31-.16-.52-.14-.2a.56.56,0,0,0,.12.33c.69,1,1.16,2,0,2.93s-2.21.32-3.18-.49a6,6,0,0,0-1.09-.91c.22,1.09.18,2.14-1,2.62A2.06,2.06,0,0,1,234.48,45c-1.83-4.59-5.31-4.36-9.18-3.44a79.85,79.85,0,0,0-8,2.08,2.68,2.68,0,0,0-2,3.41,15.62,15.62,0,0,1-.95,8.82,8.73,8.73,0,0,0,.58,8.35c1.47,2.42,2.53,5.08,4.24,7.38a10.82,10.82,0,0,0,5.52,4.25c1.75.54,3.27.36,4.12-1.6a7,7,0,0,1,3.62-3.59c1.08-.49,2-.81,2.14-2.38.08-1.23,1.27-.77,2.09-.46s1.49.94,2.16.2-.13-1.3-.43-1.9-.56-1,0-1.5,1.2-.27,1.74,0A3.29,3.29,0,0,1,241.87,68c-.06.6-.52,1.39.19,1.74,2,1,2.7,3.22,4.46,4.92,1.14-2.72,1-5.4,1.37-8,.77-5.05.19-10.05-.37-15.06.14-.47.25-1,.92-.93a31,31,0,0,1,1.75,12.1c-.14,5.65-.4,11.26.75,16.86a24.13,24.13,0,0,1-.4,9.64c-.16.82-.26,1.42.68,1.94,9.91,5.55,12.61,14.93,13.39,25.33.52,7-.06,14.06.76,21,1.08,9.2,4,18,6.12,26.94s4.07,18.16,2,27.36c-1.09,4.79-.61,9.11.26,13.78,1.39,7.48.36,14.64-5.42,20.36C268.28,226.38,267.66,226.74,268.35,227.06Z"/><path class="cls-55" d="M204.42,399.6a2.61,2.61,0,0,1,.05-.69c.18-.58.4-1.15.65-1.85,1.87,1.22,4,1.69,5.94,2.54Z"/><path class="cls-77" d="M188.78,399.6c.12-.6.54-.46.94-.4.16.08.22.17.17.26s-.11.14-.16.14Z"/><path class="cls-78" d="M189.73,399.6c0-.14,0-.27,0-.4h.94c.17.08.23.17.18.26s-.11.14-.16.14Z"/><path class="cls-79" d="M190.68,399.6c0-.14,0-.27,0-.4h1c.17.08.22.16.17.26s-.1.14-.15.14Z"/><path class="cls-80" d="M191.63,399.6c0-.14,0-.27,0-.4h.95c.16.08.22.17.17.26s-.1.15-.16.15Z"/><path class="cls-81" d="M192.57,399.6c0-.14,0-.27,0-.41.4-.07.77,0,1,.41Z"/><path class="cls-82" d="M243.3,42.13c1.57-.33,2.1.62,2.35,1.91L247,46.89c-.1.36-.29.61-.7.58C244.83,46,243.53,44.34,243.3,42.13Z"/><path class="cls-83" d="M246.48,47.57l.52-.68,1.44,3.79-.47,1C246.38,50.73,246.13,49.26,246.48,47.57Z"/><path class="cls-84" d="M250,37.37l-1.57-.59.11-.28h2.89C251.18,37.25,250.2,36.71,250,37.37Z"/><path class="cls-85" d="M242.34,29.79a3.06,3.06,0,0,1-2.78.22l2.79-.62C242.35,29.52,242.35,29.65,242.34,29.79Z"/><path class="cls-86" d="M224.7,23.54l-.54,2.06a2.38,2.38,0,0,1-.2-2.06Z"/><path class="cls-87" d="M268.35,227.06c-.4-.07-.51.86-.78.42-.37-.6.12-1.14.75-1.44Z"/><path class="cls-88" d="M232.26,24.54c-.24.05-.15,1.57-.71.17a3.32,3.32,0,0,1,0-1.09Z"/><path class="cls-89" d="M222.87,214.28a21.22,21.22,0,0,1,1.9,6.8c.08.92.2,1.87,1.23,2s1.69-.81,2-1.71a22.9,22.9,0,0,0,1.21-9.41c1.22.37,2,1.61,3.31,1.2,1.45-.46,1.31-1.79,1.44-3.15a68,68,0,0,0,14.74,1.5A33.93,33.93,0,0,0,263,208.17a12.81,12.81,0,0,1-.7,7.24c-.67,1.85-1.4,3.68-2.07,5.53-.41,1.12-.92,2.38.09,3.32s2.22.19,3.28-.29a11.4,11.4,0,0,0,1.1-.62c1.08,4.08,2.49,8,2.79,12.13.61,8.51,1.46,17,2.25,25.48,1.17,12.66,3.13,25.22,5.08,37.77,2.44,15.68,5.83,31.15,11.28,46.1.4,1.09.19,1.51-.84,1.92a58.49,58.49,0,0,1-24.34,4c-1.68-.06-2.17-1.23-2.55-2.63-3.55-13.08-7.15-26.15-10.71-39.23-3.79-13.93-8.08-27.69-14.35-40.75a12.36,12.36,0,0,1-.55-10.68c1.89-4.57,3.29-9.36,4.72-14.11a7,7,0,0,1,2.71-4,21.13,21.13,0,0,0,4.92-4.42c.56-.75,1.41-1.74.48-2.48-1.1-.86-1.52.47-2.07,1.17-1.18,1.5-2.19,3.19-4.42,4.13a150.52,150.52,0,0,0,3.55-16.54c-.9-.12-.83.4-.91.72-3.79,15.58-9.5,30.54-14.73,45.65-7,20.18-10.73,41-12.69,62.21-.78,8.57-1.52,17.14-2.09,25.73-.13,1.84-.92,2.53-2.46,2.72a56.51,56.51,0,0,1-20.69-.94c-1.07-.28-1.17-1-1.38-1.91-4.1-17-5.25-34.1-2.18-51.43,2.92-16.51,2.82-33.19,2.14-49.86-.58-14.2-1.44-28.39-2.17-42.59,0-.55,0-1.11-.09-1.66-.32-3.64-.31-3.78,3.53-3.6s7.86.69,11.79,1a8.73,8.73,0,0,0,3.05.07c2.24-.65,3.21.46,4.22,2.21,1.78,3,2,6.24,1.73,9.6-.08,1-.52,2.21.8,2.69s2.19-.53,2.9-1.5c1.55-2.09,1.36-4.64,1.73-7,.1-.62.15-1.25.24-2.11,1.21,1.22,1.18,2.63,1.32,4,.23,2.12.29,4.26.66,6.36.23,1.3.79,2.78,2.54,2.58s1.36-1.65,1.5-2.8.4-2.17.6-3.25a10.31,10.31,0,0,0,.18-2.93C222.25,214.72,222.13,214.17,222.87,214.28Z"/><path class="cls-90" d="M246.48,47.57c.5,1.38,1,2.76,1.49,4.14,1.48,7.24.84,14.44-.33,21.64-.13.78.13,2-1,2.1s-1.58-.93-1.95-1.81A5.46,5.46,0,0,0,240.45,70c.84-1.29,1.33-2.59.44-3.93a2.2,2.2,0,0,0-2.63-1.18,2,2,0,0,0,.26.6c.89.88,2.17,1.79,1.1,3.15s-2.26.33-3.33-.31c-.39-.24-.78-.66-1.27-.34s-.64.69-.34,1c1.64,1.73-.23,1.44-1,1.73-1.88.72-3.51,1.64-4.35,3.69-1,2.55-2.67,3.11-5.31,2s-4.43-3.19-6.1-5.43c-2-2.63-3-5.78-4.74-8.57-.85-1.36-.77-4,.17-5.93a14.43,14.43,0,0,0,1.13-10.12A2.17,2.17,0,0,1,216,43.46a58.5,58.5,0,0,1,14.5-3.2,2.26,2.26,0,0,1,2.29,1.26c.7,1,1.38,2.12,2.1,3.15.56.78,1.24,1.7,2.3,1s.7-1.77.11-2.69a10,10,0,0,0-.74-.87c1.43.08,2,1.07,2.86,1.69s1.92,1.95,3,.62-.3-2.09-1.17-2.87l-.71-.65c1.49-.78,2,.56,2.73,1.19Z"/><path class="cls-90" d="M219.7,223c-1.46-2-1.27-4-1.43-5.86a19.32,19.32,0,0,0-1.17-6c-.41-1-.83-2.47-2-2.27-1,.16-1,1.65-1.11,2.64-.22,1.64-.27,3.3-.5,4.94a5.64,5.64,0,0,1-2.59,4.34c1.87-7.27-2.07-12.39-5-17.76-1.08-1.95-.91-3.05,1.16-4s4.19-2.18,6.24-3.34a10.63,10.63,0,0,0,4.72-5c1,.82,1.23,2,1.66,3A26.75,26.75,0,0,0,228,205c1.89,1.44,3.51,3.17,3.84,5.75-1.46-.6-1.46-.6-3.33-2.64-.69-.75-1.33-1.55-2-2.3-.56-.59-1-1.7-2.06-.95s-.17,1.53.34,2.18a12.53,12.53,0,0,1,2.39,9.37,11.59,11.59,0,0,1-.78,2.93,35.32,35.32,0,0,0-4.31-9c-.44-.59-.73-1.76-1.63-1.4s-.33,1.39-.1,2.07C221.62,214.88,220.54,218.72,219.7,223Z"/><path class="cls-90" d="M242.39,97.75c-.63,4.93-3.91,8.67-8.71,8.68-10.69,0-20.11-3.37-27.1-12-.34-.42-.56-1-.87-1.4-1.06-1.54-1.05-2.42,1.18-2.63a9.26,9.26,0,0,0,4.73-2c.6-.46,1-.7,1.7.09C221.13,97.19,231,99.74,242.39,97.75Z"/><path class="cls-90" d="M198,379.1c-5-.08-6.31-1.35-6.37-5.89a60.73,60.73,0,0,0-.91-9.89c-.27-1.57-.4-2.44,1.92-2.23a68.61,68.61,0,0,0,14.18-.24c1.46-.17,2.19-.05,1.82,1.74-.75,3.64-.13,7.22.72,10.77.14.59.6,1.21-.25,1.63C205.46,376.79,201.9,378.92,198,379.1Z"/><path class="cls-90" d="M271.44,353.11a78,78,0,0,0,15.82-3.89c.89-.3,1.29-.22,1.46.76a26.55,26.55,0,0,0,4.62,10.51c.9,1.31.64,2-.53,2.86a16.53,16.53,0,0,1-15.23,2.57,1.93,1.93,0,0,1-1.51-1.55A67.31,67.31,0,0,0,271.44,353.11Z"/><path class="cls-20" d="M219,398.62c-4.43-.11-8.88-.47-12.91-2.85-1.22-.72-2.45-.91-2.67,1.1-.12,1.07-.73,1.35-1.79,1.3q-7.56-.32-15.12-.48c-1.16,0-1.54-.51-1.52-1.56,0-.31,0-.63,0-.94-.14-4,.33-4.61,4.23-3.58,17.87,4.71,36,2.92,54.06,2.24.77,0,1.42-.22,1.49.86.05.74-.13,1.11-1,1.19C235.5,396.68,227.37,398.37,219,398.62Z"/><path class="cls-1" d="M296,381.62c9.47-.05,19,.26,28.39-.89a21.73,21.73,0,0,0,2.76-.55c1.2-.29,1.39.35,1.63,1.35.31,1.25-.42,1.3-1.22,1.43a172.34,172.34,0,0,1-27.74,2.93,16.92,16.92,0,0,1-8.62-2.11c-1.12-.64-1.8-.83-2.14.75-.24,1.09-1.27,1.33-2.26,1.33-4.66,0-9.31,0-14,0-1.2,0-1.53-.6-1.52-1.59s-.26-2.19,1.26-2.35,2.83-.31,4.25-.32C283.17,381.6,289.57,381.62,296,381.62Z"/><path class="cls-90" d="M264.5,165.92a183.53,183.53,0,0,1,4.89,32.2c.05.94-.58,2.68,1.64,2,.49-.15.56.42.61.8.6,5.17,1.42,10.34.06,15.51a15,15,0,0,1-4.79,8c-.13-2.28,0-2.74,1-4.12a12.52,12.52,0,0,0,2.54-6c.12-.94.44-2.19-.7-2.39s-1,1.2-1.11,1.94c-.62,4.19-3,6.93-6.87,8.88.16-2,1.08-3.63,1.65-5.31.95-2.8,1.71-5.58.8-8.55a1.62,1.62,0,0,1,.69-2c2.77-2,3.52-4.94,3.45-8.13-.16-7-1.48-14-2.55-20.88-.54-3.5-1.16-7-1.74-10.48C264,166.83,263.44,166.14,264.5,165.92Z"/><path class="cls-91" d="M209.63,67.27a2,2,0,0,0,.25.39c1,1,2.17,2.47,1,3.64s-3.1.76-4.54-.26a4.59,4.59,0,0,1-.66-6.68c1.84-2.23,4.1-2.45,6-.65,1.31,1.21,0,2.27-.25,3.27s-.89-.44-1.44-.17c-.16-.15-.37-.24-.54-.07S209.55,67.1,209.63,67.27Z"/><path class="cls-92" d="M194,151.93a60,60,0,0,1-1,11.49C189.81,162.05,190.84,159.28,194,151.93Z"/><path class="cls-93" d="M256.47,123.24c1.25,6,2.7,12,2.88,18.15A113.3,113.3,0,0,1,256,124.77C256,124.21,255.38,123.45,256.47,123.24Z"/><path class="cls-94" d="M239,77.32a2,2,0,0,0,1.41-2.64c.51.48.85.68,1,1,.74,1.3,1.9,2.92.47,4S240.07,78.5,239,78C238.77,77.78,238.74,77.55,239,77.32Z"/><path class="cls-95" d="M239,77.32V78c-1.46-1-2.13.07-2.75,1.1-.39.67-.79,1.24-1.65.91-.53-.2-.39-.7-.09-.93.67-.53-.05-2.17,1.44-1.92A12,12,0,0,0,239,77.32Z"/><path class="cls-96" d="M304.76,359.82c.22,1.34-.46,2.28-.81,3.29-.15.43-.33.92-1,.6a.8.8,0,0,1-.38-1.19A5,5,0,0,1,304.76,359.82Z"/><path class="cls-97" d="M238.9,74.39a3.09,3.09,0,0,1-3.34,1.33c-.29,0-.54-.46-.23-.71A4.25,4.25,0,0,1,238.9,74.39Z"/><path class="cls-98" d="M220,373.31a2.92,2.92,0,0,1-1.54,2.8c-.08.06-.68-.31-.67-.43C217.89,374.53,218.84,374.11,220,373.31Z"/><path class="cls-99" d="M256.47,123.24c-.56.38-.28,1-.49,1.53a10.24,10.24,0,0,1-.65-4.43l.6-.1Z"/><path class="cls-100" d="M222.87,214.28c-.94,1.11.12,2.68-.85,3.79a18.77,18.77,0,0,1,0-4C222.31,212.93,222.66,213.86,222.87,214.28Z"/><path class="cls-101" d="M264.5,165.92c-.48.39-.23,1-.42,1.46a4.54,4.54,0,0,1-.52-2.36c-.08-.49-.38-1.09.55-1Z"/><path class="cls-102" d="M205.6,41.57a2.18,2.18,0,0,1-2.46.33A2.28,2.28,0,0,1,205.6,41.57Z"/><path class="cls-103" d="M206.78,36.92a1.77,1.77,0,0,1-2.05-.77C205.75,35.79,206.27,36.33,206.78,36.92Z"/><path class="cls-104" d="M264.11,164c-.51.16-.42.66-.55,1a3.06,3.06,0,0,1-.32-2.26C264,162.92,264.09,163.43,264.11,164Z"/><path class="cls-105" d="M255.09,116.59l.4,2.52c-1-.9-.8-1.76-.83-2.54C254.81,116.34,255,116.35,255.09,116.59Z"/><path class="cls-106" d="M255.09,116.59l-.21,0h-.22a2.75,2.75,0,0,1-.23-2.68Z"/><path class="cls-107" d="M190.59,360a2.17,2.17,0,0,1,2.07,0A2.17,2.17,0,0,1,190.59,360Z"/><path class="cls-108" d="M208.83,43.91a1.14,1.14,0,0,1,.69-1.48c.07,0,.34.13.36.23C210,43.43,209.37,43.6,208.83,43.91Z"/><path class="cls-2" d="M209.63,67.27l-1.27-.69a1.2,1.2,0,0,1,1.71.23Z"/><path class="cls-22" d="M230,55.81c0,1.07-.61,1.36-1.33,1.48-1.78.3-3.55.55-4.78,2.13-.31.41-.92.51-1-.21-.14-1.72,1-2.72,2.31-3.5s2.77-1.54,4.36-.55C229.81,55.3,229.91,55.66,230,55.81Z"/><path class="cls-109" d="M239.07,56.33c2.55-2.31,6.24-1.89,7.53.36.33.57.56,1.16,0,1.71s-1.22.26-1.6-.26C243.63,56.27,241.72,56,239.07,56.33Z"/><path class="cls-22" d="M240.47,63.19c0-2.81,1-4,2.95-3.95a3.09,3.09,0,0,1,3.2,2.84c.09.54,0,1.13-.62,1.35-.41.14-.9,0-1-.33C244,60,242.43,60.81,240.47,63.19Z"/><path class="cls-110" d="M225.32,63.82c-.46-2.33.57-3.52,2.35-4s3.05.41,4,1.88a1,1,0,0,1-.21,1.46c-.41.3-.71,0-1-.21C227.6,61,227.6,61,225.32,63.82Z"/><path class="cls-2" d="M353.81,422.24c-.66.82-1.31,1.24-2.25.72a1.38,1.38,0,0,0-.52-.17c-.68-.09-1.41-.23-1.86.47s.09,1.25.71,1.8c-2.28,1.35-4.5,2.63-6.7,4a32,32,0,0,0-6.76,5,6.05,6.05,0,0,0-2,4.86c.09,1.18-.47,2.39.45,3.48a8.91,8.91,0,0,0,4.17,2.45c8.23,2.82,16.11,1.62,23.79-2,3.58-1.68,7-3.65,10.39-5.67a12,12,0,0,0,3.44-2.87,4.5,4.5,0,0,0,.86-4.71,1.72,1.72,0,0,1-.06-1.3c.76-2.3.7-3.2-.31-5.64,3,.39,6.27.18,8.89,1.34,2.3,1,4.1-.1,6.08.15a65.68,65.68,0,0,1,9.75,1.43,54.43,54.43,0,0,1,6.07,2c1.9.78,3.83,1.24,5.66-.27.29-.23.78-.18,1.16-.31,2.25-.79,3.11-2.65,3.56-4.78a2.55,2.55,0,0,1,.78-1.51c5.17-4.67,7.47-10.71,8.25-17.45s0-13.36-.85-20c-1.09-8.42-2.2-16.85-4-25.16a110.29,110.29,0,0,0-4.2-14.5c-.37-1-.48-1.55.76-1.94a12.41,12.41,0,0,0,5-3.16,8.65,8.65,0,0,0,2.12-9.32c-1.65-5-3.47-9.93-5.23-14.89a1.57,1.57,0,0,1,.05-1.62,1.46,1.46,0,0,0-.12-1.56c-3.58-5.84-6.65-12-11.71-16.83-6.59-6.24-14.59-9-23.52-9.33a4.76,4.76,0,0,1-3.76-1.78c-1.42-1.66-2.85-3.34-2.7-5.75,0-.38-.09-.79.56-.88,6-.79,9-4.86,10.21-10.26,1.82-7.88.09-15.33-3.7-22.34A30.62,30.62,0,0,0,377,233.48c-6.79-4.87-13.85-4.9-20.64.28a40.19,40.19,0,0,0-15.13,23.46,21.14,21.14,0,0,0,1.27,12.71,7.31,7.31,0,0,0,2.69,3.53,1.14,1.14,0,0,1,.5,1.37,32.27,32.27,0,0,0-.46,8.15c0,.5-.09.76-.55.91-3.26,1.08-4.85,3.62-5.89,6.67a163.71,163.71,0,0,0-6.48,28.24c-1.12,7.37-2.3,14.74-2.83,22.19-.42,5.94-.69,11.9-1,17.85-.27,5.59-.64,11.17-1.37,16.72-.12.89-.43,1-1.22.92-4.83-.59-9.66-1.18-14.5-1.68a47,47,0,0,0-15.6.56c-10.36,2.4-12.1,10.71-9.82,18,2.05,6.55,6.56,11,12.33,14.31,6.62,3.82,13.81,6.2,21.13,8.19a238.5,238.5,0,0,0,33.73,6.29Z"/><path class="cls-111" d="M346.71,316.18a58.69,58.69,0,0,1,.5-9.22,28.9,28.9,0,0,1,1.22,6c.89,7.87,1.15,15.79,1.63,23.69.46,7.67.81,15.35,1.23,23a47.58,47.58,0,0,1-.77,10.59,11.92,11.92,0,0,0,.18,4.61c.68,3,3,4.9,6.37,5.27a31.43,31.43,0,0,0,4.23,0c1,0,1.19-.44,1.1-1.36a58.57,58.57,0,0,1,.25-14.43c1.07-6.88,3.32-13.41,9-17.63,8.3-6.13,16.12-12.94,25.08-18.14,1.9-1.1,3.08-3.05,5.15-3.9.86-.36.12-.8-.16-1.11A54.38,54.38,0,0,1,393.89,311a1,1,0,0,1,0-.71c2.16,2.69,4,5.61,6.16,8,5.49-3.3,11.46-5.09,17.77-6.35-1.93-4.83-4.18-9.46-7.64-13.39a36.65,36.65,0,0,0-21.9-12.27,1.22,1.22,0,0,0-1.57.77c-1,1.79-1.43,3.83-2.52,5.56-2.7,4.26-6.74,6.49-11.58,7.43a18.36,18.36,0,0,1-8.11-.24,8.92,8.92,0,0,1-6.17-4.94,2,2,0,0,0-2.07-1.32,18,18,0,0,1-5.05-1.05c-3.1-1-5.07-2.95-5.41-6.25-.15-1.36-.66-1.31-1.64-.78a7.26,7.26,0,0,0-2.81,3.25c-1.91,3.58-2.69,7.51-3.44,11.43-.65,3.35-1.18,6.71-1.81,10.06-.11.58-.06.81.55.91A20.52,20.52,0,0,1,346.71,316.18Z"/><path class="cls-19" d="M365.08,380.62a53.61,53.61,0,0,0,.48-8.3c0-.47-.14-1.13.59-1.16s.8.6.85,1.16c.25,3,.5,6,.77,9,.07.79.07,2.06.89,2s.86-1.34.84-2.18c-.07-2.95-.21-5.91-.31-8.87a5.55,5.55,0,0,1,.05-1.08c.06-.31.35-.41.64-.4.52,0,.63.38.72.82q.78,3.94,1.6,7.88a14.71,14.71,0,0,0,.58,2,.72.72,0,0,0,.83.55c.36-.07.49-.38.53-.71a12.9,12.9,0,0,0,.12-1.76c-.1-3-.23-6-.35-9,0-.59,0-1.15.72-1.26s.89.49,1,1c.51,2.5,1,5,1.5,7.49a5,5,0,0,0,2,3.58,34.16,34.16,0,0,0,.27-5.16c0-3.56-.38-7.09-.69-10.62a33.91,33.91,0,0,1,.52-8.42,16,16,0,0,0-.15-7.65c.8.41.71,1.18,1.1,1.65,2.68-1.66,5.78-2.12,8.74-3,9.22-2.61,18.48-5.09,27.71-7.67a12.56,12.56,0,0,0,6.89-4.16,5.49,5.49,0,0,0,.94-6c-2.2-5.38-4-10.93-5.85-16.43-.42-1.26-.95-1.41-2.14-1a71.88,71.88,0,0,0-13.81,6.12,4.11,4.11,0,0,1-1.45.53c.58,1.16,1.65,1.84,2.36,2.83,1,1.42.88,1.71-.48,2.68-4.77,3.41-9.65,6.64-14.31,10.21-1.22.94-2.54,1.77-3.73,2.76a4.17,4.17,0,0,1-1.19,1.14c-.33.18-.52.52-.86.69a38.28,38.28,0,0,0-3.24,2.59c-.49.38-.95.79-1.45,1.16-1.93,1.43-3.64,3.12-5.6,4.5a24,24,0,0,0-8.39,15c-1,5.5-.58,11-.45,16.57a1.83,1.83,0,0,0,.68,1.57C365.09,381.35,364.89,380.82,365.08,380.62Z"/><path class="cls-18" d="M361.1,244.94l-3.24-3.47a14,14,0,0,1-1.08-1.23c-.25-.34-.66-.76-.16-1.18s.79.06,1,.33c6.54,7.2,13.93,13.63,19.28,21.87a35.82,35.82,0,0,1,4.16,8.69,4.72,4.72,0,0,1-.47,4.54,1.39,1.39,0,0,0-.41,1.31,10.37,10.37,0,0,0,5.63-3.78,15.52,15.52,0,0,0,3.48-9.71c.35-9.86-2.79-18.47-10-25.27-8.12-7.62-16.31-7.59-24.56-.06a39,39,0,0,0-12,20.34,18,18,0,0,0,1.88,12.55,4.64,4.64,0,0,0,1.37,1.6c0-1.08,0-2,0-3a29.11,29.11,0,0,1,1.3-9.13,14.77,14.77,0,0,1,4.69-7.05,86.06,86.06,0,0,1,8.67-6.55,15.14,15.14,0,0,1-5.66-.68,7.47,7.47,0,0,1-1.14-.44c-.45-.24-.94-.56-.69-1.16s.86-.38,1.28-.18a18.92,18.92,0,0,0,5.59,1.64A9.84,9.84,0,0,0,361.1,244.94Z"/><path class="cls-19" d="M345.72,317.08a31.09,31.09,0,0,0-9.52-3.55c-.61-.13-.77.13-.87.69-1.88,10.75-3.69,21.5-4.12,32.44-.31,7.77-.41,15.55-1.09,23.31-.17,1.94-.41,3.89-.69,5.82-.11.72,0,1,.79,1.13,2.53.33,5,.78,7.54,1.19.48.08.82.19.87-.56.41-6.18,1.42-12.28,2.26-18.4,1.41-10.31,3-20.6,5.12-30.79a29.2,29.2,0,0,0,.76-10C346.59,317.81,346.06,317.53,345.72,317.08Z"/><path class="cls-19" d="M347.62,265.72a14.53,14.53,0,0,0,.92,7.06c0,.08.1.15.13.24.15.47-.09,1.28.63,1.29s.95-.65,1.19-1.2c.7-1.6,1.57-3,3.63-3.22-.21-.56-.45-1-.58-1.52a2.44,2.44,0,0,1,1.85-3c.24,0,.5-.07.62.14s0,.4-.23.56c-.82.7-1.75,1.53-.89,2.62s2,.23,2.87-.34c.45-.29.92-.61,1.27,0,.47.82-.4,1-.85,1.54.89.31,1.78.55,2.61.9a4.63,4.63,0,0,1,2.73,2.7c.75,2,2,2.6,4.08,1.87a9.78,9.78,0,0,0,4.18-3c1.88-2.21,3-4.88,4.39-7.35.85-1.5.47-2.36-.35-3.55C371.89,255.8,367,251,362.23,246c-.32-.33-.55-.53-1-.08-2.36,2.48-5.21,4.39-7.76,6.66a15.85,15.85,0,0,0-3.91,4.75,14.22,14.22,0,0,1,3.63-1.44c.58-.12,1.28-.32,1.47.48s-.51,1-1.17,1.11a22.28,22.28,0,0,0-4.39,1.42c-.41.13-.44.44-.53.72a10.77,10.77,0,0,0-.7,3.46C347.56,264,348,264.88,347.62,265.72Z"/><path class="cls-1" d="M375.66,422.58c-.49.4-1,.84-1.46,1.2a4.5,4.5,0,0,1-6.92-1.33,25.51,25.51,0,0,1-1.39-2.64,4.62,4.62,0,0,0-2.67-2.39,2.26,2.26,0,0,0-2.94.9c-.52.79-1.09,1.56-1.65,2.36a14.74,14.74,0,0,1,2.66,2.21c-.43.35-.71-.06-.89-.17-2.17-1.41-3.75-.47-5.27,1.13-.43.46-.46.64.05,1s1.15,1,1.87,1.62c-1.25.15-2.08-.48-3-.73a2.12,2.12,0,0,0-1.88.29c-3.22,2-6.49,4-9.73,6a24.65,24.65,0,0,0-3.79,2.89,7.26,7.26,0,0,0-1.69,2.12c-.46,1-.32,1.65.83,1.95,4.61,1.23,9.25,1.94,14,.92a10.77,10.77,0,0,0,2-.57q8.12-3.53,16.19-7.11a15,15,0,0,0,4.71-3.19C376.62,427.05,376.94,424.94,375.66,422.58Z"/><path class="cls-1" d="M394.83,417.29c0,1.63.11,3.27.12,4.9,0,.51,0,.87.66.93s.57-.41.66-.79a24.5,24.5,0,0,1,1.38-4.41c.19-.42.36-1.14.92-1s.16.81.1,1.2c-.23,1.31-.15,2.64-.36,3.94s.35,1.53,1.4,1.71a39.78,39.78,0,0,1,8.61,2.47c1.44.58,2.95,1.24,4.35,0a5.33,5.33,0,0,0,1.7-5.08,10.22,10.22,0,0,0-4.47-6.89c-3.52-2.5-7.6-3.37-11.78-3.83a38.46,38.46,0,0,0-8.17-.1,1.2,1.2,0,0,0-1.21.83c-.45,1.17-1,2.31-1.44,3.54,1.66-1.29,3.32-2.52,5.67-2.09-.34.44-.82.4-1.21.53a6.07,6.07,0,0,0-4.18,7.29,6.65,6.65,0,0,1,.31,2.27c-.13.94.41.88.92.8,1.07-.19,2.12-.47,3.18-.74a1.7,1.7,0,0,0,1.25-1.6,23.06,23.06,0,0,1,1.11-3.92C394.51,417.06,394.67,417,394.83,417.29Z"/><path class="cls-1" d="M347.13,328.74c-1.11,8-2.26,15.91-3.3,23.88s-1.92,16.25-3.11,24.34c-.25,1.7.4,1.7,1.52,1.79a19.19,19.19,0,0,0,6.63-.23c.56-.15.8-.25.49-.89a13.38,13.38,0,0,1-.95-8.37,69.39,69.39,0,0,0,.33-15.38c-.53-8.4-.95-16.8-1.42-25.2Z"/><path class="cls-19" d="M378.81,282.09c-2.43,5.23-6.62,8.18-11.71,10.07a21.59,21.59,0,0,1-6.36,1.37c-.86.05-.9.34-.5,1a7.31,7.31,0,0,0,3.61,3.17,16.73,16.73,0,0,0,19.8-7c.52-.91,1.5-1.83,1.46-2.7s-1.62-.95-2.43-1.55A14.37,14.37,0,0,1,378.81,282.09Z"/><path class="cls-111" d="M423.59,375.46c-1-8.13-2.76-16.12-4.51-24.11-.57-2.62-1.07-5.26-1.57-7.89-.15-.79-.31-1.14-1.29-.81-2.1.72-4.25,1.32-6.41,1.83-1,.24-1,.53-.51,1.32A168.86,168.86,0,0,1,421,369.48c.82,2.06,1.56,4.16,2.35,6.24C423.56,375.8,423.67,375.73,423.59,375.46Z"/><path class="cls-20" d="M376.8,429.7c-2.51,3.17-5.87,4.49-9.14,5.94s-6.55,2.9-9.82,4.37a4.11,4.11,0,0,0-2.1,1.4,2.38,2.38,0,0,1-1.57.74,29.35,29.35,0,0,1-16.78-.78c-.33-.12-.67-.21-1.14-.35a2.68,2.68,0,0,0,1.66,1.38,24.76,24.76,0,0,0,16.91,1.25,56.89,56.89,0,0,0,15.37-6.81c1.45-.87,2.9-1.72,4.27-2.69A5,5,0,0,0,376.8,429.7Z"/><path class="cls-19" d="M377.92,418.17c-2.13-.76-4.1-1.44-6.05-2.16a12.71,12.71,0,0,1-3.92-2.15c-.62-.53-.9-.38-1.12.31a.43.43,0,0,1-.05.12c-1,1.35-1.26,2.5.23,3.84.81.74,1.06,2.07,1.67,3.08,1.43,2.38,2.95,2.67,5.15,1A35.31,35.31,0,0,0,377.92,418.17Z"/><path class="cls-20" d="M390.22,407.38c.16.57-.43,1-.34,1.58A37.92,37.92,0,0,1,406,411a19.79,19.79,0,0,1,6.07,3.29,9.05,9.05,0,0,1,3.26,10.1c-.06.25-.28.48-.12.77.33,0,.42-.31.56-.53a8.9,8.9,0,0,0-2.6-11.87c-3.28-2.07-7-3-10.7-3.89a43,43,0,0,0-10.09-1.42c-.72,0-1.44-.77-2.15,0Z"/><path class="cls-112" d="M390.19,406.9c.33-1.36.7-2.72,1-4.1,1.55-7.76,4.83-15,6.56-22.72.59-2.61,1.34-5.19,1.93-7.8a1.74,1.74,0,0,1,1.47-1.61c1.12-.27,2.17-.87,3.36-1a4.38,4.38,0,0,0-2.77,0c-1.52.44-1.49.43-1.2-1.08a61,61,0,0,0,1.22-6.42c.06-.26.26-.57-.25-.59-.65,2.54-1.32,5.09-1.95,7.64-2.37,9.66-5.34,19.15-8.05,28.71-.83,2.91-1.51,5.87-2.24,8.81-.08.33-.31.71.18.94C389.79,407.52,389.94,407.16,390.19,406.9Z"/><path class="cls-113" d="M332.48,389.69c10.47,3.11,21.27,4.91,31.89,8.3a5.55,5.55,0,0,0-2.61-1.53,81.2,81.2,0,0,0-9.29-2.64c-6.07-1.54-12.15-3.09-18.3-4.27C333.62,389.44,333.06,389.2,332.48,389.69Z"/><path class="cls-112" d="M376.81,421.25c2.5.33,4.84.66,7.18.95,1.51.19,1.88-.21,1.69-1.76,0-.27-.05-.54-.09-.92-1.62.89-3,0-4.46-.41-2.58-.66-2.57-.71-4,1.54C377.05,420.8,377,421,376.81,421.25Z"/><path class="cls-114" d="M378.45,267.12l.63,6.77a2.67,2.67,0,0,0,1.41-3.56,25.91,25.91,0,0,0-1.77-3.82C378.2,266.52,378.39,266.85,378.45,267.12Z"/><path class="cls-115" d="M366.78,393.24l-2.7,11.53.42.1a50.2,50.2,0,0,0,2.55-11C367.13,393.56,367.3,393.25,366.78,393.24Z"/><path class="cls-114" d="M355.5,276.42a5,5,0,0,1-2-2,4.05,4.05,0,0,0-1,2.79,1.07,1.07,0,0,0,.6,1c.41.19.68-.09.94-.34Z"/><path class="cls-116" d="M354.46,273.65c1.3,1.46,2.7,1.81,3.84,1,.22-.14.54-.27.44-.59-.05-.16-.32-.27-.51-.36A5.45,5.45,0,0,0,354.46,273.65Z"/><path class="cls-117" d="M360.16,275.63l-1.76.9c-.3.16-.9-.07-.85.43a2.2,2.2,0,0,0,.65,1.15.84.84,0,0,0,1.13,0A2.17,2.17,0,0,0,360.16,275.63Z"/><path class="cls-118" d="M372.71,348.15c1.43-.27,2.16-1.56,3.27-2.3a27.29,27.29,0,0,0,2.51-2.07c0-.24,0-.38-.3-.27A37.9,37.9,0,0,0,372.71,348.15Z"/><path class="cls-119" d="M379.85,342.69l3.3-2.69a.3.3,0,0,0-.06-.43,27,27,0,0,0-3.56,2.84C379.57,342.58,379.74,342.6,379.85,342.69Z"/><path class="cls-120" d="M366.78,393.24l.27.6a11.74,11.74,0,0,0,.48-2.8l-.41-.06Z"/><path class="cls-121" d="M379.85,342.69l-.32-.28-1.34,1.1.3.27Z"/><path class="cls-122" d="M345.72,317.08c.07.66.58,1,1,1.3C347,317.48,346.28,317.35,345.72,317.08Z"/><path class="cls-123" d="M384,339.42c.51-.34,1-.66,1.1-1.35a4.55,4.55,0,0,0-1.4,1.06C383.68,339.3,383.84,339.33,384,339.42Z"/><path class="cls-124" d="M367.86,388.88c-.58.61-.69,1-.31,1.62C367.94,390,367.79,389.56,367.86,388.88Z"/><path class="cls-125" d="M347.62,265.72c.55-.82.18-1.74.27-2.61A6.08,6.08,0,0,0,347.62,265.72Z"/><path class="cls-126" d="M401.49,361.57l.25.59a2.87,2.87,0,0,0,.2-1.87A2.15,2.15,0,0,0,401.49,361.57Z"/><path class="cls-127" d="M423.59,375.46l-.28.26.34,1.09A1.13,1.13,0,0,0,423.59,375.46Z"/><path class="cls-128" d="M378.45,267.12l.27-.61-.51-1.13A2.49,2.49,0,0,0,378.45,267.12Z"/><path class="cls-129" d="M390.19,406.9c-.55,0-.57.45-.76.77.39.24.54-.16.79-.29l0,0Z"/><path class="cls-130" d="M365.08,380.62c-.23.17-.19.56-.53.63,0,.17,0,.42.1.48.25.18.22-.14.3-.25A1,1,0,0,0,365.08,380.62Z"/><path class="cls-131" d="M394.83,417.29c0-.23.19-.58-.15-.61s-.38.3-.33.6Z"/><path class="cls-119" d="M384,339.42l-.3-.29-.56.44.06.43Z"/><path class="cls-22" d="M386.15,255.27c-2.24-5.49-5.95-9.86-10.58-13.87-.08,1.17.62,1.57,1.06,2a57.05,57.05,0,0,1,7.54,9.29c.61,1,1.17,2,1.75,3.07C386.42,255.82,386.26,255.53,386.15,255.27Z"/><path class="cls-22" d="M384.23,259.37a12.45,12.45,0,0,0-2.07-4.25,75.34,75.34,0,0,0-7.79-10,2.7,2.7,0,0,0-1.74-1.11c4.07,5.34,8.72,9.94,11.37,15.92C384.48,259.92,384.37,259.65,384.23,259.37Z"/><path class="cls-73" d="M384.23,259.37l-.23.56a1.64,1.64,0,0,0,.63,1.23A2.94,2.94,0,0,0,384.23,259.37Z"/><path class="cls-132" d="M386.15,255.27l-.23.54c.14.41.2.87.74,1.1A2.53,2.53,0,0,0,386.15,255.27Z"/><path class="cls-133" d="M368.74,259.74a6.59,6.59,0,0,0-5.65-3.57c-.57.05-1.15.24-1.18.91s.58.82,1.06.81A9.84,9.84,0,0,1,368.74,259.74Z"/><path class="cls-22" d="M350.64,262c.23.7.08,1.86,1.23,1.87s1.16-1,1.18-1.82a1.45,1.45,0,0,0-1.27-1.65C350.88,260.33,350.66,261.11,350.64,262Z"/><path class="cls-2" d="M365.75,262.46c0-.41-.05-.78-.1-1.14a1.06,1.06,0,0,0-1.21-1c-.61.05-.76.55-.77,1.1a4.4,4.4,0,0,0,.26,1.87c.22.51.4,1.11,1.1,1s.7-.74.72-1.3C365.76,262.77,365.75,262.59,365.75,262.46Z"/><path class="cls-2" d="M559.37,349.27c.33-3.14,1.11-6.21.81-9.43-.27-2.9-.35-5.79-2.9-7.83a2.37,2.37,0,0,1-.77-2.05c0-1.29,0-2.59,0-3.88-.14-3.17,0-6,4.27-6.36,1.64-.14,2.2-1.36,2.09-3.09-.75-12,.28-24-.45-36-.49-8-1.69-16-2.8-24-1.47-10.55-.47-20.9,1.68-31.23.43-2.07.74-4.17,1.19-6.75,4.33,9.1,8.46,17.79,10.34,27.26a48.75,48.75,0,0,0,12.94,24.56c7.78,8.23,13.89,17.62,16.51,28.9,1.09,4.7,2.12,5.46,6.9,4.42,1.93-.42,2.88-.1,3.27,1.86a30.38,30.38,0,0,0,1,3c.31,1,.32,1.81-1.07,1.87-.53,0-1.17.2-1.05.9s.82.44,1.31.49,1.24-.66,1.51.32c.33,1.18-.69.88-1.26,1.05s-1.32.58-1.09,1.43a1.12,1.12,0,0,0,1.44.79c.65-.11,1.37-.44,1.43.71s-.8.83-1.4.92l-1.13.16c-.63.09-1.27.3-1.24,1.06a1,1,0,0,0,1.32.85c2.93-.82,2.71,1,2.69,2.94,0,4.41,0,8.81,1.31,13.09.64,2.07,1.86,3.89,2.25,6.11.34,2,2.1,2.87,4.1,3,3.14.18,5.76-1.13,8.15-3,5.24-4.07,7.37-9.79,7.79-16.1a114,114,0,0,0-1.76-27.9,15.91,15.91,0,0,0-2.38-6.1,5.37,5.37,0,0,0-5-2.67c-1.93.11-3.66-.9-5.56-1.05-.86-.07-.65-.77-.66-1.39-.23-9.28-2.74-17.77-8.62-25.12a37.88,37.88,0,0,0-4.94-4.7,15.27,15.27,0,0,1-5.2-15.77c3.53-15.49,6.4-31.07,6.79-47,0-1.67,0-3.35,0-5,0-1.24-.46-2.59,1.17-3.3.5-.21.31-.92.36-1.45.4-4.58-.24-9.09-.84-13.61-.05-.37-.08-.75-.13-1.13-.43-3.87.17-7,3.25-10.17,7.51-7.67,10.3-17.49,10.76-28,.35-7.88-.82-15.61-2.36-23.29a3,3,0,0,1,.16-2.59,2,2,0,0,0-.06-2c-2.79-6-4.18-12.5-7.79-18.11A44.89,44.89,0,0,0,591.87,66.1c-.21-.07-.41-.19-.63-.25-3-.93-5.64-2.9-9-2.43-1.43.19-1.87-1-2.22-2.13s-.44-2.09.68-3a10.38,10.38,0,0,0,2.25-2.83,13.61,13.61,0,0,1,6.3-5.94c3.7-1.66,3.94-7.36.59-9.71-.87-.62-.83-1-.65-1.94,1.4-7.44,1.48-14.69-3.93-20.85a2.07,2.07,0,0,1-.51-1.62,12.31,12.31,0,0,0-5.59-11.1C573.38.48,567-1.18,560.11.91A16.13,16.13,0,0,0,555.84,3a2.21,2.21,0,0,0-1.08,2.53c.59,2.43,1.2,4.85,1.8,7.28a3.86,3.86,0,0,1,0,2.49c.47,1.71-.19,4.15,2.74,4.28,1.33-.64,3.15.48,4.19-1.17a.87.87,0,0,0-.67-.54c-2.79-.1-3.62-1.92-4-4.3-.24-1.64-.74-3.24-1-4.87-.19-1.06-1-2.45.88-2.94,2.12-.54,3.71.13,4.19,1.91a40.06,40.06,0,0,1,.85,5.13c.17,1.3,0,2.75,1.19,3.75,1.58-1.14.65-2.81.92-4.23a21.23,21.23,0,0,0-.9-7.17c-.31-.92,0-1.39.92-1.66,6.46-1.88,14.49,2.66,16.16,9.17a.65.65,0,0,1-.23.73c-2.39-.66-4.73-2.3-7.49-1.27a1,1,0,0,0-.47,1.21c2.44,1.18,5.09,1.86,7.26,3.66,5.2,4.31,6.08,10.09,5.66,16.27-.15,2.25-.5,4.55-2,6.42-.05.61.39.79.85,1,1.79.19,3.53.45,4,2.65.39,1.84-.42,3.41-2.68,4.49a12.23,12.23,0,0,0-5.42,5,27.91,27.91,0,0,1-2.14,2.94c-.82,1-2.51,1.66-2.07,3.29.71,2.62,1.11,5.41,3.08,7.49a1.54,1.54,0,0,0,2.26.1c.36-.31.49-1.11,1.19-.63a1.64,1.64,0,0,1,.68,1.81,6.39,6.39,0,0,1-2.13,3.67A8.7,8.7,0,0,1,580,72.88,30.17,30.17,0,0,1,560.14,74a10.18,10.18,0,0,1-2.68-1.23c-3-1.94-3.31-4.32-.89-6.91a.62.62,0,0,0-.08-.65c-6.56-.58-11.14,3.29-15.33,7.35-6.55,6.32-9.31,14.58-10.61,23.39-.29,1.95-.49,3.92-.71,5.88-.19,1.75-.28,3.45.79,5A4.71,4.71,0,0,1,531,109c.81,12.53-.11,25.07-.07,37.6,0,5.62-.22,11.27.54,16.85.38,2.82-.74,5-2.06,7.23-1.12,1.89-2.18,3.78-2.15,6.12,0,2.14.55,4,2.49,5,2.87,1.55,3.12,4,2.53,6.76-5.24,24.4-5.85,49.1-4.62,73.91.89,17.76,3.19,35.39,5.15,53.05a2.23,2.23,0,0,0,1.94,2.3c1.58.42,2.95,1.51,4.59,1.9a1,1,0,0,1,.42.19c.86.75.52,7-.55,7.47-2.27,1-3.31,3-4.36,5-.47.93-.93,1.68-2.22,1.38-1-.22-2.56-.61-2.76.64-.23,1.41,1.53.95,2.43,1.34-.64,1.1-1.21,2.18-2.81,1.55-1-.39-2.43-.86-2.73.44s1.44,1.14,2.31,1.66c-1,1.47-2.08,2.42-4.07,1.31-.9-.51-2.64-1.63-3.14-.18s1.62,1.21,2.53,1.77a5.6,5.6,0,0,0,1,.34,54.16,54.16,0,0,1-9.23,5.2c-2.91,1.33-5.15,2.84-5.66,6.43-.21,1.45-1,2.92-1,4.51a2.09,2.09,0,0,0,1.79,2.22,41.34,41.34,0,0,0,17.14,1A130.33,130.33,0,0,0,557,354.68c3.19-1.19,3.83-2.83,2.38-5.43-.83.68-.53,1.84-1.12,2.62a3.86,3.86,0,0,1-2.28,1.41c-9.48,3.33-19.13,6.08-29.15,7.16a36.54,36.54,0,0,1-12-.47c-1.28-.29-2.65-.5-3.43-2.07,4.91,2.68,10,2.32,15,1.89,8-.68,15.55-3.44,23.32-5.22a22.35,22.35,0,0,0,6.27-2,7.16,7.16,0,0,0,2.61-2.14A2.8,2.8,0,0,1,559.37,349.27Z"/><path class="cls-2" d="M556.49,65.16c0,.15,0,.29,0,.43a2.07,2.07,0,0,1-.34,1.93c-.24.48-.53,1,0,1.44a1.47,1.47,0,0,0,1.89,0,4.51,4.51,0,0,0,1.57-2.45,1.78,1.78,0,0,1,2.09-1.28,17.16,17.16,0,0,0,6.28-.84,4.55,4.55,0,0,0,2.25-1.48,1.55,1.55,0,0,0,.37-1.68,1.57,1.57,0,0,0-1.66-.94,7.13,7.13,0,0,0-2,.47A13,13,0,0,1,555.06,59a25.48,25.48,0,0,1-6.15-6,6.42,6.42,0,0,1-1-6.05,33.48,33.48,0,0,0,1.41-8.28c.15-2.07,1.14-2.82,3-2.86a7.72,7.72,0,0,0,1.59-.15c.89-.21,1.58-.65,1.54-1.67s-.77-1.42-1.66-1.57a4.89,4.89,0,0,0-2.91.25c-1.35.61-1.57,0-1.49-1.17A20.81,20.81,0,0,1,553.44,20c1.21-1.64,2.7-3.08,3.54-5-.11-.75.27-1.6-.42-2.24a2.39,2.39,0,0,1-1.07,2.48A21.74,21.74,0,0,0,546.76,33c0,4.91-.15,9.82-2,14.55-.78,2-.14,4.19,1,6.12A21.85,21.85,0,0,0,558.17,64C558,65,556.89,64.56,556.49,65.16Z"/><path class="cls-90" d="M557,15.05c-5.38,5.12-8.77,11.11-8.15,19,1.53-.45,2.91-1.47,4.6-1.22.78.12,1.67.23,1.69,1.17s-.88,1.06-1.67,1.07c-.53,0-1.06,0-1.59,0-2.88.29-3.09.57-3.2,3.44a27.23,27.23,0,0,1-1.42,8.25,6,6,0,0,0-.09,4.23c2.25,6.27,10.48,11.56,17.11,11a14.55,14.55,0,0,0,4.13-1.17c.68-.27,1.37-.39,1.79.37s-.08,1.42-.79,1.82a12.51,12.51,0,0,1-7.92,1.41c-1.38-.17-2,0-2.36,1.52s-.66,3.29-3.08,2.86c.13-1.12,1.45-1.38,1.54-2.4,0-.39.64-.82,0-1.11-.26-.12-.7.15-1.06.24-2.64,1.21-3.08,4.14-.92,6.46a10.51,10.51,0,0,0,5.81,2.89,31.8,31.8,0,0,0,18.77-1.47,8.12,8.12,0,0,0,4.91-5,2.58,2.58,0,0,0-2-3.62c-.44-.09-1.23-.44-.81.63.18.44.36.9-.23,1.14a1.27,1.27,0,0,1-1.44-.42,9.87,9.87,0,0,1-1.79-3.39c-.49-1.2.05-2.73-1.32-3.69-.43-.3,0-1,.44-1.34,1.93-1.23,3-3.17,4.2-5a11.06,11.06,0,0,1,5.43-4.64,4.12,4.12,0,0,0,2.62-4.95c-.46-2-1.94-3-4.46-3-.84.33-.94.29-.93-.43.46-.22,1.08.22,1.38-.73a26.89,26.89,0,0,0,.37-15c-1.41-5.61-7.26-10.46-12.7-10.75a4.92,4.92,0,0,0-2.45.45c-2.5.86-4,3-6.12,4.48a4.36,4.36,0,0,1-1.28.41c-1.52.7-3.17.07-4.73.45-1.19.56-1.47-.29-1.69-1.14S557.17,16,557,15.05Z"/><path class="cls-90" d="M563.35,191.42c1.64-.29,2.34-1.66,3.48-2.77.44,1.72-.7,2.32-1.5,2.95-1,.79-1.22,1,0,2.05,2.1,1.83,5,2.16,7,4.09,1.18,1.12,2.63.34,3.71-.56a31.34,31.34,0,0,0,6.7-7.69,34.15,34.15,0,0,1,4.92-6.24c8-8,16.1-15.91,24-24,9.91-10.14,12.94-22.3,11.66-36-.5-5.37-1.4-10.68-2.36-16-.23-1.26-.64-1.65-1.89-1.44a57.55,57.55,0,0,0-14.21,3.92c-1,.43-1.34.8-1.1,2,1.53,7.54,1.82,15.22,2.43,22.86.15,1.9.46,3.48-2.07,4.78-3,1.54-4.88,4.69-6.83,7.52-3.57,5.2-6.28,10.91-9.48,16.33-2.95,5-6.23,9.71-11,13.23a33.07,33.07,0,0,1-7.63,4c-3.05,1.19-4.81,3.25-5,6.64A29.35,29.35,0,0,1,563.35,191.42Z"/><path class="cls-1" d="M557,334.3c-.52,1.45-.8,2.46-1.23,3.38-1.5,3.2-4.24,3.55-6.34.71a38.09,38.09,0,0,0-8.39-8.28c-1.66-1.19-2.57-.67-3.45.78l-.12.19c-.58,1.06-1.56,2.11-1.62,3.2s1.68,1.17,2.41,2a3.82,3.82,0,0,1,1.06,1.7c-1-.44-2.06-.83-3-1.33a1.89,1.89,0,0,0-2.85.71c-.51.8-.71,1.2.33,1.67a4.76,4.76,0,0,1,2.26,1.54c-1.14.66-2.09,0-3-.32a2.12,2.12,0,0,0-2.76.7c-.77,1-1.94,1.81.7,2.47-2.44-.74-3.72.49-5.1,1.67a26.85,26.85,0,0,1-8.51,4.69,7.63,7.63,0,0,0-3.45,2.12c-1.8,2.16-1.06,4.32,1.69,4.83a45.91,45.91,0,0,0,15.86-.24c7-1.13,13.67-3.38,20.53-4.95,4.65-1.07,6.34-3.51,6.47-8.34C558.47,340.3,558.52,337.43,557,334.3Z"/><path class="cls-1" d="M614.38,304.72c.56,1.86.61,3.86,1.63,4.93s3.16.17,4.78.41a12.87,12.87,0,0,1,2,.34c-1.58.7-3.3.42-4.93.67-.58.09-1.51-.3-1.57.79s.69,1.36,1.63,1.4a4.35,4.35,0,0,1,3.62,1.41c-1.15,0-2.3,0-3.45,0-.63,0-1.5-.16-1.34,1,.1.78-.16,1.69,1.14,1.84a27,27,0,0,1,3.45.82c0,.67-.41.48-.62.49-3.66.11-3.64.11-3.62,3.89a45.9,45.9,0,0,0,1,11.1c.68,2.66,1.42,5.66,4.65,6.1s4.89-2,6.32-4.4c2.35-4,3.29-8.45,3.87-13a71.85,71.85,0,0,0-1.77-28.22c-1-3.57-3.2-5.13-6.61-5.53-2.08-.24-2.52.22-1.86,2.23a41.69,41.69,0,0,1,1.32,6.45C624.85,302.56,620.19,307.11,614.38,304.72Z"/><path class="cls-90" d="M533.61,160.61a49.44,49.44,0,0,0,4.22-15.9c1.45-11.78.94-23.64,1.41-35.46a1.57,1.57,0,0,0-1.36-1.89c-4.71-1.34-4.74-1.29-4.46,3.52.69,12,.17,24,.19,36Z"/><path class="cls-90" d="M541.11,320.35c.38,2.58,1.2,4.85.48,7.2-.28.93.47,1.2,1,1.58a37.72,37.72,0,0,1,8.11,8.19c1.21,1.74,2.66,1.54,3.59-.38a4,4,0,0,0,.41-1.51q.27-6.46.47-12.94c0-.65.21-1.42-1-1.25C549.85,321.89,545.59,321.21,541.11,320.35Z"/><path class="cls-134" d="M574.29,12.43c3.1-.46,5.76.8,8.76,2.47-.51-4.2-2.22-7.33-5.37-9.5-4.39-3-9.19-3.46-14.38-1.83,1.9,2.61,1.86,5.41,1.93,8.17a22.29,22.29,0,0,1,.15,4.76c.66,1.15,1.3.24,1.8-.11a38.51,38.51,0,0,1,3.58-2.33A12.18,12.18,0,0,0,574.29,12.43Z"/><path class="cls-20" d="M558.32,349.77a6.77,6.77,0,0,1-4.75,3.19c-7.83,1.72-15.46,4.28-23.37,5.67A43.08,43.08,0,0,1,516,359c-1.94-.3-3.67-.85-4.88-2.56-.76,2.9-.7,3.12,2.06,3.84,6.92,1.83,13.84,1.08,20.73-.19a174.16,174.16,0,0,0,23.79-6.64,1.66,1.66,0,0,0,1.26-1.32C558.81,351.3,559.64,350.26,558.32,349.77Z"/><path class="cls-134" d="M564.71,19.09l.88-.39c.25-.38,0-.72-.1-1.07a6.89,6.89,0,0,0-.71-1.2c-.44-3-.9-6-1.32-9-.15-1-.32-2.09-1.5-2.27a9.13,9.13,0,0,0-5.15.34c-.58.25-.17.94-.06,1.44.66,3,1.45,6,2,9.09a2.13,2.13,0,0,0,2.36,2.1c.76,0,1.51.13,2.26.2C563.71,18.73,564.31,18.72,564.71,19.09Z"/><path class="cls-135" d="M633.52,295.12a69.35,69.35,0,0,1-.35,36.64,25,25,0,0,1-1.58,4c-.63,1.27-1.46,2.44-2.3,3.83,1.16.21,1.6-.59,2.1-1.12a19.16,19.16,0,0,0,5-10.75c1.49-10.57.48-21-1.59-31.42a11.41,11.41,0,0,0-.85-2.1C633.11,294.19,633.32,294.66,633.52,295.12Z"/><path class="cls-91" d="M621.43,293.6c-1.6,2.93-3.27,5.69-6,7.61-.86.6-.59,1,.11,1.5,2.27,1.59,5.36.26,6.2-2.65C622.36,297.88,621.68,295.77,621.43,293.6Z"/><path class="cls-136" d="M558.69,177.47c-8.43-3.61-16.81-1.19-25.2.46C541.89,177.63,550.27,175,558.69,177.47Z"/><path class="cls-137" d="M610.59,184.28c-1.43-1.91-4.29-2.6-8.31-2.05C605.08,182.79,607.8,183.69,610.59,184.28Z"/><path class="cls-138" d="M564.71,1.31a16,16,0,0,0-5.87,1.51c.75,1.48,2.22.08,3.16.79,1.48.17,1.79-1.74,3.16-1.76C565.3,1.42,565.15,1.25,564.71,1.31Z"/><path class="cls-139" d="M564.71,19.09c-.05-1-.77-.78-1.38-.75-1.23.95-2.84-.22-4.07.74Z"/><path class="cls-139" d="M564.78,16.43a1.71,1.71,0,0,0,.35,1.46c.49-.23.84-.53.55-1.14-.17-1.67.15-3.38-.45-5C564.87,13.28,565.64,14.94,564.78,16.43Z"/><path class="cls-139" d="M574.29,12.43l-3.72,1.25c.19.43.7.22,1,.46a5.27,5.27,0,0,0,2.29-.85Z"/><path class="cls-140" d="M621.25,342.37a5.88,5.88,0,0,0,3.87-.23l-3.9-.4Z"/><path class="cls-141" d="M562,3.61c-.9-.88-2.28.17-3.16-.79-.27.23-1.4.45-.23.79A12.41,12.41,0,0,0,562,3.61Z"/><path class="cls-88" d="M633.52,295.12l.43-.92a2.32,2.32,0,0,0-.92-1.57C632.54,293.76,633.14,294.42,633.52,295.12Z"/><path class="cls-142" d="M584.79,39.75c-.57.08-1.22.55-.87.94.68.78,1.22-.2,1.8-.51Z"/><path class="cls-143" d="M558.32,349.77c1.08.55.51,1.53.6,2.33.86-.84.17-1.91.43-2.85l0,0C559,349.39,558.46,349.17,558.32,349.77Z"/><path class="cls-144" d="M564.71,1.31l.45.54c.4,0,.9-.14.68-.59S565.08,1,564.71,1.31Z"/><path class="cls-145" d="M556.45,42.43c-2.44-.07-3.29,1-3.42,2.71a2.9,2.9,0,0,0,3,3,4.42,4.42,0,0,0,1.94-.52c.71-.38,2.07-.63,1.46-1.79s-1.41,0-2.06.32c-.92.44-1.85.94-2.65,0s-.12-1.82.56-2.57C555.5,43.32,555.78,43.08,556.45,42.43Z"/><path class="cls-146" d="M570.91,36.37a14.11,14.11,0,0,0-8.58-3c-.62,0-1.24.25-1.22,1s.58.81,1.11.88Z"/><path class="cls-147" d="M568.23,39.35a11.22,11.22,0,0,1-1,1.43c-1.27,1.38-2.13,1.24-3-.49-.32-.64-.58-1.37-1.45-1s-.46,1.17-.22,1.76c.62,1.55,1.66,2.75,3.45,2.2S568.83,41.47,568.23,39.35Z"/><path class="cls-145" d="M556.53,53.73a4,4,0,0,0,2.19-.74c.42-.36.8-.77.58-1.35-.36-.92-.87-.24-1.23,0a1.76,1.76,0,0,1-1.91-.07c-.92-.48-2.13-.9-2.52.26s1,1.41,1.88,1.7C555.88,53.62,556.25,53.67,556.53,53.73Z"/><path class="cls-145" d="M553.67,38.59c-1.13,1.36-2.24,2.41-3.28.24-.08-.17-.54-.28-.78-.23a.7.7,0,0,0-.46.91,2.3,2.3,0,0,0,2.78,2C553.26,41.31,554.26,40.59,553.67,38.59Z"/><path class="cls-2" d="M571.55,14.14c-.21-.39-.61-.4-1-.46a28.48,28.48,0,0,0-4.89,3.07l-.55,1.14.46.81C567.63,17.25,569.21,15.21,571.55,14.14Z"/><path class="cls-148" d="M588.07,42.81a3.91,3.91,0,0,0-4,1.45c-.3.34-.53.81-.2,1.21s.79.2,1.2,0A7.32,7.32,0,0,0,588.07,42.81Z"/><path class="cls-2" d="M167,171.79c1.67,4.06.17,6.33-4.23,6.22-.76,0-.77.27-.94.76a7.11,7.11,0,0,1-6,4.85c-1.51.23-2.28,1.21-3.09,2.31a107.72,107.72,0,0,1-22.31,22.31c-12.07,9-23.28,4.69-30.73-5.38-.54-.73-1-1.5-1.8-2.68-.58,7.73,0,14.8,3.42,21.36a119.87,119.87,0,0,1,8,18.37,12.63,12.63,0,0,1,.47,4c0,.75-.13,1.85-1.47,1.56-.81-.17-.88.64-1.3,1a13.36,13.36,0,0,1-5.51,3.21,93,93,0,0,1-26.25,4.67c-17.84.52-34.69-3.64-51-10.45a.76.76,0,0,0-.42-.06c-.93,3-.77,3.45,1.61,5.45,1.81,1.51,3.8,2.79,5.5,4.43,2.31,2.22,1.8,4.88-1.34,5.28-3,.38-3.67,1.75-3.66,4.39,0,4.23-1,8.34-1.89,12.45-.45,2,.11,4,.38,6,1.07,7.85,2,15.72,4.18,23.39,1.1,3.89,3.06,7.37,4.78,11,.85,1.8,1.88,3.58,1.69,5.68-.12,1.19-.45,2.26-2,1.23a2.88,2.88,0,0,1-.35-1.67c.12-.43-.16-.88.07-1.3-2.14-4.88-4.91-9.48-6.36-14.68-1.93-7-2.84-14.11-3.88-21.24-.32-2.19-.67-4.38-.82-6.58-.08-1.25-1.14-1.75-1.49-2.93-.58,1.06-.57,2.36-1.9,2.51s-1.92-.72-2.43-1.75c-.68.73-1.27,1.71-2.44,1.36a2.71,2.71,0,0,1-1.77-2.68c-.51-5.4-1.72-10.74-1.55-16.19,0-1.35-.78-2.22-1.14-3.33-3.83-11.81-7.38-23.7-8.57-36.12-2.11-22,3.15-42,17.16-59.22,8-9.84,18.67-14.72,31.4-14.94.43-.23.59,0,.66.39-.52.92-1.5,1-2.36,1.31-.4.15-.83.23-1.23.37-4.08,1.43-4.7,3.24-2.31,6.88,3,4.56,7.45,7,12.49,8.49a40.14,40.14,0,0,0,17.61.87,15.46,15.46,0,0,0,5.24-1.8,7.13,7.13,0,0,0,3.8-6.7c0-2.95-1.47-4.83-3.87-6.18a12.9,12.9,0,0,0-3.45-1.34c.71,1,1.69,2.32.54,3.22s-2.5-.2-3.19-1.23a9.32,9.32,0,0,0-5.46-4.13,4.63,4.63,0,0,1-2.13-1.4c-.43-.46-1.1-1-.7-1.63s1.15-.32,1.75,0c.26.12.5.28.75.41a10.93,10.93,0,0,0,12.4-1.48c4.48-3.86,5.84-9.16,6.7-14.68.14-.88-.25-1.21-1.12-.84a2.06,2.06,0,0,1-1,.27,6.4,6.4,0,0,0-6.33,1.76c-.87.88-3.86-.17-4.65-1.23A1.39,1.39,0,0,1,73,124c.34-.59.92-.57,1.51-.4.28.08-.07,0,.2.08.84.29,1.74,1.21,2.55.39s-.25-1.66-.56-2.47a1.47,1.47,0,0,1,.08-1.23,1.22,1.22,0,0,0-.41-1.7,1.68,1.68,0,0,0-2,.31,5.23,5.23,0,0,0-1.42,2.58,7.82,7.82,0,0,1-9.68,4.56,6.62,6.62,0,0,1-4.09-3.81c-1.2-2.75-5.63-3.88-8-2-1.08.86-1.94.55-2.94.1-2.78-1.24-4.76-.06-5,3-.34,3.54,1.21,5.24,4.83,5.19a2.27,2.27,0,0,1,2,1,43,43,0,0,0,8,8.65c.68.53,1.28,1.36.61,2.22s-1.55.46-2.33,0a8.59,8.59,0,0,1-2-1.59,2.13,2.13,0,0,1-.74-1.38c0-.07,0-.14-.08-.2-1.78-2.68-3.62-4.5-7.46-3.36-2.88.85-6.11,0-9.13-.47-8.64-1.47-12.51-7.59-10.19-16.08,2-7.39,6.58-13,12.55-17.62.74-.56,1.51-1.07,2.26-1.6,1.48-1.48,3.45-2.11,5.07-3a35.38,35.38,0,0,0-3.77,1.92c-.43.21-.85.59-1.33.11-.69-5.59,1.67-9.68,6.28-12.61s9.72-4.8,15.38-2.84c1.29.45,2.77.88,3.49,2,1.51,2.26,3.38,1.86,5.56,1.5C79.45,84,86.66,84.11,93.42,87.7c8.25,4.38,10,11.64,4.56,19.26a22.46,22.46,0,0,1-7,6.49l-1.18.68c1.64,1,2,2,.25,3.28-1,.74-.93,2-1,3.14a54.58,54.58,0,0,1-2.23,11.74c-1.42,4.43-3.58,8.36-8.07,11,1.65.21,2.88.39,4.12.53a16.72,16.72,0,0,1,11.27,6.31,82.78,82.78,0,0,1,11.21,18.15c2.94,6.25,5.64,12.62,9.35,18.48,4,6.29,3.89,6.25,9.62,1.92a192.63,192.63,0,0,0,18.85-16.44,1.64,1.64,0,0,1,2.31.49c1.22,1.68,1.82,3.69,3.08,5.35,1,1.33,2.14,3.07,3.75,2.82,2.13-.33,4.57-.49,6.18-2.42a6.62,6.62,0,0,0,1-1.36c.88-1.88,2-2.74,4.22-1.8,1.14.49,1.81-.41,2.16-1.47a7.19,7.19,0,0,1,.63-2A.44.44,0,0,1,167,171.79Z"/><path class="cls-2" d="M32.8,320.08l.44,1a3.71,3.71,0,0,0-.36,2.2c-1.5,7.42-3.18,14.8-4.3,22.29s-1.85,15.3-2.44,23c-.14,1.78-.38,3.55-.53,5.32-.11,1.32.35,1.87,1.62,1.89a8.41,8.41,0,0,0,1.48.14c4.83-.9,9.31.94,13.91,1.77a3.54,3.54,0,0,0,3.84-1.48c4.85-6,7.55-13,9.63-20.19,7.85-27.22,13.12-55,17-83,.19-1.33-.17-2.91,1.17-3.93.89.54.75,1.44.77,2.26,0,1.89,0,3.78,0,5.67a169.38,169.38,0,0,1-3.22,28.06c-2.67,14.18-5.66,28.3-9.14,42.31a122.41,122.41,0,0,1-5.85,18.13c-1.52,3.6-.15,6.87.5,10.25.17.91,1,.88,1.74.72a80.46,80.46,0,0,1,19.13-2,2.24,2.24,0,0,0,2.32-1.81c2.38-7.59,4.51-15.3,4.38-23.29a125.78,125.78,0,0,1,6.89-42.28C95.52,296,99.57,285,102.92,273.74A93.58,93.58,0,0,0,106.45,254c.1-1.31,0-2.74,1.15-3.76,1,1,.37,2.14.35,3.23.48,12.56-2.7,24.44-6.66,36.19-3.57,10.59-7.68,21-10.24,31.93A81.11,81.11,0,0,0,88.55,341a100.16,100.16,0,0,1-5.49,34.91c-.35,1-.83,1.11-1.6,1.31-2.69.7-5.37,1.43-8,2.24-.56.18-1.63.34-1.15,1.39.39.84,1.15.26,1.7.12,2.14-.56,4.28-1.09,6.37-1.81s2.21.27,2.09,1.84-.23,3.13-.3,4.69c-.09,2.24,1.74,3.4,3,4.59a29.38,29.38,0,0,1,4.87,6.15,6.73,6.73,0,0,0,4.74,2.65c3.36.61,6.73,1.26,10.13,1.64,3.82.43,6.62,1.86,7.77,5.83.43,1.51.3,2.33-1.19,3.08-4.19,2.09-8.74,2.59-13.26,3.08A102.37,102.37,0,0,1,68.8,412a1.81,1.81,0,0,0-1,0c-4.62,2.44-8.59-.59-12.78-1.59-1.17-.27-1.58-1.68-1.51-2.85.13-2.13-.88-4.44,1-6.32.31-.32-.07-.66-.18-1a11.6,11.6,0,0,1,.82-9.51,19,19,0,0,0,1.13-2.53,6.58,6.58,0,0,0-.42-5.31c-1.51-3-1.87-6.52-2.64-10.3-1,1.49-1.76,2.71-2.62,3.86s-1.57,2.63-2.73,3.24c-5.61,2.93-5.84,7.94-4.95,13.06.75,4.33,2.48,8.46,4.1,12.58.16.4.22.93.71,1,2.14.2,2.44,1.82,2.83,3.47a6.44,6.44,0,0,1-1,5.88,9.94,9.94,0,0,1-4.71,3.23c-9.14,3.11-18,2.52-26.35-2.43C16,415,15,413.22,16,410.61c1.36-3.61,1.42-7.4,2.15-11.08.82-4.13,1.61-8.26,2.63-12.34.55-2.19,1.9-4.48-.61-6.53,1.51-.73,2.65-.09,3.8-.06,3.06.09,6.13.07,9.19.08.58,0,1.3,0,1.31-.73,0-.94-.81-.84-1.42-.76-4.09.48-8.07-.7-12.12-.77-.42,0-.93.13-1.06-.43s.07-1.1.66-1.14c1.71-.11,1.51-1.36,1.62-2.48,1.09-11.3,2-22.62,4.29-33.76A87.49,87.49,0,0,1,32.8,320.08Z"/><path class="cls-2" d="M145.15,173.08a1.89,1.89,0,0,0-2-.84,2.29,2.29,0,0,0,1.65-2.26,41.92,41.92,0,0,1,2-8.24c1-3,2.09-3.56,6.13-3.33,1.83-.27,3.37.55,4.92,1.33a2.79,2.79,0,0,1,.49.42c1.7,3.28,1.16,5.11-2.1,6.91-.5.28-.81.52-.67,1.11a17,17,0,0,1,.5,3.17,4.26,4.26,0,0,1-.85,2.81,1.8,1.8,0,0,1-2,.84,1.73,1.73,0,0,1-1.11-1.89,16,16,0,0,1,.39-2.75,7,7,0,0,0-.43-4.78c-.75-1.49.13-2.4,1.89-2.15.67.09,1.57.6,1.79-.4s-.75-1.08-1.41-1.32a11.94,11.94,0,0,0-1.66-.44c-2.24-.5-3-.13-3.61,2.13a69.14,69.14,0,0,1-2.66,7.69A4,4,0,0,1,145.15,173.08Z"/><path class="cls-149" d="M157.65,160.22l-4.77-1.81.09-.85a16.63,16.63,0,0,0,1.12-1.74,32.11,32.11,0,0,1,6.2-7.81c.55-.5,1.16-1.27,2-.66.69.51.38,1.32.13,2C161,153,159.77,156.82,157.65,160.22Z"/><path class="cls-2" d="M157.65,160.22c.56-2.89,2.31-5.31,3.17-8.09.48-1.54,1.07-3,1.42-4.69-3.64,2.14-5.66,5.7-8.09,8.89-.41.06-.66,0-.46-.52a23.65,23.65,0,0,1,6.33-8.94c.88-.79,1.84-1.89,3.13-1s.76,2.23.36,3.34c-1.2,3.4-2.5,6.76-3.76,10.14a1.15,1.15,0,0,1-.54,1.09,1,1,0,0,1-1.18-.24Z"/><path class="cls-150" d="M158,160.2l1.16-.11c.33-.37.73,1.24,1,0,1.16.13,1.6,1.07,2.13,1.91a12.55,12.55,0,0,1,.49,4c-.45,3-2.25,4.11-5.12,3.06a10.84,10.84,0,0,1-1.14-.54A2,2,0,0,0,155,168c-.23-.49-1-1,.19-1.34,3.52-1.08,4.12-2.38,2.86-5.87A1.88,1.88,0,0,1,158,160.2Z"/><path class="cls-22" d="M167,171.79l-.51.06a4.17,4.17,0,0,1-4.11,2.51,1.93,1.93,0,0,1-2-1.58c-.23-1,.45-1.53,1.32-1.88,2.61-1.08,2.61-1.09,2.36-3.82.12-.46.18-1,.85-.87A6.53,6.53,0,0,1,167,171.79Z"/><path class="cls-151" d="M49.56,144.71l-.55-.42c3.32-.74,3.65-1.28,3.63-5.9,1-1.25,1.11.08,1.54.51a10.59,10.59,0,0,1-1.45,8,4.78,4.78,0,0,1-1.54,1.74,1.6,1.6,0,0,1-2,.06c-.65-.55-.47-1.26-.2-2S50.31,145.64,49.56,144.71Z"/><path class="cls-151" d="M156.33,167.93c.45.17.91.32,1.36.51,2.75,1.15,4.35.13,4.69-2.84.15-1.24-.71-2.43,0-3.64,1.13.7.66,2.3,1.69,3.06a1.34,1.34,0,0,1,.18,1.28,6.42,6.42,0,0,1-2.13,4,3.61,3.61,0,0,1-4.34.46C156.7,170.18,155.69,169.42,156.33,167.93Z"/><path class="cls-152" d="M41.43,97.16c2.23-.85,4.16-2.46,6.81-2.41l-6.78,3.38Z"/><path class="cls-153" d="M108,253.42c-.41-1,.27-2.16-.41-3.13-1-1-.58-1.94,0-2.9a.51.51,0,0,1,.64-.11A20.4,20.4,0,0,1,108,253.42Z"/><path class="cls-154" d="M108.23,247.28h-.41c-1.18-.14-.5-1.14-.78-1.69.37-.57.79-.64,1.27-.14C107.49,246,108.68,246.69,108.23,247.28Z"/><path class="cls-155" d="M160.21,160.05l-.29.72c-.24-.23-.48-.46-.73-.68.19-.25.37-.5.56-.74Z"/><path class="cls-156" d="M53.77,138.89c-.41-.1-.25-1.45-1.13-.5-.27-.84.27-.91.87-.93a1.33,1.33,0,0,1,.84.84A.71.71,0,0,1,53.77,138.89Z"/><path class="cls-157" d="M153.69,155.81l.46.52a1.57,1.57,0,0,1-1.18,1.23A2.39,2.39,0,0,1,153.69,155.81Z"/><path class="cls-158" d="M164,166.26V165c.64.14.72.7.88,1.19-.4.17-.35.57-.45.89C163.74,167.11,163.78,166.74,164,166.26Z"/><path class="cls-111" d="M107,245.59c.86.29.31,1.23.78,1.69l-.28,3c-1,19.21-8.29,36.75-14.4,54.6-4.8,14-7.82,28.28-7.56,43.2.16,8.86-2.07,17.39-4.78,25.77A1.57,1.57,0,0,1,79,375.11a74.3,74.3,0,0,0-20.58,2.21c-1.16.29-1.46.06-1.65-1.06-.4-2.46-.94-4.9-1.45-7.35a2.6,2.6,0,0,1,.23-1.65c5.13-12.23,8-25.12,10.72-38,2.49-11.57,5.09-23.13,6.68-34.88.76-5.66,1.32-11.34,1.59-17.05a49.79,49.79,0,0,0,0-8.1s-.09-.09-.15-.12-.25,0-.32.16c-1,9.95-2.61,19.81-4.4,29.63-3.22,17.68-6.84,35.27-11.54,52.62a109.42,109.42,0,0,1-6.62,18c-1.51,3.19-3.74,5.89-5.77,8.73-.42.58-.72.44-1.22.33-2.77-.64-5.66-.59-8.33-1.77a7.34,7.34,0,0,0-4.64-.38c-2,.47-3.82-.14-5.73-.07-.82,0-1.09-.23-1-1.12,1.5-17.14,3.16-34.25,7.32-51l.36-1.46a.41.41,0,0,1,.72,0c.89.76,1.37.55,1.44-.61a6.7,6.7,0,0,0-.94-3.9c-6.58-11-8.08-23.45-9.9-35.81a29.28,29.28,0,0,1,.84-12.15c.87-3.24.68-6.66.87-10,.07-1.23.24-1.94,1.69-1.59a3.57,3.57,0,0,0,1.49,0c1.33-.27,2.8-.47,3.22-2.06s-.84-2.14-1.76-2.89c-2-1.67-4.1-3.34-6.19-4.95-1.19-.91-1.78-1.9-1.23-3.46a10,10,0,0,0,.21-2.64c1,0,1.85.79,2.78,1.17,23.32,9.39,47.12,13.43,71.89,6.4C101,249.29,104.49,248.34,107,245.59Z"/><path class="cls-159" d="M53.77,138.89l.58-.59c.92.66,1.82,1.36,2.76,2a.92.92,0,0,0,1.35-.12.88.88,0,0,0-.34-1.29c-3.58-2.38-6.16-5.7-8.6-9.15a1.64,1.64,0,0,0-2-.62c-2.55.57-4.41-.94-4.88-3.76-.52-3.15,1-5.87,3.41-6.26,1.12-.19,1.88.5,2.76,1s1.91,1.1,2.17-.65a.66.66,0,0,1,.49-.59c2.91-1.09,7.09.64,8.28,3.44,1.07,2.51,3.37,3.83,6.41,3.67a6.81,6.81,0,0,0,6.44-5,4.29,4.29,0,0,1,1.26-2.39c.93-.83,2.15-1.35,3.06-.49.53.51,2.12,1.85-.07,2.79-.56.24.16.66.41.9.89.85,1.66,1.82.67,3S76,125,75,124.44c-.6-.34-1.28-1.37-1.91-.2s.56,1.31,1.18,1.66c2.67,1.48,4.62.63,5.52-2.45,2.31,1.68,4.62,1.53,7.22-.46-.61,7.17-2,13.53-7.59,18-4.07,3.26-8.84,3.47-13.36.8-.4-.24-.74-.72-1.47-.39a6.93,6.93,0,0,0,4.56,3.14A4.21,4.21,0,0,1,72.36,147a9.69,9.69,0,0,0,1.94,2.26c.44.4,1.12.85,1.72.28s.23-1.21-.16-1.73c-.51-.67-1.11-1.28-1.71-2,4.17-.06,8.6,3.15,9.28,6.68a7.91,7.91,0,0,1-5.74,9.5c-10.56,3.33-20.7,2.32-30-3.94a16.18,16.18,0,0,1-5.6-6.9c-.81-1.75-.33-3,1.17-4,1.92-1.37,4.24-1.62,6.35-2.45l1.5-.25c-.21,1-1,1.53-1.49,2.24-.38.54-.8,1.15-.19,1.7s1.35.17,1.85-.38a10,10,0,0,0,2.62-7.85C53.82,139.74,53.79,139.32,53.77,138.89Z"/><path class="cls-159" d="M86.34,111.33c-2-.31-3.81.06-5.5-1-.93-.61-2.27-1.24-3.24.12-.53.74.09,1.38,2,2.25-.88,3.93-4.34,2.62-6.84,3.35-.5.14-.69-.36-.91-.74a4.6,4.6,0,0,0-1.92-2c-.8-.38-1-.66-.68-1.68.43-1.38-.83-1.66-1.88-1.52a6.38,6.38,0,0,0-4.08,2.13c-.85,1-1.94,1.72-2.73,2.69-2.1,2.57-4.78,3.13-7.85,2.65-.77-.12-1.94.34-2.08-.92s-.87-2.37.35-3.57a36.78,36.78,0,0,1,14.66-8.9,43.93,43.93,0,0,1,16.67-2A2.23,2.23,0,0,1,84.62,104,59.48,59.48,0,0,1,86.34,111.33Z"/><path class="cls-159" d="M21.94,274.05c-1.54-1.73-1.41-3.72-1.83-5.53-.15-.64.11-1.66-1-1.55s-.78,1-.79,1.71c0,2.19,0,4.38,0,7-1.34-1.47-1.09-2.87-1.34-4.12-.18-.91-.27-1.84-.41-2.76-.11-.66.11-1.64-.88-1.67s-.89.91-1,1.61c-.12,1.35-.22,2.71-.36,4.06-.07.68.14,1.45-.58,2.07-.78-1.43-.61-3-.85-4.48-.66-4-1.24-8-1.92-12.05-.27-1.59.12-2.55,1.8-3A13.93,13.93,0,0,0,21.08,250c.35-.5.58-.71,1.14-.21,2.38,2.12,4.8,4.2,7.23,6.32-.87.77-1.76.51-2.59.52-2.55,0-3.17.53-3.35,3.07-.22,3.06-.38,6.13-.46,9.2A20.29,20.29,0,0,1,21.94,274.05Z"/><path class="cls-159" d="M164,166.26l.42.84c.95,3.16.7,3.66-2.36,4.16-.94.15-1.53.51-1.4,1.45a1.42,1.42,0,0,0,1.72,1.22,8,8,0,0,0,4.1-2.08,15.19,15.19,0,0,1-.28,2.54c-.46,1.62-1.68,2.25-3.13,1.47s-2-1-2.74.89c-.88,2-2.52,4.1-5.13,3.93-1.47-.1-2.28,1.88-4,.71a14.08,14.08,0,0,1-4.84-5.85c-.4-.83-.84-1.64-1.25-2.46,1.28-3.82,2.55-7.64,3.87-11.45a1.87,1.87,0,0,1,2.23-1.25,27.68,27.68,0,0,1,4.1,1.14c.94.33,1.63,1,1.1,2.13s-1.36,1.06-2.31.53c-.58-.32-1.21-1.05-1.85-.21-.53.69,0,1.28.4,1.89,1.35,1.87.24,3.85.12,5.77-.08,1.13-1,2.77.7,3s1.69-1.58,1.93-2.81-.36-2.52-.44-3.79c.08-.31,0-.73.46-.79s.67.33.87.68c.15,1.81,1.38,2.58,2.95,2.81s2.64-.71,3.52-1.93C163.37,168,163.21,166.91,164,166.26Z"/><path class="cls-20" d="M20.9,223.32c-.55-7.86,1.33-24.44,3.18-28.71C28.21,210.79,26.87,208.72,20.9,223.32Z"/><path class="cls-160" d="M65.69,124.67c-3.06,0-5.3-1.94-5.29-4.67,0-3,3.15-5.73,6.53-5.76,2.68,0,4.34,1.75,4.38,4.69A5.54,5.54,0,0,1,65.69,124.67Z"/><path class="cls-149" d="M79.33,117.09c.88-1.66,1.32-3.32,2.79-3.53,1.13-.16,1.27,1.5,1.86,2.35,1.32-.9.23-2,.29-3.13,1.69,0,2.64.64,2.63,2.48,0,1.28.21,2.56.22,3.85a4.21,4.21,0,0,1-3.15,4.1c-1.89.46-3.09-.56-4.18-1.93a1.69,1.69,0,0,1,.32-2.71c1-.82,1.65-.39,2.15.65.23.47.64.81,1.2.37s.38-.86.13-1.34C82.72,116.59,81.37,116.19,79.33,117.09Z"/><path class="cls-161" d="M33.2,322.79h-.72a1.68,1.68,0,0,1,.76-1.68Z"/><path class="cls-20" d="M85.47,411.79a107.31,107.31,0,0,1-14.65-1.09A6.17,6.17,0,0,1,68.6,410c-1-.6-1.7-1.07-2.29.43-.24.62-1,.46-1.54.31-2.61-.67-5.22-1.39-7.84-2-1-.26-1-1-1.07-1.82-.12-1.54-1.15-3.79-.24-4.44,1.16-.84,2.63,1,3.93,1.78,9.63,5.51,20,6.79,30.8,5.44,4.89-.6,9.78-1.12,14.63-1.95,1.29-.21,2.43-.8,3.69-1,.51-.09,1.12-.67,1.49.11a1.29,1.29,0,0,1-.65,1.63,9.6,9.6,0,0,1-3.55,1.4A108.68,108.68,0,0,1,85.47,411.79Z"/><path class="cls-20" d="M48.81,411.27a4.35,4.35,0,0,1-2.75,4.89c-9.48,4.45-18.65,3.39-27.53-1.74-1.27-.73-1.13-2-1.1-3.38C27.84,418,38.26,419,48.81,411.27Z"/><path class="cls-162" d="M74.07,269.25a1.68,1.68,0,0,1,.62-1.9c.21,3.53.52,6.74-.19,10C74.09,274.64,75,271.9,74.07,269.25Z"/><path class="cls-22" d="M70.57,129c.7.75,1.07,1.17,1.46,1.55,1.8,1.73,3.24,1.8,5.45.21.64-.46,1.17-.85,1.78,0s0,1.18-.42,1.63a5.4,5.4,0,0,1-5.74,1C71.52,132.56,70.26,131.5,70.57,129Z"/><path class="cls-163" d="M50.28,123.84c-.12.62-.47,1-.89.61a7.2,7.2,0,0,0-3.61-1.7.49.49,0,0,1-.12-1,2.68,2.68,0,0,1,2.65.3A3.57,3.57,0,0,1,50.28,123.84Z"/><path class="cls-164" d="M64.22,121.79c-.68-2.12.18-4.22,1.75-4.84A3.49,3.49,0,0,1,70.16,119c.23.5.34,1-.16,1.31a1,1,0,0,1-1.18,0C65.89,118.32,65.89,118.33,64.22,121.79Z"/><path class="cls-1" d="M81.7,429v2.93c.09,0,.2-.09.28-.05,3.34,1.54,6.61.49,9.88-.3s6.47-1.8,9.9-1.85c2.79,0,5.38.95,8.1,1.2.68.07.91.68,1.11,1.24a28.72,28.72,0,0,0,1.15,3,7.42,7.42,0,0,0,11.6,2.55c1.6-1.35,1.93-1.34,3.08.36a96.21,96.21,0,0,0,6.21,8.53,21,21,0,0,0,15.62,7.81c7.64.32,14.8-1.66,21.85-4.23,3.07-1.12,4.2-3.59,4.32-6.67s0-6.05,0-9.07c0-1.78.21-1.94,1.94-1.81,1.93.16,3.71,0,4.91-1.87.53-.8,1.27-.31,1.84,0a72.28,72.28,0,0,1,9.48,4.94c4.18,2.79,8.12,5.93,12.46,8.51a24.51,24.51,0,0,0,7.34,2.85c2.91.65,5.73.11,8.55-.54s5.69-1.38,8.52-2.16a9.08,9.08,0,0,0,4.27-3c.55-.62,1.06-1.29,1.66-1.86A17.63,17.63,0,0,0,241,429a38.58,38.58,0,0,0-1.12-15.81,19.5,19.5,0,0,0-4.8-8.62c-7.18-7.56-14.92-14.48-23.9-19.9a8.5,8.5,0,0,0-1.68-.9c-2.56-.83-3.91-2.74-4.81-5.14-1.81-4.85-3.53-9.74-5.22-14.63-1.52-4.39-3.19-8.72-4.43-13.2a45.22,45.22,0,0,1-1.49-10.11c-.25-5.56,0-11.13-.55-16.67-.17-1.79,0-2,1.85-2.23a17.43,17.43,0,0,0,2.16-.38c1.07-.29,1.27-.77.67-1.68a7,7,0,0,1-.82-3.52c-.44-4.52-1-9-1.74-13.5a13.47,13.47,0,0,0-7.85-10.43c-3.44-1.73-7.13-2.68-10.72-3.95a27,27,0,0,1-7.79-4,10.18,10.18,0,0,1-1.88-1.83c-.55-.74-.46-1.38.41-1.79a16.54,16.54,0,0,0,5.87-4.51,2.18,2.18,0,0,1,1.86-.71c4,.09,8.1-.26,12.14.23,1.78.21,2.08-.16,1.51-1.81a88.16,88.16,0,0,1-4.07-18.28,3.36,3.36,0,0,1,.3-2.41.56.56,0,0,0-.1-.87,3.24,3.24,0,0,1-.86-2.27,54.88,54.88,0,0,0-1.36-7.19c-2.81-10.14-9.8-15.8-19.75-17.82-10.33-2.08-19.6.65-27.45,7.65a31.45,31.45,0,0,0-9.31,15.5,56,56,0,0,0-1.77,12.15c-.22,4.53-.52,9.05-.53,13.59,0,3.43.13,3.45,3.51,3.6s6.62.29,9.94.28a2.32,2.32,0,0,1,.59.05c.52.1,1.16.13,1.35.7s-.34,1-.74,1.32a37.69,37.69,0,0,1-9.22,5.9,94.54,94.54,0,0,1-11.46,4.07,29.1,29.1,0,0,0-6.42,2.81c-4.37,2.58-5.91,6.83-6.81,11.45A56.41,56.41,0,0,0,104,321.1a14.35,14.35,0,0,1,.09,1.61c0,1.25.39,2.17,1.8,2.41,1,.16,1.28.84,1.43,1.77.61,3.64,0,7.22-.57,10.77-.92,5.75-2.67,11.31-4.09,16.95a127.89,127.89,0,0,0-3.29,20.66c-.6,7.16-.87,14.32-.85,21.5a5.92,5.92,0,0,1-.88,3.18,46.58,46.58,0,0,0-5.56,15.2c0,.28-.11.57-.14.87-.42,4.37-2.13,7.85-6.4,9.72a7.51,7.51,0,0,0-2.94,2.61C82.39,428.65,82.2,429.05,81.7,429Z"/><path class="cls-2" d="M81.7,429a10.72,10.72,0,0,1,4.7-4.22A8.42,8.42,0,0,0,91.13,418c1-6.14,2.58-12.13,5.79-17.53a8.75,8.75,0,0,0,1.25-4.64,206.38,206.38,0,0,1,2-30.82c1-6.71,2.87-13.23,4.55-19.8,1.52-6,2.81-12,2.3-18.2-.08-.94-.31-1.35-1.28-1.5s-1.83-.21-1.95-1.63c-.58-6.93-.88-13.82.48-20.71,1.27-6.49,4.91-10.76,11.16-12.88,4-1.36,8.11-2.43,12-4.1A38.25,38.25,0,0,0,138,279.76a3,3,0,0,0,1.11-1.29l-12-.48c-3.78-.14-3.88-.19-3.76-4,.22-6.88.13-13.79,1.23-20.61,2.09-13,8.56-22.78,21.31-27.36,10.24-3.67,20.09-2.65,28.95,4.09,5.21,4,7.69,9.56,8.88,15.83a22.9,22.9,0,0,1,.6,4.34c0,1.38.8,1.92,1.75,2.48-1.28.58-1.25,1.62-1.1,2.81a95.34,95.34,0,0,0,4.2,18.65c.67,2,.58,2.11-1.51,1.92a106,106,0,0,0-12.73-.29,1.93,1.93,0,0,0-1.61.75,14.28,14.28,0,0,1-5.89,4.45c-1.08.42-.66.77-.19,1.29a17.68,17.68,0,0,0,7.14,4.7c2.78,1.05,5.62,1.92,8.41,2.92,1.42.51,2.82,1.08,4.19,1.71a14.3,14.3,0,0,1,8.76,12.05c.57,4.95,1.2,9.89,1.78,14.83a1.13,1.13,0,0,0,.48,1c1.11.8,1,1.68-.38,2.17a16.68,16.68,0,0,1-3.59.64c-.41,0-.87,0-.77.74.8,5.88.51,11.8.67,17.71A40.73,40.73,0,0,0,196,352.7c3,8.91,6,17.81,9.37,26.58a6.58,6.58,0,0,0,3.8,4,48,48,0,0,1,10.29,6.65c4.56,3.62,8.86,7.52,13.15,11.44,7.75,7.05,9.62,16.07,9,26-.47,7.29-4.46,12.47-10.06,16.69a6.61,6.61,0,0,1-2.67,1c-3.56.84-7,1.94-10.67,2.5a18.06,18.06,0,0,1-10.91-1.91,71.76,71.76,0,0,1-11.14-7.27,68.72,68.72,0,0,0-13.08-7.37c-.59-.27-.89-.54-1.3.38-.55,1.25-1.91,1.59-3.19,1.77a7,7,0,0,1-3.23-.33v5.09a42,42,0,0,1-.37,7.6,5.78,5.78,0,0,1-3.41,4.64c-8.26,3.3-16.71,5.75-25.76,4.42-6-.88-10.58-4.29-14.2-9-1.86-2.44-3.62-5-5.32-7.52-.69-1-1.18-1.13-2-.25-2.4,2.42-5.28,2.73-8.36,1.62a7.27,7.27,0,0,1-4.55-5.18,3.91,3.91,0,0,0-3.52-3.29,28.23,28.23,0,0,0-14,.58A36.82,36.82,0,0,1,86.66,433a6.55,6.55,0,0,1-5-1.06Z"/><path class="cls-165" d="M174.89,422.52a33.69,33.69,0,0,0,5.49,3.32,7.77,7.77,0,0,0,1.61.68c.62.13,1.48.6,1.8-.29s-.61-1-1.13-1.26a52.11,52.11,0,0,1-8.22-4.44,2.67,2.67,0,0,1-1.28-1.82,75.49,75.49,0,0,0-4.3-13.79,2.22,2.22,0,0,1,0-1.93,22.63,22.63,0,0,1,4.86-7.42,7.86,7.86,0,0,0,1.53-1.95c.21-.42.35-.81,0-1.22a1.08,1.08,0,0,0-1.2-.28,5.74,5.74,0,0,0-2.65,1.76,20.28,20.28,0,0,0-4.17,7.16c-1-2-1.88-3.84-2.81-5.68q-.61-1.23-1.35-2.43c-.25-.41-.43-1.17-1.14-.78s-.25.93,0,1.37a52.13,52.13,0,0,1,4.92,11.37,105,105,0,0,1,5.64,37c0,.68-.1,1.36-.13,2.05a4.28,4.28,0,0,1-3.39,4.22c-5.9,1.73-11.76,3.55-18,3.73A19.3,19.3,0,0,1,134.23,444c-5-6.55-9.36-13.57-14.11-20.32-.64-.92-1.08-2.26-2-2.67-2.39-1.13-1.3-2.87-1-4.39a10.69,10.69,0,0,1,3.28-5.83,4.19,4.19,0,0,1,.7,1.73,37.53,37.53,0,0,0,7.74,12.81c3.5,4,7.26,7.8,10.06,12.37.47.75,1.1,1.56,2.13.91s.64-1.52.22-2.33a36,36,0,0,0-4.9-6.73c-2.71-3.21-5.69-6.18-8.2-9.56a29.77,29.77,0,0,1-5-10.2A38,38,0,0,1,122,395.17c.31-2.49.83-5,1.16-7.48a48.47,48.47,0,0,0,.07-5.29,35.93,35.93,0,0,0,6.39,2.58,53.43,53.43,0,0,0,15.68,1.5c10.86-.28,21.63-1.22,32-4.7,3.32-1.12,6.55-2.47,10-3.36a4.73,4.73,0,0,0,3-1.88c.2-.31.38-.31.69-.08,2.66,2.05,5.88,3,8.85,4.43,10.19,4.93,20,10.51,28,18.57,4.94,4.92,8.59,10.63,9.85,17.61a29.57,29.57,0,0,1-5.36,23.28,3,3,0,0,1-1.72,1.28c-3.88.94-7.75,2-11.65,2.83a15.94,15.94,0,0,1-11.55-2,57.81,57.81,0,0,1-8-5.37c-4.66-3.77-10.05-6.06-15.55-8.16a32.41,32.41,0,0,0-8.58-2.34c-.63-.06-1-.42-.86-.9.31-.91-.23-1.73-.07-2.59C174.57,422.91,174.29,422.34,174.89,422.52Z"/><path class="cls-159" d="M108.61,428.31c-1,.12-1.82-.41-2.74-.56a30.11,30.11,0,0,0-13.71,1.35,18.44,18.44,0,0,1-7.71,1A3.39,3.39,0,0,1,86.36,428c5.18-2.44,6.91-6.83,7.41-12.18s1.62-10.41,4.52-15c.31-.48.48-.89,1.27-.88,1.33,0,1.57-1.09,1.6-2.18.06-2.35.14-4.69.12-7-.14-14.18,1.84-28.1,4.84-41.93,1.59-7.34,2.64-14.81,2.08-22.38,0-.65.15-.87.79-.87,3.62,0,7.22.25,10.82.56.89.08.74.81.8,1.33.55,4.55,1,9.11,1.61,13.66a100.89,100.89,0,0,1,.86,13c0,5.65-1.68,10.95-3.08,16.33a61.82,61.82,0,0,1-3.86,9.61c-2.88,6.44-5.8,12.87-8.7,19.3-.42.93-.89,1.81,0,2.85.43.51,0,1.32,0,2s-.24,1.67.62,2.26c.42.3.11.59-.11.85-3.46,4.11-3.34,9-3,13.9.19,2.6.86,4.9,3.28,6.33A.66.66,0,0,1,108.61,428.31Z"/><path class="cls-159" d="M150.3,254.33a14.18,14.18,0,0,0,.37,6.85c1.19,4.51,8.87,5.67,11.56,2.34a14.43,14.43,0,0,0,3.64-8.89c0-.83.32-1,1-1a8.64,8.64,0,0,1,2.85.55c.23.06.52.14.39.47-.69,1.72.35,3.32.37,4.94-.15.27-.27.07-.37,0-.57-.25-1.29-.81-1.71-.21s.55.75.87,1.13c.67.8,1.19,1.66.45,2.62s-1.66.57-2.52.12a9.51,9.51,0,0,1-1.09-.74.8.8,0,0,0-1.26.16c-.37.53-.1.89.31,1.25,2.67,2.28,5.58,1.36,6.38-2.12a6.2,6.2,0,0,0,3,2.05c.53.15.51.46.48.88a26.29,26.29,0,0,1-2,9.09,10.24,10.24,0,0,1-12.37,6,42.07,42.07,0,0,1-5.27-1.71c-.41-.16-.9-.35-1.15.18s.19.79.59,1a19.68,19.68,0,0,0,8.17,2.52,1.52,1.52,0,0,1,1.61,1.09c1.36,3.37,2.25,6.8,1.37,10.42-1.54,6.3-8.24,10.49-15.06,9.49-7.15-1-12.81-6.55-14.65-14.14-.31-1.29-.13-2.59-.39-3.87a1.4,1.4,0,0,1,.72-1.47,27,27,0,0,0,4.85-4.21,1.3,1.3,0,0,1,1.27-.51,15.63,15.63,0,0,0,2.82,0c1.16,0,1.44-.43,1-1.55a63.19,63.19,0,0,1-3.78-21.36c0-1.26.3-1.88,1.7-1.78,1.24.09,2.49-.21,3.69.44A3.2,3.2,0,0,0,150.3,254.33Z"/><path class="cls-159" d="M202.77,380.74a107.88,107.88,0,0,0-10.12-4.84,1.52,1.52,0,0,1-1-2,11.54,11.54,0,0,0-1.43-8.57c-.52-.94-1-1.9-1.56-2.81a29.3,29.3,0,0,1-4.08-14.62c-.27-8.46.48-16.89.67-25.33,0-.75.14-1,1-.76a24.47,24.47,0,0,0,6.08.7c-.52,3.75-.43,7.49-.69,11.21-.67,9.29,1.19,18.1,4.42,26.75,2.24,6,4.09,12.19,6.12,18.28.17.51.42,1,.63,1.47A.42.42,0,0,1,202.77,380.74Z"/><path class="cls-1" d="M119.21,403.75c.2,1.18.37,2.33.58,3.48.1.54-.28.77-.58,1.08a13.53,13.53,0,0,0-3.72,12.32,11.42,11.42,0,0,0,2,4.49c2,3,4.06,5.95,6.09,8.93.26.39.69.71.6,1.35a3.83,3.83,0,0,0-2.69.8,4.83,4.83,0,0,1-7-1.86,26.78,26.78,0,0,1-1.71-4.49,9.24,9.24,0,0,0-3.73-5.24A2.33,2.33,0,0,1,108,423a25.78,25.78,0,0,1-.14-10.46,9.77,9.77,0,0,1,6-7A43.84,43.84,0,0,1,119.21,403.75Z"/><path class="cls-1" d="M110.37,405.33c-1.37-2.77-.47-5.25.68-7.81,2.12-4.69,4-9.47,6.07-14.2.21-.48.08-1.35.89-1.29a2.33,2.33,0,0,1,2.19,1.21,5.11,5.11,0,0,1,.39,3.28,54.93,54.93,0,0,0-1.44,14.79.83.83,0,0,1-.74,1A37,37,0,0,0,110.37,405.33Z"/><path class="cls-159" d="M154.4,251.79c-.38.94-1.54,1.85-.86,2.51s1.46-.6,2.14-1.08a6.88,6.88,0,0,1,7-1,2.84,2.84,0,0,1,2,3.32,13.33,13.33,0,0,1-3,6.87,5.61,5.61,0,0,1-6,1.75c-2.28-.59-3.92-1.87-4.37-4.37a14.61,14.61,0,0,1-.31-4.93C151.41,252.6,151.87,252.15,154.4,251.79Z"/><path class="cls-166" d="M156.32,246.37c.26.5.5.92.71,1.35.83,1.66.42,2.44-1.45,2.69a14.31,14.31,0,0,0-3.42.74,2.57,2.57,0,0,0-.9.47c-2.25,2.6-5.21,1.15-7.87,1.42-.58.06-.48-.42-.39-.7.23-.7-.24-1.76,1.06-1.91,3.05-.35,6.09-.88,9.15-1.1,1.55-.11,2.47-.52,2.63-2.13A.89.89,0,0,1,156.32,246.37Z"/><path class="cls-160" d="M168.81,248.88h5.84c.42,0,.94-.14,1,.54s-.46.63-.88.72a62.27,62.27,0,0,1-8.4.86,9.92,9.92,0,0,1-3.61.1c-1.22-.33-.62-1.16-.71-1.73-.12-.79.63-.36.93-.37,1.94-.05,3.89,0,5.84,0Z"/><path class="cls-167" d="M179.62,429.48c-.42.33-.66.55-.93.73a4.11,4.11,0,0,1-2.95,1c-1.58-.28-.51-1.77-.93-2.63a4.55,4.55,0,0,1-.16-1.2Z"/><path class="cls-150" d="M175.23,256a1.1,1.1,0,0,0-1.63-.42c-.72.44-.43,1.09-.17,1.69.09.22.21.44.29.67s.25.71-.09.94a.75.75,0,0,1-.94-.14,5.61,5.61,0,0,1-1.54-2.84c-.17-.76.07-1.58,1.26-1.38a4.81,4.81,0,0,0,1.89,0c1.42-.35,1.7.26,1.44,1.47A.29.29,0,0,1,175.23,256Z"/><path class="cls-168" d="M171.93,251.28a2,2,0,0,1-2,1.25c-1.2,0-2.43-.19-3.47.7-.47.39-.86.17-1.17-.35a11.87,11.87,0,0,0-1.13-1.33C166.84,251.73,169.31,251.28,171.93,251.28Z"/><path class="cls-169" d="M172,259.78a2.51,2.51,0,0,0,3.16-.08,3.08,3.08,0,0,1,.07,1.92c-.08,1.67-.14,1.72-1.55.85a4.52,4.52,0,0,1-2-2.33C171.56,259.8,171.72,259.71,172,259.78Z"/><path class="cls-170" d="M173.27,252.19a2.72,2.72,0,0,1,2.43-.84.32.32,0,0,1,.07.25C175.07,252.17,174.21,252,173.27,252.19Z"/><path class="cls-171" d="M175.25,261.62l-.07-1.92c.1-.35.29-.41.31,0A3.55,3.55,0,0,1,175.25,261.62Z"/><path class="cls-172" d="M172,259.78l-.36.36a1.93,1.93,0,0,1-.56-1.51c.07-.12.14-.11.21,0Z"/><path class="cls-173" d="M174.89,422.52l-.49.58c0-.5-.45-.68-.68-1C174.36,421.7,174.58,422.21,174.89,422.52Z"/><path class="cls-174" d="M171.31,258.64h-.11l-.1,0c-.47-.36-.38-.81-.18-1.5Z"/><path class="cls-175" d="M175.23,256h.51v1A1.57,1.57,0,0,1,175.23,256Z"/><path class="cls-176" d="M202.77,380.74l0-.48.86.75A.75.75,0,0,1,202.77,380.74Z"/><path class="cls-2" d="M195.12,395.62c-.79,2.19-1.6,4.36-2.35,6.54-1.18,3.44-1.37,7.08-2,10.62-.09.48,0,1.1-.69,1.11s-.76-.64-.81-1.17c-.57-6.36,1.47-11.9,5.29-16.87a1.09,1.09,0,0,1,.35-.24S195,395.61,195.12,395.62Z"/><path class="cls-2" d="M131.09,405.47a23.17,23.17,0,0,1,12.64-7.89,10.87,10.87,0,0,1,2.9-.29c.57,0,1.15.08,1.26.73s-.51.86-1,1c-1.32.35-2.64.67-4,1a29.19,29.19,0,0,0-10.21,4.84A2,2,0,0,1,131.09,405.47Z"/><path class="cls-2" d="M147.49,432.24a63.61,63.61,0,0,0-1.16,6.78c-.17,2,.15,3.71,2.19,4.63a.76.76,0,0,1,.52.93,1.14,1.14,0,0,1-.95.8,3.41,3.41,0,0,1-3.92-2.88,7,7,0,0,1-.09-2C144.41,437.39,145.89,434.79,147.49,432.24Z"/><path class="cls-2" d="M221.77,415.2A26.11,26.11,0,0,1,229,426.13c.23.63.09,1.09-.52,1.28-.86.27-1.1-.38-1.28-1a29.4,29.4,0,0,0-5.73-10.87C221.38,415.25,221.48,415.13,221.77,415.2Z"/><path class="cls-177" d="M220.9,415c-.24-.22-.5-.43-.73-.65a4.62,4.62,0,0,1-.42-.53,1.47,1.47,0,0,1,1.21.73A.3.3,0,0,1,220.9,415Z"/><path class="cls-178" d="M220.9,415l.06-.45.81.7-.29.33Z"/><path class="cls-2" d="M106.86,347.05a19.33,19.33,0,0,1,9.88-1.21,6.86,6.86,0,0,1,2.42.48c.57.28,1.25.56,1.11,1.35s-.92.82-1.53.74c-1.25-.17-2.49-.44-3.74-.65a46.24,46.24,0,0,0-6.55-.36A1.94,1.94,0,0,1,106.86,347.05Z"/><path class="cls-2" d="M167.67,270.73c-.09-.85.17-1.54,1-1.67s1.43.46,1.68,1.29a3.44,3.44,0,0,1-1.44,3.56,3.57,3.57,0,0,1-4.1-.14,3.64,3.64,0,0,1-1.28-3.65c.09-.26.18-.62.52-.63s.42.37.51.63a3,3,0,0,0,1.08,1.68,1.5,1.5,0,0,0,1.65.19A.89.89,0,0,0,167.67,270.73Z"/><path class="cls-2" d="M155.2,256.2c.89.69,1.16,1.57,1.75,2.21.2.22.43.45.74.36s.27-.46.28-.74a10.68,10.68,0,0,1,0-1.6,1.26,1.26,0,0,1,1.4-1.2,1.19,1.19,0,0,1,1.13,1.31,11.44,11.44,0,0,1-.34,2.75,2.28,2.28,0,0,1-2.45,1.69,3,3,0,0,1-2.69-2.32A4.42,4.42,0,0,1,155.2,256.2Z"/></svg>