<?xml version="1.0" encoding="utf-8"?>
<!-- Generator: Adobe Illustrator 25.0.0, SVG Export Plug-In . SVG Version: 6.00 Build 0)  -->
<svg version="1.1" id="Capa_1" xmlns="http://www.w3.org/2000/svg" xmlns:xlink="http://www.w3.org/1999/xlink" x="0px" y="0px"
	 viewBox="0 0 187.9 381" style="enable-background:new 0 0 187.9 381;" xml:space="preserve">
<style type="text/css">
	.st0{fill:#070607;}
	.st1{fill:#FAC9A1;}
	.st2{fill:#F9C7A0;}
	.st3{fill:#080708;}
	.st4{fill:#D6A682;}
	.st5{fill:#1B150C;}
	.st6{fill:#201E1B;}
	.st7{fill:#FFFCFC;}
	.st8{fill:#DCB497;}
	.st9{fill:#242422;}
	.st10{fill:#26211E;}
	.st11{fill:#FBB860;}
	.st12{fill:#FAC9A2;}
	.st13{fill:#FEFFFE;}
	.st14{fill:#FAC8A0;}
	.st15{fill:#9A6D34;}
	.st16{fill:#B07D3C;}
	.st17{fill:#0C0B0B;}
</style>
<path id="Trazado_308" class="st0" d="M0.7,101.9c0.2-0.1,0.5-0.1,0.6,0.1c0.4,0.7,0.6,1.5,0.7,2.3c0.4,1.2,1.1,2.2,2.4,1.6
	c2.4-1.1,3.7-0.1,4.7,2c0.3,0.6,0.7,1.1,1.1,1.5c1.8,2.2,4.5,2.3,6.9,2.7c1.8,0.3,3.1-1.7,4.2-3.2c1.4-1.9,2.1-4.1,3.4-6l0.1-0.1
	c0,0,0,0,0,0c0.6-0.8,1.7-1,2.5-0.5c6.6,6.6,13.7,12.7,21.1,18.4c6.4,4.8,6.3,4.9,10.8-2.2c4.2-6.6,7.2-13.7,10.5-20.7
	c3.3-7.3,7.5-14.2,12.5-20.4c3.1-4,7.6-6.5,12.6-7.1c1.4-0.2,2.8-0.4,4.6-0.6c-5-3-7.4-7.3-9-12.3c-1.3-4.3-2.2-8.7-2.5-13.2
	c-0.2-1.3,0-2.7-1.2-3.5c-1.9-1.4-1.6-2.5,0.3-3.7L86,36.5c-3.1-1.8-5.8-4.3-7.9-7.3c-6-8.5-4.1-16.7,5.1-21.6
	c7.6-4,15.7-4.2,23.8-2.8c2.4,0.4,4.5,0.8,6.2-1.7c0.8-1.2,2.5-1.7,3.9-2.2c6.3-2.2,12.1-0.1,17.2,3.2c5.2,3.3,7.8,7.9,7,14.2
	c-0.5,0.5-1,0.1-1.5-0.1c-1.4-0.8-2.8-1.5-4.2-2.1c1.8,1,4,1.7,5.7,3.3c0.8,0.6,1.7,1.2,2.5,1.8c6.7,5.1,11.8,11.5,14.1,19.7
	c2.6,9.5-1.7,16.4-11.4,18c-3.4,0.6-7,1.5-10.2,0.5c-4.3-1.2-6.4,0.8-8.4,3.8c0,0.1-0.1,0.1-0.1,0.2c0,0.6-0.3,1.2-0.8,1.6
	c-0.7,0.7-1.4,1.3-2.3,1.7c-0.9,0.5-1.9,1-2.6,0s-0.1-1.9,0.7-2.5c3.4-2.8,6.4-6.1,8.9-9.7c0.5-0.7,1.4-1.2,2.2-1.1
	c4.1,0.1,5.8-1.8,5.4-5.8c-0.3-3.4-2.6-4.7-5.7-3.3c-1.1,0.5-2.1,0.9-3.3-0.1c-2.6-2.1-7.6-0.8-8.9,2.2c-0.8,2-2.5,3.6-4.6,4.3
	c-4.4,1.5-9.2-0.8-10.9-5.1c-0.2-1.1-0.8-2.1-1.6-2.9c-0.6-0.6-1.5-0.7-2.2-0.3l0,0c0,0,0,0,0,0c-0.6,0.4-0.8,1.2-0.4,1.9
	c0.2,0.5,0.3,1,0,1.5c-0.3,0.9-1.5,1.8-0.6,2.8s1.9-0.1,2.9-0.4c0.3-0.1-0.1,0,0.2-0.1c0.7-0.2,1.3-0.2,1.7,0.4
	c0.3,0.6,0.3,1.3-0.2,1.8c-0.9,1.2-4.2,2.4-5.2,1.4c-2.1-2.2-4.4-2.5-7.1-2c-0.4,0-0.8-0.1-1.2-0.3c-1-0.4-1.4,0-1.2,1
	c0.9,6.2,2.5,12.1,7.5,16.5c3.8,3.4,9.4,4.1,13.9,1.7c0.3-0.1,0.5-0.3,0.8-0.4c0.7-0.4,1.5-0.7,2,0s-0.3,1.3-0.8,1.8
	c-0.6,0.7-1.5,1.3-2.4,1.6c-2.6,0.7-4.7,2.4-6.1,4.6c-0.8,1.2-2.3,2.4-3.6,1.4s-0.2-2.4,0.6-3.6c-1.4,0.3-2.7,0.8-3.9,1.5
	c-2.7,1.5-4.3,3.6-4.3,6.9c-0.2,3.1,1.5,6.1,4.3,7.5c1.8,1,3.8,1.7,5.9,2c6.6,1.1,13.3,0.8,19.7-1c5.7-1.7,10.7-4.4,14-9.5
	c2.7-4.1,2-6.1-2.6-7.7c-0.5-0.2-0.9-0.2-1.4-0.4c-1-0.4-2.1-0.5-2.7-1.5c0.1-0.4,0.2-0.7,0.7-0.4c14.3,0.3,26.2,5.8,35.2,16.8
	c15.7,19.4,21.6,41.7,19.2,66.4c-1.3,13.9-5.3,27.2-9.6,40.6c-0.4,1.2-1.3,2.2-1.3,3.7c0.2,6.1-1.2,12.1-1.7,18.1
	c-0.1,1.4-0.7,2.6-2,3s-2-0.7-2.7-1.5c-0.6,1.2-1.2,2.2-2.7,2c-1.5-0.2-1.5-1.6-2.1-2.8c-0.4,1.3-1.6,1.9-1.7,3.3
	c-0.2,2.5-0.6,4.9-0.9,7.4c-1.2,8-2.2,16-4.4,23.8c-1.6,5.8-4.7,11-7.1,16.5c0.2,0.5-0.1,1,0.1,1.5c0.1,0.6-0.1,1.3-0.4,1.9
	c-1.7,1.2-2.1,0-2.2-1.4c-0.2-2.4,0.9-4.4,1.9-6.4c1.9-4,4.1-7.9,5.3-12.3c2.4-8.6,3.5-17.4,4.7-26.2c0.3-2.2,0.9-4.4,0.4-6.7
	c-1-4.7-2.1-9.3-2.1-14c0-2.9-0.8-4.5-4.1-4.9c-3.5-0.4-4.1-3.4-1.5-5.9c1.9-1.9,4.2-3.3,6.2-5c2.7-2.2,2.8-2.7,1.8-6.1
	c-0.2,0-0.3,0-0.5,0.1c-18.3,7.6-37.2,12.3-57.2,11.7c-10-0.3-19.9-2.1-29.4-5.2c-2.3-0.7-4.4-1.9-6.2-3.6c-0.5-0.4-0.5-1.3-1.5-1.1
	c-1.5,0.3-1.7-0.9-1.7-1.8c-0.1-1.5,0.1-3,0.5-4.4c2.4-7.1,5.4-14,8.9-20.6c3.8-7.4,4.5-15.3,3.8-23.9c-0.9,1.3-1.4,2.2-2,3
	c-8.4,11.3-20.9,16.1-34.4,6c-9.5-7.1-17.9-15.5-25-25c-0.9-1.2-1.8-2.3-3.5-2.6c-3.1-0.3-5.7-2.5-6.7-5.4c-0.2-0.5-0.2-0.8-1.1-0.8
	C0.5,109-1.1,106.4,0.7,101.9C0.7,101.9,0.7,101.9,0.7,101.9z"/>
<path id="Trazado_309" class="st0" d="M158.4,291.1c2.6,12.5,3.6,25.2,4.8,37.8c0.1,1.3-0.1,2.6,1.8,2.8c0.7,0,0.9,0.6,0.7,1.3
	s-0.7,0.5-1.2,0.5c-4.6,0.1-9,1.4-13.6,0.9c-0.7-0.1-1.6-0.2-1.6,0.9c0,0.8,0.8,0.8,1.5,0.8c3.4,0,6.9,0,10.3-0.1
	c1.2,0,2.6-0.8,4.2,0.1c-2.8,2.3-1.3,4.9-0.7,7.3c1.2,4.6,2,9.2,3,13.8c0.8,4.1,0.9,8.4,2.4,12.4c1.1,2.9,0,5-2.8,6.6
	c-9.4,5.5-19.3,6.2-29.5,2.7c-2.1-0.7-3.9-1.9-5.3-3.6c-1.6-2-1.7-4.2-1.1-6.6c0.4-1.9,0.8-3.6,3.2-3.9c0.5-0.1,0.6-0.6,0.8-1.1
	c1.8-4.6,3.8-9.2,4.6-14.1c1-5.7,0.7-11.4-5.5-14.6c-1.3-0.7-2.1-2.3-3.1-3.6c-0.9-1.3-1.8-2.6-2.9-4.3c-0.9,4.2-1.3,8.1-3,11.5
	c-1,1.8-1.2,4-0.5,5.9c0.3,1,0.7,2,1.2,2.9c1.8,3.3,2.2,7.1,0.9,10.7c-0.1,0.3-0.6,0.7-0.2,1.1c2.1,2.1,0.9,4.7,1.1,7.1
	c0.1,1.3-0.4,2.9-1.7,3.2c-4.7,1.1-9.1,4.5-14.3,1.8c-0.4-0.1-0.8-0.1-1.2,0c-10.9,1.8-22,2.1-33,0.8c-5.1-0.5-10.2-1.1-14.9-3.5
	c-1.7-0.8-1.8-1.8-1.3-3.5c1.3-4.5,4.4-6.1,8.7-6.5c3.8-0.4,7.6-1.2,11.4-1.9c2.1-0.4,4.1-1.2,5.3-3c1.5-2.5,3.3-4.8,5.5-6.9
	c1.4-1.4,3.5-2.6,3.4-5.1c-0.1-1.8-0.2-3.5-0.3-5.3s0.2-2.8,2.3-2.1c2.3,0.8,4.7,1.4,7.1,2c0.6,0.2,1.5,0.8,1.9-0.1
	c0.5-1.2-0.7-1.4-1.3-1.5c-3-0.9-6-1.7-9-2.5c-0.9-0.2-1.4-0.4-1.8-1.5c-4.4-12.6-6.4-25.8-6.2-39.1c0-7.4-1-14.7-2.8-21.8
	c-2.9-12.2-7.5-23.9-11.5-35.8c-4.5-13.2-8-26.5-7.5-40.6c0-1.2-0.7-2.5,0.4-3.6c1.3,1.1,1.2,2.7,1.3,4.2c0.5,7.5,1.9,14.9,4,22.2
	c3.8,12.6,8.3,24.9,12.5,37.4c5.3,15.2,7.9,31.3,7.7,47.4c-0.1,8.9,2.2,17.6,4.9,26.1c0.2,1.2,1.4,2.1,2.6,2
	c7.2-0.1,14.4,0.7,21.4,2.3c0.9,0.2,1.8,0.2,2-0.8c0.7-3.8,2.3-7.5,0.6-11.5c-2.7-6.6-4.9-13.4-6.5-20.3
	c-3.9-15.7-7.2-31.5-10.2-47.4c-2.1-10.4-3.3-20.9-3.6-31.4c0-2.1,0-4.2,0-6.4c0-0.9-0.1-1.9,0.9-2.5c1.5,1.1,1.1,2.9,1.3,4.4
	c4.3,31.4,10.2,62.6,19,93.1c2.3,8.1,5.4,15.9,10.8,22.6c0.9,1.4,2.7,2.1,4.3,1.7c5.1-1,10.2-3,15.6-2c0.6,0,1.1-0.1,1.7-0.2
	c1.4,0,1.9-0.6,1.8-2.1c-0.2-2-0.4-4-0.6-6c-0.7-8.6-1.4-17.2-2.7-25.8c-1.3-8.4-3.1-16.7-4.8-25c0.1-0.8,0-1.7-0.4-2.5l0.5-1.2
	C154.7,275.4,156.7,283.2,158.4,291.1z"/>
<path id="Trazado_310" class="st0" d="M24,101.1c-1.2-2.8-2.2-5.7-3-8.6c-0.7-2.5-1.5-2.9-4.1-2.4c-0.6,0.1-1.2,0.3-1.9,0.5
	c-0.7,0.3-1.8,0.5-1.6,1.5c0.2,1.1,1.2,0.6,2,0.4c2-0.3,3,0.8,2.1,2.4c-0.8,1.7-1,3.6-0.5,5.4c0.2,1,0.4,2,0.4,3.1
	c0.1,0.9-0.4,1.8-1.2,2.1c-0.9,0.3-1.8-0.1-2.3-0.9c-0.7-0.9-1-2-1-3.2c0.1-1.2,0.3-2.4,0.6-3.6c0.2-0.7-0.2-0.9-0.8-1.2
	c-3.7-2-4.2-4.1-2.4-7.8c0.2-0.2,0.3-0.3,0.6-0.5c1.7-0.9,3.5-1.8,5.5-1.5c4.5-0.3,5.8,0.3,6.9,3.7c1.1,3,1.8,6.1,2.2,9.2
	c0,1.2,0.7,2.2,1.8,2.5c-0.9-0.2-1.8,0.2-2.3,0.9C24.6,102.7,24.2,101.9,24,101.1z"/>
<path id="Trazado_311" class="st1" d="M5.9,76.7C5.6,76,5.3,75,6,74.5c0.9-0.7,1.6,0.2,2.2,0.7c2.8,2.5,5.1,5.5,6.9,8.8
	c0.4,0.7,0.8,1.4,1.3,2l0.1,0.9l-5.3,2C8.9,85.1,7.5,80.8,5.9,76.7z"/>
<path id="Trazado_312" class="st0" d="M10.8,88.9c-0.3,0.4-0.9,0.5-1.3,0.3c-0.4-0.3-0.7-0.7-0.6-1.2C7.5,84.2,6,80.4,4.7,76.6
	c-0.5-1.2-1-2.7,0.4-3.7s2.5,0.2,3.5,1.1c3.1,2.7,5.5,6.2,7.1,10c0.2,0.6-0.1,0.7-0.5,0.6c-2.7-3.6-5-7.6-9.1-10
	c0.4,1.8,1.1,3.5,1.6,5.3c1,3.1,2.9,5.8,3.5,9.1L10.8,88.9z"/>
<path id="Trazado_313" class="st2" d="M10.8,89.6c-1.4,3.9-0.7,5.4,3.2,6.6c1.4,0.4,0.5,1,0.2,1.5c-0.6-0.1-1.3,0.1-1.8,0.4
	c-0.4,0.2-0.8,0.4-1.3,0.6c-3.2,1.2-5.2-0.1-5.7-3.4c-0.1-1.5,0.1-3,0.6-4.4c0.6-0.9,1.1-2,2.4-2.1c0.3,1.4,0.8-0.4,1.1,0l1.3,0.1
	C10.9,89.1,10.9,89.4,10.8,89.6z"/>
<path id="Trazado_314" class="st0" d="M3.1,95.6c0.8-0.1,0.9,0.5,1,1c-0.3,3.1-0.3,3.1,2.6,4.3c1,0.4,1.7,1,1.5,2.1
	c-0.2,1.1-1.2,1.8-2.3,1.8c-2,0.1-3.8-1-4.6-2.8l-0.6-0.1C0.5,99.5,1.3,97.2,3.1,95.6z"/>
<path id="Trazado_315" class="st3" d="M133,73.9c0.3,0.8,0.5,1.6-0.2,2.2c-0.7,0.5-1.6,0.5-2.2-0.1c-0.7-0.5-1.3-1.2-1.7-2
	c-1.7-2.7-2.3-5.9-1.6-9c0.5-0.5,0.6-2,1.7-0.6c0,5.2,0.3,5.8,4.1,6.6l-0.6,0.5C131.6,72.6,132.7,73.1,133,73.9z"/>
<path id="Trazado_316" class="st3" d="M11.1,100.8c-1.5,1-3.5,0.7-4.9-0.5c-1.3-1.2-2.2-2.8-2.4-4.5c-0.2-0.5-0.1-1,0.2-1.4
	c1.2-0.8,0.6-2.6,1.9-3.4c0.8,1.4-0.2,2.7-0.1,4.1c0.4,3.3,2.2,4.5,5.3,3.2c0.5-0.2,1-0.4,1.5-0.6C13.4,99.2,12.3,100.1,11.1,100.8z
	"/>
<path id="Trazado_317" class="st4" d="M141.5,19.3l-7.6-3.8c3-0.1,5.1,1.7,7.6,2.7C141.5,18.6,141.5,19,141.5,19.3z"/>
<path id="Trazado_318" class="st5" d="M66.6,186.5c0.2-0.1,0.5-0.1,0.7,0.1c0.7,1.1,1.1,2.1,0.1,3.2c-0.8,1.1,0,2.4-0.5,3.5
	C66.5,191.1,66.4,188.8,66.6,186.5z"/>
<path id="Trazado_319" class="st6" d="M66.5,184.4c0.6-0.6,1-0.5,1.4,0.2c-0.3,0.6,0.5,1.8-0.9,1.9h-0.5
	C66.1,185.8,67.5,185.1,66.5,184.4z"/>
<path id="Trazado_320" class="st7" d="M8.9,87.9l0.6,0.8l-0.8,0.8l-0.3-0.8L8.9,87.9z"/>
<path id="Trazado_321" class="st8" d="M127,64.4c0.1-0.4,0.5-0.8,0.9-0.9c0.7,0,1.3,0.1,1,1c-1-1.1-0.8,0.5-1.3,0.6
	C127.4,65,127.1,64.7,127,64.4z"/>
<path id="Trazado_322" class="st9" d="M16.5,86c-0.7-0.2-1.2-0.7-1.3-1.4l0.5-0.6C16.2,84.5,16.5,85.2,16.5,86z"/>
<path id="Trazado_323" class="st10" d="M3.6,96.6c-0.1-0.4-0.1-0.8-0.5-1c0.2-0.5,0.3-1.2,1-1.3v1.4C4.4,96.2,4.4,96.6,3.6,96.6z"/>
<path id="Trazado_324" class="st11" d="M78.5,189.9c27.8,7.9,54.4,3.4,80.6-7.2c1.1-0.4,1.9-1.3,3.1-1.3c-0.1,1,0,2,0.2,2.9
	c0.6,1.8,0,2.9-1.4,3.9c-2.3,1.8-4.6,3.7-6.9,5.6c-1.1,0.8-2.5,1.5-2,3.2s2.1,2,3.6,2.3c0.6,0.1,1.1,0.1,1.7,0
	c1.6-0.4,1.8,0.4,1.9,1.8c0.2,3.8,0,7.6,1,11.2c1.3,4.4,1.6,9.1,0.9,13.6c-2,13.8-3.7,27.8-11.1,40.1c-0.8,1.3-1.2,2.8-1.1,4.4
	c0.1,1.3,0.6,1.5,1.6,0.7c0-0.1,0.1-0.1,0.2-0.2c0.2-0.1,0.5,0,0.6,0.2c0.1,0.6,0.3,1.1,0.4,1.6c4.7,18.8,6.5,38,8.2,57.2
	c0.1,1-0.2,1.3-1.1,1.3c-2.1-0.1-4.2,0.6-6.4,0.1c-1.7-0.4-3.6-0.3-5.2,0.4c-3,1.3-6.2,1.3-9.3,2c-0.6,0.1-0.9,0.3-1.4-0.4
	c-2.3-3.2-4.8-6.2-6.5-9.8c-3.1-6.5-5.5-13.3-7.4-20.2c-5.3-19.5-9.3-39.2-12.9-59c-2-11-3.8-22.1-4.9-33.2
	c-0.1-0.2-0.3-0.2-0.4-0.2s-0.2,0.1-0.2,0.1c-0.2,3-0.2,6.1,0,9.1c0.3,6.4,0.9,12.8,1.8,19.1c1.8,13.2,4.7,26.1,7.5,39.1
	c3.1,14.4,6.2,28.9,12,42.6c0.3,0.6,0.4,1.2,0.2,1.9c-0.6,2.7-1.2,5.5-1.6,8.2c-0.2,1.2-0.5,1.5-1.8,1.2c-7.5-1.9-15.3-2.7-23.1-2.5
	l0,0c-0.9,0.1-1.8-0.5-2-1.4c-3-9.4-5.5-19-5.4-28.9c0.3-16.7-3.1-32.7-8.5-48.4c-6.8-20-15-39.7-16.1-61.2l-0.3-3.4
	c0.5-0.5-0.1-1.6,0.9-1.9C70.8,187.7,74.7,188.7,78.5,189.9z"/>
<path id="Trazado_325" class="st12" d="M127.6,66.4c-0.3,3.2,0.7,6.4,2.9,8.8c0.5,0.6,1.4,1.1,2.1,0.4c0.7-0.6,0.2-1.3-0.2-1.9
	c-0.6-0.8-1.4-1.4-1.7-2.5l1.7,0.3c2.4,0.9,5,1.2,7.1,2.8c1.7,1.2,2.2,2.5,1.3,4.5c-1.3,3.1-3.5,5.8-6.3,7.7
	c-10.5,7-21.8,8.2-33.7,4.4c-4.7-1.2-7.6-5.9-6.4-10.7c0.8-4,5.7-7.6,10.4-7.5c-0.7,0.8-1.3,1.4-1.9,2.2c-0.5,0.6-0.9,1.2-0.2,1.9
	s1.4,0.1,1.9-0.3c0.9-0.7,1.6-1.6,2.2-2.5c0.7-1.4,2-2.5,3.6-2.7c2.1-0.4,4-1.7,5.1-3.5c-0.8-0.4-1.2,0.2-1.7,0.4
	c-5.1,3-10.4,2.8-15-0.9c-6.3-5.1-7.8-12.2-8.5-20.2c2.9,2.2,5.5,2.4,8.1,0.5c1,3.5,3.2,4.4,6.2,2.8c0.7-0.4,1.9-0.7,1.3-1.9
	c-0.7-1.3-1.5-0.2-2.1,0.2c-1.1,0.6-2.2,1.5-3.2,0.2s-0.2-2.4,0.8-3.3c0.3-0.3,1.1-0.7,0.5-1c-2.4-1.1-0.7-2.6-0.1-3.1
	c1-1,2.4-0.4,3.4,0.6c0.7,0.7,1.2,1.7,1.4,2.7c0.9,3.3,3.8,5.6,7.2,5.7c3.4,0.2,6-1.3,7.2-4.1c1.3-3.1,6-5.1,9.3-3.9
	c0.3,0.1,0.5,0.3,0.6,0.7c0.3,2,1.4,1.2,2.4,0.7c1-0.5,1.8-1.3,3.1-1.1c2.7,0.4,4.4,3.5,3.8,7c-0.5,3.2-2.6,4.9-5.5,4.2
	c-0.8-0.3-1.7,0-2.2,0.7c-2.7,3.9-5.6,7.6-9.6,10.3c0,0-0.1,0-0.1,0.1c-0.4,0.3-0.5,0.9-0.2,1.4v0.1c0,0,0,0,0,0
	c0.4,0.4,1,0.4,1.4,0c1.1-0.7,2.1-1.5,3.1-2.2l0.7,0.7C127.7,65.5,127.6,66,127.6,66.4z"/>
<path id="Trazado_326" class="st12" d="M93.1,26c0.2-1.3,1.3-2.2,2.6-2.1c6.3-0.5,12.6,0.3,18.7,2.3c6.2,2,11.8,5.4,16.4,10
	c1.4,1.3,0.5,2.6,0.4,4c-0.2,1.4-1.5,0.9-2.3,1c-3.4,0.5-6.4-0.1-8.8-3c-0.9-1.1-2.1-1.9-3.1-3c-1.2-1.3-2.8-2.2-4.6-2.4
	c-1.2-0.1-2.6,0.2-2.1,1.7c0.4,1.1,0.1,1.5-0.8,1.9c-0.9,0.5-1.7,1.3-2.2,2.2c-0.2,0.4-0.4,1-1,0.8c-2.8-0.8-6.7,0.7-7.7-3.8
	c2.1-1,2.8-1.7,2.2-2.5c-1.1-1.5-2.6-0.8-3.6-0.1c-1.9,1.2-3.9,0.8-6.2,1.2C91.7,31.4,92.3,28.7,93.1,26z"/>
<path id="Trazado_327" class="st12" d="M162.2,210.8c-0.1-3.4-0.3-6.9-0.5-10.3c-0.2-2.9-0.9-3.4-3.8-3.4c-0.9,0-1.9,0.3-2.9-0.6
	c2.7-2.4,5.4-4.7,8.1-7.1c0.6-0.6,0.9-0.3,1.3,0.2c2.2,3.1,5.5,5.2,9.2,6c1.9,0.5,2.3,1.6,2,3.4c-0.8,4.5-1.4,9-2.1,13.5
	c-0.3,1.6-0.1,3.4-1,5c-0.8-0.7-0.6-1.6-0.7-2.3c-0.2-1.6-0.3-3-0.4-4.6c-0.1-0.8,0.1-1.8-1.1-1.8s-0.9,1.1-1,1.9
	c-0.2,1-0.3,2.1-0.5,3.1c-0.3,1.4,0,3-1.5,4.6c0-3,0-5.4,0-7.9c0-0.7,0.4-1.8-0.9-1.9s-0.9,1-1.1,1.7c-0.5,2-0.3,4.3-2.1,6.2
	C162.7,214.6,162.3,212.7,162.2,210.8z"/>
<path id="Trazado_328" class="st12" d="M5.4,98.6c0.9,1.4,2.2,2.4,3.9,2.2s3.1-1.2,3.3-3.2c0.2-0.4,0.5-0.8,1-0.8s0.4,0.5,0.5,0.9
	c-0.1,1.4-0.8,2.9-0.5,4.3s0.4,3.4,2.2,3.1c1.9-0.3,0.9-2.1,0.8-3.4c-0.1-2.2-1.4-4.4,0.1-6.5c0.5-0.7,1-1.4,0.4-2.1
	c-0.7-0.9-1.4-0.1-2.1,0.2c-1.1,0.6-2,0.7-2.6-0.6s0.2-2,1.2-2.4c1.5-0.5,3-1,4.6-1.3c1.1-0.3,2.2,0.3,2.5,1.4
	c1.5,4.3,2.9,8.6,4.4,12.8c-0.5,0.9-0.9,1.8-1.4,2.8c-1.2,2.6-3.1,4.9-5.4,6.6c-1.9,1.3-2.8-0.9-4.5-0.8c-2.9,0.2-4.7-2.1-5.7-4.4
	c-0.9-2.1-1.4-1.9-3.1-1s-3,0.2-3.5-1.7c-0.2-0.9-0.3-1.9-0.3-2.8c1.3,1.2,2.9,2,4.6,2.3h0.2c0,0,0,0,0,0c0.9,0.1,1.7-0.5,1.7-1.4
	c0.2-1.1-0.5-1.5-1.6-1.6c-3.4-0.6-3.7-1.1-2.6-4.7l0.5-0.9C5,96.4,4.8,97.6,5.4,98.6z"/>
<path id="Trazado_329" class="st13" d="M161,127.4c2.1,4.8,4.2,23.4,3.6,32.2C157.8,143.3,156.3,145.6,161,127.4z"/>
<path id="Trazado_330" class="st14" d="M114,49.1c-3.4-0.1-6.1-3-6-6.4c0-3.2,1.9-5.2,4.9-5.2c3.8,0,7.3,3.1,7.3,6.5
	c0,3.1-2.5,5.2-5.9,5.2H114z"/>
<path id="Trazado_331" class="st1" d="M94.3,41.9c-0.3,0.5-0.5,1,0.1,1.5s1.1,0.1,1.3-0.4c0.6-1.2,1.3-1.6,2.4-0.7
	c0.2,0.1,0.3,0.2,0.5,0.4c0,0,0,0,0,0c0.7,0.8,0.6,1.9-0.1,2.6c-1.2,1.5-2.6,2.7-4.7,2.2c-2.1-0.5-3.5-2.4-3.5-4.6
	c0-1.4,0.2-2.9,0.2-4.3c-0.1-2.1,1-2.8,2.9-2.8c0.1,1.3-1.2,2.5,0.3,3.5c0.7-1,0.8-2.8,2.1-2.6c1.6,0.2,2.1,2.1,3.1,3.9
	C96.7,39.6,95.2,40,94.3,41.9z"/>
<path id="Trazado_332" class="st15" d="M150.7,269.2c0.6,0.4,1,1.1,0.9,1.9h-0.8L150.7,269.2z"/>
<path id="Trazado_333" class="st13" d="M69.2,368.7c-1.4-0.3-2.8-0.8-4-1.6c-0.7-0.3-1-1.1-0.7-1.8c0.4-0.9,1.1-0.2,1.7-0.1
	c1.4,0.3,2.7,0.9,4.1,1.2c5.4,0.9,10.9,1.5,16.4,2.2c12.2,1.5,23.7,0.1,34.5-6.1c1.4-0.8,3.1-3,4.4-2c1,0.8-0.1,3.3-0.3,5
	c-0.1,0.9,0,1.8-1.2,2c-2.9,0.7-5.9,1.5-8.8,2.3c-0.6,0.2-1.5,0.4-1.7-0.4c-0.6-1.7-1.5-1.2-2.6-0.5c-0.8,0.4-1.6,0.7-2.5,0.8
	c-5.4,0.8-10.9,1.2-16.4,1.2C84.5,370.9,76.8,370.1,69.2,368.7z"/>
<path id="Trazado_334" class="st13" d="M168.4,370c0,1.5,0.2,3-1.2,3.8c-10,5.8-20.2,7-30.9,2c-2.2-0.8-3.5-3.1-3.1-5.5
	C145.1,379,156.7,377.9,168.4,370z"/>
<path id="Trazado_335" class="st16" d="M104.5,220.1c-0.8-3.6-0.4-7.2-0.2-11.2c0.7,0.5,1,1.3,0.7,2.1
	C103.9,214.1,104.9,217.1,104.5,220.1z"/>
<path id="Trazado_336" class="st0" d="M106,58.8c-2.2,0.9-4.7,0.5-6.4-1.1c-0.5-0.5-1.2-0.8-0.5-1.8s1.3-0.5,2,0
	c2.5,1.8,4.1,1.7,6.1-0.2c0.5-0.4,0.8-0.9,1.7-1.7C109.2,56.7,107.8,57.9,106,58.8z"/>
<path id="Trazado_337" class="st17" d="M133.7,46.2c1-0.5,2-0.9,3-0.3c0.2,0.1,0.3,0.2,0.4,0.5c0,0.3-0.2,0.6-0.5,0.6
	c-1.5,0.3-2.9,0.9-4,1.9c-0.5,0.5-0.9,0-1-0.7C132,47.2,132.8,46.6,133.7,46.2z"/>
<path id="Trazado_338" class="st3" d="M110.8,44.2c-0.4,0.3-0.9,0.3-1.3,0c-0.6-0.4-0.4-0.9-0.2-1.5c0.9-1.9,2.9-3,4.7-2.3
	s2.8,3,2,5.4C114.1,42,114.1,42,110.8,44.2z"/>
</svg>
