<svg id="Capa_1" data-name="Capa 1" xmlns="http://www.w3.org/2000/svg" viewBox="0 0 111.85 363.31"><defs><style>.cls-1{fill:#fff;}.cls-2{fill:#090609;}.cls-3{fill:#b6b6b5;}.cls-4{fill:#0b080b;}.cls-5{fill:#2f2926;}.cls-6{fill:#edecea;}.cls-7{fill:#1c1b1c;}.cls-8{fill:#f1e4dd;}.cls-9{fill:#252525;}.cls-10{fill:#211c1a;}.cls-11{fill:#574f4a;}.cls-12{fill:#100d0f;}.cls-13{fill:#231a15;}.cls-14{fill:#4d4d4d;}.cls-15{fill:#858585;}.cls-16{fill:#92837b;}.cls-17{fill:#69aeb2;}.cls-18{fill:#ca6f44;}.cls-19{fill:#fffffe;}.cls-20{fill:#fefefe;}.cls-21{fill:#e6e0dd;}.cls-22{fill:#e1e0de;}.cls-23{fill:#dfdedd;}.cls-24{fill:#c9c8c8;}.cls-25{fill:#58a6a5;}.cls-26{fill:#e8e7e6;}.cls-27{fill:#d0c7c2;}.cls-28{fill:#be683f;}.cls-29{fill:#fafafa;}.cls-30{fill:#e3dfdc;}.cls-31{fill:#cdcbcb;}.cls-32{fill:#4e9493;}.cls-33{fill:#9b867b;}.cls-34{fill:#b8ada9;}.cls-35{fill:#a2a2a1;}.cls-36{fill:#d0d0d0;}.cls-37{fill:#cbbcb4;}.cls-38{fill:#dadad9;}.cls-39{fill:#daaf9a;}.cls-40{fill:#c3b8b3;}.cls-41{fill:#bea295;}.cls-42{fill:#dbdbda;}.cls-43{fill:#4d9190;}.cls-44{fill:#fbf4f2;}.cls-45{fill:#c7beb9;}.cls-46{fill:#d5d3d4;}.cls-47{fill:#d0b8ad;}.cls-48{fill:#808180;}.cls-49{fill:#eeedec;}.cls-50{fill:#c6c5c4;}.cls-51{fill:#b6b4b2;}.cls-52{fill:#2b2b2b;}.cls-53{fill:#f0f0ee;}.cls-54{fill:#181718;}.cls-55{fill:#0d1e1d;}.cls-56{fill:#be7f58;}.cls-57{fill:#111817;}.cls-58{fill:#152a2a;}.cls-59{fill:#0a080a;}.cls-60{fill:#0b0a0c;}.cls-61{fill:#0d0c0d;}.cls-62{fill:#0f1213;}.cls-63{fill:#0e1414;}.cls-64{fill:#09070a;}.cls-65{fill:#0e0e0f;}.cls-66{fill:#0c0b0d;}.cls-67{fill:#0e1515;}.cls-68{fill:#0e0f10;}.cls-69{fill:#0e1d1d;}</style></defs><path id="Trazado_339" data-name="Trazado 339" class="cls-1" d="M111.85,170.21c0,63.94-69.57-167.2-73.34-166-5.63,1.75-9.29,5.49-11.64,10.71-.74,1.65-1.3,3.39-2,5.08a7.27,7.27,0,0,0,.94,7.32,13.4,13.4,0,0,1,2.67,6.58c.37,3.29,2,6.34,3.2,9.42s4.4,4,7.55,4.08c1.57,0,2.91.14,3.53,1.78.36,1-.8,4.15-1.63,4.81a1.15,1.15,0,0,1-1.05.28c-2.34-.68-2.54,1-2.65,2.54-.24,3.15-.18,3.15-3.25,4.3-4.8,1.33-9.64,2.57-14.5,3.66a10.71,10.71,0,0,0-8.54,8.09C9.81,77.45,9.61,82.24,9.32,87c-.46,7.55-1.27,15.07-1.74,22.62-.37,5.81-1.08,11.61-1,17.44,0,3-.29,6-.4,9.07-.16,4.15.29,8.31.5,12.46a113.78,113.78,0,0,0,2.77,19.78,35.33,35.33,0,0,0,2.44,7.78,3,3,0,0,0,1.29,1.08,1.56,1.56,0,0,1,.65,1.17c0,.46,0,.93,0,1.4.05,4.76-.4,9.54.55,14.26a19.61,19.61,0,0,0,2.38,6.35c1.1,1.82,2.49,3.25,4.81,3.33,1.78.06,2.27,1.15,2.27,2.73a36.33,36.33,0,0,1-1.66,9.59c-.83,3-1.39,6.13-3.67,8.66-1.72,1.91-1.17,3.76.92,5.46,2.3,1.86,2.48,2.4,1.59,5.24-1.5,4.76-3.3,9.43-3.7,14.48-.3,3.91.32,7.52,2.81,10.67a5.11,5.11,0,0,1,1.32,2.34,8.3,8.3,0,0,1-.36,2.58c-.94,2.89-1.07,6-2.14,8.83-.34.5-.94.71-1.32,1.16a2.57,2.57,0,0,0-.12,3,5.59,5.59,0,0,1,.26,4.39c-2.21,8.26-4.41,16.53-5.38,25.06A2.2,2.2,0,0,1,12,309c-1.34,1.82-.65,3.23.88,4.48.38,3.55-.68,6.82-2,10a3.73,3.73,0,0,1-1.11.94c-.72.4-1.54.6-2.24,1.06a8.79,8.79,0,0,0-3,4.72A64.63,64.63,0,0,0,1,349.38c0,2.2-.57,4.35-.46,6.57a3.76,3.76,0,0,0,2.38,3.71,34.34,34.34,0,0,0,24,1.49c1.5-.44,3.47-.92,3.65-2.65.26-2.46,1-5.22-1.1-7.36a8.28,8.28,0,0,1-2-3.73c-.91-3.3-2.33-6.41-3.55-9.6a68.89,68.89,0,0,1-2.76-8.41c-.48-2-1.09-4-3.3-4.86a1.34,1.34,0,0,1-.9-1c-.25-2.84-.89-5.66-.42-8.53a1.42,1.42,0,0,1,.53-.72,2.58,2.58,0,0,0,1.85-3c-.28-2.19.91-4.11,1.31-6.18,1.32-7,3.68-13.77,4.26-20.91A2.74,2.74,0,0,1,26,282.18a2.63,2.63,0,0,0,1.19-3.34,5,5,0,0,1,.18-3.52c1-2.95,1.83-5.94,2.71-8.92a3.33,3.33,0,0,1,1.71-2.27c4.05-2.07,6.53-5.52,8.27-9.6a84.4,84.4,0,0,0,4.07-13.48,7.93,7.93,0,0,1,2.56-4.38c1.84-1.6,2.69-4,3.62-6.22,2.33-5.6,4.43-11.29,6.47-17,.32-.89.49-1.95,1.55-2.4,1.27.7.72,2.13,1.25,3.13.56,4.83-.23,9.61-.5,14.41-1.11,1.93-2.62,3.66-2.77,6.08-.08,1.22-.06,1.9,1.39,2.27,4.29,1.1,4.73,1.86,4.74,6.35a17.94,17.94,0,0,1-2.93,10.1C54,261.73,53.43,271,54.69,280.47c1.1,8.28,3.8,16.2,5.49,24.35a52.49,52.49,0,0,1,1.36,13.28,6.39,6.39,0,0,1-1.13,3.84c-1.69,1.71-1.81,4-2,6.12a25.55,25.55,0,0,0,.73,9,26.88,26.88,0,0,1,1.09,6.47,4,4,0,0,0,3.51,4.11c.74.25,1.42.65,2.17.88.58.22,1.18.42,1.77.62a19.86,19.86,0,0,0,2.94.77,15,15,0,0,0,3.07,1.17c7,2,14.14,3.54,21.53,3.28a44.56,44.56,0,0,0,7.8-1.11,7.9,7.9,0,0,0,2.6-.78c1.62-.78,2.76-2.63,2.13-4.08-1.09-2.53-1.95-5.22-4.58-6.85a100.66,100.66,0,0,1-12.82-9.4c-2.36-2-4.2-4.58-6.64-6.54-1.81-1.46-3.67-2.69-6.07-2.79a2.53,2.53,0,0,1-2.56-2.38,14.73,14.73,0,0,1-.18-5.21c.77-5,.4-10,.72-15,.61-9.62,1.72-19.16,3.09-28.68,1.23-8.56,2.62-17.09,4-25.61a20.39,20.39,0,0,0,.5-2.79c.22-.66.27-1.36.46-2a1.63,1.63,0,0,1,.33-.59,3.77,3.77,0,0,1,2.51-.85,3.48,3.48,0,0,0,3.44-3c.31-1.32.91-2.56,1.15-3.89a2.63,2.63,0,0,0-.59-2.53c-.48-.48-1.21-.74-1.37-1.51a5.78,5.78,0,0,1,.36-2.67c2.29-8.16,4.11-16.43,5.85-24.71q.26-1.23.6-2.43a2,2,0,0,1,2.26-1.77l.21,0c3.13.41,5.14-1.14,6.57-3.78,2.24-4.13,3.15-8.64,3.89-13.21a4.76,4.76,0,0,0-.09-2.25,2.83,2.83,0,0,1,.81-3.44c.72-.6.72-1.63,1-2.48C110.89,171.38,110.65,170.31,111.85,170.21Z"/><path id="Trazado_340" data-name="Trazado 340" class="cls-2" d="M34.51,60.52a11.9,11.9,0,0,1,1.24-.5c1.13-.33,1.9-.67,1.22-2.17a4.24,4.24,0,0,1,.45-3.52,1.44,1.44,0,0,1,1.79-1h0c.58.14,1.32,1.21,1.81,0,.57-1.48,1.84-2.87,1.1-4.59a1.69,1.69,0,0,0-2-1c-5,.77-8.67-1.95-9.87-6.92-.49-2-1.78-3.91-2.09-6A16.05,16.05,0,0,0,25,27a6.66,6.66,0,0,1-.83-6.71c.8-2.11,1.62-4.23,2.55-6.3A18.3,18.3,0,0,1,38.1,3.63C42.61,2.13,58.79,0,62.27,0c3,.23,5.52,1.76,8.17,3.05,3.14,1.52,4.23,4,4.16,7.14A9.89,9.89,0,0,0,75.79,15c1.84,3.72,2.39,7.79,3,11.85s0,8,1.28,11.93a2.52,2.52,0,0,1-.15,2c-2,3.09-2.47,6.84-4.41,9.94a15.24,15.24,0,0,1-4.54,5c-.88.57-1,.86-.32,2,1.61,2.66,4,3.35,6.72,3.83a26.39,26.39,0,0,1,8.79,3,13.06,13.06,0,0,1,6.45,8.89c2.5,11,3.15,22.35,4.83,33.51a92.26,92.26,0,0,0,6.16,22.28c3.58,8.45,6.85,17,7.68,26.3.25,2.77.09,5.57.58,8.32v.91a9.26,9.26,0,0,0,0,4.56v.91c-.36.07-.44.33-.47.65a5.57,5.57,0,0,0-.13,1.35c.45,2.33-2.89,3.33-1.87,6.09.82,2.2-.25,4.63-.77,6.91a28.23,28.23,0,0,1-3.34,9.11c-1.71,2.71-4,4.38-7.39,3.37-1.7-.51-1.23,1-1.37,1.62-1.47,6.18-2.8,12.39-4.23,18.57-.86,3.68-1.84,7.33-2.77,11-.22.36,0,.76-.12,1.12a3,3,0,0,0-.36,1.33,2.32,2.32,0,0,1-.08.87,1,1,0,0,1-.64.56,5.12,5.12,0,0,0-2.2.62,2.73,2.73,0,0,1-.85.35,18.49,18.49,0,0,0-3.77.66,18.44,18.44,0,0,0-3.15.49,50.69,50.69,0,0,1-5.78.12c-1,0-2-.41-2.94-.44a10.79,10.79,0,0,1-1.79-.21c-1.1-.31-2.24-.46-3.36-.71s-2-.47-3-.61a5.19,5.19,0,0,1-1.29-.54c-.71-.41-1.57-.65-1.9-1.54a4.42,4.42,0,0,1,.31-2.16c0-4.94.65-9.87.42-14.81a8.21,8.21,0,0,1-.15-2.21c0-.36,0-.79-.61-.52-2.54,6.79-4.89,13.65-7.72,20.31-1,2.35-1.62,5.31-4.6,6.45-.87.33-.7,1.42-.89,2.18-1.29,5.05-2.38,10.16-4.55,14.94-1.92,4.22-4.33,8-8.94,9.75a1.12,1.12,0,0,0-.78.95,70.49,70.49,0,0,1-3.31,10.8,1.71,1.71,0,0,0,.21,1.65,3.07,3.07,0,0,1-1.58,4.64c-1,.38-1,.89-1.06,1.65-.94,8.22-3.27,16.14-5.27,24.12a16.74,16.74,0,0,0-.21,4c0,1.44-.57,2.15-2.08,1.83a6.74,6.74,0,0,0-1,.37,3.93,3.93,0,0,1-2.82-.29c-.45-.22-.65-.68-1-1-2.61-1.43-2.51-1.68-1.28-4.38.68-1.5.53-3.38.83-5.08a190,190,0,0,1,5.3-22.69,2.31,2.31,0,0,0-.42-2.23c-.92-1.47-1.56-3,.1-4.44.45-.24,1,.16,1.44-.33a52.91,52.91,0,0,1,1.87-9.07c.86,0,.79.73.94,1.27a23.51,23.51,0,0,1-.73,5.14,3.81,3.81,0,0,0,.56,3.24c.84,1,1.74,2,3.2,1.79s1.55-1.49,1.88-2.57c.67-2.24,1.45-4.44,2.07-6.71.28-1,0-1.57-1.1-1.64a10.21,10.21,0,0,1-5.05-1.83A4.31,4.31,0,0,1,21,263c-2.55-3.08-4.47-6.43-4.51-10.59a39.44,39.44,0,0,1,2.35-12.63c.58-1.8,1.13-3.6,1.81-5.36.62-1.6.3-2.56-1.28-3.48-3.51-2-3.56-5.31-.23-7.81a1.46,1.46,0,0,0,.52-.92c1.65-5.25,3.28-10.51,3.53-16.08.07-1.51-.19-2.32-1.93-1.92a3.57,3.57,0,0,1-3.42-1.34c-3.26-3.25-4.18-7.45-4.64-11.77a56.66,56.66,0,0,1,0-11.79c1.12.17.88,1.22,1.24,1.88.75,3.72,1.12,7.5,2,11.2A23.41,23.41,0,0,0,18,197.16c1.78,3.86,4.46,5,8.47,3.53a25.68,25.68,0,0,1,3.4-1.26,2.29,2.29,0,0,0,1.77-2.35,40.06,40.06,0,0,0,0-4.1c0-1.65.09-3.17,1.9-4,1.12-.51.32-1.07-.13-1.53a52.87,52.87,0,0,1-6-6.49,6.47,6.47,0,0,1-1.32-2.36,1.42,1.42,0,0,1,.13-.61c1-.75.3-2,.78-2.85a44.6,44.6,0,0,1,2.3-7.84,3.13,3.13,0,0,0-.62-3.55,4.2,4.2,0,0,1-1.06-3.58c.62-6.48,1-13,1.62-19.45a101,101,0,0,0-1.1-29.4,11.42,11.42,0,0,1-.27-2.48,1,1,0,0,1,.41-.61c1.42.22,1.66,1.44,2,2.48a57.43,57.43,0,0,1,2.59,12.45c1.13,10.09,0,20.11-.8,30.15-.17,2.2,0,4.4-.19,6.59a2.44,2.44,0,0,0,1.31,2.24c8,5.89,16.17,11.53,24.47,17a2.64,2.64,0,0,0,3.34,0c3.2-2.3,6.28-4.77,9.52-7a2.64,2.64,0,0,0,1-2.61c-.64-9.67-1.4-19.33-2.5-29-1.36-11.9-3.12-23.75-4.78-35.61-1.55-11-3.24-22-4.47-33.13a2.13,2.13,0,0,0-.52-1.4,59.84,59.84,0,0,0-5.11,6c-.9,1.12-1.69,2.33-2.68,3.38-1.64,1.75-2.9,1.63-4.11-.45a82,82,0,0,1-4-8.44c-1-2.22-2.16-4.35-3.1-6.58S38,60.79,35.47,61.47C35,61.33,34.42,61.24,34.51,60.52Z"/><path id="Trazado_341" data-name="Trazado 341" class="cls-1" d="M111.85,163.84c-1-2.54-.79-5.26-1.07-7.9-.06-.58-.13-1.16-.21-1.73a83.84,83.84,0,0,0-7-23.26c-4.86-10.81-6.8-22.23-8.09-33.84-.87-7.83-1.84-15.64-3.45-23.37A12.48,12.48,0,0,0,85,64.62c-3.49-1.73-7.29-2.44-11.08-3.15-1.32-.25-2.54-.23-2.63-2.23-.06-1.3-1.9-1.56-2.83-2.57,4.88-2.69,6.9-7.28,9.15-12.1C79.25,41,78.92,38,78.66,34.43c-.44-6.13-.4-12.37-3-18A20.22,20.22,0,0,1,73.8,8.09a3.88,3.88,0,0,0-2.08-3.46A39.29,39.29,0,0,0,62.27,0C78.19,0,111.85,109.83,111.85,163.84Z"/><path id="Trazado_342" data-name="Trazado 342" class="cls-3" d="M111.85,169.3a4.94,4.94,0,0,1,0-4.55Z"/><path id="Trazado_343" data-name="Trazado 343" class="cls-2" d="M83.26,245.86q-1.74,11.34-3.46,22.67c-2,13.42-3.7,26.87-3.88,40.47,0,3.78-.71,7.55-.28,11.35.14,1.22.34,2,2,1.92,3.1-.14,5.45,1.66,7.49,3.74a86.62,86.62,0,0,0,13.11,11.54,43.89,43.89,0,0,0,4.56,3c3,1.53,4.29,4.37,5.45,7.16,1.34,3.17-.85,5.61-5,6-.52.31-.91.27-1-.4.46-.83,1.34-.92,2.11-1.21a3.12,3.12,0,0,0,2.34-2.62c-4.12,3.55-8.92,3.27-13.7,2.81-7.9-.77-15.42-3.17-23-5.49-2.73-.84-5.57-1.29-8.27-2.68.24,2,2.43,2.22,3,3.76-.09.4-.27.65-.73.45A4.79,4.79,0,0,1,59.51,343a17,17,0,0,0-.83-5.05,30.24,30.24,0,0,1-.46-13A4.67,4.67,0,0,1,60,321.76c.46-.07.62.22.71.6-.95,4.54-1.57,9.09-.58,13.72.73,3.44,2.35,5.87,6.06,6.81,8.28,2.11,16.35,5.06,24.86,6.27a25.62,25.62,0,0,0,11-.47c1.09-.32,2.29-.61,2.59-1.92s-.56-2.28-1.51-3.09a23.63,23.63,0,0,0-3-2.07,73.5,73.5,0,0,1-12.84-10.06,46.55,46.55,0,0,0-5.79-5.44c-3.22-2.22-5.48-2-8.28.73l-.8.8c-3.77,3.67-9.08,2.07-10.4-3.13.26-.58.46-1.24,1.33-.85a12,12,0,0,1,1,1.24c2.38,2.84,4.13,2.71,6.74.19,2.28-2.21,2.78-4.51,2.18-7.53-1.06-5.31-.63-10.71-.23-16.06.68-9.28,1.39-18.56,2.64-27.79a183.43,183.43,0,0,1,5.48-26.45c.31-1.07.51-2.24,1.54-3C83.78,244.54,83.36,245.25,83.26,245.86Z"/><path id="Trazado_344" data-name="Trazado 344" class="cls-2" d="M60.46,322.24l-.45-.48c1.57-3.31,1.07-6.81.65-10.21-1-8.34-3.64-16.34-5.42-24.52-1.72-7.9-2.62-15.81-.72-23.82,1-4.18,3.17-7.82,5.23-11.5a17.93,17.93,0,0,0,2.13-10.23,4,4,0,0,0-4.82-3.85c-1.57.26-1.7-.4-1.57-1.56.29-2.75.81-5.39,3.1-7.28,0,.76,0,1.52,0,2.29.28,1.12,1.22.92,2,1l.74.47a9.89,9.89,0,0,0,2.78.76c1.09.26,2.19.46,3.29.7a16.71,16.71,0,0,0,2.12.2,9.18,9.18,0,0,0,3,.39c2.07-.05,4.15.09,6.22-.08a34,34,0,0,0,3.64-.58c1-.24,2-.37,3.08-.51l.2-.43c1,.21,1.81-.49,2.75-.46l.24-.48c.31-.3.49-.6,0-.89-.89-.83.43-.89.48-1.39a1.83,1.83,0,0,1,1.81,0c2.33,2.95-.37,5.45-.8,8.13-.27,1.66-1.73,2.29-3.38,2.39a26,26,0,0,0-2.64.44,2.42,2.42,0,0,1-1.45.56c-5.44,0-10.9.37-16.3-.78-.92-.2-1.91-.38-1.79,1.14.32,4.45-1.46,8.32-3.51,12C58.17,259,56,264.41,55.73,270.49a68.25,68.25,0,0,0,2.15,17.77c1.4,6.05,3.13,12,4.4,18.12a134.59,134.59,0,0,1,1.79,15.1c.08.85.07,1.7-.91,2.11l-.79.9C61.24,324.16,61.23,322.88,60.46,322.24Z"/><path id="Trazado_345" data-name="Trazado 345" class="cls-2" d="M12.65,313.58l1.06.5c.46,3.51-.43,6.85-1.28,10.19-.17.68-.83,1.42-.07,2.07a1.51,1.51,0,0,0,1.52.07c.92-.32.88-1.14.88-1.88,0-3.39.11-6.77,1.4-10l1.3,0c-.72.27-.69.81-.63,1.47.13,1.5.17,3,.22,4.53.05,1.8-.42,3.56,2.23,4.36,1.74.52,2.09,2.83,2.51,4.6,1.62,6.85,5.11,13.07,6.81,19.89.06.21.12.51.28.58,3.55,1.83,2.45,5.21,2.56,8.08.08,2.07-1.77,2.84-3.42,3.45A34,34,0,0,1,12.36,363,32.22,32.22,0,0,1,2.2,360,3.36,3.36,0,0,1,0,356.69c.14-9.25,1-18.4,4.15-27.18.66-1.83,1.5-3.66,3.41-4.62.43-.16.84-.26,1.14.23.11.68-.55.83-.84,1.24a8.94,8.94,0,0,0-1.27,2,4,4,0,0,0-.38,3.22,2.07,2.07,0,0,1-.23,1c-1.89,3.58-2,7.58-2.67,11.44a17,17,0,0,0,0,7,4.08,4.08,0,0,0,2.58,3.16c6.29,2.58,12.71,2.41,19.21,1.12,1.7-.34,1.61-1.64,1.43-2.85a44.91,44.91,0,0,0-4-12.52,51.3,51.3,0,0,0-3.21-6.26c-2-3.07-4.17-4-7.73-3.15-1.4.32-2.66,1.09-4.13,1.18a1.52,1.52,0,0,1-1-.45c-.76-.85-.39-1.71,0-2.58A8.67,8.67,0,0,1,8,326.25a8.9,8.9,0,0,0,2.34-2.66A33.15,33.15,0,0,0,12.65,313.58Z"/><path id="Trazado_346" data-name="Trazado 346" class="cls-2" d="M34.51,60.52a1.05,1.05,0,0,0,1,.49c-.25,1.18-1.33,1.09-2.14,1.33-4.57,1.35-9.14,2.71-13.77,3.85-4.16,1-6.29,3.7-7,7.72-.79,4.56-1,9.18-1.5,13.77-.94,9.18-1.37,18.41-2.19,27.6-.21,2.42-.29,4.85-.31,7.26-.06,6.34-.89,12.64-.43,19s.58,12.54,1.5,18.77a125.67,125.67,0,0,0,2.66,12.44,6.45,6.45,0,0,1,.29,3.79c-.21.38-.44.73-1,.51-2.48-4.27-3.08-9.1-3.92-13.82-2.92-16.38-2.38-32.86-1.09-49.35.84-10.72,1.6-21.44,2.44-32.16.31-3.84.71-7.67,2.23-11.29a9.24,9.24,0,0,1,6.29-5.76C23.21,63.22,28.87,61.91,34.51,60.52Z"/><path id="Trazado_347" data-name="Trazado 347" class="cls-2" d="M13.61,178.42l-.57-.88a1.42,1.42,0,0,1,.63-.48,14,14,0,0,1,2.41-.25,32.17,32.17,0,0,0,5.61-.82c1.51-.31,2.06-1.14,2-2.74-.86-14.13-2-28.25-1.64-42.43a78.62,78.62,0,0,1,4.07-23.65,5.19,5.19,0,0,1,1.24-2.39c.6-.41.94-.11,1.2.43a4,4,0,0,1-.39,3.13l0,0a127.37,127.37,0,0,0-2.43,30.49c.53,10.13.91,20.27,1.7,30.39a36.85,36.85,0,0,1-.28,6.12c-.27.89-.16,1.9-.83,2.66l0,0c-2.26.54-4.6.57-6.86,1.09H16.11a4.74,4.74,0,0,1-2.23-.34Z"/><path id="Trazado_348" data-name="Trazado 348" class="cls-4" d="M102.3,353.24l.93.39c-4.32,1.73-8.85,1.53-13.33,1.29a70.55,70.55,0,0,1-16.1-3.11c-.29-.09-.59-.09-.61-.48l.21-.33c1.11-.71,2.2-.14,3.28.09,5.75,1.2,11.51,2.39,17.44,2.35,2,0,3.89-.47,5.85-.56C100.77,352.84,101.62,352.49,102.3,353.24Z"/><path id="Trazado_349" data-name="Trazado 349" class="cls-5" d="M21,263c.47,0,1-.08,1.24.45-.38,1.13.15,2.62-1.33,3.3-.24-.43.09-1.05-.43-1.39Z"/><path id="Trazado_350" data-name="Trazado 350" class="cls-6" d="M7.51,326.28a1.79,1.79,0,0,1,1.06-1,11.22,11.22,0,0,0,.9-1.27l.89-.46c-.45,1.12-.44,2.58-2.08,2.81A.59.59,0,0,1,7.51,326.28Z"/><path id="Trazado_351" data-name="Trazado 351" class="cls-7" d="M73.19,351.33c-1-.3-2.47.34-2.74-1.39l.31-.22c1.18,0,2.63-.39,2.41,1.66Z"/><path id="Trazado_352" data-name="Trazado 352" class="cls-8" d="M82.79,240.83l1.32,0a2.94,2.94,0,0,1,0,.42c-.38.52-.32,1.23-.73,1.73a.71.71,0,0,1-.55.32C81.33,242.48,82.14,241.65,82.79,240.83Z"/><path id="Trazado_353" data-name="Trazado 353" class="cls-9" d="M70.45,349.93c-1.07.95-1.93.18-2.82-.34a1.08,1.08,0,0,1,.68-.77c.93,0,2-.2,2.14,1.19Z"/><path id="Trazado_354" data-name="Trazado 354" class="cls-10" d="M83.09,243.06l.2-.44c.45-.07.61.1.47.54-.13.91,0,1.87-.5,2.7-.25-.46.08-1.1-.48-1.46C82.25,243.81,82.62,243.43,83.09,243.06Z"/><path id="Trazado_355" data-name="Trazado 355" class="cls-11" d="M58.25,211.26c.12-.52.46-1.17.75-.28a9.74,9.74,0,0,1,0,3C58.38,213.17,59.12,212,58.25,211.26Z"/><path id="Trazado_356" data-name="Trazado 356" class="cls-7" d="M64,348.24l.57-.43c.83-.53,1.42-.14,1.94.51,0,.4-.2.58-.54.69A3.57,3.57,0,0,1,64,348.24Z"/><path id="Trazado_357" data-name="Trazado 357" class="cls-12" d="M14,181.14l-.77-1.81c-.07-.39-.22-.82.39-.92l0,0A1.66,1.66,0,0,1,14,181.14Z"/><path id="Trazado_358" data-name="Trazado 358" class="cls-2" d="M65.92,349l.46-.41c.8-.5,1.34-.13,1.79.54l-.54.46Z"/><path id="Trazado_359" data-name="Trazado 359" class="cls-13" d="M9.47,324.05c.16.75-.09,1.21-.9,1.27l-1-.43Z"/><path id="Trazado_360" data-name="Trazado 360" class="cls-14" d="M83.76,243.16l-.47-.53c.23-.5.08-1.21.81-1.42A2.67,2.67,0,0,1,83.76,243.16Z"/><path id="Trazado_361" data-name="Trazado 361" class="cls-15" d="M18.63,274.43c.11.16.34.34.32.48-.08.53-.32.13-.53.07-.41-.1-.82-.15-1.23-.22C17.54,274.12,18.13,274.47,18.63,274.43Z"/><path id="Trazado_362" data-name="Trazado 362" class="cls-16" d="M90.92,229.83l-1.8,0,.38-.93Z"/><path id="Trazado_363" data-name="Trazado 363" class="cls-2" d="M13.56,177.5l-.52,0c-.46-.15-1.06.13-1.39-.45l.65-.65a1.52,1.52,0,0,1,1.4.53A.4.4,0,0,1,13.56,177.5Z"/><path id="Trazado_364" data-name="Trazado 364" class="cls-17" d="M13.58,177.11a1.45,1.45,0,0,1-1.28-.67c-.93-4.28-2-8.53-2.78-12.84C7.05,150,7,136.29,7.87,122.57c.72-11.73,1.65-23.44,2.56-35.16.34-4.45.8-8.91,1.39-13.34s2.88-7.43,7.52-8.56c5.42-1.33,10.76-3,16.14-4.51,3.46-.55,3.54-.59,5.2,2.79,2.46,5,4.76,10.13,7.2,15.17,1.15,2.39,1.53,2.39,3.21.3l8.8-11c.83,6.34,1.55,12.16,2.36,18q2.82,20.25,5.69,40.5c2,14.49,3.49,29,4.22,43.66,0,.77.08,1.44-.75,1.94-3.78,2.26-7.1,5.16-10.65,7.76a2.06,2.06,0,0,1-2.77.06c-8.71-5.78-17.27-11.77-25.75-17.88a2.62,2.62,0,0,1-1.13-2.67c.46-8.86,1.47-17.68,1.57-26.56a69.47,69.47,0,0,0-2.79-21.55c-.35-1.14-.32-2.6-1.76-3.18-.56-.9.15-1.77.09-2.66.25-.89.06-1.88.61-2.71,0-.23.29-.42.14-.69a1.12,1.12,0,0,1-.17.58,3.69,3.69,0,0,1-1.08,1.83c-3.2,7.79-4.5,16-5,24.33-.69,11.9.3,23.76,1.07,35.62.22,3.25.33,6.51.61,9.76a1.7,1.7,0,0,1-1.3,2l-.2,0a28.55,28.55,0,0,1-6.94,1C15.22,177,14.35,177.47,13.58,177.11Z"/><path id="Trazado_365" data-name="Trazado 365" class="cls-17" d="M61.32,68.56c2.59,3.74,4.86,7,7.15,10.28.46.65.73,1.79,1.7,1.59s1-1.39,1.16-2.25c.58-4.54.19-9.09.07-13.64,0-.9,0-1.8,0-2.94,4.39,1.45,8.77,2.36,12.67,4.6a10.64,10.64,0,0,1,5.32,7c2.18,8.86,3.16,17.91,4.13,26.93A118.75,118.75,0,0,0,102,133.65c4,9.6,6.78,19.61,6.81,30.16,0,2.28-.21,4.55-.26,6.82a3.86,3.86,0,0,1-3,4.13c-.65.17-1.23.61-1.88.78-1.28.33-3.12,1.64-3.7.74a4.92,4.92,0,0,1,.09-4.57c4.58-7.51,3.13-15.25.69-22.8-5.83-18.08-8.65-36.65-9.86-55.54a3.08,3.08,0,0,0-1-2.59c0,2.72,0,5.44,0,8.15s.09,5.46.33,8.18a193.36,193.36,0,0,0,8.3,41.32,47.28,47.28,0,0,1,2.15,13.4A12,12,0,0,1,97,170.57c-3.62,3.88-7.53,7.48-11.26,11.26-.77.78-1.22.57-1.82-.08a63.29,63.29,0,0,0-8.54-7.82,2.23,2.23,0,0,1-.8-2c-.73-13.47-2-26.9-3.6-40.3-2.25-18.81-5.31-37.48-9-56.06A48.66,48.66,0,0,1,61.32,68.56Z"/><path id="Trazado_366" data-name="Trazado 366" class="cls-18" d="M65,40.42a7.9,7.9,0,0,1-4.78,1,7.36,7.36,0,0,0-2.47.22c-2.87.72-4.26-.63-3.57-3.54.08-.35.41-.65.14-1.05-1.87,1.33-2,3.14-.34,5a2.57,2.57,0,0,1,1,2.32c-.35,2.14.89,3.52,2.73,4.2a17.08,17.08,0,0,0,13.67-.52A3.44,3.44,0,0,0,73.71,45c0-.92.6-1,1.22-.86,1,.19.46.92.31,1.38C72,55.27,62.36,59.62,54.4,53.32c-.44-.35-1-.78-1.36-.23s.32.91.68,1.23a13.48,13.48,0,0,0,7.73,3.49c2.49.24,3,1.24,1.82,3.3-3,5-3,5-7.91,2.09-3.64-2.16-7.18-4.51-10.84-6.64C43,55.67,42.21,54.82,43.08,53a13.05,13.05,0,0,0,.58-2.83c1.09.75,2,1.43,3,2,.38.23.93.83,1.37.24s-.07-1.12-.61-1.44a13.68,13.68,0,0,1-4.1-3.18,22.49,22.49,0,0,1-2-2.77c-.77-1.35-1.41-2.64-3.39-2.07a2.44,2.44,0,0,1-1.66-.58c-2.32-1.65-2.53-6.78-.33-8.56a3.59,3.59,0,0,1,4.23-.46c1.86,1,3,.32,3.06-1.87.07-1.65-.72-3.29-.08-4.95,1.71-4.45,4.7-8.12,7.74-11.63,1.71-2,4.74-2,7.29-2,4.22-.06,8.41-1.08,12.67-.31A2.83,2.83,0,0,1,73,14.26c1.92,3.51,2.72,7.36,3.42,11.24-.87.37-.9.41-1.5,0a7.51,7.51,0,0,0-4-1.43,6.86,6.86,0,0,0,2.38,1c1.42.59,3.12.87,3.44,2.82-.09,4.28.43,8.57-.35,12.83-.4,2.18-1.68,2.82-3.6,1.68l-3.29-2c-.53-.56-1.61.3-2-.75.12-.8.87-1.22,1.14-1.9a2.18,2.18,0,0,0-1-2.92l-.07,0c.78,1,1.39,2,.58,3-1.08,1.38-2.42.7-3.91.15.33.68.93.89,1.18,1.36S65.47,40.23,65,40.42Z"/><path id="Trazado_367" data-name="Trazado 367" class="cls-1" d="M22,232.55a46.05,46.05,0,0,0,20.32,5.53c1.1,0,1.46.34,1.19,1.47a89,89,0,0,1-5.42,16.78,15.82,15.82,0,0,1-3.53,5,8.75,8.75,0,0,1-12.29.16c-3.94-3.69-5-8.33-3.9-13.49S20.73,237.82,22,232.55Z"/><path id="Trazado_368" data-name="Trazado 368" class="cls-17" d="M68,4.38a69.38,69.38,0,0,0-11.7.7c-9.65,1.43-14.69,7.6-17.22,16.45A52.81,52.81,0,0,0,37.36,30c-.06.49.2,1.18-.45,1.4-3.72,1.24-4.36,4.21-4.24,7.91-4.05-5.3-3.78-11.12-3.4-17-1.22,1.65-.89,3.72-1.72,5.65A7.42,7.42,0,0,1,26,20c.78-2.05,1.69-4.05,2.65-6a16.08,16.08,0,0,1,10.6-8.88C44.53,3.6,49.74,2,55.21,1.58,59.76,1.21,64.08,1.82,68,4.38Z"/><path id="Trazado_369" data-name="Trazado 369" class="cls-18" d="M14,181.14a5.15,5.15,0,0,0-.41-2.76l2.24,0a6.86,6.86,0,0,0,3.68.07c2.27-.34,4.5-1.27,6.85-.54,1.59,3.83,4.67,6.43,7.6,9.15,1.83,1.7,1.88,1.7-.39,2.53a1.68,1.68,0,0,0-1.29,1.84c0,1.74,0,3.49-.07,5.22s-.41,3.14-2.93,3.61-4.56,1.5-7.16,1.39a4.1,4.1,0,0,1-3.76-2.32c-2-3.39-2.71-7.2-3.35-11C14.6,186,14.32,183.54,14,181.14Z"/><path id="Trazado_370" data-name="Trazado 370" class="cls-1" d="M26.89,175.66c-.27-5.9-.52-11.8-.81-17.69-.57-11.65-1.63-23.29-.67-35a107.59,107.59,0,0,1,1.91-13.25c.12-.55.1-1.25.85-1.46,2.63,11,2.59,22.17,1.63,33.37-.55,6.41-1,12.82-1.58,19.23a2.75,2.75,0,0,0,1.55,3c1,.51,1.09,1.17.69,2.19a79.27,79.27,0,0,0-3.16,9.64C27.14,175.91,27,175.89,26.89,175.66Z"/><path id="Trazado_371" data-name="Trazado 371" class="cls-17" d="M49.56,78.25c-1.48-3.19-2.78-6-4.06-8.79C43.76,65.66,41.85,62,38.76,59a2.87,2.87,0,0,1-.91-1.78c-.13-1-.21-2.16.67-2.72s1.44.51,2.08,1c5.1,3.68,10.49,6.91,15.91,10.09,1.74,1,1.72,1.69.51,3.13C54.54,71.69,52.24,74.8,49.56,78.25Z"/><path id="Trazado_372" data-name="Trazado 372" class="cls-1" d="M18.5,281.11c1.38.69,2.27,1.46,3.25,1.59,2.33.29,2.24,1.49,1.93,3.36-1.29,7.52-3.51,14.81-5.19,22.23-.37,1.62-1.57,1.94-3,1.54-1.21-.35-2.67-.58-2.3-2.45C15,298.66,16.72,289.94,18.5,281.11Z"/><path id="Trazado_373" data-name="Trazado 373" class="cls-17" d="M99.3,194.87c-1.43.19-1.91-.32-1.64-2,.66-4.18,1.09-8.4,1.57-12.61.14-1.33.48-2.14,2-2.44a22.05,22.05,0,0,0,5.1-1.84c1.26-.58,2.08-.42,1.78,1-1.21,5.83-2.34,11.72-5.94,16.72A2.84,2.84,0,0,1,99.3,194.87Z"/><path id="Trazado_374" data-name="Trazado 374" class="cls-19" d="M20.92,266.76c.89-.92-.16-2.62,1.33-3.3,2.15,1.6,4.65,2,7.43,2-1,3.16-1.89,6.17-2.81,9.19-.46,1.52-.81,3.23-3,2.94-2-.27-4.07-2.52-3.9-4.32C20.17,271.07,20.6,268.92,20.92,266.76Z"/><path id="Trazado_375" data-name="Trazado 375" class="cls-17" d="M69.45,76.91A77.47,77.47,0,0,0,62,67.36c-.53-.57-.44-.94,0-1.49a42.73,42.73,0,0,0,4.05-6c.32-.51.48-1.49,1.43-1.09s1.92.63,1.93,1.69C69.49,65.8,69.45,71.14,69.45,76.91Z"/><path id="Trazado_376" data-name="Trazado 376" class="cls-20" d="M16.16,314.56c.4,2.06-.64,4-.65,6,0,1.66-.14,3.32-.07,5,.05,1.22-.25,1.73-1.58,1.77-3.09.11-3.18.08-2.11-2.78,1.26-3.36,1.11-7,2-10.42A4.45,4.45,0,0,0,16.16,314.56Z"/><path id="Trazado_377" data-name="Trazado 377" class="cls-2" d="M76.77,27.92c-1.16-2.14-3.47-2-5.36-2.76-.73-.28-2,0-1.78-1.21s1.39-.65,2.23-.56c1.76.19,2.9,1.72,4.57,2.11C77.11,26.23,76.76,27.1,76.77,27.92Z"/><path id="Trazado_378" data-name="Trazado 378" class="cls-21" d="M27.25,229.78a22.87,22.87,0,0,1-8.5-4.23c3.23.71,6,2.58,9,3.8C27.71,229.63,27.45,229.67,27.25,229.78Z"/><path id="Trazado_379" data-name="Trazado 379" class="cls-22" d="M61.72,43c1-.72,2.09-1.2,2.77.35A1.12,1.12,0,0,1,64,44.88c-.77.23-1.74.66-2.26-.52A1.43,1.43,0,0,1,61.72,43Z"/><path id="Trazado_380" data-name="Trazado 380" class="cls-23" d="M68.64,44.09a2.33,2.33,0,0,1-1.57.68c-.8-.06-1.19-.41-1.17-1.25s.37-1.24,1.23-1.05c.51.11,1,.24,1.51.37A.84.84,0,0,1,68.71,44Z"/><path id="Trazado_381" data-name="Trazado 381" class="cls-24" d="M61.72,43v1.35c-.06,0-.11-.12-.18-.13-.84-.13-1.76,1.06-2.53-.15-.21-.32-.36-.77,0-1A2.43,2.43,0,0,1,61.72,43Z"/><path id="Trazado_382" data-name="Trazado 382" class="cls-25" d="M33.55,41.44a10,10,0,0,0,2.79,2.71c.08.45,0,.71-.55.51a3.29,3.29,0,0,1-2.67-2.26C32.94,41.94,32.71,41.45,33.55,41.44Z"/><path id="Trazado_383" data-name="Trazado 383" class="cls-26" d="M64.11,48.72c-.66-.13-1.46.21-1.43-.77a1.07,1.07,0,0,1,1.06-1.08h.12c.85,0,1.21.54,1.26,1.27C65.18,49.14,64.28,48.34,64.11,48.72Z"/><path id="Trazado_384" data-name="Trazado 384" class="cls-6" d="M62,47.58c.14.48-.07.73-.54.71-.75,0-1.63-.07-2-.81-.2-.44.22-1,.86-1.08A1.42,1.42,0,0,1,62,47.56Z"/><path id="Trazado_385" data-name="Trazado 385" class="cls-22" d="M68.64,44.09V42.84c.78-.06,1.64-.38,2.21.42.25.34-.07.68-.32,1C69.85,45,69.24,44.63,68.64,44.09Z"/><path id="Trazado_386" data-name="Trazado 386" class="cls-27" d="M35.66,231.71a10.38,10.38,0,0,1-4.21-1c1.86-.56,3.54.59,5.33.53C36.72,232.19,36.11,231.75,35.66,231.71Z"/><path id="Trazado_387" data-name="Trazado 387" class="cls-28" d="M65,40.42l.45-.73a1.41,1.41,0,0,1,2-.3,1.62,1.62,0,0,1,.32.32c.47.56,1.39.07,1.8.77Z"/><path id="Trazado_388" data-name="Trazado 388" class="cls-29" d="M79.08,234.77l-6.78,0c-.16-.08-.22-.16-.17-.25s.1-.14.15-.14l6.28-.07C79,234.1,79.14,234.35,79.08,234.77Z"/><path id="Trazado_389" data-name="Trazado 389" class="cls-30" d="M43.78,232h3.56v.48H40.92C41.69,231.28,42.81,232.09,43.78,232Z"/><path id="Trazado_390" data-name="Trazado 390" class="cls-31" d="M79.09,234.77l-.53-.44a8.81,8.81,0,0,1,3.14-.48c.44-.08,1-.41,1,.46A15.28,15.28,0,0,1,79.09,234.77Z"/><path id="Trazado_391" data-name="Trazado 391" class="cls-1" d="M27.25,229.78l.5-.43a3.17,3.17,0,0,1,2.66,1c-1,.66-1.86-.18-2.78-.35C27.5,230,27.38,229.86,27.25,229.78Z"/><path id="Trazado_392" data-name="Trazado 392" class="cls-32" d="M35.79,44.66l.55-.51a6.47,6.47,0,0,0,2.89.39C37.84,46.25,36.83,45,35.79,44.66Z"/><path id="Trazado_393" data-name="Trazado 393" class="cls-33" d="M67.32,234.28a8.75,8.75,0,0,1-3.34-.72c.05-.3.34-.33.54-.46,1.07.33,2.27.14,3.27.78A.72.72,0,0,1,67.32,234.28Z"/><path id="Trazado_394" data-name="Trazado 394" class="cls-34" d="M43.78,232c-.92.4-2-.3-2.86.48a2.74,2.74,0,0,1-1.94-.33c.35-.53,1-.1,1.42-.43A8.23,8.23,0,0,1,43.78,232Z"/><path id="Trazado_395" data-name="Trazado 395" class="cls-35" d="M82.71,234.31l-1-.46c1.24-.33,2.43-1.07,3.77-.4C84.72,234.27,83.59,233.88,82.71,234.31Z"/><path id="Trazado_396" data-name="Trazado 396" class="cls-36" d="M68.06,47.78c-.07.12-.13.32-.23.34-.61.15-1.25.65-1.83.17-.29-.24,0-.68.28-.94.84-.69,1.34-.11,1.84.48Z"/><path id="Trazado_397" data-name="Trazado 397" class="cls-37" d="M88.42,232.56c-.83.66-1.66,1.35-2.75.46C86.54,232.55,87.33,231.68,88.42,232.56Z"/><path id="Trazado_398" data-name="Trazado 398" class="cls-38" d="M68.12,47.83c.55-.84,1-1.91,2.46-1.24-.5,1.24-1.58,1.06-2.51,1.19Z"/><path id="Trazado_399" data-name="Trazado 399" class="cls-39" d="M72.28,234.4a1.7,1.7,0,0,0,0,.39,4.19,4.19,0,0,1-2.76-.39c-.16-.09-.21-.18-.15-.26a.25.25,0,0,1,.18-.11Z"/><path id="Trazado_400" data-name="Trazado 400" class="cls-40" d="M64.52,233.09l-.54.47c-.95-.11-1.95-.07-2.59-1C62.51,232.27,63.47,233,64.52,233.09Z"/><path id="Trazado_401" data-name="Trazado 401" class="cls-41" d="M60.65,232.11c-1,.36-2.09.77-2-1Z"/><path id="Trazado_402" data-name="Trazado 402" class="cls-42" d="M26.89,175.66a.64.64,0,0,1,.41,0c-.33.75,1.13,2.27-1,2.25C26.1,177.09,26.72,176.43,26.89,175.66Z"/><path id="Trazado_403" data-name="Trazado 403" class="cls-43" d="M33.55,41.44l-.43,1a2.78,2.78,0,0,1-.22-2.72Z"/><path id="Trazado_404" data-name="Trazado 404" class="cls-44" d="M40.4,231.74l-1.42.43-1.7-.12c0-.88.55-.57,1-.47Z"/><path id="Trazado_405" data-name="Trazado 405" class="cls-45" d="M38.28,231.58l-1,.47a2.22,2.22,0,0,1-1.62-.34c.41-.06.84-.06,1.12-.44A2.09,2.09,0,0,1,38.28,231.58Z"/><path id="Trazado_406" data-name="Trazado 406" class="cls-46" d="M88.64,231.2c.5-.29.9,0,1.31.24a1.64,1.64,0,0,1-1.29.65Z"/><path id="Trazado_407" data-name="Trazado 407" class="cls-47" d="M69.56,234l0,.36-2.21-.12.47-.4Z"/><path id="Trazado_408" data-name="Trazado 408" class="cls-48" d="M78.42,38.56a1.7,1.7,0,0,1,0,1.79A1.49,1.49,0,0,1,78.42,38.56Z"/><path id="Trazado_409" data-name="Trazado 409" class="cls-18" d="M83.09,243.06l-.31,1.34a174,174,0,0,0-6.86,33c-1.24,10.15-2,20.33-2.51,30.54a50.63,50.63,0,0,0,1,12.64c.24,1.21.22,2.1-1,2.87a9.81,9.81,0,0,0-2.11,2.34c-1.09,1.35-2.26,2.59-4.2,1.92s-3.66-1.79-3.95-4.16c.76-2.41-.06-4.78-.21-7.17-.58-9.89-3.69-19.29-5.87-28.87-1.72-7.58-2.78-15.18-1.22-23,.84-4.16,3-7.74,4.87-11.43a25.31,25.31,0,0,0,3.13-8.94,10.7,10.7,0,0,0,0-2c-.23-2.74-.23-2.81,2.37-2.28,5.47,1.11,11,1,16.52.93C83.17,241.54,81.56,242.51,83.09,243.06Z"/><path id="Trazado_410" data-name="Trazado 410" class="cls-1" d="M60.46,322.24c2-.44,1.09,1.66,1.9,2.25a7.27,7.27,0,0,0,3.44,4.05c2.19,1.3,4.73,1.13,6-1.08,3.21-5.35,8.43-4,12-.24a87.24,87.24,0,0,0,15.52,13.24,31.47,31.47,0,0,1,4.72,3.14c1,.92,1.72,2,1.35,3.39s-1.56,1.86-2.86,2.24c-7.25,2.1-14.23.29-21.19-1.49-5.48-1.41-10.88-3.15-16.36-4.61a6.56,6.56,0,0,1-4.92-4.82A25.89,25.89,0,0,1,60.46,322.24Z"/><path id="Trazado_411" data-name="Trazado 411" class="cls-20" d="M68.16,349.14l-1.78-.54-1.86-.79c-3-1.76-3.4-2.21-3.88-4.83a204.13,204.13,0,0,0,25.85,7.6,44.66,44.66,0,0,0,12.4,1.26c3.12-.16,6.07-1,8.11-3.72.54,2.45.1,3.38-2.11,4.3-.83.34-1.72.55-2.59.82-9.12,1.6-18,.55-26.9-1.89-.62-.17-1.51-.77-2.23,0-.34-1.58-1.7-1.14-2.72-1.37A4,4,0,0,0,68.16,349.14Z"/><path id="Trazado_412" data-name="Trazado 412" class="cls-1" d="M7.32,331.38c8.6-3.32,10.48-2.41,14.66,5.91a58.73,58.73,0,0,1,5.09,14.45c.75,3.53.53,3.82-3,4.4-6.21,1-12.33,1-18.33-1.28a4.46,4.46,0,0,1-3.13-3.95C1.9,346.07,3,341.42,4,336.77c.35-1.61,0-3.58,1.88-4.57A1.78,1.78,0,0,1,7.32,331.38Z"/><path id="Trazado_413" data-name="Trazado 413" class="cls-19" d="M30,358.62c-5.64,3.92-11.95,3.81-18.34,3a28.83,28.83,0,0,1-7.4-2.09c-3.08-1.28-3.17-1.41-2.94-4.64,9.07,5.05,18.56,4.95,28.28,2C30.76,357.23,30.15,358,30,358.62Z"/><path id="Trazado_414" data-name="Trazado 414" class="cls-49" d="M20.86,331.56c-1.68-1.48-2-3.61-3.56-4.91a1.25,1.25,0,0,1,0-1.66c.55-.44,1.13.11,1.53.53C20.43,327.16,20.36,329.33,20.86,331.56Z"/><path id="Trazado_415" data-name="Trazado 415" class="cls-50" d="M6.78,328.6c-.18.72-.56,1.42-.07,2.16-.12.44-.3.78-.86.62-1.09-1.29.33-2.16.54-3.23C6.77,328.09,7,328.13,6.78,328.6Z"/><path id="Trazado_416" data-name="Trazado 416" class="cls-51" d="M6.78,328.6l-.39-.45a3.12,3.12,0,0,1,1.12-1.87l.76.12Z"/><path id="Trazado_417" data-name="Trazado 417" class="cls-52" d="M30,358.62c-.11-.58.31-1.28-.4-1.72l-.06-1.44c.15-.22.31-.22.47,0C30.06,356.51,31,357.57,30,358.62Z"/><path id="Trazado_418" data-name="Trazado 418" class="cls-53" d="M30,355.44h-.47l-.27-2.59C30.31,353.78,29.84,354.71,30,355.44Z"/><path id="Trazado_419" data-name="Trazado 419" class="cls-54" d="M5.85,331.38l.86-.62.61.62a2.28,2.28,0,0,1-1.46.82Z"/><path id="Trazado_420" data-name="Trazado 420" class="cls-55" d="M27.72,104.69a3.59,3.59,0,0,1,.75-1.9.42.42,0,0,1,.59,0l0,0a6.29,6.29,0,0,1-.87,2.83C28.1,105.33,28.16,104.88,27.72,104.69Z"/><path id="Trazado_421" data-name="Trazado 421" class="cls-56" d="M19.5,178.47a3.64,3.64,0,0,1-3.68-.08Z"/><path id="Trazado_422" data-name="Trazado 422" class="cls-57" d="M13.58,177.11a4.79,4.79,0,0,1,2.4.32l-2.42.07A1.7,1.7,0,0,0,13.58,177.11Z"/><path id="Trazado_423" data-name="Trazado 423" class="cls-58" d="M29.09,102.86l-.62-.07a3.21,3.21,0,0,1,1.62-2.46C29.63,101.44,29.69,102.25,29.09,102.86Z"/><path id="Trazado_424" data-name="Trazado 424" class="cls-17" d="M72.72,86.52l.53-.48a62.37,62.37,0,0,0,9.85.44c.87,0,1.88-.24,2.18,1a16.07,16.07,0,0,0,.58,2.65c.51,2.67,1.06,5.34,1.37,8a11.86,11.86,0,0,1-2.9,9.47c-1.18,1.35-2.42,1.65-4,.53s-3.19-2.28-4.71-3.55a5.8,5.8,0,0,1-2.17-5.43c.41-3.58-.26-7.06-.75-10.57C72.89,87.93,72.29,87.23,72.72,86.52Z"/><path id="Trazado_425" data-name="Trazado 425" class="cls-2" d="M73.08,88.32a41.4,41.4,0,0,1,1,11.69,4.52,4.52,0,0,0,1.86,4.1,41.55,41.55,0,0,1,4.47,3.45c1.59,1.59,2.51.79,3.62-.48,3.06-3.49,2.94-7.57,2.23-11.77-.29-1.71-.54-3.42-.81-5.13-.11-.68-.69-1.48.43-1.87A73.3,73.3,0,0,1,88,97.78a12.5,12.5,0,0,1-3.74,11.36c-1.08,1-2,1.38-3.31.3-1.92-1.59-4-3-5.94-4.51a5.14,5.14,0,0,1-2.14-4.75c.33-3.33-.25-6.63-.21-9.94C72.6,89.55,72,88.77,73.08,88.32Z"/><path id="Trazado_426" data-name="Trazado 426" class="cls-59" d="M85.09,87.82c0-1.23-1-.88-1.66-.89a66.88,66.88,0,0,1-9.06-.42c-.4-.06-.94.15-1.12-.47,3.52-.08,7-.14,10.55-.25,1.07,0,2-.07,1.75,1.46C85.74,87.71,85.53,87.86,85.09,87.82Z"/><path id="Trazado_427" data-name="Trazado 427" class="cls-60" d="M76.86,168a1.22,1.22,0,0,1-1.19-1.27v-.08a1.27,1.27,0,0,1,1.25-1.29l.25,0a1.2,1.2,0,0,1,1.09,1.3c0,.05,0,.1,0,.15A1.27,1.27,0,0,1,76.88,168Z"/><path id="Trazado_428" data-name="Trazado 428" class="cls-61" d="M74.73,133.79a1.38,1.38,0,0,1,1,1.66v.05c-.08.69-.48,1.48-1.2,1.31s-1.07-1.13-1-2a1.09,1.09,0,0,1,1.09-1.06Z"/><path id="Trazado_429" data-name="Trazado 429" class="cls-62" d="M69.29,104.19c.74.1,1.07.54,1,1.09s-.35,1.21-1.12,1.14a1,1,0,0,1-1-1.09,1.09,1.09,0,0,1,1-1.14Z"/><path id="Trazado_430" data-name="Trazado 430" class="cls-63" d="M72.73,120a1.06,1.06,0,0,1-1,1,1.07,1.07,0,0,1-1.19-1,.41.41,0,0,1,0-.11,1,1,0,0,1,.94-1h0C72.25,118.84,72.58,119.34,72.73,120Z"/><path id="Trazado_431" data-name="Trazado 431" class="cls-64" d="M67.13,91.71c-.52,0-.76-.36-.86-.92a1,1,0,0,1,.88-1.26c.67-.09,1.17.15,1.17.94S67.93,91.54,67.13,91.71Z"/><path id="Trazado_432" data-name="Trazado 432" class="cls-63" d="M77,152.71c-.12.5-.19,1.1-.89,1.08a1,1,0,0,1-.93-1v-.07a1,1,0,0,1,.94-1.07h0C76.75,151.63,76.92,152.14,77,152.71Z"/><path id="Trazado_433" data-name="Trazado 433" class="cls-65" d="M65.15,77.28c-.05.49-.28.87-.79.91s-.92-.41-1-1,.28-.8.79-.84S65.1,76.67,65.15,77.28Z"/><path id="Trazado_434" data-name="Trazado 434" class="cls-66" d="M73.08,88.32c-.53.55-.22,1.29-.4,1.92-.24-1.25-.91-2.49,0-3.72Z"/><path id="Trazado_435" data-name="Trazado 435" class="cls-67" d="M85.09,87.82l.46-.57a1.05,1.05,0,0,1,.32,1.07c-.63.51-.22,1.26-.43,1.86A3.52,3.52,0,0,1,85.09,87.82Z"/><path id="Trazado_436" data-name="Trazado 436" class="cls-4" d="M67.74,39.71l-2.29,0c-.47-.24-1-.46-1.4-.73s-1.28-.77-.73-1.56,1.06-.17,1.57.14c1,.61,2.1,1.41,3,.28s-.09-2.19-1-3a3,3,0,0,1-.27-.64,2.29,2.29,0,0,1,2.78,1.6A3.07,3.07,0,0,1,67.74,39.71Z"/><path id="Trazado_437" data-name="Trazado 437" class="cls-64" d="M74.14,31.89C74,33,74,34.3,72.7,34.37,71.24,34.44,71.06,33,71,31.9s.18-2.58,1.56-2.58S74,30.77,74.14,31.89Z"/><path id="Trazado_438" data-name="Trazado 438" class="cls-2" d="M60.11,31.72C60,33,60,34.32,58.68,34.36c-1.5,0-1.54-1.42-1.56-2.54s.12-2.45,1.4-2.49C60,29.28,60,30.76,60.11,31.72Z"/><path id="Trazado_439" data-name="Trazado 439" class="cls-64" d="M53.36,27a6.8,6.8,0,0,1,5.93-3.42c.64,0,1.29.13,1.36.88s-.57,1-1.21,1C57.26,25.41,55.36,26.26,53.36,27Z"/><path id="Trazado_440" data-name="Trazado 440" class="cls-4" d="M36.18,36.31c2.41-.72,5.48.39,6.47,2.18.15.27.28.51.1.82a.5.5,0,0,1-.67.23l-.1-.06c-1-.58-1.91-1.17-2.86-1.77S37,37.4,36.18,36.31Z"/><path id="Trazado_441" data-name="Trazado 441" class="cls-60" d="M32,17.9a3.76,3.76,0,0,1,4,1.15.78.78,0,0,1,.14,1.1.39.39,0,0,1-.08.1c-.34.33-.71.16-1-.07C34.16,19.48,33,19.12,32,17.9Z"/><path id="Trazado_442" data-name="Trazado 442" class="cls-65" d="M35.7,12.82c1.24.48,2.5.93,3.72,1.46.49.22.91.66.49,1.26s-.84.26-1.21,0c-1.12-.71-2.21-1.48-3.31-2.22Z"/><path id="Trazado_443" data-name="Trazado 443" class="cls-68" d="M43.51,10.92c-2.11-.32-2.43-.48-5.06-2.39C40.56,9.07,42.2,9.07,43.51,10.92Z"/><path id="Trazado_444" data-name="Trazado 444" class="cls-67" d="M43.58,5.49c1.8-.23,2.74.1,3.43,1,.06.08-.13.52-.23.53C45.58,7.18,45,6.23,43.58,5.49Z"/><path id="Trazado_445" data-name="Trazado 445" class="cls-69" d="M49.22,3.88a1.89,1.89,0,0,1,2.51.82C50.37,5.41,50,4,49.22,3.88Z"/></svg>