<svg xmlns="http://www.w3.org/2000/svg" xmlns:xlink="http://www.w3.org/1999/xlink" xml:space="preserve" version="1.1" style="shape-rendering:geometricPrecision;text-rendering:geometricPrecision;image-rendering:optimizeQuality;" viewBox="0 0 370 462.5" x="0px" y="0px" fill-rule="evenodd" clip-rule="evenodd"><defs><style type="text/css">
   
    .fil0 {fill:black;fill-rule:nonzero}
   
  </style></defs><g><path class="fil0" d="M185 79c37,0 68,30 68,68 0,37 -31,67 -68,67 -38,0 -68,-30 -68,-67 0,-38 30,-68 68,-68zm0 18c-27,0 -49,22 -49,50 0,27 22,49 49,49 27,0 49,-22 49,-49 0,-28 -22,-50 -49,-50z"/><path class="fil0" d="M185 0c102,0 185,83 185,185 0,102 -83,185 -185,185 -102,0 -185,-83 -185,-185 0,-102 83,-185 185,-185zm-126 294c5,-33 33,-58 67,-58l117 0c35,0 63,25 68,58 25,-29 40,-67 40,-109 0,-92 -74,-167 -166,-167 -92,0 -167,75 -167,167 0,42 16,80 41,109zm234 18l0 -9c0,-27 -22,-49 -50,-49l-117 0c-27,0 -49,22 -49,49l0 9c29,24 67,39 108,39 41,0 79,-15 108,-39z"/></g></svg>